/* XPM */
static char *_e1703609644[] = {
/* columns rows colors chars-per-pixel */
"128 128 8 1 ",
"  c #1D191B",
". c #241F21",
"X c #272325",
"o c #2A2628",
"O c #322E30",
"+ c #4B692F",
"@ c #6ABE30",
"# c #99E550",
/* pixels */
"....ooooooooooooooooooXXXXXXXXXX....ooXXXXXXXXXXXXXXXXoooooooo......ooooooooooooooooooXXXXXXXXXX....ooXXXXXXXXXXXXXXXXoooooooo..",
"....ooooooooooooooooooXXXXXXXXXX....ooXXXXXXXXXXXXXXXXoooooooo......ooooooooooooooooooXXXXXXXXXX....ooXXXXXXXXXXXXXXXXoooooooo..",
"..XXooXXooooooooooooXXXXXXXXXXXX..ooooooooooXXXXXXoooooooooooooo..XXooXXooooooooooooXXXXXXXXXXXX..ooooooooooXXXXXXoooooooooooooo",
"..XXooXXooooooooooooXXXXXXXXXXXX..ooooooooooXXXXXXoooooooooooooo..XXooXXooooooooooooXXXXXXXXXXXX..ooooooooooXXXXXXoooooooooooooo",
"..ooooXXXXooooooooooooooooooooXX..ooooooooooXXXXXXoooooooooooooo..ooooXXXXooooooooooooooooooooXX..ooooooooooXXXXXXoooooooooooooo",
"..ooooXXXXooooooooooooooooooooXX..ooooooooooXXXXXXoooooooooooooo..ooooXXXXooooooooooooooooooooXX..ooooooooooXXXXXXoooooooooooooo",
"..ooooooXXXXooooooooooooooooooXX..ooooooooooooXXXXXXoooooooooooo..ooooooXXXXooooooooooooooooooXX..ooooooooooooXXXXXXoooooooooooo",
"..ooooooXXXXooooooooooooooooooXX..ooooooooooooXXXXXXoooooooooooo..ooooooXXXXooooooooooooooooooXX..ooooooooooooXXXXXXoooooooooooo",
"..ooooXXXXooooooooooooooooooXXXX..ooooooooooooooooXXoooooooooooo..ooooXXXXooooooooooooooooooXXXX..ooooooooooooooooXXoooooooooooo",
"..ooooXXXXooooooooooooooooooXXXX..ooooooooooooooooXXoooooooooooo..ooooXXXXooooooooooooooooooXXXX..ooooooooooooooooXXoooooooooooo",
"..oooooooooooooooooooooooooooooo..oooooooooooooooooooooooooooooo..oooooooooooooooooooooooooooooo..oooooooooooooooooooooooooooooo",
"..oooooooooooooooooooooooooooooo..oooooooooooooooooooooooooooooo..oooooooooooooooooooooooooooooo..oooooooooooooooooooooooooooooo",
"  oooooooooooooooooooooooooooooo  OOooXXoooooooooooooooooooooooo  oooooooooooooooooooooooooooooo  OOooXXoooooooooooooooooooooooo",
"  oooooooooooooooooooooooooooooo  OOooXXoooooooooooooooooooooooo  oooooooooooooooooooooooooooooo  OOooXXoooooooooooooooooooooooo",
"  ooooooooooooooXXoooooooooooooo  OOooXXXXoooooooooooooooooooooo  ooooooooooooooXXoooooooooooooo  OOooXXXXoooooooooooooooooooooo",
"  ooooooooooooooXXoooooooooooooo  OOooXXXXoooooooooooooooooooooo  ooooooooooooooXXoooooooooooooo  OOooXXXXoooooooooooooooooooooo",
"  ooooooooooooXXXXoooooooooooooo  OOooXXXXXXooooooooooooooooooOO  ooooooooooooXXXXoooooooooooooo  OOooXXXXXXooooooooooooooooooOO",
"  ooooooooooooXXXXoooooooooooooo  OOooXXXXXXooooooooooooooooooOO  ooooooooooooXXXXoooooooooooooo  OOooXXXXXXooooooooooooooooooOO",
"  OOooooooooXXXXoooooooooooooooo  OOooooXXooooooooooXXooooooooOO  OOooooooooXXXXoooooooooooooooo  OOooooXXooooooooooXXooooooooOO",
"  OOooooooooXXXXoooooooooooooooo  OOooooXXooooooooooXXooooooooOO  OOooooooooXXXXoooooooooooooooo  OOooooXXooooooooooXXooooooooOO",
"  OOooooooXXXXooooooXXXXXXoooooo  OOooooooooooooooXXXXXXooooooOO  OOooooooXXXXooooooXXXXXXoooooo  OOooooooooooooooXXXXXXooooooOO",
"  OOooooooXXXXooooooXXXXXXoooooo  OOooooooooooooooXXXXXXooooooOO  OOooooooXXXXooooooXXXXXXoooooo  OOooooooooooooooXXXXXXooooooOO",
"  OOooooooooooooooooooXXXXXXoooo  OOooooooooooooXXXXXXooooooooOO  OOooooooooooooooooooXXXXXXoooo  OOooooooooooooXXXXXXooooooooOO",
"  OOooooooooooooooooooXXXXXXoooo  OOooooooooooooXXXXXXooooooooOO  OOooooooooooooooooooXXXXXXoooo  OOooooooooooooXXXXXXooooooooOO",
"  OOooooooooooooooooooooXXXXooOO  OOooooooooooooooooooooooooooOO  OOooooooooooooooooooooXXXXooOO  OOooooooooooooooooooooooooooOO",
"  OOooooooooooooooooooooXXXXooOO  OOooooooooooooooooooooooooooOO  OOooooooooooooooooooooXXXXooOO  OOooooooooooooooooooooooooooOO",
"  OOOOooooooooooooooooooooooooOO  OOOOOOOOooooooooooooooooooooOO  OOOOooooooooooooooooooooooooOO  OOOOOOOOooooooooooooooooooooOO",
"  OOOOooooooooooooooooooooooooOO  OOOOOOOOooooooooooooooooooooOO  OOOOooooooooooooooooooooooooOO  OOOOOOOOooooooooooooooooooooOO",
"  ....OOOOOOOOOOOOOOOOOOOOOOOOOO  XXXXXXXXOOOOOOOOOOOOOOOOOOOOOO  ....OOOOOOOOOOOOOOOOOOOOOOOOOO  XXXXXXXXOOOOOOOOOOOOOOOOOOOOOO",
"  ....OOOOOOOOOOOOOOOOOOOOOOOOOO  XXXXXXXXOOOOOOOOOOOOOOOOOOOOOO  ....OOOOOOOOOOOOOOOOOOOOOOOOOO  XXXXXXXXOOOOOOOOOOOOOOOOOOOOOO",
"                        ......................                                          ......................                  ",
"                        ......................                                          ......................                  ",
"  XXXXXXXXXXoooooooooooooooooo..  ..ooXXXXXXoooooooooooooooooooo  XXXXXXXXXXoooooooooooooooooo..  ..ooXXXXXXoooooooooooooooooooo",
"  XXXXXXXXXXoooooooooooooooooo..  ..ooXXXXXXoooooooooooooooooooo  XXXXXXXXXXoooooooooooooooooo..  ..ooXXXXXXoooooooooooooooooooo",
"  XXXXooooooooooooooooooXXXXXXoo  ooXXXXXXXXooooooooooooooXXXXoo  XXXXooooooooooooooooooXXXXXXoo  ooXXXXXXXXooooooooooooooXXXXoo",
"  XXXXooooooooooooooooooXXXXXXoo  ooXXXXXXXXooooooooooooooXXXXoo  XXXXooooooooooooooooooXXXXXXoo  ooXXXXXXXXooooooooooooooXXXXoo",
"  XXXXooooooooooooooooXXXXXXXXoo..ooooooooooooooooooooooXXXXXXXX  XXXXooooooooooooooooXXXXXXXXoo..ooooooooooooooooooooooXXXXXXXX",
"  XXXXooooooooooooooooXXXXXXXXoo..ooooooooooooooooooooooXXXXXXXX  XXXXooooooooooooooooXXXXXXXXoo..ooooooooooooooooooooooXXXXXXXX",
"  XXooooooooooooooooooXXXXXXooOO..ooooooooooooooooooooooooooXXXX  XXooooooooooooooooooXXXXXXooOO..ooooooooooooooooooooooooooXXXX",
"  XXooooooooooooooooooXXXXXXooOO..ooooooooooooooooooooooooooXXXX  XXooooooooooooooooooXXXXXXooOO..ooooooooooooooooooooooooooXXXX",
"..ooooooooooooooooooooXXooooooOO..oooooooooooooooooooooooooooooo..ooooooooooooooooooooXXooooooOO..oooooooooooooooooooooooooooooo",
"..ooooooooooooooooooooXXooooooOO..oooooooooooooooooooooooooooooo..ooooooooooooooooooooXXooooooOO..oooooooooooooooooooooooooooooo",
"..ooooooooooooooooooooooooooooOO..ooooXXXXXXoooooooooooooooooooo..ooooooooooooooooooooooooooooOO..ooooXXXXXXoooooooooooooooooooo",
"..ooooooooooooooooooooooooooooOO..ooooXXXXXXoooooooooooooooooooo..ooooooooooooooooooooooooooooOO..ooooXXXXXXoooooooooooooooooooo",
"..ooooooooooooooooooooooooooooOO  ooXXXXXXoooooooooooooooooooooo..ooooooooooooooooooooooooooooOO  ooXXXXXXoooooooooooooooooooooo",
"..ooooooooooooooooooooooooooooOO  ooXXXXXXoooooooooooooooooooooo..ooooooooooooooooooooooooooooOO  ooXXXXXXoooooooooooooooooooooo",
"..ooooXXooooooooooooooooooooooOO  ooXXXXoooooooooooooooooooooooo..ooooXXooooooooooooooooooooooOO  ooXXXXoooooooooooooooooooooooo",
"..ooooXXooooooooooooooooooooooOO  ooXXXXoooooooooooooooooooooooo..ooooXXooooooooooooooooooooooOO  ooXXXXoooooooooooooooooooooooo",
"..OOooooXXooooooooooooooooooooOO  ooooooooooooooooooooooooXXXXoo..OOooooXXooooooooooooooooooooOO  ooooooooooooooooooooooooXXXXoo",
"..OOooooXXooooooooooooooooooooOO  ooooooooooooooooooooooooXXXXoo..OOooooXXooooooooooooooooooooOO  ooooooooooooooooooooooooXXXXoo",
"  OOooooooooooooooooXXXXXXooooOO  ooooooooooooooooooooooooXXoooo  OOooooooooooooooooXXXXXXooooOO  ooooooooooooooooooooooooXXoooo",
"  OOooooooooooooooooXXXXXXooooOO  ooooooooooooooooooooooooXXoooo  OOooooooooooooooooXXXXXXooooOO  ooooooooooooooooooooooooXXoooo",
"  OOooooooooooooooooXXXXXXooooOO  OOooooooooXXXXooooooooXXXXoooo  OOooooooooooooooooXXXXXXooooOO  OOoooooo####XXooooooooXXXXoooo",
"  OOooooooooooooooooXXXXXXooooOO  OOooooooooXXXXooooooooXXXXoooo  OOooooooooooooooooXXXXXXooooOO  OOoooooo####XXooooooooXXXXoooo",
"  OOooooooooooooooooooXXXXXXooOO  OOooooooXXooXXoooooooooooooooo  OOooooooooooooooooooXXXXXXooOO  OOoooooo@@@@####oooooooooooooo",
"  OOooooooooooooooooooXXXXXXooOO  OOooooooXXooXXoooooooooooooooo  OOooooooooooooooooooXXXXXXooOO  OOoooooo@@@@####oooooooooooooo",
"  OOooooooooooooooooooooooooooOO..OOooooXXXXXXooooooooooooooooOO  OOooooooooooooooooooooooooooOO..OOooooXX@@@@@@@@####ooooooooOO",
"  OOooooooooooooooooooooooooooOO..OOooooXXXXXXooooooooooooooooOO  OOooooooooooooooooooooooooooOO..OOooooXX@@@@@@@@####ooooooooOO",
"  OOooooooooooooOOOOOOOOOOOOOOOO..OOooooooooooooooooooooooooooOO  OOooooooooooooOOOOOOOOOO################@@@@@@@@@@@@####ooooOO",
"  OOooooooooooooOOOOOOOOOOOOOOOO..OOooooooooooooooooooooooooooOO  OOooooooooooooOOOOOOOOOO################@@@@@@@@@@@@####ooooOO",
"  OOOOOOOOOOOOOOXXXXXXXXXXXXXXXX....OOOOOOOOOOOOOOOOOOOOOOOOOOoo  OOOOOOOOOOOOOOXXXXXXXXXX@@@@@@@@@@@@@@@@@@@@@@@@@@@@@@@@##OOoo",
"  OOOOOOOOOOOOOOXXXXXXXXXXXXXXXX....OOOOOOOOOOOOOOOOOOOOOOOOOOoo  OOOOOOOOOOOOOOXXXXXXXXXX@@@@@@@@@@@@@@@@@@@@@@@@@@@@@@@@##OOoo",
"                        ..................                                              ..@@@@@@@@@@@@@@@@@@@@@@@@@@@@@@@@++    ",
"                        ..................                                              ..@@@@@@@@@@@@@@@@@@@@@@@@@@@@@@@@++    ",
"....ooooooooooooooooooXXXXXXXXXX....ooXXXXXXXXXXXXXXXXoooooooo......ooooooooooooooooooXXXX++++++++++++++++@@@@@@@@@@@@++++oooo..",
"....ooooooooooooooooooXXXXXXXXXX....ooXXXXXXXXXXXXXXXXoooooooo......ooooooooooooooooooXXXX++++++++++++++++@@@@@@@@@@@@++++oooo..",
"..XXooXXooooooooooooXXXXXXXXXXXX..ooooooooooXXXXXXoooooooooooooo..XXooXXooooooooooooXXXXXXXXXXXX..oooooooo@@@@@@@@++++oooooooooo",
"..XXooXXooooooooooooXXXXXXXXXXXX..ooooooooooXXXXXXoooooooooooooo..XXooXXooooooooooooXXXXXXXXXXXX..oooooooo@@@@@@@@++++oooooooooo",
"..ooooXXXXooooooooooooooooooooXX..ooooooooooXXXXXXoooooooooooooo..ooooXXXXooooooooooooooooooooXX..oooooooo@@@@++++oooooooooooooo",
"..ooooXXXXooooooooooooooooooooXX..ooooooooooXXXXXXoooooooooooooo..ooooXXXXooooooooooooooooooooXX..oooooooo@@@@++++oooooooooooooo",
"..ooooooXXXXooooooooooooooooooXX..ooooooooooooXXXXXXoooooooooooo..ooooooXXXXooooooooooooooooooXX..oooooooo++++XXXXXXoooooooooooo",
"..ooooooXXXXooooooooooooooooooXX..ooooooooooooXXXXXXoooooooooooo..ooooooXXXXooooooooooooooooooXX..oooooooo++++XXXXXXoooooooooooo",
"..ooooXXXXooooooooooooooooooXXXX..ooooooooooooooooXXoooooooooooo..ooooXXXXooooooooooooooooooXXXX..ooooooooooooooooXXoooooooooooo",
"..ooooXXXXooooooooooooooooooXXXX..ooooooooooooooooXXoooooooooooo..ooooXXXXooooooooooooooooooXXXX..ooooooooooooooooXXoooooooooooo",
"..oooooooooooooooooooooooooooooo..oooooooooooooooooooooooooooooo..oooooooooooooooooooooooooooooo..oooooooooooooooooooooooooooooo",
"..oooooooooooooooooooooooooooooo..oooooooooooooooooooooooooooooo..oooooooooooooooooooooooooooooo..oooooooooooooooooooooooooooooo",
"  oooooooooooooooooooooooooooooo  OOooXXoooooooooooooooooooooooo  oooooooooooooooooooooooooooooo  OOooXXoooooooooooooooooooooooo",
"  oooooooooooooooooooooooooooooo  OOooXXoooooooooooooooooooooooo  oooooooooooooooooooooooooooooo  OOooXXoooooooooooooooooooooooo",
"  ooooooooooooooXXoooooooooooooo  OOooXXXXoooooooooooooooooooooo  ooooooooooooooXXoooooooooooooo  OOooXXXXoooooooooooooooooooooo",
"  ooooooooooooooXXoooooooooooooo  OOooXXXXoooooooooooooooooooooo  ooooooooooooooXXoooooooooooooo  OOooXXXXoooooooooooooooooooooo",
"  ooooooooooooXXXXoooooooooooooo  OOooXXXXXXooooooooooooooooooOO  ooooooooooooXXXXoooooooooooooo  OOooXXXXXXooooooooooooooooooOO",
"  ooooooooooooXXXXoooooooooooooo  OOooXXXXXXooooooooooooooooooOO  ooooooooooooXXXXoooooooooooooo  OOooXXXXXXooooooooooooooooooOO",
"  OOooooooooXXXXoooooooooooooooo  OOooooXXooooooooooXXooooooooOO  OOooooooooXXXXoooooooooooooooo  OOooooXXooooooooooXXooooooooOO",
"  OOooooooooXXXXoooooooooooooooo  OOooooXXooooooooooXXooooooooOO  OOooooooooXXXXoooooooooooooooo  OOooooXXooooooooooXXooooooooOO",
"  OOooooooXXXXooooooXXXXXXoooooo  OOooooooooooooooXXXXXXooooooOO  OOooooooXXXXooooooXXXXXXoooooo  OOooooooooooooooXXXXXXooooooOO",
"  OOooooooXXXXooooooXXXXXXoooooo  OOooooooooooooooXXXXXXooooooOO  OOooooooXXXXooooooXXXXXXoooooo  OOooooooooooooooXXXXXXooooooOO",
"  OOooooooooooooooooooXXXXXXoooo  OOooooooooooooXXXXXXooooooooOO  OOooooooooooooooooooXXXXXXoooo  OOooooooooooooXXXXXXooooooooOO",
"  OOooooooooooooooooooXXXXXXoooo  OOooooooooooooXXXXXXooooooooOO  OOooooooooooooooooooXXXXXXoooo  OOooooooooooooXXXXXXooooooooOO",
"  OOooooooooooooooooooooXXXXooOO  OOooooooooooooooooooooooooooOO  OOooooooooooooooooooooXXXXooOO  OOooooooooooooooooooooooooooOO",
"  OOooooooooooooooooooooXXXXooOO  OOooooooooooooooooooooooooooOO  OOooooooooooooooooooooXXXXooOO  OOooooooooooooooooooooooooooOO",
"  OOOOooooooooooooooooooooooooOO  OOOOOOOOooooooooooooooooooooOO  OOOOooooooooooooooooooooooooOO  OOOOOOOOooooooooooooooooooooOO",
"  OOOOooooooooooooooooooooooooOO  OOOOOOOOooooooooooooooooooooOO  OOOOooooooooooooooooooooooooOO  OOOOOOOOooooooooooooooooooooOO",
"  ....OOOOOOOOOOOOOOOOOOOOOOOOOO  XXXXXXXXOOOOOOOOOOOOOOOOOOOOOO  ....OOOOOOOOOOOOOOOOOOOOOOOOOO  XXXXXXXXOOOOOOOOOOOOOOOOOOOOOO",
"  ....OOOOOOOOOOOOOOOOOOOOOOOOOO  XXXXXXXXOOOOOOOOOOOOOOOOOOOOOO  ....OOOOOOOOOOOOOOOOOOOOOOOOOO  XXXXXXXXOOOOOOOOOOOOOOOOOOOOOO",
"                        ......................                                          ......................                  ",
"                        ......................                                          ......................                  ",
"  XXXXXXXXXXoooooooooooooooooo..  ..ooXXXXXXoooooooooooooooooooo  XXXXXXXXXXoooooooooooooooooo..  ..ooXXXXXXoooooooooooooooooooo",
"  XXXXXXXXXXoooooooooooooooooo..  ..ooXXXXXXoooooooooooooooooooo  XXXXXXXXXXoooooooooooooooooo..  ..ooXXXXXXoooooooooooooooooooo",
"  XXXXooooooooooooooooooXXXXXXoo  ooXXXXXXXXooooooooooooooXXXXoo  XXXXooooooooooooooooooXXXXXXoo  ooXXXXXXXXooooooooooooooXXXXoo",
"  XXXXooooooooooooooooooXXXXXXoo  ooXXXXXXXXooooooooooooooXXXXoo  XXXXooooooooooooooooooXXXXXXoo  ooXXXXXXXXooooooooooooooXXXXoo",
"  XXXXooooooooooooooooXXXXXXXXoo..ooooooooooooooooooooooXXXXXXXX  XXXXooooooooooooooooXXXXXXXXoo..ooooooooooooooooooooooXXXXXXXX",
"  XXXXooooooooooooooooXXXXXXXXoo..ooooooooooooooooooooooXXXXXXXX  XXXXooooooooooooooooXXXXXXXXoo..ooooooooooooooooooooooXXXXXXXX",
"  XXooooooooooooooooooXXXXXXooOO..ooooooooooooooooooooooooooXXXX  XXooooooooooooooooooXXXXXXooOO..ooooooooooooooooooooooooooXXXX",
"  XXooooooooooooooooooXXXXXXooOO..ooooooooooooooooooooooooooXXXX  XXooooooooooooooooooXXXXXXooOO..ooooooooooooooooooooooooooXXXX",
"..ooooooooooooooooooooXXooooooOO..oooooooooooooooooooooooooooooo..ooooooooooooooooooooXXooooooOO..oooooooooooooooooooooooooooooo",
"..ooooooooooooooooooooXXooooooOO..oooooooooooooooooooooooooooooo..ooooooooooooooooooooXXooooooOO..oooooooooooooooooooooooooooooo",
"..ooooooooooooooooooooooooooooOO..ooooXXXXXXoooooooooooooooooooo..ooooooooooooooooooooooooooooOO..ooooXXXXXXoooooooooooooooooooo",
"..ooooooooooooooooooooooooooooOO..ooooXXXXXXoooooooooooooooooooo..ooooooooooooooooooooooooooooOO..ooooXXXXXXoooooooooooooooooooo",
"..ooooooooooooooooooooooooooooOO  ooXXXXXXoooooooooooooooooooooo..ooooooooooooooooooooooooooooOO  ooXXXXXXoooooooooooooooooooooo",
"..ooooooooooooooooooooooooooooOO  ooXXXXXXoooooooooooooooooooooo..ooooooooooooooooooooooooooooOO  ooXXXXXXoooooooooooooooooooooo",
"..ooooXXooooooooooooooooooooooOO  ooXXXXoooooooooooooooooooooooo..ooooXXooooooooooooooooooooooOO  ooXXXXoooooooooooooooooooooooo",
"..ooooXXooooooooooooooooooooooOO  ooXXXXoooooooooooooooooooooooo..ooooXXooooooooooooooooooooooOO  ooXXXXoooooooooooooooooooooooo",
"..OOooooXXooooooooooooooooooooOO  ooooooooooooooooooooooooXXXXoo..OOooooXXooooooooooooooooooooOO  ooooooooooooooooooooooooXXXXoo",
"..OOooooXXooooooooooooooooooooOO  ooooooooooooooooooooooooXXXXoo..OOooooXXooooooooooooooooooooOO  ooooooooooooooooooooooooXXXXoo",
"  OOooooooooooooooooXXXXXXooooOO  ooooooooooooooooooooooooXXoooo  OOooooooooooooooooXXXXXXooooOO  ooooooooooooooooooooooooXXoooo",
"  OOooooooooooooooooXXXXXXooooOO  ooooooooooooooooooooooooXXoooo  OOooooooooooooooooXXXXXXooooOO  ooooooooooooooooooooooooXXoooo",
"  OOooooooooooooooooXXXXXXooooOO  OOooooooooXXXXooooooooXXXXoooo  OOooooooooooooooooXXXXXXooooOO  OOooooooooXXXXooooooooXXXXoooo",
"  OOooooooooooooooooXXXXXXooooOO  OOooooooooXXXXooooooooXXXXoooo  OOooooooooooooooooXXXXXXooooOO  OOooooooooXXXXooooooooXXXXoooo",
"  OOooooooooooooooooooXXXXXXooOO  OOooooooXXooXXoooooooooooooooo  OOooooooooooooooooooXXXXXXooOO  OOooooooXXooXXoooooooooooooooo",
"  OOooooooooooooooooooXXXXXXooOO  OOooooooXXooXXoooooooooooooooo  OOooooooooooooooooooXXXXXXooOO  OOooooooXXooXXoooooooooooooooo",
"  OOooooooooooooooooooooooooooOO..OOooooXXXXXXooooooooooooooooOO  OOooooooooooooooooooooooooooOO..OOooooXXXXXXooooooooooooooooOO",
"  OOooooooooooooooooooooooooooOO..OOooooXXXXXXooooooooooooooooOO  OOooooooooooooooooooooooooooOO..OOooooXXXXXXooooooooooooooooOO",
"  OOooooooooooooOOOOOOOOOOOOOOOO..OOooooooooooooooooooooooooooOO  OOooooooooooooOOOOOOOOOOOOOOOO..OOooooooooooooooooooooooooooOO",
"  OOooooooooooooOOOOOOOOOOOOOOOO..OOooooooooooooooooooooooooooOO  OOooooooooooooOOOOOOOOOOOOOOOO..OOooooooooooooooooooooooooooOO",
"  OOOOOOOOOOOOOOXXXXXXXXXXXXXXXX....OOOOOOOOOOOOOOOOOOOOOOOOOOoo  OOOOOOOOOOOOOOXXXXXXXXXXXXXXXX....OOOOOOOOOOOOOOOOOOOOOOOOOOoo",
"  OOOOOOOOOOOOOOXXXXXXXXXXXXXXXX....OOOOOOOOOOOOOOOOOOOOOOOOOOoo  OOOOOOOOOOOOOOXXXXXXXXXXXXXXXX....OOOOOOOOOOOOOOOOOOOOOOOOOOoo",
"                        ..................                                              ..................                      ",
"                        ..................                                              ..................                      "
};
