/* XPM */
static char *_41705062606[] = {
/* columns rows colors chars-per-pixel */
"128 128 8 1 ",
"  c 0",
". c #010101",
"X c #070707",
"o c #121110",
"O c #1B1916",
"+ c #2E2A25",
"@ c #3C3129",
"# c #454135",
/* pixels */
"                                                                                                                                ",
"                                                                                                                                ",
"                                                                                                                                ",
"                                                                                                                                ",
"                                                                                                                                ",
"                                                                                                                                ",
"                                                                                                                                ",
"                                                                                                                                ",
"                                                                                                                                ",
"                                                                                                                                ",
"                                                                                                                                ",
"                                                                                                                                ",
"                                                                                                                                ",
"                                                                                                                                ",
"                                                                                                                                ",
"                                                                                                                                ",
"                                                                                                                                ",
"                                                                                                                                ",
"                                                                                                                                ",
"                                                                                                                                ",
"                                                                                                                                ",
"                                                                                                                                ",
"                                                                                                                                ",
"                                                                                                                                ",
"                                                                                                                                ",
"                                                                                                                                ",
"                                                                                                                                ",
"                                                                                                                                ",
"                                                                                                                                ",
"                                                                                                                                ",
"                                                                                                                                ",
"                                                                                                                                ",
"                                                                                                                                ",
"                                                                                                                                ",
"                                                                                                                                ",
"                                                                                                                                ",
"                                                                                                                                ",
"                                                                                                                                ",
"                                                                                                                                ",
"                                                                                                                                ",
"                                                                                                                                ",
"                                                                                                                                ",
"                                                                                                                                ",
"                                                                                                                                ",
"                                                                                                                                ",
"                                                                                                                                ",
"                                                                                                                                ",
"                                                                                                                                ",
"                                                                                                                                ",
"                                                                                                                                ",
"                                                                                                                                ",
"                                                                                                                                ",
"                                                                                                                                ",
"                                                                                                                                ",
"                                                                                                                                ",
"                                                                                                                                ",
"                                                                                                                                ",
"                                                                                                                                ",
"                                                                                                                                ",
"                                                                                                                                ",
"                                                                                                                                ",
"                                                                                                                                ",
"                                                                                                                                ",
"                                                                                                                                ",
"                                                                                                                                ",
"                                                                                                                                ",
"                                                                                                                                ",
"                                                                                                                                ",
"                                                                                                                                ",
"                                                                                                                                ",
"                                                                                                                                ",
"                                                                                                                                ",
"                                                                                                                                ",
"                                                                                                                                ",
"                                                                                                                                ",
"                                                                                                                                ",
"                                                                                                                                ",
"                                                                                                                                ",
"                                                                                                                                ",
"                                                                                                                                ",
"OOOOOOOOOOOOOOOOOOOOOOOOOOOOOOOOOOOOOOOOOOOOOOOOOOOOOOOOOOOOOOOOOOOOOOOOOOOOOOOOOOOOOOOOOOOOOOOOOOOOOOOOOOOOOOOOOOOOOOOOOOOOOOOO",
"OOOOOOOOOOOOOOOOOOOOOOOOOOOOOOOOOOOOOOOOOOOOOOOOOOOOOOOOOOOOOOOOOOOOOOOOOOOOOOOOOOOOOOOOOOOOOOOOOOOOOOOOOOOOOOOOOOOOOOOOOOOOOOOO",
"##########@@@@@@@@@@##############OO######################################@@@@@@@@@@##############OO############################",
"##########@@@@@@@@@@##############OO######################################@@@@@@@@@@##############OO############################",
"++++++++++++++++++++++++++OOOO++@@OO@@++++++++++++++++++++++++@@++++++++++++++++++++++++++OOOO++@@OO@@++++++++++++++++++++++++@@",
"++++++++++++++++++++++++++OOOO++@@OO@@++++++++++++++++++++++++@@++++++++++++++++++++++++++OOOO++@@OO@@++++++++++++++++++++++++@@",
"++OOOO++++++++++++++++++++++++OO@@XX@@++++++++OOOO++++++++++OO++++OOOO++++++++++++++++++++++++OO@@XX@@++++++++OOOO++++++++++OO++",
"++OOOO++++++++++++++++++++++++OO@@XX@@++++++++OOOO++++++++++OO++++OOOO++++++++++++++++++++++++OO@@XX@@++++++++OOOO++++++++++OO++",
"++++OOOO++++++++++++++++++++++++++XX++++++++++++++++++++OOOO++++++++OOOO++++++++++++++++++++++++++XX++++++++++++++++++++OOOO++++",
"++++OOOO++++++++++++++++++++++++++XX++++++++++++++++++++OOOO++++++++OOOO++++++++++++++++++++++++++XX++++++++++++++++++++OOOO++++",
"++++++++++++++OOOO++++OO++++++++++XXOOOOOO++++++++++++++++++++++++++++++++++++OOOO++++OO++++++++++XXOOOOOO++++++++++++++++++++++",
"++++++++++++++OOOO++++OO++++++++++XXOOOOOO++++++++++++++++++++++++++++++++++++OOOO++++OO++++++++++XXOOOOOO++++++++++++++++++++++",
"OOOOOOOOOOOOOOOOOOOOOOOOOOOOOOOOOOXXOOOOOOOOOOOOOOOOOOOOOOOOOOOOOOOOOOOOOOOOOOOOOOOOOOOOOOOOOOOOOOXXOOOOOOOOOOOOOOOOOOOOOOOOOOOO",
"OOOOOOOOOOOOOOOOOOOOOOOOOOOOOOOOOOXXOOOOOOOOOOOOOOOOOOOOOOOOOOOOOOOOOOOOOOOOOOOOOOOOOOOOOOOOOOOOOOXXOOOOOOOOOOOOOOOOOOOOOOOOOOOO",
"ooooooooooooooooooooooooooooooooooXXooooooooooooooooooooooooooooooooooooooooooooooooooooooooooooooXXoooooooooooooooooooooooooooo",
"ooooooooooooooooooooooooooooooooooXXooooooooooooooooooooooooooooooooooooooooooooooooooooooooooooooXXoooooooooooooooooooooooooooo",
"ooooooooooooooooooooooooooooooooooXXooooooooooooooooooooooooooooooooooooooooooooooooooooooooooooooXXoooooooooooooooooooooooooooo",
"ooooooooooooooooooooooooooooooooooXXooooooooooooooooooooooooooooooooooooooooooooooooooooooooooooooXXoooooooooooooooooooooooooooo",
"XXXXXXXXXXXXXXXXXXXXXXXXXXXXXXXXXXXXXXXXXXXXXXXXXXXXXXXXXXXXXXXXXXXXXXXXXXXXXXXXXXXXXXXXXXXXXXXXXXXXXXXXXXXXXXXXXXXXXXXXXXXXXXXX",
"XXXXXXXXXXXXXXXXXXXXXXXXXXXXXXXXXXXXXXXXXXXXXXXXXXXXXXXXXXXXXXXXXXXXXXXXXXXXXXXXXXXXXXXXXXXXXXXXXXXXXXXXXXXXXXXXXXXXXXXXXXXXXXXX",
"................................................................................................................................",
"................................................................................................................................",
"................................................................................................................................",
"................................................................................................................................",
"................................................................................................................................",
"................................................................................................................................",
"................................................................................................................................",
"................................................................................................................................",
"................................................................................................................................",
"................................................................................................................................",
"................................................................................................................................",
"................................................................................................................................",
"................................................................................................................................",
"................................................................................................................................",
"................................................................................................................................",
"................................................................................................................................",
"................................................................................................................................",
"................................................................................................................................",
"................................................................................................................................",
"................................................................................................................................",
"................................................................................................................................",
"................................................................................................................................",
"................................................................................................................................",
"................................................................................................................................",
"................................................................................................................................",
"................................................................................................................................",
"................................................................................................................................",
"................................................................................................................................"
};
