/* XPM */
static char *_31703609642[] = {
/* columns rows colors chars-per-pixel */
"128 128 12 1 ",
"  c #070707",
". c #140E0E",
"X c #1A1512",
"o c #1B1916",
"O c #231F19",
"+ c #23201D",
"@ c #2E2A25",
"# c #312220",
"$ c #3C3129",
"% c #3F3628",
"& c #454135",
"* c #555145",
/* pixels */
"                                                                                                  oooo@@@@@@&&$$&&oo@@$$$$$$**oo",
"                                                                                                  oooo@@@@@@&&$$&&oo@@$$$$$$**oo",
"oooooooooooooooooooooo  oooooooooooooooooooooooooooo  oooooooooooooooooooooooooooooooooo  oooooooooo@@@@@@@@&&$$&&oo@@$$$$$$**oo",
"oooooooooooooooooooooo  oooooooooooooooooooooooooooo  oooooooooooooooooooooooooooooooooo  oooooooooo@@@@@@@@&&$$&&oo@@$$$$$$**oo",
"@@oooo@@@@oo@@@@@@@@@@  oooooo@@@@@@@@@@@@@@@@@@@@@@  @@@@@@@@oooo@@@@oo@@@@@@@@oo@@@@@@  oooo@@@@oo@@@@@@@@&&$$&&oo@@$$@@$$**oo",
"@@oooo@@@@oo@@@@@@@@@@  oooooo@@@@@@@@@@@@@@@@@@@@@@  @@@@@@@@oooo@@@@oo@@@@@@@@oo@@@@@@  oooo@@@@oo@@@@@@@@&&$$&&oo@@$$@@$$**oo",
"@@@@@@@@@@@@@@@@@@@@@@  @@@@@@@@@@@@@@@@@@@@oooo@@@@oo@@@@@@@@@@@@@@@@@@@@@@@@@@@@@@@@@@  @@@@@@@@@@@@@@@@@@&&$$**oo@@$$@@$$**oo",
"@@@@@@@@@@@@@@@@@@@@@@  @@@@@@@@@@@@@@@@@@@@oooo@@@@oo@@@@@@@@@@@@@@@@@@@@@@@@@@@@@@@@@@  @@@@@@@@@@@@@@@@@@&&$$**oo@@$$@@$$**oo",
"@@@@@@@@@@@@@@@@@@oo$$  $$@@@@@@@@oooo@@@@@@@@@@oo@@oo$$@@@@@@@@@@@@@@@@@@@@@@oo@@@@@@@@oo@@@@@@@@@@@@@@@@@@**$$**oo@@$$@@$$**oo",
"@@@@@@@@@@@@@@@@@@oo$$  $$@@@@@@@@oooo@@@@@@@@@@oo@@oo$$@@@@@@@@@@@@@@@@@@@@@@oo@@@@@@@@oo@@@@@@@@@@@@@@@@@@**$$**oo@@$$@@$$**oo",
"@@@@@@@@@@@@@@oooo@@$$oo$$@@@@@@@@@@@@@@@@@@@@@@@@$$oo$$@@@@@@@@@@@@@@@@@@oooo@@@@@@@@@@oo@@@@@@@@@@@@@@@@@@**$$**oo@@@@@@$$**oo",
"@@@@@@@@@@@@@@oooo@@$$oo$$@@@@@@@@@@@@@@@@@@@@@@@@$$oo$$@@@@@@@@@@@@@@@@@@oooo@@@@@@@@@@oo@@@@@@@@@@@@@@@@@@**$$**oo@@@@@@$$**oo",
"$$$$$$$$&&&&&&&&&&&&&&oo&&&&&&&&&&&&&&&&&&&&&&&&&&&&oo&&&&&&&&&&$$$$&&&&&&&&&&&&$$$$&&&&oo&&&&&&&&&&&&&&&&****$$**oo@@@@$$$$**oo",
"$$$$$$$$&&&&&&&&&&&&&&oo&&&&&&&&&&&&&&&&&&&&&&&&&&&&oo&&&&&&&&&&$$$$&&&&&&&&&&&&$$$$&&&&oo&&&&&&&&&&&&&&&&****$$**oo@@@@$$$$**oo",
"@@@@@@@@@@@@@@@@@@@@@@oo@@@@@@@@@@@@@@@@@@@@@@@@@@@@oo@@@@@@@@@@@@@@@@@@@@@@@@@@@@@@@@@@oo@@@@@@@@@@@@@@@@@@@@$$**oo@@$$$$$$**oo",
"@@@@@@@@@@@@@@@@@@@@@@oo@@@@@@@@@@@@@@@@@@@@@@@@@@@@oo@@@@@@@@@@@@@@@@@@@@@@@@@@@@@@@@@@oo@@@@@@@@@@@@@@@@@@@@$$**oo@@$$$$$$**oo",
"$$$$$$$$$$$$++$$$$$$$$$$$$$$$$$$$$$$$$$$$$++++$$$$$$$$$$$$$$$$$$$$$$$$$$++$$$$$$$$$$$$$$$$$$$$$$$$$$$$$$$$$$$$$$**oo@@$$$$$$**oo",
"$$$$$$$$$$$$++$$$$$$$$$$$$$$$$$$$$$$$$$$$$++++$$$$$$$$$$$$$$$$$$$$$$$$$$++$$$$$$$$$$$$$$$$$$$$$$$$$$$$$$$$$$$$$$**oo@@$$$$$$**oo",
"************++****&&&&********************++************&&&&************++****&&****&&&&&&****&&&&&&&&************oo@@@@$$$$**oo",
"************++****&&&&********************++************&&&&************++****&&****&&&&&&****&&&&&&&&************oo@@@@$$$$**oo",
"@@@@@@@@@@@@oo@@@@@@@@@@@@@@@@@@@@@@@@@@@@oo@@@@@@@@@@@@@@@@@@@@@@@@@@@@oo@@@@@@@@@@@@@@@@@@@@@@@@@@@@@@@@@@@@@@@@oo@@$$$$$$**oo",
"@@@@@@@@@@@@oo@@@@@@@@@@@@@@@@@@@@@@@@@@@@oo@@@@@@@@@@@@@@@@@@@@@@@@@@@@oo@@@@@@@@@@@@@@@@@@@@@@@@@@@@@@@@@@@@@@@@oo@@$$$$$$**oo",
"@@@@@@@@@@@@oo@@@@@@++@@@@@@@@@@@@@@@@@@@@oo@@@@@@@@@@@@@@@@@@@@@@@@@@@@oo@@@@@@@@@@@@@@@@@@@@@@@@@@@@@@@@@@@@@@@@oo@@$$$$$$**oo",
"@@@@@@@@@@@@oo@@@@@@++@@@@@@@@@@@@@@@@@@@@oo@@@@@@@@@@@@@@@@@@@@@@@@@@@@oo@@@@@@@@@@@@@@@@@@@@@@@@@@@@@@@@@@@@@@@@oo@@$$$$$$**oo",
"@@@@@@@@++++oo@@@@@@++@@@@@@@@@@@@@@@@@@@@oo++++++++++@@@@++@@@@@@@@++++oo@@@@@@@@@@@@@@@@@@@@@@@@@@@@@@@@@@@@@@@@oo@@$$$$$$**oo",
"@@@@@@@@++++oo@@@@@@++@@@@@@@@@@@@@@@@@@@@oo++++++++++@@@@++@@@@@@@@++++oo@@@@@@@@@@@@@@@@@@@@@@@@@@@@@@@@@@@@@@@@oo@@$$$$$$**oo",
"++++++++++++oo++++++++++++++++++++++++++++oo++++++++++++++++++++++++++++oo++++++++++++++++++++++++++++++++++++++++oo@@$$$$$$**oo",
"++++++++++++oo++++++++++++++++++++++++++++oo++++++++++++++++++++++++++++oo++++++++++++++++++++++++++++++++++++++++oo@@$$$$$$**oo",
"oooooooooooooooooooooooooooooooooooooooooooooooooooooooooooooooooooooooooooooooooooooooooooooooooooooooooooooooooooo@@$$$$$$**oo",
"oooooooooooooooooooooooooooooooooooooooooooooooooooooooooooooooooooooooooooooooooooooooooooooooooooooooooooooooooooo@@$$$$$$**oo",
"....................................................................................OOOO........++++$$$$$$$$$$$$**oo@@$$$$$$**oo",
"....................................................................................OOOO........++++$$$$$$$$$$$$**oo@@$$$$$$**oo",
"XXXXXXXXXXXXXX..OOXXXXXXXXXXXX..XXXXXXXXXXXXOO..OOXXXXXXXXXXXX..XXXXXXXXXX..OOXXXXXX%%%%OOOO....++@@$$$$$$$$$$$$**oo@@$$$$$$**oo",
"XXXXXXXXXXXXXX..OOXXXXXXXXXXXX..XXXXXXXXXXXXOO..OOXXXXXXXXXXXX..XXXXXXXXXX..OOXXXXXX%%%%OOOO....++@@$$$$$$$$$$$$**oo@@$$$$$$**oo",
"OOOOOOOOOOOOOO..OOOOOOOOOOOOOO..XXOOOOOOOOOOOO..OOOOOOOOOOOOOO..OOOOOOOOOO..OOOOOOOO####OOOO....++@@$$$$$$$$$$$$&&oo@@@@$$$$**oo",
"OOOOOOOOOOOOOO..OOOOOOOOOOOOOO..XXOOOOOOOOOOOO..OOOOOOOOOOOOOO..OOOOOOOOOO..OOOOOOOO####OOOO....++@@$$$$$$$$$$$$&&oo@@@@$$$$**oo",
"OO##########OO..##########OOOO..OOOOOO########..OO########OO....########OO..######OO####OOOO....++@@$$$$$$$$$$$$&&oo@@$$$$$$**oo",
"OO##########OO..##########OOOO..OOOOOO########..OO########OO....########OO..######OO####OOOO....++@@$$$$$$$$$$$$&&oo@@$$$$$$**oo",
"....................................................................................OO..........++@@$$$$$$$$$$$$&&oo$$$$$$$$**oo",
"....................................................................................OO..........++@@$$$$$$$$$$$$&&oo$$$$$$$$**oo",
"####OOOO##########%%%%%%..%%%%######OOOO##########%%%%%%..%%%%##OOOO##########%%########OOOO....++@@@@$$$$$$$$$$&&oooooooooooooo",
"####OOOO##########%%%%%%..%%%%######OOOO##########%%%%%%..%%%%##OOOO##########%%########OOOO....++@@@@$$$$$$$$$$&&oooooooooooooo",
"######XX################..############XX################..########XX####################OOOOOO..++++@@@@@@@@@@@@&&oo$$$$$$$$**oo",
"######XX################..############XX################..########XX####################OOOOOO..++++@@@@@@@@@@@@&&oo$$$$$$$$**oo",
"######XXOO##############..############XXOO##############..########XXOO##################..OOOO..........++++++++++oo@@$$$$$$**oo",
"######XXOO##############..############XXOO##############..########XXOO##################..OOOO..........++++++++++oo@@$$$$$$**oo",
"....XXXXXXOOOOOOOOOOOOOOOOOOXXXX%%%%%%%%%%OOOOOOOOOOOOOOOOOOXXXXXXXXXXOOOOOOOOOO..................++&&&&&&********oo@@$$$$$$**oo",
"....XXXXXXOOOOOOOOOOOOOOOOOOXXXX%%%%%%%%%%OOOOOOOOOOOOOOOOOOXXXXXXXXXXOOOOOOOOOO..................++&&&&&&********oo@@$$$$$$**oo",
"######%%%%%%%%%%..##%%%%%%%%##XX##########%%%%%%..##%%%%%%%%##XX##%%%%%%%%%%..######%%%%##OO....++++$$$$$$$$$$$$**oo@@$$$$$$**oo",
"######%%%%%%%%%%..##%%%%%%%%##XX##########%%%%%%..##%%%%%%%%##XX##%%%%%%%%%%..######%%%%##OO....++++$$$$$$$$$$$$**oo@@$$$$$$**oo",
"################..############XX################..############XX############..##########OOOO....++++$$$$$$$$$$$$&&oo@@@@$$$$**oo",
"################..############XX################..############XX############..##########OOOO....++++$$$$$$$$$$$$&&oo@@@@$$$$**oo",
"OO##############OO############..OO##############OO############..############OO####OO######OO....++++$$$$$$$$$$$$&&oo@@@@$$$$**oo",
"OO##############OO############..OO##############OO############..############OO####OO######OO....++++$$$$$$$$$$$$&&oo@@@@$$$$**oo",
"OOOOXXXXXXOOOOOOOOOOOOOOOOOO....OOOOXXXXXXOOOOOOOOOOOOOOOOOO....XXXXXXOOOOOOOOOOOOOO............++++$$$$$$$$$$$$&&oo@@@@$$$$**oo",
"OOOOXXXXXXOOOOOOOOOOOOOOOOOO....OOOOXXXXXXOOOOOOOOOOOOOOOOOO....XXXXXXOOOOOOOOOOOOOO............++++$$$$$$$$$$$$&&oo@@@@$$$$**oo",
"%%%%OO####%%%%%%####OOOO########%%%%OO####%%%%%%####OOOO########OO####%%%%%%####%%%%%%..OOOOOO..++++$$$$$$$$$$$$&&oo@@@@@@$$**oo",
"%%%%OO####%%%%%%####OOOO########%%%%OO####%%%%%%####OOOO########OO####%%%%%%####%%%%%%..OOOOOO..++++$$$$$$$$$$$$&&oo@@@@@@$$**oo",
"####OO################OO############OO################OO########OO####################..OOOOOO..++@@$$$$$$$$$$$$&&oo@@$$@@$$**oo",
"####OO################OO############OO################OO########OO####################..OOOOOO..++@@$$$$$$$$$$$$&&oo@@$$@@$$**oo",
"####..################..############..################..########..####################..OOOOOO..++@@$$$$$$$$$$$$&&oo@@$$$$$$**oo",
"####..################..############..################..########..####################..OOOOOO..++@@$$$$$$$$$$$$&&oo@@$$$$$$**oo",
"..........OOOOOOOOXXXXXX..................OOOOOOOOXXXXXX..............OOOOOOOOXX....OO..........++@@$$$$$$$$$$$$&&oo@@$$$$$$**oo",
"..........OOOOOOOOXXXXXX..................OOOOOOOOXXXXXX..............OOOOOOOOXX....OO..........++@@$$$$$$$$$$$$&&oo@@$$$$$$**oo",
"######%%%%%%%%%%..##%%%%%%%%##XX######%%%%%%%%%%..##%%%%%%%%##XX##%%%%%%%%%%..######%%%%%%OO....++@@$$$$$$$$$$$$&&oo@@$$$$$$**oo",
"######%%%%%%%%%%..##%%%%%%%%##XX######%%%%%%%%%%..##%%%%%%%%##XX##%%%%%%%%%%..######%%%%%%OO....++@@$$$$$$$$$$$$&&oo@@$$$$$$**oo",
"################..############XX################..############XX############..############OO....++++$$$$$$@@$$$$&&oo@@$$$$$$**oo",
"################..############XX################..############XX############..############OO....++++$$$$$$@@$$$$&&oo@@$$$$$$**oo",
"OO##############OO############..OO##############OO############..############OO####OO######OO....++++$$$$@@@@$$$$&&oo@@$$@@$$**oo",
"OO##############OO############..OO##############OO############..############OO####OO######OO....++++$$$$@@@@$$$$&&oo@@$$@@$$**oo",
"OOOOXXXXXXOOOOOOOOOOOOOOOOOO....OOOOXXXXXXOOOOOOOOOOOOOOOOOO....XXXXXXOOOOOOOOOOOOOOOOOO........++++$$$$@@@@$$$$&&oo@@$$@@$$**oo",
"OOOOXXXXXXOOOOOOOOOOOOOOOOOO....OOOOXXXXXXOOOOOOOOOOOOOOOOOO....XXXXXXOOOOOOOOOOOOOOOOOO........++++$$$$@@@@$$$$&&oo@@$$@@$$**oo",
"%%%%OO####%%%%%%####OOOO########%%%%OO####%%%%%%####OOOO########OO####%%%%%%####%%%%####OOOO....++++$$$$$$$$@@@@&&oo@@$$@@$$**oo",
"%%%%OO####%%%%%%####OOOO########%%%%OO####%%%%%%####OOOO########OO####%%%%%%####%%%%####OOOO....++++$$$$$$$$@@@@&&oo@@$$@@$$**oo",
"####OO################OO############OO################OO########OO######################OO##OO..++++@@@@@@@@@@@@&&oo@@@@@@$$**oo",
"####OO################OO############OO################OO########OO######################OO##OO..++++@@@@@@@@@@@@&&oo@@@@@@$$**oo",
"####..################..############..################..########..######################..##OO..........++++++++++oo@@@@$$$$**oo",
"####..################..############..################..########..######################..##OO..........++++++++++oo@@@@$$$$**oo",
"..........OOOOOOOOXXXXXX..................OOOOOOOOXXXXXX..............OOOOOOOOXX..................++&&&&&&&&******oo@@$$$$$$**oo",
"..........OOOOOOOOXXXXXX..................OOOOOOOOXXXXXX..............OOOOOOOOXX..................++&&&&&&&&******oo@@$$$$$$**oo",
"%%%%%%########OO########%%%%%%..%%%%%%########OO########%%%%%%..%%########OO####%%%%%%%%##OOOO....++$$$$$$$$$$$$**oo@@$$$$$$**oo",
"%%%%%%########OO########%%%%%%..%%%%%%########OO########%%%%%%..%%########OO####%%%%%%%%##OOOO....++$$$$$$$$$$$$**oo@@$$$$$$**oo",
"##############OO##############..##############OO##############..##########OO############OOOOOO....++$$$$$$$$$$$$**oo@@@@$$$$**oo",
"##############OO##############..##############OO##############..##########OO############OOOOOO....++$$$$$$$$$$$$**oo@@@@$$$$**oo",
"##############OOOO############OO##############OOOO############OO##########OOOO############OOOO....++$$$$$$$$$$$$**oo@@$$$$$$**oo",
"##############OOOO############OO##############OOOO############OO##########OOOO############OOOO....++$$$$$$$$$$$$**oo@@$$$$$$**oo",
"..OOOOOO%%%%%%%%%%XX........OOOO..OOOOOOOOOOOOXXXXXX........OOOOOOOO%%%%%%%%%%XXOO..............++++$$$$$$$$$$$$**oo@@$$$$$$**oo",
"..OOOOOO%%%%%%%%%%XX........OOOO..OOOOOOOOOOOOXXXXXX........OOOOOOOO%%%%%%%%%%XXOO..............++++$$$$$$$$$$$$**oo@@$$$$$$**oo",
"####OOOO##########%%%%%%..%%%%######OOOO##########%%%%%%..%%%%##OOOO##########%%####%%..OOOO....++++@@$$$$$$$$$$**oo@@$$$$$$**oo",
"####OOOO##########%%%%%%..%%%%######OOOO##########%%%%%%..%%%%##OOOO##########%%####%%..OOOO....++++@@$$$$$$$$$$**oo@@$$$$$$**oo",
"######XX################..############XX################..########XX##################..OOOO....++@@@@@@$$$$$$$$&&oo@@$$$$$$**oo",
"######XX################..############XX################..########XX##################..OOOO....++@@@@@@$$$$$$$$&&oo@@$$$$$$**oo",
"######XXOO##############..############XXOO##############..########XXOO################..##OO....++@@@@@@$$$$$$$$&&oo@@$$$$$$**oo",
"######XXOO##############..############XXOO##############..########XXOO################..##OO....++@@@@@@$$$$$$$$&&oo@@$$$$$$**oo",
"....XXXXXXOOOOOOOOOOOOOOOOOOXXXX....XXXXXXOOOOOOOOOOOOOOOOOOXXXXXXXXXXOOOOOOOOOO....OO..........++@@$$$$$$$$$$$$&&oo@@$$$$$$**oo",
"....XXXXXXOOOOOOOOOOOOOOOOOOXXXX....XXXXXXOOOOOOOOOOOOOOOOOOXXXXXXXXXXOOOOOOOOOO....OO..........++@@$$$$$$$$$$$$&&oo@@$$$$$$**oo",
"######%%%%%%%%%%..##%%%%%%%%##XX######%%%%%%%%%%..##%%%%%%%%##XX##%%%%%%%%%%..######%%%%%%OOOO..++@@$$$$$$$$$$$$&&oo@@$$$$$$**oo",
"######%%%%%%%%%%..##%%%%%%%%##XX######%%%%%%%%%%..##%%%%%%%%##XX##%%%%%%%%%%..######%%%%%%OOOO..++@@$$$$$$$$$$$$&&oo@@$$$$$$**oo",
"################..############XX################..############XX############..############OOOO..++++$$$$$$@@$$$$&&oo@@@@$$$$**oo",
"################..############XX################..############XX############..############OOOO..++++$$$$$$@@$$$$&&oo@@@@$$$$**oo",
"OO##############OO############..OO##############OO############..############OO####OO######OOOO..++++$$$$$$@@$$$$&&oo@@$$$$$$**oo",
"OO##############OO############..OO##############OO############..############OO####OO######OOOO..++++$$$$$$@@$$$$&&oo@@$$$$$$**oo",
"OOOOXXXXXXOOOOOOOOOOOOOOOOOO....OOOOXXXXXXOOOOOOOOOOOOOOOOOO....XXXXXXOOOOOOOOOOOOOOOO..........++++$$$$$$$$$$$$&&oo$$$$$$$$**oo",
"OOOOXXXXXXOOOOOOOOOOOOOOOOOO....OOOOXXXXXXOOOOOOOOOOOOOOOOOO....XXXXXXOOOOOOOOOOOOOOOO..........++++$$$$$$$$$$$$&&oo$$$$$$$$**oo",
"%%%%OO####%%%%%%####OOOO########%%%%OO####%%%%%%####OOOO########OO####%%%%%%####%%%%####OOOOOO..++++$$$$$$$$$$$$&&oooooooooooooo",
"%%%%OO####%%%%%%####OOOO########%%%%OO####%%%%%%####OOOO########OO####%%%%%%####%%%%####OOOOOO..++++$$$$$$$$$$$$&&oooooooooooooo",
"####OO################OO############OO################OO########OO######################OOOOOO..++++$$$$$$$$$$$$&&oo$$$$$$$$**oo",
"####OO################OO############OO################OO########OO######################OOOOOO..++++$$$$$$$$$$$$&&oo$$$$$$$$**oo",
"####..################..############..################..########..######################..OOOO..++++$$$$$$$$$$$$&&oo@@$$$$$$**oo",
"####..################..############..################..########..######################..OOOO..++++$$$$$$$$$$$$&&oo@@$$$$$$**oo",
"++++++++++++++++++++++++++++++++++++++++++++++++++++++++++++++++++++++++++++++++++++++++++++++++++++++++++++++++++++@@$$$$$$**oo",
"++++++++++++++++++++++++++++++++++++++++++++++++++++++++++++++++++++++++++++++++++++++++++++++++++++++++++++++++++++@@$$$$$$**oo",
"$$$$$$@@@@@@@@@@@@@@$$$$$$++$$$$$$$$@@@@@@$$@@@@@@@@@@@@@@@@@@@@$$@@@@@@@@@@@@@@$$$$$$$$++$$$$$$@@@@@@@@@@@@@@$$$$$$@@@@$$$$**oo",
"$$$$$$@@@@@@@@@@@@@@$$$$$$++$$$$$$$$@@@@@@$$@@@@@@@@@@@@@@@@@@@@$$@@@@@@@@@@@@@@$$$$$$$$++$$$$$$@@@@@@@@@@@@@@$$$$$$@@@@$$$$**oo",
"$$$$$$$$$$$$$$$$$$$$$$$$$$++$$$$$$$$$$$$$$$$$$$$$$$$@@@@@@$$$$$$$$$$$$$$$$$$$$$$$$$$$$$$++$$$$$$$$$$$$$$$$$$$$$$$$$$@@@@$$$$**oo",
"$$$$$$$$$$$$$$$$$$$$$$$$$$++$$$$$$$$$$$$$$$$$$$$$$$$@@@@@@$$$$$$$$$$$$$$$$$$$$$$$$$$$$$$++$$$$$$$$$$$$$$$$$$$$$$$$$$@@@@$$$$**oo",
"&&&&&&&&&&**********&&&&&&++&&&&&&&&**************************&&&&&&&&**********&&&&&&&&++&&&&&&**********&&&&&&&&&&**********oo",
"&&&&&&&&&&**********&&&&&&++&&&&&&&&**************************&&&&&&&&**********&&&&&&&&++&&&&&&**********&&&&&&&&&&**********oo",
"@@@@@@@@@@@@@@@@@@@@@@@@@@oo@@@@@@@@@@@@@@@@@@@@@@@@@@@@@@@@@@@@@@@@@@@@@@@@@@@@@@@@@@@@oo@@@@@@@@@@@@@@@@@@@@@@@@@@@@@@@@@@++oo",
"@@@@@@@@@@@@@@@@@@@@@@@@@@oo@@@@@@@@@@@@@@@@@@@@@@@@@@@@@@@@@@@@@@@@@@@@@@@@@@@@@@@@@@@@oo@@@@@@@@@@@@@@@@@@@@@@@@@@@@@@@@@@++oo",
"@@@@@@@@@@@@++@@@@@@@@@@@@oo@@@@@@++@@@@@@@@@@@@@@@@@@++@@@@@@@@@@@@@@@@++@@@@@@@@@@@@@@oo@@@@@@@@@@@@++@@@@@@@@@@@@@@@@@@@@++oo",
"@@@@@@@@@@@@++@@@@@@@@@@@@oo@@@@@@++@@@@@@@@@@@@@@@@@@++@@@@@@@@@@@@@@@@++@@@@@@@@@@@@@@oo@@@@@@@@@@@@++@@@@@@@@@@@@@@@@@@@@++oo",
"@@@@@@++++++++++++@@++@@++oo@@@@@@++@@++++++++++++++@@++@@@@@@@@@@++++++++++++@@@@@@@@@@oo++@@++@@++++++++++++@@@@@@@@@@@@@@++oo",
"@@@@@@++++++++++++@@++@@++oo@@@@@@++@@++++++++++++++@@++@@@@@@@@@@++++++++++++@@@@@@@@@@oo++@@++@@++++++++++++@@@@@@@@@@@@@@++oo",
"++++++++++++++++++++++++++oo++++++++++++++++++++++++++++++++++++++++++++++++++++++++++++oo++++++++++++++++++++++++++++++++++++oo",
"++++++++++++++++++++++++++oo++++++++++++++++++++++++++++++++++++++++++++++++++++++++++++oo++++++++++++++++++++++++++++++++++++oo",
"oooooooooooooooooooooooooooooooooooooooooooooooooooooooooooooooooooooooooooooooooooooooooooooooooooooooooooooooooooooooooooooooo",
"oooooooooooooooooooooooooooooooooooooooooooooooooooooooooooooooooooooooooooooooooooooooooooooooooooooooooooooooooooooooooooooooo"
};
