/* XPM */
static char *_41705062606[] = {
/* columns rows colors chars-per-pixel */
"128 128 8 1 ",
"  c #010101",
". c #070707",
"X c #121110",
"o c #1B1916",
"O c #2E2A25",
"+ c #3C3129",
"@ c #454135",
"# c 0",
/* pixels */
"################################################################################################################################",
"################################################################################################################################",
"################################################################################################################################",
"################################################################################################################################",
"################################################################################################################################",
"################################################################################################################################",
"################################################################################################################################",
"################################################################################################################################",
"################################################################################################################################",
"################################################################################################################################",
"################################################################################################################################",
"################################################################################################################################",
"################################################################################################################################",
"################################################################################################################################",
"################################################################################################################################",
"################################################################################################################################",
"################################################################################################################################",
"################################################################################################################################",
"################################################################################################################################",
"################################################################################################################################",
"################################################################################################################################",
"################################################################################################################################",
"################################################################################################################################",
"################################################################################################################################",
"################################################################################################################################",
"################################################################################################################################",
"################################################################################################################################",
"################################################################################################################################",
"################################################################################################################################",
"################################################################################################################################",
"################################################################################################################################",
"################################################################################################################################",
"################################################################################################################################",
"################################################################################################################################",
"################################################################################################################################",
"################################################################################################################################",
"################################################################################################################################",
"################################################################################################################################",
"################################################################################################################################",
"################################################################################################################################",
"################################################################################################################################",
"################################################################################################################################",
"################################################################################################################################",
"################################################################################################################################",
"################################################################################################################################",
"################################################################################################################################",
"################################################################################################################################",
"################################################################################################################################",
"################################################################################################################################",
"################################################################################################################################",
"################################################################################################################################",
"################################################################################################################################",
"################################################################################################################################",
"################################################################################################################################",
"################################################################################################################################",
"################################################################################################################################",
"################################################################################################################################",
"################################################################################################################################",
"################################################################################################################################",
"################################################################################################################################",
"################################################################################################################################",
"################################################################################################################################",
"################################################################################################################################",
"################################################################################################################################",
"################################################################################################################################",
"################################################################################################################################",
"################################################################################################################################",
"################################################################################################################################",
"################################################################################################################################",
"################################################################################################################################",
"################################################################################################################################",
"################################################################################################################################",
"################################################################################################################################",
"################################################################################################################################",
"################################################################################################################################",
"################################################################################################################################",
"################################################################################################################################",
"################################################################################################################################",
"################################################################################################################################",
"################################################################################################################################",
"oooooooooooooo@@++@@OOOOOO++oo..################################################################################################",
"oooooooooooooo@@++@@OOOOOO++oo..################################################################################################",
"@@@@++oo@@@@@@@@@@@@OOOOOO++oo..################################################################################################",
"@@@@++oo@@@@@@@@@@@@OOOOOO++oo..################################################################################################",
"OOOOOOooOOOOOOOOOOOOOOOOOOOOoo..################################################################################################",
"OOOOOOooOOOOOOOOOOOOOOOOOOOOoo..################################################################################################",
"OOOOOO..OOOOOOOOOOOOOOOOOOOOoo..################################################################################################",
"OOOOOO..OOOOOOOOOOOOOOOOOOOOoo..################################################################################################",
"++OOOO..OOOOOOOOOOOOOOOOOOOOoo..################################################################################################",
"++OOOO..OOOOOOOOOOOOOOOOOOOOoo..################################################################################################",
"OO++OO..ooooOO++++OOOOOOoooooo..################################################################################################",
"OO++OO..ooooOO++++OOOOOOoooooo..################################################################################################",
"oooooo..oooooooooooooooooooooo..################################################################################################",
"oooooo..oooooooooooooooooooooo..################################################################################################",
"XXXXXX..XXXXXXXXXXXXXXXXXXXXXX..################################################################################################",
"XXXXXX..XXXXXXXXXXXXXXXXXXXXXX..################################################################################################",
"XXXXXX..XXXXXXXXXXXXXXXXXXXXXX..################################################################################################",
"XXXXXX..XXXXXXXXXXXXXXXXXXXXXX..################################################################################################",
"................................################################################################################################",
"................................################################################################################################",
"                                ################################################################################################",
"                                ################################################################################################",
"                                ################################################################################################",
"                                ################################################################################################",
"                                ################################################################################################",
"                                ################################################################################################",
"                                ################################################################################################",
"                                ################################################################################################",
"                                ################################################################################################",
"                                ################################################################################################",
"                                ################################################################################################",
"                                ################################################################################################",
"                                ################################################################################################",
"                                ################################################################################################",
"                                ################################################################################################",
"                                ################################################################################################",
"                                ################################################################################################",
"                                ################################################################################################",
"                                ################################################################################################",
"                                ################################################################################################",
"                                ################################################################################################",
"                                ################################################################################################",
"                                ################################################################################################",
"                                ################################################################################################",
"                                ################################################################################################",
"                                ################################################################################################",
"                                ################################################################################################",
"                                ################################################################################################"
};
