/* XPM */
static char *_41705062606[] = {
/* columns rows colors chars-per-pixel */
"128 128 8 1 ",
"  c #010101",
". c #070707",
"X c #121110",
"o c #1B1916",
"O c #2E2A25",
"+ c #3C3129",
"@ c #454135",
"# c 0",
/* pixels */
"################################################################################################################################",
"################################################################################################################################",
"################################################################################################################################",
"################################################################################################################################",
"################################################################################################################################",
"################################################################################################################################",
"################################################################################################################################",
"################################################################################################################################",
"################################################################################################################################",
"################################################################################################################################",
"################################################################################################################################",
"################################################################################################################################",
"################################################################################################################################",
"################################################################################################################################",
"################################################################################################################################",
"################################################################################################################################",
"################################################################################################################################",
"################################################################################################################################",
"################################################################################################################################",
"################################################################################################################################",
"################################################################################################################################",
"################################################################################################################################",
"################################################################################################################################",
"################################################################################################################################",
"################################################################################################################################",
"################################################################################################################################",
"################################################################################################################################",
"################################################################################################################################",
"################################################################################################################################",
"################################################################################################################################",
"################################################################################################################################",
"################################################################################################################################",
"################################################################################################################################",
"################################################################################################################################",
"################################################################################################################################",
"################################################################################################################################",
"################################################################################################################################",
"################################################################################################################################",
"################################################################################################################################",
"################################################################################################################################",
"################################################################################################################################",
"################################################################################################################################",
"################################################################################################################################",
"################################################################################################################################",
"################################################################################################################################",
"################################################################################################################################",
"################################################################################################################################",
"################################################################################################################################",
"################################################################################################################################",
"################################################################################################################################",
"################################################################################################################################",
"################################################################################################################################",
"################################################################################################################################",
"################################################################################################################################",
"################################################################################################################################",
"################################################################################################################################",
"################################################################################################################################",
"################################################################################################################################",
"################################################################################################################################",
"################################################################################################################################",
"################################################################################################################################",
"################################################################################################################################",
"################################################################################################################################",
"################################################################################################################################",
"################################################################################################################################",
"################################################################################################################################",
"################################################################################################################################",
"################################################################################################################################",
"################################################################################################################################",
"################################################################################################################################",
"################################################################################################################################",
"################################################################################################################################",
"################################################################################################################################",
"################################################################################################################################",
"################################################################################################################################",
"################################################################################################################################",
"################################################################################################################################",
"################################################################################################################################",
"################################################################################################################################",
"################################################################################################################################",
"################################################################################################..oo++OOOOOO@@++@@oooooooooooooo",
"################################################################################################..oo++OOOOOO@@++@@oooooooooooooo",
"################################################################################################..oo++OOOOOO@@@@@@@@@@@@oo++@@@@",
"################################################################################################..oo++OOOOOO@@@@@@@@@@@@oo++@@@@",
"################################################################################################..ooOOOOOOOOOOOOOOOOOOOOooOOOOOO",
"################################################################################################..ooOOOOOOOOOOOOOOOOOOOOooOOOOOO",
"################################################################################################..ooOOOOOOOOOOOOOOOOOOOO..OOOOOO",
"################################################################################################..ooOOOOOOOOOOOOOOOOOOOO..OOOOOO",
"################################################################################################..ooOOOOOOOOOOOOOOOOOOOO..OOOO++",
"################################################################################################..ooOOOOOOOOOOOOOOOOOOOO..OOOO++",
"################################################################################################..ooooooOOOOOO++++OOoooo..OO++OO",
"################################################################################################..ooooooOOOOOO++++OOoooo..OO++OO",
"################################################################################################..oooooooooooooooooooooo..oooooo",
"################################################################################################..oooooooooooooooooooooo..oooooo",
"################################################################################################..XXXXXXXXXXXXXXXXXXXXXX..XXXXXX",
"################################################################################################..XXXXXXXXXXXXXXXXXXXXXX..XXXXXX",
"################################################################################################..XXXXXXXXXXXXXXXXXXXXXX..XXXXXX",
"################################################################################################..XXXXXXXXXXXXXXXXXXXXXX..XXXXXX",
"################################################################################################................................",
"################################################################################################................................",
"################################################################################################                                ",
"################################################################################################                                ",
"################################################################################################                                ",
"################################################################################################                                ",
"################################################################################################                                ",
"################################################################################################                                ",
"################################################################################################                                ",
"################################################################################################                                ",
"################################################################################################                                ",
"################################################################################################                                ",
"################################################################################################                                ",
"################################################################################################                                ",
"################################################################################################                                ",
"################################################################################################                                ",
"################################################################################################                                ",
"################################################################################################                                ",
"################################################################################################                                ",
"################################################################################################                                ",
"################################################################################################                                ",
"################################################################################################                                ",
"################################################################################################                                ",
"################################################################################################                                ",
"################################################################################################                                ",
"################################################################################################                                ",
"################################################################################################                                ",
"################################################################################################                                ",
"################################################################################################                                ",
"################################################################################################                                "
};
