/* XPM */
static char *_73d91abf4ba41949829cfcf96c9f992OVTJcBsVj6npQwGl[] = {
/* columns rows colors chars-per-pixel */
"128 128 14 1 ",
"  c #0F0B08",
". c #1A140E",
"X c #2C2017",
"o c #392A1E",
"O c #362B23",
"+ c #3F352E",
"@ c #44362D",
"# c #534135",
"$ c #54453B",
"% c #4B4642",
"& c #745946",
"* c #686059",
"= c #8D7768",
"- c #89887F",
/* pixels */
"&&**++++++++++++++++++++++++++++++++++++++++++++++++++++++++**##&&**++++++++++++++++++++++++++++++++++++++++++++++++++++++++**##",
"&&**++++++++++++++++++++++++++++++++++++++++++++++++++++++++**##&&**++++++++++++++++++++++++++++++++++++++++++++++++++++++++**##",
"**--**====================&&&&================&&&&==&&&&&&**--****--**====================&&&&================&&&&==&&&&&&**--**",
"**--**====================&&&&================&&&&==&&&&&&**--****--**====================&&&&================&&&&==&&&&&&**--**",
"****&&&&&&########################################&&&&&&&&##********&&&&&&########################################&&&&&&&&##****",
"****&&&&&&########################################&&&&&&&&##********&&&&&&########################################&&&&&&&&##****",
"****##oooooooooooooo++++++++++oooooooo++++++++++oooooooooo&&********##oooooooooooooo++++++++++oooooooo++++++++++oooooooooo&&****",
"****##oooooooooooooo++++++++++oooooooo++++++++++oooooooooo&&********##oooooooooooooo++++++++++oooooooo++++++++++oooooooooo&&****",
"**--**####################################################**--****--**####################################################**--**",
"**--**####################################################**--****--**####################################################**--**",
"##**++oooooooooooooooooooooooooooooooooooooooooooooooooooo++**&&##**++oooooooooooooooooooooooooooooooooooooooooooooooooooo++**&&",
"##**++oooooooooooooooooooooooooooooooooooooooooooooooooooo++**&&##**++oooooooooooooooooooooooooooooooooooooooooooooooooooo++**&&",
"oo##++oo................................................oo++++&&oo##++oo................................................oo++++&&",
"oo##++oo................................................oo++++&&oo##++oo................................................oo++++&&",
"==##++oooooooooooooooooooooooooooooooooooooooooooooooooooo++##&&==##++oooooooooooooooooooooooooooooooooooooooooooooooooooo++##&&",
"==##++oooooooooooooooooooooooooooooooooooooooooooooooooooo++##&&==##++oooooooooooooooooooooooooooooooooooooooooooooooooooo++##&&",
"==##++oo................................................oo####&&==##++oo................................................oo####&&",
"==##++oo................................................oo####&&==##++oo................................................oo####&&",
"==##++oooooooooooooooooooooooooooooooooooooooooooooooooooo####====##++oooooooooooooooooooooooooooooooooooooooooooooooooooo####==",
"==##++oooooooooooooooooooooooooooooooooooooooooooooooooooo####====##++oooooooooooooooooooooooooooooooooooooooooooooooooooo####==",
"==##++oo................................................oo++##====##++oo................................................oo++##==",
"==##++oo................................................oo++##====##++oo................................................oo++##==",
"&&##++oooooooooooooooooooooooooooooooooooooooooooooooooooo++##==&&##++oooooooooooooooooooooooooooooooooooooooooooooooooooo++##==",
"&&##++oooooooooooooooooooooooooooooooooooooooooooooooooooo++##==&&##++oooooooooooooooooooooooooooooooooooooooooooooooooooo++##==",
"&&##++oo................................................oo++##==&&##++oo................................................oo++##==",
"&&##++oo................................................oo++##==&&##++oo................................................oo++##==",
"==##++oooooooooooooooooooooooooooooooooooooooooooooooooooo++##&&==##++oooooooooooooooooooooooooooooooooooooooooooooooooooo++##&&",
"==##++oooooooooooooooooooooooooooooooooooooooooooooooooooo++##&&==##++oooooooooooooooooooooooooooooooooooooooooooooooooooo++##&&",
"==##++oo................................................oo####&&==##++oo................................................oo####&&",
"==##++oo................................................oo####&&==##++oo................................................oo####&&",
"==##++oooooooooooooooooooooooooooooooooooooooooooooooooooo++##&&==##++oooooooooooooooooooooooooooooooooooooooooooooooooooo++##&&",
"==##++oooooooooooooooooooooooooooooooooooooooooooooooooooo++##&&==##++oooooooooooooooooooooooooooooooooooooooooooooooooooo++##&&",
"==##++oo................................................oo++++&&==##++oo................................................oo++++&&",
"==##++oo................................................oo++++&&==##++oo................................................oo++++&&",
"==++++oooooooooooooooooooooooooooooooooooooooooooooooooooo++++&&==++++oooooooooooooooooooooooooooooooooooooooooooooooooooo++++&&",
"==++++oooooooooooooooooooooooooooooooooooooooooooooooooooo++++&&==++++oooooooooooooooooooooooooooooooooooooooooooooooooooo++++&&",
"&&++++oo................................................oo++##oo&&++++oo................................................oo++##oo",
"&&++++oo................................................oo++##oo&&++++oo................................................oo++##oo",
"==##++oooooooooooooooooooooooooooooooooooooooooooooooooooo++##==&&##++oooooooooooooooooooooooooooooooooooooooooooooooooooo++##==",
"==##++oooooooooooooooooooooooooooooooooooooooooooooooooooo++##==&&##++oooooooooooooooooooooooooooooooooooooooooooooooooooo++##==",
"==##++oo................................................oo++##&&==##++oo................................................oo++##&&",
"==##++oo................................................oo++##&&==##++oo................................................oo++##&&",
"==++++oooooooooooooooooooooooooooooooooooooooooooooooooooo####&&==##++oooooooooooooooooooooooooooooooooooooooooooooooooooo++##==",
"==++++oooooooooooooooooooooooooooooooooooooooooooooooooooo####&&==##++oooooooooooooooooooooooooooooooooooooooooooooooooooo++##==",
"&&++++oo................................................oo####====##++oo................................................oo++##==",
"&&++++oo................................................oo####====##++oo................................................oo++##==",
"&&##++oooooooooooooooooooooooooooooooooooooooooooooooooooo++##====##++oooooooooooooooooooooooooooooooooooooooooooooooooooo++##==",
"&&##++oooooooooooooooooooooooooooooooooooooooooooooooooooo++##====##++oooooooooooooooooooooooooooooooooooooooooooooooooooo++##==",
"&&##++oo................................................oo++##==&&##++oo................................................oo++##==",
"&&##++oo................................................oo++##==&&##++oo................................................oo++##==",
"==##++oooooooooooooooooooooooooooooooooooooooooooooooooooo++##==&&##++oooooooooooooooooooooooooooooooooooooooooooooooooooo++##&&",
"==##++oooooooooooooooooooooooooooooooooooooooooooooooooooo++##==&&##++oooooooooooooooooooooooooooooooooooooooooooooooooooo++##&&",
"&&##++oo................................................oo++##&&==##++oo................................................oo####&&",
"&&##++oo................................................oo++##&&==##++oo................................................oo####&&",
"==##++oooooooooooooooooooooooooooooooooooooooooooooooooooo$$$$####$$$$oooooooooooooooooooooooooooooooooooooooooooooooooooo++##&&",
"==##++oooooooooooooooooooooooooooooooooooooooooooooooooooo$$$$####$$$$oooooooooooooooooooooooooooooooooooooooooooooooooooo++##&&",
"==##++oo................................................oo####&&==##++oo................................................oo++++&&",
"==##++oo................................................oo####&&==##++oo................................................oo++++&&",
"==##++oooooooooooooooooooooooooooooooooooooooooooooooooooo++##&&==##++oooooooooooooooooooooooooooooooooooooooooooooooooooo++++&&",
"==##++oooooooooooooooooooooooooooooooooooooooooooooooooooo++##&&==##++oooooooooooooooooooooooooooooooooooooooooooooooooooo++++&&",
"==##++oo................................................oo++++&&==##++oo................................................oo++++&&",
"==##++oo................................................oo++++&&==##++oo................................................oo++++&&",
"==++++oooooooooooooooooooooooooooo**oooooooooooooooooooooo++++&&==++++oooooooooooooooooooooooooooooo**oooooooooooooooooooo++++&&",
"==++++oooooooooooooooooooooooooooo**oooooooooooooooooooooo++++&&==++++oooooooooooooooooooooooooooooo**oooooooooooooooooooo++++&&",
"&&++++oo..................oooo**----oo..................oo++##oo&&++++oo....................oooo**----oo................oo++##oo",
"&&++++oo..................oooo**----oo..................oo++##oo&&++++oo....................oooo**----oo................oo++##oo",
"&&**++++++++++++++++++++++++++++++++++++++++++++++++++++++++**##&&**++++++++++++++++++++++++++++++++++++++++++++++++++++++++**##",
"&&**++++++++++++++++++++++++++++++++++++++++++++++++++++++++**##&&**++++++++++++++++++++++++++++++++++++++++++++++++++++++++**##",
"**--**====================&&&&================&&&&==&&&&&&**--****--**====================&&&&================&&&&==&&&&&&**--**",
"**--**====================&&&&================&&&&==&&&&&&**--****--**====================&&&&================&&&&==&&&&&&**--**",
"****&&&&&&########################################&&&&&&&&##********&&&&&&########################################&&&&&&&&##****",
"****&&&&&&########################################&&&&&&&&##********&&&&&&########################################&&&&&&&&##****",
"................................................................................................................................",
"................................................................................................................................",
"..XXXX......XXXX....XXXX..XXXXXX....XXXX....XXXX....XXXX..XXXX....XXXXXX....XXXX....XXXX..XXXX....XXXX......XXXX....XXXX..XXXX..",
"..XXXX......XXXX....XXXX..XXXXXX....XXXX....XXXX....XXXX..XXXX....XXXXXX....XXXX....XXXX..XXXX....XXXX......XXXX....XXXX..XXXX..",
"..XXXXXX....XXXX..XXXXXX..XXXXXX..XXXXXX....XXXX....XXXX..XXXX....XXXXXX....XXXX..XXXXXX..XXXX....XXXX....XXXXXX....XXXX..XXXX..",
"..XXXXXX....XXXX..XXXXXX..XXXXXX..XXXXXX....XXXX....XXXX..XXXX....XXXXXX....XXXX..XXXXXX..XXXX....XXXX....XXXXXX....XXXX..XXXX..",
"..XXXXXX..XXXXXX..XXXX....XXXXXX..XXXXXX..XXXXXX..XXXXXX..XXXX....XXXXXX..XXXXXX..XXXX....XXXX....XXXX....XXXXXX..XXXXXX..XXXX..",
"..XXXXXX..XXXXXX..XXXX....XXXXXX..XXXXXX..XXXXXX..XXXXXX..XXXX....XXXXXX..XXXXXX..XXXX....XXXX....XXXX....XXXXXX..XXXXXX..XXXX..",
"..XXXXXX..XXXX....XXXX....XXXXXX..XXXXXX..XXXXXX..XXXX%%..XX......XXXX....XXXXXX..XXXX....XXXXXX..XXXXXX..XXXXXX..XXXX%%..XX....",
"..XXXXXX..XXXX....XXXX....XXXXXX..XXXXXX..XXXXXX..XXXX%%..XX......XXXX....XXXXXX..XXXX....XXXXXX..XXXXXX..XXXXXX..XXXX%%..XX....",
"..XX%%....XXXX....XXXXXX....XXXX....XXXX..XXXX....XXXXXX..XX......XX%%....XXXX....XXXXXX....XXXX..XXXXXX..XXXX....XXXXXX..XX....",
"..XX%%....XXXX....XXXXXX....XXXX....XXXX..XXXX....XXXXXX..XX......XX%%....XXXX....XXXXXX....XXXX..XXXXXX..XXXX....XXXXXX..XX....",
"##$$$$$$$$$$$$$$$$$$$$$$$$$$$$##$$$$$$$$$$$$$$$$$$$$$$$$$$$$$$####$$$$$$$$$$$$$$$$$$$$$$$$$$$$##$$$$$$$$$$$$$$$$$$$$$$$$$$$$$$##",
"##$$$$$$$$$$$$$$$$$$$$$$$$$$$$##$$$$$$$$$$$$$$$$$$$$$$$$$$$$$$####$$$$$$$$$$$$$$$$$$$$$$$$$$$$##$$$$$$$$$$$$$$$$$$$$$$$$$$$$$$##",
"@@**@@@@@@@@@@@@@@OO@@@@@@@@@@@@@@@@@@OO@@@@@@@@@@OO@@@@@@@@**++@@**@@@@@@@@@@@@@@OO@@@@@@@@@@@@@@@@@@OO@@@@@@@@@@OO@@@@@@@@**++",
"@@**@@@@@@@@@@@@@@OO@@@@@@@@@@@@@@@@@@OO@@@@@@@@@@OO@@@@@@@@**++@@**@@@@@@@@@@@@@@OO@@@@@@@@@@@@@@@@@@OO@@@@@@@@@@OO@@@@@@@@**++",
"OOOOOOOOOOOOOOOOOOOOOO@@OO@@OOOOOOOOOOOOOOOOOOOOOOOOOO@@OOOO@@++OOOOOOOOOOOOOOOOOOOOOO@@OO@@OOOOOOOOOOOOOOOOOOOOOOOOOO@@OOOO@@++",
"OOOOOOOOOOOOOOOOOOOOOO@@OO@@OOOOOOOOOOOOOOOOOOOOOOOOOO@@OOOO@@++OOOOOOOOOOOOOOOOOOOOOO@@OO@@OOOOOOOOOOOOOOOOOOOOOOOOOO@@OOOO@@++",
"................................................................................................................................",
"................................................................................................................................",
"....XXXX..XXXXXX....XXXX....XXXX..XXXXXX..XXXXXX..XXXXXX..XX......XXXX....XXXXXX....XXXX....XXXX..XXXXXX..XXXXXX..XXXXXX..XX....",
"....XXXX..XXXXXX....XXXX....XXXX..XXXXXX..XXXXXX..XXXXXX..XX......XXXX....XXXXXX....XXXX....XXXX..XXXXXX..XXXXXX..XXXXXX..XX....",
"....XXXX..XXXX%%....XXXX....XXXX..XXXX....XXXX....XXXX....XXXX....XXXXXX..XXXX%%....XXXX....XXXX..XXXX....XXXX....XXXX....XXXX..",
"....XXXX..XXXX%%....XXXX....XXXX..XXXX....XXXX....XXXX....XXXX....XXXXXX..XXXX%%....XXXX....XXXX..XXXX....XXXX....XXXX....XXXX..",
"..XXXXXX..XXXXXX..XXXXXX..XXXX....XXXX....XXXXXX..XXXX....XXXX....XXXXXX..XXXXXX..XXXXXX..XXXX....XXXX....XXXXXX..XXXX....XXXX..",
"..XXXXXX..XXXXXX..XXXXXX..XXXX....XXXX....XXXXXX..XXXX....XXXX....XXXXXX..XXXXXX..XXXXXX..XXXX....XXXX....XXXXXX..XXXX....XXXX..",
"..XXXXXX....XXXX..XXXX....XXXX....%%XXXX....XXXX..XXXX....XXXX....XXXXXX....XXXX..XXXX....XXXX....%%XXXX....XXXX..XXXX....XXXX..",
"..XXXXXX....XXXX..XXXX....XXXX....%%XXXX....XXXX..XXXX....XXXX....XXXXXX....XXXX..XXXX....XXXX....%%XXXX....XXXX..XXXX....XXXX..",
"..XXXXXX....XXXX..XXXX....XXXX....XXXXXX....XXXX..XXXXXX..XXXX....XXXXXX....XXXX..XXXX....XXXX....XXXXXX....XXXX..XXXXXX..XXXX..",
"..XXXXXX....XXXX..XXXX....XXXX....XXXXXX....XXXX..XXXXXX..XXXX....XXXXXX....XXXX..XXXX....XXXX....XXXXXX....XXXX..XXXXXX..XXXX..",
"..XXXX......XXXX..XXXX....XXXX....XXXXXX....XXXX..XXXXXX..XXXX....XXXX......XXXX..XXXX....XXXX....XXXXXX....XXXX..XXXXXX..XXXX..",
"..XXXX......XXXX..XXXX....XXXX....XXXXXX....XXXX..XXXXXX..XXXX....XXXX......XXXX..XXXX....XXXX....XXXXXX....XXXX..XXXXXX..XXXX..",
"..XXXXXX..XXXXXX..XXXXXX..XXXX....XXXXXX..XXXXXX..XXXXXX..XXXX....XXXX....XXXXXX..XXXXXX..XXXX....XXXXXX..XXXXXX..XXXXXX..XXXX..",
"..XXXXXX..XXXXXX..XXXXXX..XXXX....XXXXXX..XXXXXX..XXXXXX..XXXX....XXXX....XXXXXX..XXXXXX..XXXX....XXXXXX..XXXXXX..XXXXXX..XXXX..",
"..XXXXXX..XXXX....XXXXXX..XXXXXX..XXXXXX..XXXX....XXXXXX....XX....XXXXXX..XXXX....XXXXXX..XXXXXX..XXXXXX..XXXX....XXXXXX....XX..",
"..XXXXXX..XXXX....XXXXXX..XXXXXX..XXXXXX..XXXX....XXXXXX....XX....XXXXXX..XXXX....XXXXXX..XXXXXX..XXXXXX..XXXX....XXXXXX....XX..",
"##$$$$$$$$$$$$$$$$$$$$$$$$$$$$##$$$$$$$$$$$$$$$$$$$$$$$$$$$$$$####$$$$$$$$$$$$$$$$$$$$$$$$$$$$##$$$$$$$$$$$$$$$$$$$$$$$$$$$$$$##",
"##$$$$$$$$$$$$$$$$$$$$$$$$$$$$##$$$$$$$$$$$$$$$$$$$$$$$$$$$$$$####$$$$$$$$$$$$$$$$$$$$$$$$$$$$##$$$$$$$$$$$$$$$$$$$$$$$$$$$$$$##",
"@@**@@@@@@@@@@@@@@OO@@@@@@@@@@@@@@@@@@OO@@@@@@@@@@OO@@@@@@@@**++@@**@@@@@@@@@@@@@@OO@@@@@@@@@@@@@@@@@@OO@@@@@@@@@@OO@@@@@@@@**++",
"@@**@@@@@@@@@@@@@@OO@@@@@@@@@@@@@@@@@@OO@@@@@@@@@@OO@@@@@@@@**++@@**@@@@@@@@@@@@@@OO@@@@@@@@@@@@@@@@@@OO@@@@@@@@@@OO@@@@@@@@**++",
"OOOOOOOOOOOOOOOOOOOOOO@@OO@@OOOOOOOOOOOOOOOOOOOOOOOOOO@@OOOO@@++OOOOOOOOOOOOOOOOOOOOOO@@OO@@OOOOOOOOOOOOOOOOOOOOOOOOOO@@OOOO@@++",
"OOOOOOOOOOOOOOOOOOOOOO@@OO@@OOOOOOOOOOOOOOOOOOOOOOOOOO@@OOOO@@++OOOOOOOOOOOOOOOOOOOOOO@@OO@@OOOOOOOOOOOOOOOOOOOOOOOOOO@@OOOO@@++",
"................................................................................................................................",
"................................................................................................................................",
"....XXXX..XXXXXX..XXXX....XXXXXX....XXXX..XXXXXX..XXXXXX....XX......XXXX..XXXXXX..XXXX....XXXXXX....XXXX..XXXXXX..XXXXXX....XX..",
"....XXXX..XXXXXX..XXXX....XXXXXX....XXXX..XXXXXX..XXXXXX....XX......XXXX..XXXXXX..XXXX....XXXXXX....XXXX..XXXXXX..XXXXXX....XX..",
"....XXXX..XXXXXX..XXXX....XXXXXX....XXXX..XXXX....XX%%XX..XXXX......XXXX..XXXXXX..XXXX....XXXXXX....XXXX..XXXX....XX%%XX..XXXX..",
"....XXXX..XXXXXX..XXXX....XXXXXX....XXXX..XXXX....XX%%XX..XXXX......XXXX..XXXXXX..XXXX....XXXXXX....XXXX..XXXX....XX%%XX..XXXX..",
"..XXXXXX..XXXXXX..XXXXXX..XXXX....XXXXXX..XXXX....XXXX....XXXX  ..XXXXXX..XXXXXX..XXXXXX..XXXX....XXXXXX..XXXX....XXXX....XXXX  ",
"..XXXXXX..XXXXXX..XXXXXX..XXXX....XXXXXX..XXXX....XXXX....XXXX  ..XXXXXX..XXXXXX..XXXXXX..XXXX....XXXXXX..XXXX....XXXX....XXXX  ",
"  XXXXXX..XXXX%%..XXXXXX..XXXX....XXXXXX..XXXXXX..XXXX....XXXX    XXXXXX..XXXX%%..XXXXXX..XXXX....XXXXXX..XXXXXX..XXXX....XXXX  ",
"  XXXXXX..XXXX%%..XXXXXX..XXXX....XXXXXX..XXXXXX..XXXX....XXXX    XXXXXX..XXXX%%..XXXXXX..XXXX....XXXXXX..XXXXXX..XXXX....XXXX  ",
"  XXXX....XXXXXX....XXXX..XXXXXX....XXXX....XXXX..XXXXXX..XXXX    XXXX....XXXXXX....XXXX..XXXXXX....XXXX....XXXX..XXXXXX..XXXX  ",
"  XXXX....XXXXXX....XXXX..XXXXXX....XXXX....XXXX..XXXXXX..XXXX    XXXX....XXXXXX....XXXX..XXXXXX....XXXX....XXXX..XXXXXX..XXXX  ",
"                                                                                                                                ",
"                                                                                                                                "
};
