/* XPM */
static char *_1705062607[] = {
/* columns rows colors chars-per-pixel */
"128 128 7 1 ",
"  c black",
". c #070707",
"X c #1B1916",
"o c #2E2A25",
"O c #3C3129",
"+ c #454135",
"@ c #555145",
/* pixels */
"XX@@OOOOOOooXX++OO++ooooooooXX..                                                                                                ",
"XX@@OOOOOOooXX++OO++ooooooooXX..                                                                                                ",
"XX@@OOOOOOooXX++OO++ooooooooXX..                                                                                                ",
"XX@@OOOOOOooXX++OO++ooooooooXX..                                                                                                ",
"XX@@OOOOOOooXX++OO++ooooooooXX..                                                                                                ",
"XX@@OOOOOOooXX++OO++ooooooooXX..                                                                                                ",
"XX@@OOOOOOooXX++OO++ooooooXXXX..                                                                                                ",
"XX@@OOOOOOooXX++OO++ooooooXXXX..                                                                                                ",
"XX@@OOOOOOooXX++OO++ooooooXXXX..                                                                                                ",
"XX@@OOOOOOooXX++OO++ooooooXXXX..                                                                                                ",
"XX@@OOooOOooXX@@OO++ooooooooXX..                                                                                                ",
"XX@@OOooOOooXX@@OO++ooooooooXX..                                                                                                ",
"XX@@OOooooooXX@@OO++ooooooooXX..                                                                                                ",
"XX@@OOooooooXX@@OO++ooooooooXX..                                                                                                ",
"XX@@OOooooooXX@@OO++ooooooooXX..                                                                                                ",
"XX@@OOooooooXX@@OO++ooooooooXX..                                                                                                ",
"XX@@OOOOooooXX@@OO++ooooooooXX..                                                                                                ",
"XX@@OOOOooooXX@@OO++ooooooooXX..                                                                                                ",
"XX@@OOOOOOooXX@@OO++ooooooooXX..                                                                                                ",
"XX@@OOOOOOooXX@@OO++ooooooooXX..                                                                                                ",
"XX@@OOOOOOooXX@@OO++ooooooooXX..                                                                                                ",
"XX@@OOOOOOooXX@@OO++ooooooooXX..                                                                                                ",
"XX@@OOOOooooXX@@OO++ooooooooXX..                                                                                                ",
"XX@@OOOOooooXX@@OO++ooooooooXX..                                                                                                ",
"XX@@OOOOOOooXX@@OO++ooooooooXX..                                                                                                ",
"XX@@OOOOOOooXX@@OO++ooooooooXX..                                                                                                ",
"XX@@OOOOOOooXX++OO++ooooooooXX..                                                                                                ",
"XX@@OOOOOOooXX++OO++ooooooooXX..                                                                                                ",
"XX@@OOOOOOooXX++OO++ooooooooXX..                                                                                                ",
"XX@@OOOOOOooXX++OO++ooooooooXX..                                                                                                ",
"XX@@OOOOOOooXX++OO++ooooooooXX..                                                                                                ",
"XX@@OOOOOOooXX++OO++ooooooooXX..                                                                                                ",
"XX@@OOOOooooXX++OO++ooooooooXX..                                                                                                ",
"XX@@OOOOooooXX++OO++ooooooooXX..                                                                                                ",
"XX@@OOOOooooXX++OO++ooooooooXX..                                                                                                ",
"XX@@OOOOooooXX++OO++ooooooooXX..                                                                                                ",
"XX@@OOOOooooXX++OO++ooooooooXX..                                                                                                ",
"XX@@OOOOooooXX++OO++ooooooooXX..                                                                                                ",
"XX@@OOOOOOooXX++OO++ooooooXXXX..                                                                                                ",
"XX@@OOOOOOooXX++OO++ooooooXXXX..                                                                                                ",
"XX@@OOOOOOOOXX++OO++ooooooXXXX..                                                                                                ",
"XX@@OOOOOOOOXX++OO++ooooooXXXX..                                                                                                ",
"XXXXXXXXXXXXXX@@OO++ooooooooXX..                                                                                                ",
"XXXXXXXXXXXXXX@@OO++ooooooooXX..                                                                                                ",
"XX@@OOOOOOOOXX@@OO++ooooooooXX..                                                                                                ",
"XX@@OOOOOOOOXX@@OO++ooooooooXX..                                                                                                ",
"XX@@OOOOOOooXX@@OO++ooooooooXX..                                                                                                ",
"XX@@OOOOOOooXX@@OO++ooooooooXX..                                                                                                ",
"XX@@OOOOOOooXXXXXXooXXXXXXXX....                                                                                                ",
"XX@@OOOOOOooXXXXXXooXXXXXXXX....                                                                                                ",
"XX@@OOOOOOooXX@@OO++ooooooXXXX..                                                                                                ",
"XX@@OOOOOOooXX@@OO++ooooooXXXX..                                                                                                ",
"XX@@OOOOooooXX@@OO++ooooooXXXX..                                                                                                ",
"XX@@OOOOooooXX@@OO++ooooooXXXX..                                                                                                ",
"XX@@OOOOooooXX@@OO++ooooooooXX..                                                                                                ",
"XX@@OOOOooooXX@@OO++ooooooooXX..                                                                                                ",
"XX@@OOooooooXX@@OO++ooooooooXX..                                                                                                ",
"XX@@OOooooooXX@@OO++ooooooooXX..                                                                                                ",
"XX@@OOooOOooXX++OO++ooooooooXX..                                                                                                ",
"XX@@OOooOOooXX++OO++ooooooooXX..                                                                                                ",
"XX@@OOOOOOooXX++OO++ooooooooXX..                                                                                                ",
"XX@@OOOOOOooXX++OO++ooooooooXX..                                                                                                ",
"XX@@OOOOOOooXX++OO++ooooooooXX..                                                                                                ",
"XX@@OOOOOOooXX++OO++ooooooooXX..                                                                                                ",
"XX@@OOOOOOooXX++OO++ooooooooXX..                                                                                                ",
"XX@@OOOOOOooXX++OO++ooooooooXX..                                                                                                ",
"XX@@OOOOOOooXX++OO++ooooooooXX..                                                                                                ",
"XX@@OOOOOOooXX++OO++ooooooooXX..                                                                                                ",
"XX@@OOOOOOooXX++OO++ooooooooXX..                                                                                                ",
"XX@@OOOOOOooXX++OO++ooooooooXX..                                                                                                ",
"XX@@OOOOOOooXX++OO++ooooooXXXX..                                                                                                ",
"XX@@OOOOOOooXX++OO++ooooooXXXX..                                                                                                ",
"XX@@OOOOOOooXX++OO++ooooooXXXX..                                                                                                ",
"XX@@OOOOOOooXX++OO++ooooooXXXX..                                                                                                ",
"XX@@OOooOOooXX@@OO++ooooooooXX..                                                                                                ",
"XX@@OOooOOooXX@@OO++ooooooooXX..                                                                                                ",
"XX@@OOooooooXX@@OO++ooooooooXX..                                                                                                ",
"XX@@OOooooooXX@@OO++ooooooooXX..                                                                                                ",
"XX@@OOooooooXX@@OO++ooooooooXX..                                                                                                ",
"XX@@OOooooooXX@@OO++ooooooooXX..                                                                                                ",
"XX@@OOOOooooXX@@OO++ooooooooXX..                                                                                                ",
"XX@@OOOOooooXX@@OO++ooooooooXX..                                                                                                ",
"XX@@OOOOOOooXX@@OO++ooooooooXX..                                                                                                ",
"XX@@OOOOOOooXX@@OO++ooooooooXX..                                                                                                ",
"XX@@OOOOOOooXX@@OO++ooooooooXX..                                                                                                ",
"XX@@OOOOOOooXX@@OO++ooooooooXX..                                                                                                ",
"XX@@OOOOooooXX@@OO++ooooooooXX..                                                                                                ",
"XX@@OOOOooooXX@@OO++ooooooooXX..                                                                                                ",
"XX@@OOOOOOooXX@@OO++ooooooooXX..                                                                                                ",
"XX@@OOOOOOooXX@@OO++ooooooooXX..                                                                                                ",
"XX@@OOOOOOooXX++OO++ooooooooXX..                                                                                                ",
"XX@@OOOOOOooXX++OO++ooooooooXX..                                                                                                ",
"XX@@OOOOOOooXX++OO++ooooooooXX..                                                                                                ",
"XX@@OOOOOOooXX++OO++ooooooooXX..                                                                                                ",
"XX@@OOOOOOooXX++OO++ooooooooXX..                                                                                                ",
"XX@@OOOOOOooXX++OO++ooooooooXX..                                                                                                ",
"XX@@OOOOooooXX++OO++ooooooooXX..                                                                                                ",
"XX@@OOOOooooXX++OO++ooooooooXX..                                                                                                ",
"XX@@OOOOooooXX++OO++ooooooooXX..                                                                                                ",
"XX@@OOOOooooXX++OO++ooooooooXX..                                                                                                ",
"XX@@OOOOooooXX++OO++ooooooooXX..                                                                                                ",
"XX@@OOOOooooXX++OO++ooooooooXX..                                                                                                ",
"XX@@OOOOOOooXX++OO++ooooooXXXX..                                                                                                ",
"XX@@OOOOOOooXX++OO++ooooooXXXX..                                                                                                ",
"XX@@OOOOOOOOXX++OO++ooooooXXXX..                                                                                                ",
"XX@@OOOOOOOOXX++OO++ooooooXXXX..                                                                                                ",
"XXXXXXXXXXXXXX@@OO++ooooooooXX..                                                                                                ",
"XXXXXXXXXXXXXX@@OO++ooooooooXX..                                                                                                ",
"XX@@OOOOOOOOXX@@OO++ooooooooXX..                                                                                                ",
"XX@@OOOOOOOOXX@@OO++ooooooooXX..                                                                                                ",
"XX@@OOOOOOooXX@@OO++ooooooooXX..                                                                                                ",
"XX@@OOOOOOooXX@@OO++ooooooooXX..                                                                                                ",
"XX@@OOOOOOooXXXXXXooXXXXXXXX....                                                                                                ",
"XX@@OOOOOOooXXXXXXooXXXXXXXX....                                                                                                ",
"XX@@OOOOOOooXX@@OO++ooooooXXXX..                                                                                                ",
"XX@@OOOOOOooXX@@OO++ooooooXXXX..                                                                                                ",
"XX@@OOOOooooXX@@OO++ooooooXXXX..                                                                                                ",
"XX@@OOOOooooXX@@OO++ooooooXXXX..                                                                                                ",
"XX@@OOOOooooXX@@OO++ooooooooXX..                                                                                                ",
"XX@@OOOOooooXX@@OO++ooooooooXX..                                                                                                ",
"XX@@OOooooooXX@@OO++ooooooooXX..                                                                                                ",
"XX@@OOooooooXX@@OO++ooooooooXX..                                                                                                ",
"XX@@OOooOOooXX++OO++ooooooooXX..                                                                                                ",
"XX@@OOooOOooXX++OO++ooooooooXX..                                                                                                ",
"XX@@OOOOOOooXX++OO++ooooooooXX..                                                                                                ",
"XX@@OOOOOOooXX++OO++ooooooooXX..                                                                                                ",
"XX@@OOOOOOooXX++OO++ooooooooXX..                                                                                                ",
"XX@@OOOOOOooXX++OO++ooooooooXX..                                                                                                "
};
