/* XPM */
static char *c1703609641[] = {
/* columns rows colors chars-per-pixel */
"128 128 10 1 ",
"  c black",
". c #1D191B",
"X c #241F21",
"o c #272325",
"O c #2A2628",
"+ c #322E30",
"@ c #6A4800",
"# c #B46D00",
"$ c #8B918B",
"% c white",
/* pixels */
"XXXXOOOOOOOOOOOOOOOOOOooooooooooXXXXOOooooooooooooooooOOOOOOOOXXXXXXOOOOOOOOOOOOOOOOOOooooooooooXXXXOOooooooooooooooooOOOOOOOOXX",
"XXXXOOOOOOOOOOOOOOOOOOooooooooooXXXXOOooooooooooooooooOOOOOOOOXXXXXXOOOOOOOOOOOOOOOOOOooooooooooXXXXOOooooooooooooooooOOOOOOOOXX",
"XXooOOooOOOOOOOOOOOOooooooooooooXXOOOOOOOOOOooooooOOOOOOOOOOOOOOXXooOOooOOOOOOOOOOOOooooooooooooXXOOOOOOOOOOooooooOOOOOOOOOOOOOO",
"XXooOOooOOOOOOOOOOOOooooooooooooXXOOOOOOOOOOooooooOOOOOOOOOOOOOOXXooOOooOOOOOOOOOOOOooooooooooooXXOOOOOOOOOOooooooOOOOOOOOOOOOOO",
"XXOOOOooooOOOOOOOOOOOOOOOOOOOOooXXOOOOOOOOOOooooooOOOOOOOOOOOOOOXXOOOOooooOOOOOOOOOOOOOOOOOOOOooXXOOOOOOOOOOooooooOOOOOOOOOOOOOO",
"XXOOOOooooOOOOOOOOOOOOOOOOOOOOooXXOOOOOOOOOOooooooOOOOOOOOOOOOOOXXOOOOooooOOOOOOOOOOOOOOOOOOOOooXXOOOOOOOOOOooooooOOOOOOOOOOOOOO",
"XXOOOOOOooooOOOOOOOOOOOOOOOOOOooXXOOOOOOOOOOOOooooooOOOOOOOOOOOOXXOOOOOOooooOOOOOOOOOOOOOOOOOOooXXOOOOOOOOOOOOooooooOOOOOOOOOOOO",
"XXOOOOOOooooOOOOOOOOOOOOOOOOOOooXXOOOOOOOOOOOOooooooOOOOOOOOOOOOXXOOOOOOooooOOOOOOOOOOOOOOOOOOooXXOOOOOOOOOOOOooooooOOOOOOOOOOOO",
"XXOOOOooooOOOOOOOOOOOOOOOOOOooooXXOOOOOOOOOOOOOOOOooOOOOOOOOOOOOXXOOOOooooOOOOOOOOOOOOOOOOOOooooXXOOOOOOOOOOOOOOOOooOOOOOOOOOOOO",
"XXOOOOooooOOOOOOOOOOOOOOOOOOooooXXOOOOOOOOOOOOOOOOooOOOOOOOOOOOOXXOOOOooooOOOOOOOOOOOOOOOOOOooooXXOOOOOOOOOOOOOOOOooOOOOOOOOOOOO",
"XXOOOOOOOOOOOOOOOOOOOOOOOOOOOOOOXXOOOOOOOOOOOOOOOOOOOOOOOOOOOOOOXXOOOOOOOOOOOOOOOOOOOOOOOOOOOOOOXXOOOOOOOOOOOOOOOOOOOOOOOOOOOOOO",
"XXOOOOOOOOOOOOOOOOOOOOOOOOOOOOOOXXOOOOOOOOOOOOOOOOOOOOOOOOOOOOOOXXOOOOOOOOOOOOOOOOOOOOOOOOOOOOOOXXOOOOOOOOOOOOOOOOOOOOOOOOOOOOOO",
"..OOOOOOOOOOOOOOOOOOOOOOOOOOOOOO..++OOooOOOOOOOOOOOOOOOOOOOOOOOO..OOOOOOOOOOOOOOOOOOOOOOOOOOOOOO..++OOooOOOOOOOOOOOOOOOOOOOOOOOO",
"..OOOOOOOOOOOOOOOOOOOOOOOOOOOOOO..++OOooOOOOOOOOOOOOOOOOOOOOOOOO..OOOOOOOOOOOOOOOOOOOOOOOOOOOOOO..++OOooOOOOOOOOOOOOOOOOOOOOOOOO",
"..OOOOOOOOOOOOOOooOOOOOOOOOOOOOO..++OOooooOOOOOOOOOOOOOOOOOOOOOO..OOOOOOOOOOOOOOooOOOOOOOOOOOOOO..++OOooooOOOOOOOOOOOOOOOOOOOOOO",
"..OOOOOOOOOOOOOOooOOOOOOOOOOOOOO..++OOooooOOOOOOOOOOOOOOOOOOOOOO..OOOOOOOOOOOOOOooOOOOOOOOOOOOOO..++OOooooOOOOOOOOOOOOOOOOOOOOOO",
"..OOOOOOOOOOOOooooOOOOOOOOOOOOOO..++OOooooooOOOOOOOOOOOOOOOOOO++..OOOOOOOOOOOOooooOOOOOOOOOOOOOO..++OOooooooOOOOOOOOOOOOOOOOOO++",
"..OOOOOOOOOOOOooooOOOOOOOOOOOOOO..++OOooooooOOOOOOOOOOOOOOOOOO++..OOOOOOOOOOOOooooOOOOOOOOOOOOOO..++OOooooooOOOOOOOOOOOOOOOOOO++",
"..++OOOOOOOOooooOOOOOOOOOOOOOOOO..++OOOOooOOOOOOOOOOooOOOOOOOO++..++OOOOOOOOooooOOOOOOOOOOOOOOOO..++OOOOooOOOOOOOOOOooOOOOOOOO++",
"..++OOOOOOOOooooOOOOOOOOOOOOOOOO..++OOOOooOOOOOOOOOOooOOOOOOOO++..++OOOOOOOOooooOOOOOOOOOOOOOOOO..++OOOOooOOOOOOOOOOooOOOOOOOO++",
"..++OOOOOOooooOOOOOOooooooOOOOOO..++OOOOOOOOOOOOOOooooooOOOOOO++..++OOOOOOooooOOOOOOooooooOOOOOO..++OOOOOOOOOOOOOOooooooOOOOOO++",
"..++OOOOOOooooOOOOOOooooooOOOOOO..++OOOOOOOOOOOOOOooooooOOOOOO++..++OOOOOOooooOOOOOOooooooOOOOOO..++OOOOOOOOOOOOOOooooooOOOOOO++",
"..++OOOOOOOOOOOOOOOOOOooooooOOOO..++OOOOOOOOOOOOooooooOOOOOOOO++..++OOOOOOOOOOOOOOOOOOooooooOOOO..++OOOOOOOOOOOOooooooOOOOOOOO++",
"..++OOOOOOOOOOOOOOOOOOooooooOOOO..++OOOOOOOOOOOOooooooOOOOOOOO++..++OOOOOOOOOOOOOOOOOOooooooOOOO..++OOOOOOOOOOOOooooooOOOOOOOO++",
"..++OOOOOOOOOOOOOOOOOOOOooooOO++..++OOOOOOOOOOOOOOOOOOOOOOOOOO++..++OOOOOOOOOOOOOOOOOOOOooooOO++..++OOOOOOOOOOOOOOOOOOOOOOOOOO++",
"..++OOOOOOOOOOOOOOOOOOOOooooOO++..++OOOOOOOOOOOOOOOOOOOOOOOOOO++..++OOOOOOOOOOOOOOOOOOOOooooOO++..++OOOOOOOOOOOOOOOOOOOOOOOOOO++",
"..++++OOOOOOOOOOOOOOOOOOOOOOOO++..++++++++OOOOOOOOOOOOOOOOOOOO++..++++OOOOOOOOOOOOOOOOOOOOOOOO++..++++++++OOOOOOOOOOOOOOOOOOOO++",
"..++++OOOOOOOOOOOOOOOOOOOOOOOO++..++++++++OOOOOOOOOOOOOOOOOOOO++..++++OOOOOOOOOOOOOOOOOOOOOOOO++..++++++++OOOOOOOOOOOOOOOOOOOO++",
"..XXXX++++++++++++++++++++++++++..oooooooo++++++++++++++++++++++..XXXX++++++++++++++++++++++++++..oooooooo++++++++++++++++++++++",
"..XXXX++++++++++++++++++++++++++..oooooooo++++++++++++++++++++++..XXXX++++++++++++++++++++++++++..oooooooo++++++++++++++++++++++",
"........................XXXXXXXXXXXXXXXXXXXXXX..........................................XXXXXXXXXXXXXXXXXXXXXX..................",
"........................XXXXXXXXXXXXXXXXXXXXXX..........................................XXXXXXXXXXXXXXXXXXXXXX..................",
"..ooooooooooOOOOOOOOOOOOOOOOOOXX..XXOOooooooOOOOOOOOOOOOOOOOOOOO..ooooooooooOOOOOOOOOOOOOOOOOOXX..XXOOooooooOOOOOOOOOOOOOOOOOOOO",
"..ooooooooooOOOOOOOOOOOOOOOOOOXX..XXOOooooooOOOOOOOOOOOOOOOOOOOO..ooooooooooOOOOOOOOOOOOOOOOOOXX..XXOOooooooOOOOOOOOOOOOOOOOOOOO",
"..ooooOOOOOOOOOOOOOOOOOOooooooOO..OOooooooooOOOOOOOOOOOOOOooooOO..ooooOOOOOOOOOOOOOOOOOOooooooOO..OOooooooooOOOOOOOOOOOOOOooooOO",
"..ooooOOOOOOOOOOOOOOOOOOooooooOO..OOooooooooOOOOOOOOOOOOOOooooOO..ooooOOOOOOOOOOOOOOOOOOooooooOO..OOooooooooOOOOOOOOOOOOOOooooOO",
"..ooooOOOOOOOOOOOOOOOOooooooooOOXXOOOOOOOOOOOOOOOOOOOOOOoooooooo..ooooOOOOOOOOOOOOOOOOooooooooOOXXOOOOOOOOOOOOOOOOOOOOOOoooooooo",
"..ooooOOOOOOOOOOOOOOOOooooooooOOXXOOOOOOOOOOOOOOOOOOOOOOoooooooo..ooooOOOOOOOOOOOOOOOOooooooooOOXXOOOOOOOOOOOOOOOOOOOOOOoooooooo",
"..ooOOOOOOOOOOOOOOOOOOooooooOO++XXOOOOOOOOOOOOOOOOOOOOOOOOOOoooo..ooOOOOOOOOOOOOOOOOOOooooooOO++XXOOOOOOOOOOOOOOOOOOOOOOOOOOoooo",
"..ooOOOOOOOOOOOOOOOOOOooooooOO++XXOOOOOOOOOOOOOOOOOOOOOOOOOOoooo..ooOOOOOOOOOOOOOOOOOOooooooOO++XXOOOOOOOOOOOOOOOOOOOOOOOOOOoooo",
"XXOOOOOOOOOOOOOOOOOOOOooOOOOOO++XXOOOOOOOOOOOOOOOOOOOOOOOOOOOOOOXXOOOOOOOOOOOOOOOOOOOOooOOOOOO++XXOOOOOOOOOOOOOOOOOOOOOOOOOOOOOO",
"XXOOOOOOOOOOOOOOOOOOOOooOOOOOO++XXOOOOOOOOOOOOOOOOOOOOOOOOOOOOOOXXOOOOOOOOOOOOOOOOOOOOooOOOOOO++XXOOOOOOOOOOOOOOOOOOOOOOOOOOOOOO",
"XXOOOOOOOOOOOOOOOOOOOOOOOOOOOO++XXOOOOooooooOOOOOOOOOOOOOOOOOOOOXXOOOOOOOOOOOOOOOOOOOOOOOOOOOO++XXOOOOooooooOOOOOOOOOOOOOOOOOOOO",
"XXOOOOOOOOOOOOOOOOOOOOOOOOOOOO++XXOOOOooooooOOOOOOOOOOOOOOOOOOOOXXOOOOOOOOOOOOOOOOOOOOOOOOOOOO++XXOOOOooooooOOOOOOOOOOOOOOOOOOOO",
"XXOOOOOOOOOOOOOOOOOOOOOOOOOOOO++..OOooooooOOOOOOOOOOOOOOOOOOOOOOXXOOOOOOOOOOOOOOOOOOOOOOOOOOOO++..OOooooooOOOOOOOOOOOOOOOOOOOOOO",
"XXOOOOOOOOOOOOOOOOOOOOOOOOOOOO++..OOooooooOOOOOOOOOOOOOOOOOOOOOOXXOOOOOOOOOOOOOOOOOOOOOOOOOOOO++..OOooooooOOOOOOOOOOOOOOOOOOOOOO",
"XXOOOOooOOOOOOOOOOOOOOOOOOOOOO++..OOooooOOOOOOOOOOOOOOOOOOOOOOOOXXOOOOooOOOOOOOOOOOOOOOOOOOOOO++..OOooooOOOOOOOOOOOOOOOOOOOOOOOO",
"XXOOOOooOOOOOOOOOOOOOOOOOOOOOO++..OOooooOOOOOOOOOOOOOOOOOOOOOOOOXXOOOOooOOOOOOOOOOOOOOOOOOOOOO++..OOooooOOOOOOOOOOOOOOOOOOOOOOOO",
"XX++OOOOooOOOOOOOOOOOOOOOOOOOO++..OOOOOOOOOOOOOOOOOOOOOOOOoooo      OOOOooOOOOOOOOOOOOOOOOOOOO++..OOOOOOOOOOOOOOOOOOOOOOOOooooOO",
"XX++OOOOooOOOOOOOOOOOOOOOOOOOO++..OOOOOOOOOOOOOOOOOOOOOOOOoooo      OOOOooOOOOOOOOOOOOOOOOOOOO++..OOOOOOOOOOOOOOOOOOOOOOOOooooOO",
"..++OOOOOOOOOOOOOOOOooooooOOOO++..OOOOOOOOOOOOOOOOOOOOOOOOoo  %%$$    OOOOOOOOOOOOOOooooooOOOO++..OOOOOOOOOOOOOOOOOOOOOOOOooOOOO",
"..++OOOOOOOOOOOOOOOOooooooOOOO++..OOOOOOOOOOOOOOOOOOOOOOOOoo  %%$$    OOOOOOOOOOOOOOooooooOOOO++..OOOOOOOOOOOOOOOOOOOOOOOOooOOOO",
"..++OOOOOOOOOOOOOOOOooooooOOOO++..++OOOOOOOOooooOOOOOOOOoo  %%$$$$  $$  OOOOOOOOOOOOooooooOOOO++..++OOOOOOOOooooOOOOOOOOooooOOOO",
"..++OOOOOOOOOOOOOOOOooooooOOOO++..++OOOOOOOOooooOOOOOOOOoo  %%$$$$  $$  OOOOOOOOOOOOooooooOOOO++..++OOOOOOOOooooOOOOOOOOooooOOOO",
"..++OOOOOOOOOOOOOOOOOOooooooOO++..++OOOOOOooOOooOOOOOOOO  %%$$$$  $$  @@  OOOOOOOOOOOOooooooOO++..++OOOOOOooOOooOOOOOOOOOOOOOOOO",
"..++OOOOOOOOOOOOOOOOOOooooooOO++..++OOOOOOooOOooOOOOOOOO  %%$$$$  $$  @@  OOOOOOOOOOOOooooooOO++..++OOOOOOooOOooOOOOOOOOOOOOOOOO",
"..++OOOOOOOOOOOOOOOOOOOOOOOOOO++XX++OOOOooooooOOOOOOOO  %%$$$$  $$  @@  @@  OOOOOOOOOOOOOOOOOO++XX++OOOOooooooOOOOOOOOOOOOOOOO++",
"..++OOOOOOOOOOOOOOOOOOOOOOOOOO++XX++OOOOooooooOOOOOOOO  %%$$$$  $$  @@  @@  OOOOOOOOOOOOOOOOOO++XX++OOOOooooooOOOOOOOOOOOOOOOO++",
"..++OOOOOOOOOOOO++++++++++++++++XX++OOOOOOOOOOOOOOOO  %%$$%%  $$      %%  $$  OO++++++++++++++++XX++OOOOOOOOOOOOOOOOOOOOOOOOOO++",
"..++OOOOOOOOOOOO++++++++++++++++XX++OOOOOOOOOOOOOOOO  %%$$%%  $$      %%  $$  OO++++++++++++++++XX++OOOOOOOOOOOOOOOOOOOOOOOOOO++",
"..++++++++++++++ooooooooooooooooXXXX++++++++++++++  $$%%%%  $$      @@  @@$$$$  ooooooooooooooooXXXX++++++++++++++++++++++++++OO",
"..++++++++++++++ooooooooooooooooXXXX++++++++++++++  $$%%%%  $$      @@  @@$$$$  ooooooooooooooooXXXX++++++++++++++++++++++++++OO",
"........................XXXXXXXXXXXXXXXXXX......  %%$$    $$  @@@@      $$  %%$$........XXXXXXXXXXXXXXXXXX......................",
"........................XXXXXXXXXXXXXXXXXX......  %%$$    $$  @@@@      $$  %%$$........XXXXXXXXXXXXXXXXXX......................",
"XXXXOOOOOOOOOOOOOOOOOOooooooooooXXXXOOoooooooooo  $$%%$$$$  @@  ##@@  $$  %%$$  OOOOOOooooooooooXXXXOOooooooooooooooooOOOOOOOOXX",
"XXXXOOOOOOOOOOOOOOOOOOooooooooooXXXXOOoooooooooo  $$%%$$$$  @@  ##@@  $$  %%$$  OOOOOOooooooooooXXXXOOooooooooooooooooOOOOOOOOXX",
"XXooOOooOOOOOOOOOOOOooooooooooooXXOOOOOOOOOOoooooo  $$%%$$@@  %%  @@$$  %%$$  OOOOOOooooooooooooXXOOOOOOOOOOooooooOOOOOOOOOOOOOO",
"XXooOOooOOOOOOOOOOOOooooooooooooXXOOOOOOOOOOoooooo  $$%%$$@@  %%  @@$$  %%$$  OOOOOOooooooooooooXXOOOOOOOOOOooooooOOOOOOOOOOOOOO",
"XXOOOOooooOOOOOOOOOOOOOOOOOOOOooXXOOOOOOOOOOooooooOO  $$%%$$@@  @@$$  %%$$  OOOOOOOOOOOOOOOOOOooXXOOOOOOOOOOooooooOOOOOOOOOOOOOO",
"XXOOOOooooOOOOOOOOOOOOOOOOOOOOooXXOOOOOOOOOOooooooOO  $$%%$$@@  @@$$  %%$$  OOOOOOOOOOOOOOOOOOooXXOOOOOOOOOOooooooOOOOOOOOOOOOOO",
"XXOOOOOOooooOOOOOOOOOOOOOOOOOOooXXOOOOOOOOOOOOooooooOO  $$%%$$@@$$  %%$$  ooOOOOOOOOOOOOOOOOOOooXXOOOOOOOOOOOOooooooOOOOOOOOOOOO",
"XXOOOOOOooooOOOOOOOOOOOOOOOOOOooXXOOOOOOOOOOOOooooooOO  $$%%$$@@$$  %%$$  ooOOOOOOOOOOOOOOOOOOooXXOOOOOOOOOOOOooooooOOOOOOOOOOOO",
"XXOOOOooooOOOOOOOOOOOOOOOOOOooooXXOOOOOOOOOOOOOOOOooOOOO  $$%%$$  %%$$  ooOOOOOOOOOOOOOOOOOOooooXXOOOOOOOOOOOOOOOOooOOOOOOOOOOOO",
"XXOOOOooooOOOOOOOOOOOOOOOOOOooooXXOOOOOOOOOOOOOOOOooOOOO  $$%%$$  %%$$  ooOOOOOOOOOOOOOOOOOOooooXXOOOOOOOOOOOOOOOOooOOOOOOOOOOOO",
"XXOOOOOOOOOOOOOOOOOOOOOOOOOOOOOOXXOOOOOOOOOOOOOOOOOOOOOOOO  $$%%%%$$  OOOOOOOOOOOOOOOOOOOOOOOOOOXXOOOOOOOOOOOOOOOOOOOOOOOOOOOOOO",
"XXOOOOOOOOOOOOOOOOOOOOOOOOOOOOOOXXOOOOOOOOOOOOOOOOOOOOOOOO  $$%%%%$$  OOOOOOOOOOOOOOOOOOOOOOOOOOXXOOOOOOOOOOOOOOOOOOOOOOOOOOOOOO",
"..OOOOOOOOOOOOOOOOOOOOOOOOOOOOOO..++OOooOOOOOOOOOOOOOOOOOOOO  $$$$  OOOOOOOOOOOOOOOOOOOOOOOOOOOO..++OOooOOOOOOOOOOOOOOOOOOOOOOOO",
"..OOOOOOOOOOOOOOOOOOOOOOOOOOOOOO..++OOooOOOOOOOOOOOOOOOOOOOO  $$$$  OOOOOOOOOOOOOOOOOOOOOOOOOOOO..++OOooOOOOOOOOOOOOOOOOOOOOOOOO",
"..OOOOOOOOOOOOOOooOOOOOOOOOOOOOO..++OOooooOOOOOOOOOOOOOOOOOOOO    OOOOOOOOOOOOOOooOOOOOOOOOOOOOO..++OOooooOOOOOOOOOOOOOOOOOOOOOO",
"..OOOOOOOOOOOOOOooOOOOOOOOOOOOOO..++OOooooOOOOOOOOOOOOOOOOOOOO    OOOOOOOOOOOOOOooOOOOOOOOOOOOOO..++OOooooOOOOOOOOOOOOOOOOOOOOOO",
"..OOOOOOOOOOOOooooOOOOOOOOOOOOOO..++OOooooooOOOOOOOOOOOOOOOOOO++..OOOOOOOOOOOOooooOOOOOOOOOOOOOO..++OOooooooOOOOOOOOOOOOOOOOOO++",
"..OOOOOOOOOOOOooooOOOOOOOOOOOOOO..++OOooooooOOOOOOOOOOOOOOOOOO++..OOOOOOOOOOOOooooOOOOOOOOOOOOOO..++OOooooooOOOOOOOOOOOOOOOOOO++",
"..++OOOOOOOOooooOOOOOOOOOOOOOOOO..++OOOOooOOOOOOOOOOooOOOOOOOO++..++OOOOOOOOooooOOOOOOOOOOOOOOOO..++OOOOooOOOOOOOOOOooOOOOOOOO++",
"..++OOOOOOOOooooOOOOOOOOOOOOOOOO..++OOOOooOOOOOOOOOOooOOOOOOOO++..++OOOOOOOOooooOOOOOOOOOOOOOOOO..++OOOOooOOOOOOOOOOooOOOOOOOO++",
"..++OOOOOOooooOOOOOOooooooOOOOOO..++OOOOOOOOOOOOOOooooooOOOOOO++..++OOOOOOooooOOOOOOooooooOOOOOO..++OOOOOOOOOOOOOOooooooOOOOOO++",
"..++OOOOOOooooOOOOOOooooooOOOOOO..++OOOOOOOOOOOOOOooooooOOOOOO++..++OOOOOOooooOOOOOOooooooOOOOOO..++OOOOOOOOOOOOOOooooooOOOOOO++",
"..++OOOOOOOOOOOOOOOOOOooooooOOOO..++OOOOOOOOOOOOooooooOOOOOOOO++..++OOOOOOOOOOOOOOOOOOooooooOOOO..++OOOOOOOOOOOOooooooOOOOOOOO++",
"..++OOOOOOOOOOOOOOOOOOooooooOOOO..++OOOOOOOOOOOOooooooOOOOOOOO++..++OOOOOOOOOOOOOOOOOOooooooOOOO..++OOOOOOOOOOOOooooooOOOOOOOO++",
"..++OOOOOOOOOOOOOOOOOOOOooooOO++..++OOOOOOOOOOOOOOOOOOOOOOOOOO++..++OOOOOOOOOOOOOOOOOOOOooooOO++..++OOOOOOOOOOOOOOOOOOOOOOOOOO++",
"..++OOOOOOOOOOOOOOOOOOOOooooOO++..++OOOOOOOOOOOOOOOOOOOOOOOOOO++..++OOOOOOOOOOOOOOOOOOOOooooOO++..++OOOOOOOOOOOOOOOOOOOOOOOOOO++",
"..++++OOOOOOOOOOOOOOOOOOOOOOOO++..++++++++OOOOOOOOOOOOOOOOOOOO++..++++OOOOOOOOOOOOOOOOOOOOOOOO++..++++++++OOOOOOOOOOOOOOOOOOOO++",
"..++++OOOOOOOOOOOOOOOOOOOOOOOO++..++++++++OOOOOOOOOOOOOOOOOOOO++..++++OOOOOOOOOOOOOOOOOOOOOOOO++..++++++++OOOOOOOOOOOOOOOOOOOO++",
"..XXXX++++++++++++++++++++++++++..oooooooo++++++++++++++++++++++..XXXX++++++++++++++++++++++++++..oooooooo++++++++++++++++++++++",
"..XXXX++++++++++++++++++++++++++..oooooooo++++++++++++++++++++++..XXXX++++++++++++++++++++++++++..oooooooo++++++++++++++++++++++",
"........................XXXXXXXXXXXXXXXXXXXXXX..........................................XXXXXXXXXXXXXXXXXXXXXX..................",
"........................XXXXXXXXXXXXXXXXXXXXXX..........................................XXXXXXXXXXXXXXXXXXXXXX..................",
"..ooooooooooOOOOOOOOOOOOOOOOOOXX..XXOOooooooOOOOOOOOOOOOOOOOOOOO..ooooooooooOOOOOOOOOOOOOOOOOOXX..XXOOooooooOOOOOOOOOOOOOOOOOOOO",
"..ooooooooooOOOOOOOOOOOOOOOOOOXX..XXOOooooooOOOOOOOOOOOOOOOOOOOO..ooooooooooOOOOOOOOOOOOOOOOOOXX..XXOOooooooOOOOOOOOOOOOOOOOOOOO",
"..ooooOOOOOOOOOOOOOOOOOOooooooOO..OOooooooooOOOOOOOOOOOOOOooooOO..ooooOOOOOOOOOOOOOOOOOOooooooOO..OOooooooooOOOOOOOOOOOOOOooooOO",
"..ooooOOOOOOOOOOOOOOOOOOooooooOO..OOooooooooOOOOOOOOOOOOOOooooOO..ooooOOOOOOOOOOOOOOOOOOooooooOO..OOooooooooOOOOOOOOOOOOOOooooOO",
"..ooooOOOOOOOOOOOOOOOOooooooooOOXXOOOOOOOOOOOOOOOOOOOOOOoooooooo..ooooOOOOOOOOOOOOOOOOooooooooOOXXOOOOOOOOOOOOOOOOOOOOOOoooooooo",
"..ooooOOOOOOOOOOOOOOOOooooooooOOXXOOOOOOOOOOOOOOOOOOOOOOoooooooo..ooooOOOOOOOOOOOOOOOOooooooooOOXXOOOOOOOOOOOOOOOOOOOOOOoooooooo",
"..ooOOOOOOOOOOOOOOOOOOooooooOO++XXOOOOOOOOOOOOOOOOOOOOOOOOOOoooo..ooOOOOOOOOOOOOOOOOOOooooooOO++XXOOOOOOOOOOOOOOOOOOOOOOOOOOoooo",
"..ooOOOOOOOOOOOOOOOOOOooooooOO++XXOOOOOOOOOOOOOOOOOOOOOOOOOOoooo..ooOOOOOOOOOOOOOOOOOOooooooOO++XXOOOOOOOOOOOOOOOOOOOOOOOOOOoooo",
"XXOOOOOOOOOOOOOOOOOOOOooOOOOOO++XXOOOOOOOOOOOOOOOOOOOOOOOOOOOOOOXXOOOOOOOOOOOOOOOOOOOOooOOOOOO++XXOOOOOOOOOOOOOOOOOOOOOOOOOOOOOO",
"XXOOOOOOOOOOOOOOOOOOOOooOOOOOO++XXOOOOOOOOOOOOOOOOOOOOOOOOOOOOOOXXOOOOOOOOOOOOOOOOOOOOooOOOOOO++XXOOOOOOOOOOOOOOOOOOOOOOOOOOOOOO",
"XXOOOOOOOOOOOOOOOOOOOOOOOOOOOO++XXOOOOooooooOOOOOOOOOOOOOOOOOOOOXXOOOOOOOOOOOOOOOOOOOOOOOOOOOO++XXOOOOooooooOOOOOOOOOOOOOOOOOOOO",
"XXOOOOOOOOOOOOOOOOOOOOOOOOOOOO++XXOOOOooooooOOOOOOOOOOOOOOOOOOOOXXOOOOOOOOOOOOOOOOOOOOOOOOOOOO++XXOOOOooooooOOOOOOOOOOOOOOOOOOOO",
"XXOOOOOOOOOOOOOOOOOOOOOOOOOOOO++..OOooooooOOOOOOOOOOOOOOOOOOOOOOXXOOOOOOOOOOOOOOOOOOOOOOOOOOOO++..OOooooooOOOOOOOOOOOOOOOOOOOOOO",
"XXOOOOOOOOOOOOOOOOOOOOOOOOOOOO++..OOooooooOOOOOOOOOOOOOOOOOOOOOOXXOOOOOOOOOOOOOOOOOOOOOOOOOOOO++..OOooooooOOOOOOOOOOOOOOOOOOOOOO",
"XXOOOOooOOOOOOOOOOOOOOOOOOOOOO++..OOooooOOOOOOOOOOOOOOOOOOOOOOOOXXOOOOooOOOOOOOOOOOOOOOOOOOOOO++..OOooooOOOOOOOOOOOOOOOOOOOOOOOO",
"XXOOOOooOOOOOOOOOOOOOOOOOOOOOO++..OOooooOOOOOOOOOOOOOOOOOOOOOOOOXXOOOOooOOOOOOOOOOOOOOOOOOOOOO++..OOooooOOOOOOOOOOOOOOOOOOOOOOOO",
"XX++OOOOooOOOOOOOOOOOOOOOOOOOO++..OOOOOOOOOOOOOOOOOOOOOOOOooooOOXX++OOOOooOOOOOOOOOOOOOOOOOOOO++..OOOOOOOOOOOOOOOOOOOOOOOOooooOO",
"XX++OOOOooOOOOOOOOOOOOOOOOOOOO++..OOOOOOOOOOOOOOOOOOOOOOOOooooOOXX++OOOOooOOOOOOOOOOOOOOOOOOOO++..OOOOOOOOOOOOOOOOOOOOOOOOooooOO",
"..++OOOOOOOOOOOOOOOOooooooOOOO++..OOOOOOOOOOOOOOOOOOOOOOOOooOOOO..++OOOOOOOOOOOOOOOOooooooOOOO++..OOOOOOOOOOOOOOOOOOOOOOOOooOOOO",
"..++OOOOOOOOOOOOOOOOooooooOOOO++..OOOOOOOOOOOOOOOOOOOOOOOOooOOOO..++OOOOOOOOOOOOOOOOooooooOOOO++..OOOOOOOOOOOOOOOOOOOOOOOOooOOOO",
"..++OOOOOOOOOOOOOOOOooooooOOOO++..++OOOOOOOOooooOOOOOOOOooooOOOO..++OOOOOOOOOOOOOOOOooooooOOOO++..++OOOOOOOOooooOOOOOOOOooooOOOO",
"..++OOOOOOOOOOOOOOOOooooooOOOO++..++OOOOOOOOooooOOOOOOOOooooOOOO..++OOOOOOOOOOOOOOOOooooooOOOO++..++OOOOOOOOooooOOOOOOOOooooOOOO",
"..++OOOOOOOOOOOOOOOOOOooooooOO++..++OOOOOOooOOooOOOOOOOOOOOOOOOO..++OOOOOOOOOOOOOOOOOOooooooOO++..++OOOOOOooOOooOOOOOOOOOOOOOOOO",
"..++OOOOOOOOOOOOOOOOOOooooooOO++..++OOOOOOooOOooOOOOOOOOOOOOOOOO..++OOOOOOOOOOOOOOOOOOooooooOO++..++OOOOOOooOOooOOOOOOOOOOOOOOOO",
"..++OOOOOOOOOOOOOOOOOOOOOOOOOO++XX++OOOOooooooOOOOOOOOOOOOOOOO++..++OOOOOOOOOOOOOOOOOOOOOOOOOO++XX++OOOOooooooOOOOOOOOOOOOOOOO++",
"..++OOOOOOOOOOOOOOOOOOOOOOOOOO++XX++OOOOooooooOOOOOOOOOOOOOOOO++..++OOOOOOOOOOOOOOOOOOOOOOOOOO++XX++OOOOooooooOOOOOOOOOOOOOOOO++",
"..++OOOOOOOOOOOO++++++++++++++++XX++OOOOOOOOOOOOOOOOOOOOOOOOOO++..++OOOOOOOOOOOO++++++++++++++++XX++OOOOOOOOOOOOOOOOOOOOOOOOOO++",
"..++OOOOOOOOOOOO++++++++++++++++XX++OOOOOOOOOOOOOOOOOOOOOOOOOO++..++OOOOOOOOOOOO++++++++++++++++XX++OOOOOOOOOOOOOOOOOOOOOOOOOO++",
"..++++++++++++++ooooooooooooooooXXXX++++++++++++++++++++++++++OO..++++++++++++++ooooooooooooooooXXXX++++++++++++++++++++++++++OO",
"..++++++++++++++ooooooooooooooooXXXX++++++++++++++++++++++++++OO..++++++++++++++ooooooooooooooooXXXX++++++++++++++++++++++++++OO",
"........................XXXXXXXXXXXXXXXXXX..............................................XXXXXXXXXXXXXXXXXX......................",
"........................XXXXXXXXXXXXXXXXXX..............................................XXXXXXXXXXXXXXXXXX......................"
};
