/* XPM */
static char *_1703609643[] = {
/* columns rows colors chars-per-pixel */
"128 128 12 1 ",
"  c black",
". c #070707",
"X c #140E0E",
"o c #1B1916",
"O c #231F19",
"+ c #23201D",
"@ c #2E2A25",
"# c #312220",
"$ c #3C3129",
"% c #3F3628",
"& c #454135",
"* c #555145",
/* pixels */
"                                                                                                ................................",
"                                                                                                ................................",
"                                                                                                ..oooo@@@@@@@@oooooooooooooooooo",
"                                                                                                ..oooo@@@@@@@@oooooooooooooooooo",
"                                                                                                ..oooo@@@@@@@@@@@@@@oooooooooooo",
"                                                                                                ..oooo@@@@@@@@@@@@@@oooooooooooo",
"                                                                                                ..oo@@@@@@@@@@@@@@@@@@@@@@@@@@@@",
"                                                                                                ..oo@@@@@@@@@@@@@@@@@@@@@@@@@@@@",
"                                                                                                ..oo@@@@@@@@@@@@@@@@@@@@@@@@@@@@",
"                                                                                                ..oo@@@@@@@@@@@@@@@@@@@@@@@@@@@@",
"                                                                                                ..oo@@@@@@@@@@@@@@@@@@@@@@@@@@@@",
"                                                                                                ..oo@@@@@@@@@@@@@@@@@@@@@@@@@@@@",
"                                                                                                ..oo@@@@@@@@&&&&&&&&&&&&&&&&&&&&",
"                                                                                                ..oo@@@@@@@@&&&&&&&&&&&&&&&&&&&&",
"                                                                                                ..oo@@@@@@@@&&@@@@@@@@@@@@@@@@@@",
"                                                                                                ..oo@@@@@@@@&&@@@@@@@@@@@@@@@@@@",
"                                                                                                ..oo@@@@@@@@&&++++$$$$$$$$$$$$$$",
"                                                                                                ..oo@@@@@@@@&&++++$$$$$$$$$$$$$$",
"                                                                                                ..oo@@@@@@@@&&++&&&&************",
"                                                                                                ..oo@@@@@@@@&&++&&&&************",
"                                                                                                ..oo@@@@@@@@&&++&&@@@@@@@@@@@@@@",
"                                                                                                ..oo@@@@@@@@&&++&&@@@@@@@@@@@@@@",
"                                                                                                ..oo@@@@@@@@&&++&&@@@@@@@@@@@@@@",
"                                                                                                ..oo@@@@@@@@&&++&&@@@@@@@@@@@@@@",
"                                                                                                ..oo@@@@@@@@&&++**@@@@@@++++@@@@",
"                                                                                                ..oo@@@@@@@@&&++**@@@@@@++++@@@@",
"                                                                                                ..oo@@@@@@@@&&$$**++++++++++++++",
"                                                                                                ..oo@@@@@@@@&&$$**++++++++++++++",
"                                                                                                ..oo@@@@@@@@&&$$&&oooooooooooooo",
"                                                                                                ..oo@@@@@@@@&&$$&&oooooooooooooo",
"                                                                                                ..oo@@@@@@@@&&$$&&ooXXXXXXXXXXXX",
"                                                                                                ..oo@@@@@@@@&&$$&&ooXXXXXXXXXXXX",
"                                                                                                ..oo@@@@@@@@&&$$&&ooXXXXOOOO%%%%",
"                                                                                                ..oo@@@@@@@@&&$$&&ooXXXXOOOO%%%%",
"                                                                                                ..oo@@@@@@@@&&$$&&ooXXXXOOOO####",
"                                                                                                ..oo@@@@@@@@&&$$&&ooXXXXOOOO####",
"                                                                                                ..oooo@@@@@@&&$$&&ooXXXXOOOO####",
"                                                                                                ..oooo@@@@@@&&$$&&ooXXXXOOOO####",
"                                                                                                ..oooo@@@@@@&&$$&&ooXXXXXXXXXXOO",
"                                                                                                ..oooo@@@@@@&&$$&&ooXXXXXXXXXXOO",
"                                                                                                ..oo@@@@@@@@&&$$**ooXXXXOOOO####",
"                                                                                                ..oo@@@@@@@@&&$$**ooXXXXOOOO####",
"                                                                                                ..oo@@@@@@@@&&$$**ooXXOOOOOO####",
"                                                                                                ..oo@@@@@@@@&&$$**ooXXOOOOOO####",
"                                                                                                ..oo@@@@@@@@&&$$**ooXXOOOOXX####",
"                                                                                                ..oo@@@@@@@@&&$$**ooXXOOOOXX####",
"                                                                                                ....oooooooo@@ooooooXXXXXXXXXXXX",
"                                                                                                ....oooooooo@@ooooooXXXXXXXXXXXX",
"                                                                                                ..oooo@@@@@@&&$$**ooXXXXOO##%%%%",
"                                                                                                ..oooo@@@@@@&&$$**ooXXXXOO##%%%%",
"                                                                                                ..oooo@@@@@@&&$$**ooXXXXOOOO####",
"                                                                                                ..oooo@@@@@@&&$$**ooXXXXOOOO####",
"                                                                                                ..oooo@@@@@@&&$$**ooXXXXOO######",
"                                                                                                ..oooo@@@@@@&&$$**ooXXXXOO######",
"                                                                                                ..oo@@@@@@@@&&$$**ooXXXXXXXXXXXX",
"                                                                                                ..oo@@@@@@@@&&$$**ooXXXXXXXXXXXX",
"                                                                                                ..oo@@@@@@@@&&$$**ooXXOOOOOOXX%%",
"                                                                                                ..oo@@@@@@@@&&$$**ooXXOOOOOOXX%%",
"                                                                                                ..oo@@@@@@@@&&$$&&ooXXOOOOOOXX##",
"                                                                                                ..oo@@@@@@@@&&$$&&ooXXOOOOOOXX##",
"                                                                                                ..oo@@@@@@@@&&$$&&ooXXOOOOOOXX##",
"                                                                                                ..oo@@@@@@@@&&$$&&ooXXOOOOOOXX##",
"                                                                                                ..oo@@@@@@@@&&$$&&ooXXXXXXXXXXOO",
"                                                                                                ..oo@@@@@@@@&&$$&&ooXXXXXXXXXXOO",
"                                                                                                ..oooo@@@@@@&&$$&&ooXXXXOO%%%%%%",
"                                                                                                ..oooo@@@@@@&&$$&&ooXXXXOO%%%%%%",
"                                                                                                ..oooo@@@@@@&&$$&&ooXXXXOO######",
"                                                                                                ..oooo@@@@@@&&$$&&ooXXXXOO######",
"                                                                                                ..oo@@@@@@@@&&$$**ooXXXXOO######",
"                                                                                                ..oo@@@@@@@@&&$$**ooXXXXOO######",
"                                                                                                ..oo@@@@@@@@&&$$**ooXXXXXXXXOOOO",
"                                                                                                ..oo@@@@@@@@&&$$**ooXXXXXXXXOOOO",
"                                                                                                ..oo@@@@@@@@&&$$**ooXXXXOOOO####",
"                                                                                                ..oo@@@@@@@@&&$$**ooXXXXOOOO####",
"                                                                                                ..oo@@@@@@@@&&$$**ooXXOO##OO####",
"                                                                                                ..oo@@@@@@@@&&$$**ooXXOO##OO####",
"                                                                                                ..oo@@@@@@@@&&$$**ooXXOO##XX####",
"                                                                                                ..oo@@@@@@@@&&$$**ooXXOO##XX####",
"                                                                                                ..oo@@@@@@@@&&$$**ooXXXXXXXXXXXX",
"                                                                                                ..oo@@@@@@@@&&$$**ooXXXXXXXXXXXX",
"                                                                                                ..oo@@@@@@@@&&$$**ooXXOOOO##%%%%",
"                                                                                                ..oo@@@@@@@@&&$$**ooXXOOOO##%%%%",
"                                                                                                ..oo@@@@@@@@&&$$**ooXXOOOOOO####",
"                                                                                                ..oo@@@@@@@@&&$$**ooXXOOOOOO####",
"                                                                                                ..oo@@@@@@@@&&$$**ooXXOOOO######",
"                                                                                                ..oo@@@@@@@@&&$$**ooXXOOOO######",
"                                                                                                ..oo@@@@@@@@&&$$&&ooXXXXXXXXXXXX",
"                                                                                                ..oo@@@@@@@@&&$$&&ooXXXXXXXXXXXX",
"                                                                                                ..oo@@@@@@@@&&$$&&ooXXXXOOOOXX%%",
"                                                                                                ..oo@@@@@@@@&&$$&&ooXXXXOOOOXX%%",
"                                                                                                ..oo@@@@@@@@&&$$&&ooXXXXOOOOXX##",
"                                                                                                ..oo@@@@@@@@&&$$&&ooXXXXOOOOXX##",
"                                                                                                ..oo@@@@@@@@&&$$&&ooXXXXOO##XX##",
"                                                                                                ..oo@@@@@@@@&&$$&&ooXXXXOO##XX##",
"                                                                                                ..oo@@@@@@@@&&$$&&ooXXXXXXXXXXOO",
"                                                                                                ..oo@@@@@@@@&&$$&&ooXXXXXXXXXXOO",
"                                                                                                ..oo@@@@@@@@&&$$&&ooXXOOOO%%%%%%",
"                                                                                                ..oo@@@@@@@@&&$$&&ooXXOOOO%%%%%%",
"                                                                                                ..oo@@@@@@@@&&$$&&ooXXOOOO######",
"                                                                                                ..oo@@@@@@@@&&$$&&ooXXOOOO######",
"                                                                                                ..oooo@@@@@@&&$$&&ooXXOOOO######",
"                                                                                                ..oooo@@@@@@&&$$&&ooXXOOOO######",
"                                                                                                ..oooo@@@@@@&&$$&&ooXXXXXXXXXXOO",
"                                                                                                ..oooo@@@@@@&&$$&&ooXXXXXXXXXXOO",
"                                                                                                ..oo@@@@@@@@&&$$**ooXXOOOOOO####",
"                                                                                                ..oo@@@@@@@@&&$$**ooXXOOOOOO####",
"                                                                                                ..oo@@@@@@@@&&$$**ooXXOOOOOO####",
"                                                                                                ..oo@@@@@@@@&&$$**ooXXOOOOOO####",
"                                                                                                ..oo@@@@@@@@&&$$**ooXXOOOOXX####",
"                                                                                                ..oo@@@@@@@@&&$$**ooXXOOOOXX####",
"                                                                                                ....oooooooo@@ooooooXXXXXXXX++++",
"                                                                                                ....oooooooo@@ooooooXXXXXXXX++++",
"                                                                                                ..oooo@@@@@@&&$$**oo@@$$$$$$$$@@",
"                                                                                                ..oooo@@@@@@&&$$**oo@@$$$$$$$$@@",
"                                                                                                ..oooo@@@@@@&&$$**oo@@$$$$$$$$$$",
"                                                                                                ..oooo@@@@@@&&$$**oo@@$$$$$$$$$$",
"                                                                                                ..oooo@@@@@@&&$$**oo@@$$$$$$&&**",
"                                                                                                ..oooo@@@@@@&&$$**oo@@$$$$$$&&**",
"                                                                                                ..oo@@@@@@@@&&$$**oo@@@@$$$$**oo",
"                                                                                                ..oo@@@@@@@@&&$$**oo@@@@$$$$**oo",
"                                                                                                ..oo@@@@@@@@&&$$**oo@@@@$$$$**oo",
"                                                                                                ..oo@@@@@@@@&&$$**oo@@@@$$$$**oo",
"                                                                                                ..oo@@@@@@@@&&$$&&oo@@@@$$$$**oo",
"                                                                                                ..oo@@@@@@@@&&$$&&oo@@@@$$$$**oo",
"                                                                                                ..oo@@@@@@@@&&$$&&oo@@@@$$$$**oo",
"                                                                                                ..oo@@@@@@@@&&$$&&oo@@@@$$$$**oo",
"                                                                                                ..oo@@@@@@@@&&$$&&oo@@@@$$$$**oo",
"                                                                                                ..oo@@@@@@@@&&$$&&oo@@@@$$$$**oo"
};
