/* XPM */
static char *_41705062605[] = {
/* columns rows colors chars-per-pixel */
"128 128 9 1 ",
"  c 0",
". c #010101",
"X c #070707",
"o c #121110",
"O c #1B1916",
"+ c #2E2A25",
"@ c #3C3129",
"# c #454135",
"$ c #555145",
/* pixels */
"                                                                                                                                ",
"                                                                                                                                ",
"                                                                                                                                ",
"                                                                                                                                ",
"                                                                                                                                ",
"                                                                                                                                ",
"                                                                                                                                ",
"                                                                                                                                ",
"                                                                                                                                ",
"                                                                                                                                ",
"                                                                                                                                ",
"                                                                                                                                ",
"                                                                                                                                ",
"                                                                                                                                ",
"                                                                                                                                ",
"                                                                                                                                ",
"                                                                                                                                ",
"                                                                                                                                ",
"                                                                                                                                ",
"                                                                                                                                ",
"                                                                                                                                ",
"                                                                                                                                ",
"                                                                                                                                ",
"                                                                                                                                ",
"                                                                                                                                ",
"                                                                                                                                ",
"                                                                                                                                ",
"                                                                                                                                ",
"                                                                                                                                ",
"                                                                                                                                ",
"                                                                                                                                ",
"                                                                                                                                ",
"                                                                                                                                ",
"                                                                                                                                ",
"                                                                                                                                ",
"                                                                                                                                ",
"                                                                                                                                ",
"                                                                                                                                ",
"                                                                                                                                ",
"                                                                                                                                ",
"                                                                                                                                ",
"                                                                                                                                ",
"                                                                                                                                ",
"                                                                                                                                ",
"                                                                                                                                ",
"                                                                                                                                ",
"                                                                                                                                ",
"                                                                                                                                ",
"                                                                                                                                ",
"                                                                                                                                ",
"                                                                                                                                ",
"                                                                                                                                ",
"                                                                                                                                ",
"                                                                                                                                ",
"                                                                                                                                ",
"                                                                                                                                ",
"                                                                                                                                ",
"                                                                                                                                ",
"                                                                                                                                ",
"                                                                                                                                ",
"                                                                                                                                ",
"                                                                                                                                ",
"                                                                                                                                ",
"                                                                                                                                ",
"                                                                                                                                ",
"                                                                                                                                ",
"                                                                                                                                ",
"                                                                                                                                ",
"                                                                                                                                ",
"                                                                                                                                ",
"                                                                                                                                ",
"                                                                                                                                ",
"                                                                                                                                ",
"                                                                                                                                ",
"                                                                                                                                ",
"                                                                                                                                ",
"                                                                                                                                ",
"                                                                                                                                ",
"                                                                                                                                ",
"                                                                                                                                ",
"            OOOOOOOOOOOOOOOOOOOOOOOOOOOOOOOOOOOOOOOOOOOOOOOOOOOOOOOOOOOOOOOOOOOOOOOOOOOOOOOOOOOOOOOOOOOOOOOOOOOOOOOOOOOOOOOOOOOO",
"            OOOOOOOOOOOOOOOOOOOOOOOOOOOOOOOOOOOOOOOOOOOOOOOOOOOOOOOOOOOOOOOOOOOOOOOOOOOOOOOOOOOOOOOOOOOOOOOOOOOOOOOOOOOOOOOOOOOO",
"            OO$$$$########################OO##########@@@@@@@@@@##########@@@@@@@@@@##############OO############################",
"            OO$$$$########################OO##########@@@@@@@@@@##########@@@@@@@@@@##############OO############################",
"            OO$$@@##++++++++++++++++++++++OO++++++++++++++++++++++++++++++++++++++++++++++OOOO++@@OO@@++++++++++++++++++++++++@@",
"            OO$$@@##++++++++++++++++++++++OO++++++++++++++++++++++++++++++++++++++++++++++OOOO++@@OO@@++++++++++++++++++++++++@@",
"            OO$$@@##++++++OOOO++++++++++++XX++OOOO++++++++++++++++OOOO++++++++++++++++++++++++OO@@XX@@++++++++OOOO++++++++++OO++",
"            OO$$@@##++++++OOOO++++++++++++XX++OOOO++++++++++++++++OOOO++++++++++++++++++++++++OO@@XX@@++++++++OOOO++++++++++OO++",
"            OO$$@@##++++++++++++++++++OOOOXX++++OOOO++++++++++++++++OOOO++++++++++++++++++++++++++XX++++++++++++++++++++OOOO++++",
"            OO$$@@##++++++++++++++++++OOOOXX++++OOOO++++++++++++++++OOOO++++++++++++++++++++++++++XX++++++++++++++++++++OOOO++++",
"            OO$$@@##++++++OOOOOO++++++++++XX++++++++++++++OOOO++++++++++++++++OOOO++++OO++++++++++XXOOOOOO++++++++++++++++++++++",
"            OO$$@@##++++++OOOOOO++++++++++XX++++++++++++++OOOO++++++++++++++++OOOO++++OO++++++++++XXOOOOOO++++++++++++++++++++++",
"            OO$$@@##++++++OOOOOOOOOOOOOOOOXXOOOOOOOOOOOOOOOOOOOOOOOOOOOOOOOOOOOOOOOOOOOOOOOOOOOOOOXXOOOOOOOOOOOOOOOOOOOOOOOOOOOO",
"            OO$$@@##++++++OOOOOOOOOOOOOOOOXXOOOOOOOOOOOOOOOOOOOOOOOOOOOOOOOOOOOOOOOOOOOOOOOOOOOOOOXXOOOOOOOOOOOOOOOOOOOOOOOOOOOO",
"            OO$$@@##++++++++OOooooooooooooXXooooooooooooooooooooooooooooooooooooooooooooooooooooooXXoooooooooooooooooooooooooooo",
"            OO$$@@##++++++++OOooooooooooooXXooooooooooooooooooooooooooooooooooooooooooooooooooooooXXoooooooooooooooooooooooooooo",
"            OO##@@##++++++++OOooooooooooooXXooooooooooooooooooooooooooooooooooooooooooooooooooooooXXoooooooooooooooooooooooooooo",
"            OO##@@##++++++++OOooooooooooooXXooooooooooooooooooooooooooooooooooooooooooooooooooooooXXoooooooooooooooooooooooooooo",
"            OO##@@##++++++OOOOXXXXXXXXXXXXXXXXXXXXXXXXXXXXXXXXXXXXXXXXXXXXXXXXXXXXXXXXXXXXXXXXXXXXXXXXXXXXXXXXXXXXXXXXXXXXXXXXXX",
"            OO##@@##++++++OOOOXXXXXXXXXXXXXXXXXXXXXXXXXXXXXXXXXXXXXXXXXXXXXXXXXXXXXXXXXXXXXXXXXXXXXXXXXXXXXXXXXXXXXXXXXXXXXXXXXX",
"            OO##@@##++++++OOOOXX................................................................................................",
"            OO##@@##++++++OOOOXX................................................................................................",
"            OO##@@##++++++OOOOXX................................................................................................",
"            OO##@@##++++++OOOOXX................................................................................................",
"            OO##@@##++++++OOOOXX................................................................................................",
"            OO##@@##++++++OOOOXX................................................................................................",
"            OO##@@##++++++++OOXX................................................................................................",
"            OO##@@##++++++++OOXX................................................................................................",
"            OO##@@##++++++++OOXX................................................................................................",
"            OO##@@##++++++++OOXX................................................................................................",
"            OO##@@##++++++++OOXX................................................................................................",
"            OO##@@##++++++++OOXX................................................................................................",
"            OO##@@##++++++++OOXX................................................................................................",
"            OO##@@##++++++++OOXX................................................................................................",
"            OO##@@##++++++++OOXX................................................................................................",
"            OO##@@##++++++++OOXX................................................................................................",
"            OO##@@##++++++++OOXX................................................................................................",
"            OO##@@##++++++++OOXX................................................................................................",
"            OO##@@##++++++++OOXX................................................................................................",
"            OO##@@##++++++++OOXX................................................................................................",
"            OO$$@@##++++++++OOXX................................................................................................",
"            OO$$@@##++++++++OOXX................................................................................................",
"            OO$$@@##++++++++OOXX................................................................................................",
"            OO$$@@##++++++++OOXX................................................................................................",
"            OOOOOO++OOOOOOOOOOXX................................................................................................",
"            OOOOOO++OOOOOOOOOOXX................................................................................................",
"            OO$$@@##++++++++OOXX................................................................................................",
"            OO$$@@##++++++++OOXX................................................................................................"
};
