/* XPM */
static char *_1703609643[] = {
/* columns rows colors chars-per-pixel */
"128 128 12 1 ",
"  c #070707",
". c #140E0E",
"X c #1A1512",
"o c #1B1916",
"O c #231F19",
"+ c #23201D",
"@ c #2E2A25",
"# c #312220",
"$ c #3C3129",
"% c #3F3628",
"& c #454135",
"* c #555145",
/* pixels */
"                                                                                                                                ",
"                                                                                                                                ",
"oooooooooooooooooooooo  oooooooooooooooooooooooooooo  oooooooooooooooooooooooooooooooo  oooooooooooooooooooooooooooo  oooooooooo",
"oooooooooooooooooooooo  oooooooooooooooooooooooooooo  oooooooooooooooooooooooooooooooo  oooooooooooooooooooooooooooo  oooooooooo",
"@@oooo@@@@oo@@@@@@@@@@  oooooo@@@@@@@@@@@@@@@@@@@@@@  @@@@@@@@oo@@oooo@@@@oo@@@@@@@@@@  oooooo@@@@@@@@@@@@@@@@@@@@@@  @@@@@@@@oo",
"@@oooo@@@@oo@@@@@@@@@@  oooooo@@@@@@@@@@@@@@@@@@@@@@  @@@@@@@@oo@@oooo@@@@oo@@@@@@@@@@  oooooo@@@@@@@@@@@@@@@@@@@@@@  @@@@@@@@oo",
"@@@@@@@@@@@@@@@@@@@@@@  @@@@@@@@@@@@@@@@@@@@oooo@@@@oo@@@@@@@@@@@@@@@@@@@@@@@@@@@@@@@@  @@@@@@@@@@@@@@@@@@@@oooo@@@@oo@@@@@@@@@@",
"@@@@@@@@@@@@@@@@@@@@@@  @@@@@@@@@@@@@@@@@@@@oooo@@@@oo@@@@@@@@@@@@@@@@@@@@@@@@@@@@@@@@  @@@@@@@@@@@@@@@@@@@@oooo@@@@oo@@@@@@@@@@",
"@@@@@@@@@@@@@@@@@@oo$$  $$@@@@@@@@oooo@@@@@@@@@@oo@@oo$$@@@@@@@@@@@@@@@@@@@@@@@@@@oo$$  $$@@@@@@@@oooo@@@@@@@@@@oo@@oo$$@@@@@@@@",
"@@@@@@@@@@@@@@@@@@oo$$  $$@@@@@@@@oooo@@@@@@@@@@oo@@oo$$@@@@@@@@@@@@@@@@@@@@@@@@@@oo$$  $$@@@@@@@@oooo@@@@@@@@@@oo@@oo$$@@@@@@@@",
"@@@@@@@@@@@@@@oooo@@$$oo$$@@@@@@@@@@@@@@@@@@@@@@@@$$oo$$@@@@@@@@@@@@@@@@@@@@@@oooo@@$$oo$$@@@@@@@@@@@@@@@@@@@@@@@@$$oo$$@@@@@@@@",
"@@@@@@@@@@@@@@oooo@@$$oo$$@@@@@@@@@@@@@@@@@@@@@@@@$$oo$$@@@@@@@@@@@@@@@@@@@@@@oooo@@$$oo$$@@@@@@@@@@@@@@@@@@@@@@@@$$oo$$@@@@@@@@",
"$$$$$$$$&&&&&&&&&&&&&&oo&&&&&&&&&&&&&&&&&&&&&&&&&&&&oo&&&&&&&&&&$$$$$$$$&&&&&&&&&&&&&&oo&&&&&&&&&&&&&&&&&&&&&&&&&&&&oo&&&&&&&&&&",
"$$$$$$$$&&&&&&&&&&&&&&oo&&&&&&&&&&&&&&&&&&&&&&&&&&&&oo&&&&&&&&&&$$$$$$$$&&&&&&&&&&&&&&oo&&&&&&&&&&&&&&&&&&&&&&&&&&&&oo&&&&&&&&&&",
"@@@@@@@@@@@@@@@@@@@@@@oo@@@@@@@@@@@@@@@@@@@@@@@@@@@@oo@@@@@@@@@@@@@@@@@@@@@@@@@@@@@@@@oo@@@@@@@@@@@@@@@@@@@@@@@@@@@@oo@@@@@@@@@@",
"@@@@@@@@@@@@@@@@@@@@@@oo@@@@@@@@@@@@@@@@@@@@@@@@@@@@oo@@@@@@@@@@@@@@@@@@@@@@@@@@@@@@@@oo@@@@@@@@@@@@@@@@@@@@@@@@@@@@oo@@@@@@@@@@",
"$$$$$$$$$$$$++$$$$$$$$$$$$$$$$$$$$$$$$$$$$++++$$$$$$$$$$$$$$$$$$$$$$$$$$$$$$++$$$$$$$$$$$$$$$$$$$$$$$$$$$$++++$$$$$$$$$$$$$$$$$$",
"$$$$$$$$$$$$++$$$$$$$$$$$$$$$$$$$$$$$$$$$$++++$$$$$$$$$$$$$$$$$$$$$$$$$$$$$$++$$$$$$$$$$$$$$$$$$$$$$$$$$$$++++$$$$$$$$$$$$$$$$$$",
"************++****&&&&********************++************&&&&****************++****&&&&********************++************&&&&****",
"************++****&&&&********************++************&&&&****************++****&&&&********************++************&&&&****",
"@@@@@@@@@@@@oo@@@@@@@@@@@@@@@@@@@@@@@@@@@@oo@@@@@@@@@@@@@@@@@@@@@@@@@@@@@@@@oo@@@@@@@@@@@@@@@@@@@@@@@@@@@@oo@@@@@@@@@@@@@@@@@@@@",
"@@@@@@@@@@@@oo@@@@@@@@@@@@@@@@@@@@@@@@@@@@oo@@@@@@@@@@@@@@@@@@@@@@@@@@@@@@@@oo@@@@@@@@@@@@@@@@@@@@@@@@@@@@oo@@@@@@@@@@@@@@@@@@@@",
"@@@@@@@@@@@@oo@@@@@@++@@@@@@@@@@@@@@@@@@@@oo@@@@@@@@@@@@@@@@@@@@@@@@@@@@@@@@oo@@@@@@++@@@@@@@@@@@@@@@@@@@@oo@@@@@@@@@@@@@@@@@@@@",
"@@@@@@@@@@@@oo@@@@@@++@@@@@@@@@@@@@@@@@@@@oo@@@@@@@@@@@@@@@@@@@@@@@@@@@@@@@@oo@@@@@@++@@@@@@@@@@@@@@@@@@@@oo@@@@@@@@@@@@@@@@@@@@",
"@@@@@@@@++++oo@@@@@@++@@@@@@@@@@@@@@@@@@@@oo++++++++++@@@@++@@@@@@@@@@@@++++oo@@@@@@++@@@@@@@@@@@@@@@@@@@@oo++++++++++@@@@++@@@@",
"@@@@@@@@++++oo@@@@@@++@@@@@@@@@@@@@@@@@@@@oo++++++++++@@@@++@@@@@@@@@@@@++++oo@@@@@@++@@@@@@@@@@@@@@@@@@@@oo++++++++++@@@@++@@@@",
"++++++++++++oo++++++++++++++++++++++++++++oo++++++++++++++++++++++++++++++++oo++++++++++++++++++++++++++++oo++++++++++++++++++++",
"++++++++++++oo++++++++++++++++++++++++++++oo++++++++++++++++++++++++++++++++oo++++++++++++++++++++++++++++oo++++++++++++++++++++",
"oooooooooooooooooooooooooooooooooooooooooooooooooooooooooooooooooooooooooooooooooooooooooooooooooooooooooooooooooooooooooooooooo",
"oooooooooooooooooooooooooooooooooooooooooooooooooooooooooooooooooooooooooooooooooooooooooooooooooooooooooooooooooooooooooooooooo",
"................................................................................................................................",
"................................................................................................................................",
"XXXXXXXXXXXXXX..OOXXXXXXXXXXXX..XXXXXXXXXXXXOO..OOXXXXXXXXXXXX..XXXXXXXXXXXXXX..OOXXXXXXXXXXXX..XXXXXXXXXXXXOO..OOXXXXXXXXXXXX..",
"XXXXXXXXXXXXXX..OOXXXXXXXXXXXX..XXXXXXXXXXXXOO..OOXXXXXXXXXXXX..XXXXXXXXXXXXXX..OOXXXXXXXXXXXX..XXXXXXXXXXXXOO..OOXXXXXXXXXXXX..",
"OOOOOOOOOOOOOO..OOOOOOOOOOOOOO..XXOOOOOOOOOOOO..OOOOOOOOOOOOOO..OOOOOOOOOOOOOO..OOOOOOOOOOOOOO..XXOOOOOOOOOOOO..OOOOOOOOOOOOOO..",
"OOOOOOOOOOOOOO..OOOOOOOOOOOOOO..XXOOOOOOOOOOOO..OOOOOOOOOOOOOO..OOOOOOOOOOOOOO..OOOOOOOOOOOOOO..XXOOOOOOOOOOOO..OOOOOOOOOOOOOO..",
"OO##########OO..##########OOOO..OOOOOO########..OO########OO....OO##########OO..##########OOOO..OOOOOO########..OO########OO....",
"OO##########OO..##########OOOO..OOOOOO########..OO########OO....OO##########OO..##########OOOO..OOOOOO########..OO########OO....",
"................................................................................................................................",
"................................................................................................................................",
"####OOOO##########%%%%%%..%%%%######OOOO##########%%%%%%..%%%%######OOOO##########%%%%%%..%%%%######OOOO##########%%%%%%..%%%%##",
"####OOOO##########%%%%%%..%%%%######OOOO##########%%%%%%..%%%%######OOOO##########%%%%%%..%%%%######OOOO##########%%%%%%..%%%%##",
"######XX################..############XX################..############XX################..############XX################..######",
"######XX################..############XX################..############XX################..############XX################..######",
"######XXOO##############..############XXOO##############..############XXOO##############..############XXOO##############..######",
"######XXOO##############..############XXOO##############..############XXOO##############..############XXOO##############..######",
"....XXXXXXOOOOOOOOOOOOOOOOOOXXXX%%%%%%%%%%OOOOOOOOOOOOOOOOOOXXXX....XXXXXXOOOOOOOOOOOOOOOOOOXXXX%%%%%%%%%%OOOOOOOOOOOOOOOOOOXXXX",
"....XXXXXXOOOOOOOOOOOOOOOOOOXXXX%%%%%%%%%%OOOOOOOOOOOOOOOOOOXXXX....XXXXXXOOOOOOOOOOOOOOOOOOXXXX%%%%%%%%%%OOOOOOOOOOOOOOOOOOXXXX",
"######%%%%%%%%%%..##%%%%%%%%##XX##########%%%%%%..##%%%%%%%%##XX######%%%%%%%%%%..##%%%%%%%%##XX##########%%%%%%..##%%%%%%%%##XX",
"######%%%%%%%%%%..##%%%%%%%%##XX##########%%%%%%..##%%%%%%%%##XX######%%%%%%%%%%..##%%%%%%%%##XX##########%%%%%%..##%%%%%%%%##XX",
"################..############XX################..############XX################..############XX################..############XX",
"################..############XX################..############XX################..############XX################..############XX",
"OO##############OO############..OO##############OO############..OO##############OO############..OO##############OO############..",
"OO##############OO############..OO##############OO############..OO##############OO############..OO##############OO############..",
"OOOOXXXXXXOOOOOOOOOOOOOOOOOO....OOOOXXXXXXOOOOOOOOOOOOOOOOOO....OOOOXXXXXXOOOOOOOOOOOOOOOOOO....OOOOXXXXXXOOOOOOOOOOOOOOOOOO....",
"OOOOXXXXXXOOOOOOOOOOOOOOOOOO....OOOOXXXXXXOOOOOOOOOOOOOOOOOO....OOOOXXXXXXOOOOOOOOOOOOOOOOOO....OOOOXXXXXXOOOOOOOOOOOOOOOOOO....",
"%%%%OO####%%%%%%####OOOO########%%%%OO####%%%%%%####OOOO########%%%%OO####%%%%%%####OOOO########%%%%OO####%%%%%%####OOOO########",
"%%%%OO####%%%%%%####OOOO########%%%%OO####%%%%%%####OOOO########%%%%OO####%%%%%%####OOOO########%%%%OO####%%%%%%####OOOO########",
"####OO################OO############OO################OO############OO################OO############OO################OO########",
"####OO################OO############OO################OO############OO################OO############OO################OO########",
"####..################..############..################..############..################..############..################..########",
"####..################..############..################..############..################..############..################..########",
"..........OOOOOOOOXXXXXX..................OOOOOOOOXXXXXX..................OOOOOOOOXXXXXX..................OOOOOOOOXXXXXX........",
"..........OOOOOOOOXXXXXX..................OOOOOOOOXXXXXX..................OOOOOOOOXXXXXX..................OOOOOOOOXXXXXX........",
"######%%%%%%%%%%..##%%%%%%%%##XX######%%%%%%%%%%..##%%%%%%%%##XX######%%%%%%%%%%..##%%%%%%%%##XX######%%%%%%%%%%..##%%%%%%%%##XX",
"######%%%%%%%%%%..##%%%%%%%%##XX######%%%%%%%%%%..##%%%%%%%%##XX######%%%%%%%%%%..##%%%%%%%%##XX######%%%%%%%%%%..##%%%%%%%%##XX",
"################..############XX################..############XX################..############XX################..############XX",
"################..############XX################..############XX################..############XX################..############XX",
"OO##############OO############..OO##############OO############..OO##############OO############..OO##############OO############..",
"OO##############OO############..OO##############OO############..OO##############OO############..OO##############OO############..",
"OOOOXXXXXXOOOOOOOOOOOOOOOOOO....OOOOXXXXXXOOOOOOOOOOOOOOOOOO....OOOOXXXXXXOOOOOOOOOOOOOOOOOO....OOOOXXXXXXOOOOOOOOOOOOOOOOOO....",
"OOOOXXXXXXOOOOOOOOOOOOOOOOOO....OOOOXXXXXXOOOOOOOOOOOOOOOOOO....OOOOXXXXXXOOOOOOOOOOOOOOOOOO....OOOOXXXXXXOOOOOOOOOOOOOOOOOO....",
"%%%%OO####%%%%%%####OOOO########%%%%OO####%%%%%%####OOOO########%%%%OO####%%%%%%####OOOO########%%%%OO####%%%%%%####OOOO########",
"%%%%OO####%%%%%%####OOOO########%%%%OO####%%%%%%####OOOO########%%%%OO####%%%%%%####OOOO########%%%%OO####%%%%%%####OOOO########",
"####OO################OO############OO################OO############OO################OO############OO################OO########",
"####OO################OO############OO################OO############OO################OO############OO################OO########",
"####..################..############..################..############..################..############..################..########",
"####..################..############..################..############..################..############..################..########",
"..........OOOOOOOOXXXXXX..................OOOOOOOOXXXXXX..................OOOOOOOOXXXXXX..................OOOOOOOOXXXXXX........",
"..........OOOOOOOOXXXXXX..................OOOOOOOOXXXXXX..................OOOOOOOOXXXXXX..................OOOOOOOOXXXXXX........",
"%%%%%%########OO########%%%%%%..%%%%%%########OO########%%%%%%..%%%%%%########OO########%%%%%%..%%%%%%########OO########%%%%%%..",
"%%%%%%########OO########%%%%%%..%%%%%%########OO########%%%%%%..%%%%%%########OO########%%%%%%..%%%%%%########OO########%%%%%%..",
"##############OO##############..##############OO##############..##############OO##############..##############OO##############..",
"##############OO##############..##############OO##############..##############OO##############..##############OO##############..",
"##############OOOO############OO##############OOOO############OO##############OOOO############OO##############OOOO############OO",
"##############OOOO############OO##############OOOO############OO##############OOOO############OO##############OOOO############OO",
"..OOOOOO%%%%%%%%%%XX........OOOO..OOOOOOOOOOOOXXXXXX........OOOO..OOOOOO%%%%%%%%%%XX........OOOO..OOOOOOOOOOOOXXXXXX........OOOO",
"..OOOOOO%%%%%%%%%%XX........OOOO..OOOOOOOOOOOOXXXXXX........OOOO..OOOOOO%%%%%%%%%%XX........OOOO..OOOOOOOOOOOOXXXXXX........OOOO",
"####OOOO##########%%%%%%..%%%%######OOOO##########%%%%%%..%%%%######OOOO##########%%%%%%..%%%%######OOOO##########%%%%%%..%%%%##",
"####OOOO##########%%%%%%..%%%%######OOOO##########%%%%%%..%%%%######OOOO##########%%%%%%..%%%%######OOOO##########%%%%%%..%%%%##",
"######XX################..############XX################..############XX################..############XX################..######",
"######XX################..############XX################..############XX################..############XX################..######",
"######XXOO##############..############XXOO##############..############XXOO##############..############XXOO##############..######",
"######XXOO##############..############XXOO##############..############XXOO##############..############XXOO##############..######",
"....XXXXXXOOOOOOOOOOOOOOOOOOXXXX....XXXXXXOOOOOOOOOOOOOOOOOOXXXX....XXXXXXOOOOOOOOOOOOOOOOOOXXXX....XXXXXXOOOOOOOOOOOOOOOOOOXXXX",
"....XXXXXXOOOOOOOOOOOOOOOOOOXXXX....XXXXXXOOOOOOOOOOOOOOOOOOXXXX....XXXXXXOOOOOOOOOOOOOOOOOOXXXX....XXXXXXOOOOOOOOOOOOOOOOOOXXXX",
"######%%%%%%%%%%..##%%%%%%%%##XX######%%%%%%%%%%..##%%%%%%%%##XX######%%%%%%%%%%..##%%%%%%%%##XX######%%%%%%%%%%..##%%%%%%%%##XX",
"######%%%%%%%%%%..##%%%%%%%%##XX######%%%%%%%%%%..##%%%%%%%%##XX######%%%%%%%%%%..##%%%%%%%%##XX######%%%%%%%%%%..##%%%%%%%%##XX",
"################..############XX################..############XX################..############XX################..############XX",
"################..############XX################..############XX################..############XX################..############XX",
"OO##############OO############..OO##############OO############..OO##############OO############..OO##############OO############..",
"OO##############OO############..OO##############OO############..OO##############OO############..OO##############OO############..",
"OOOOXXXXXXOOOOOOOOOOOOOOOOOO....OOOOXXXXXXOOOOOOOOOOOOOOOOOO....OOOOXXXXXXOOOOOOOOOOOOOOOOOO....OOOOXXXXXXOOOOOOOOOOOOOOOOOO....",
"OOOOXXXXXXOOOOOOOOOOOOOOOOOO....OOOOXXXXXXOOOOOOOOOOOOOOOOOO....OOOOXXXXXXOOOOOOOOOOOOOOOOOO....OOOOXXXXXXOOOOOOOOOOOOOOOOOO....",
"%%%%OO####%%%%%%####OOOO########%%%%OO####%%%%%%####OOOO########%%%%OO####%%%%%%####OOOO########%%%%OO####%%%%%%####OOOO########",
"%%%%OO####%%%%%%####OOOO########%%%%OO####%%%%%%####OOOO########%%%%OO####%%%%%%####OOOO########%%%%OO####%%%%%%####OOOO########",
"####OO################OO############OO################OO############OO################OO############OO################OO########",
"####OO################OO############OO################OO############OO################OO############OO################OO########",
"####..################..############..################..############..################..############..################..########",
"####..################..############..################..############..################..############..################..########",
"++++++++++++++++++++++++++++++++++++++++++++++++++++++++++++++++++++++++++++++++++++++++++++++++++++++++++++++++++++++++++++++++",
"++++++++++++++++++++++++++++++++++++++++++++++++++++++++++++++++++++++++++++++++++++++++++++++++++++++++++++++++++++++++++++++++",
"$$$$$$@@@@@@@@@@@@@@$$$$$$++$$$$$$$$@@@@@@@@@@@@@@@@@@@@@@@@@@@@$$$$$$@@@@@@@@@@@@@@$$$$$$++$$$$$$$$@@@@@@$$@@@@@@@@@@@@@@@@@@@@",
"$$$$$$@@@@@@@@@@@@@@$$$$$$++$$$$$$$$@@@@@@@@@@@@@@@@@@@@@@@@@@@@$$$$$$@@@@@@@@@@@@@@$$$$$$++$$$$$$$$@@@@@@$$@@@@@@@@@@@@@@@@@@@@",
"$$$$$$$$$$$$$$$$$$$$$$$$$$++$$$$$$$$$$$@@$$$$$$$$$$$@@@@@@$$$$$$$$$$$$$$$$$$$$$$$$$$$$$$$$++$$$$$$$$$$$$$$$$$$$$$$$$@@@@@@$$$$$$",
"$$$$$$$$$$$$$$$$$$$$$$$$$$++$$$$$$$$$$$@@$$$$$$$$$$$@@@@@@$$$$$$$$$$$$$$$$$$$$$$$$$$$$$$$$++$$$$$$$$$$$$$$$$$$$$$$$$@@@@@@$$$$$$",
"&&&&&&&&&&**********&&&&&&++&&&&&&&&**************************&&&&&&&&&&&&**********&&&&&&++&&&&&&&&**************************&&",
"&&&&&&&&&&**********&&&&&&++&&&&&&&&**************************&&&&&&&&&&&&**********&&&&&&++&&&&&&&&**************************&&",
"@@@@@@@@@@@@@@@@@@@@@@@@@@oo@@@@@@@@@@@@@@@@@@@@@@@@@@@@@@@@@@@@@@@@@@@@@@@@@@@@@@@@@@@@@@oo@@@@@@@@@@@@@@@@@@@@@@@@@@@@@@@@@@@@",
"@@@@@@@@@@@@@@@@@@@@@@@@@@oo@@@@@@@@@@@@@@@@@@@@@@@@@@@@@@@@@@@@@@@@@@@@@@@@@@@@@@@@@@@@@@oo@@@@@@@@@@@@@@@@@@@@@@@@@@@@@@@@@@@@",
"@@@@@@@@@@@@++@@@@@@@@@@@@oo@@@@@@++@@@@@@@@@@@@@@@@@@++@@@@@@@@@@@@@@@@@@@@++@@@@@@@@@@@@oo@@@@@@++@@@@@@@@@@@@@@@@@@++@@@@@@@@",
"@@@@@@@@@@@@++@@@@@@@@@@@@oo@@@@@@++@@@@@@@@@@@@@@@@@@++@@@@@@@@@@@@@@@@@@@@++@@@@@@@@@@@@oo@@@@@@++@@@@@@@@@@@@@@@@@@++@@@@@@@@",
"@@@@@@++++++++++++@@++@@++oo@@@@@@++@@++++++++@@++++@@++@@@@@@@@@@@@@@++++++++++++@@++@@++oo@@@@@@++@@++++++++++++++@@++@@@@@@@@",
"@@@@@@++++++++++++@@++@@++oo@@@@@@++@@++++++++@@++++@@++@@@@@@@@@@@@@@++++++++++++@@++@@++oo@@@@@@++@@++++++++++++++@@++@@@@@@@@",
"++++++++++++++++++++++++++oo++++++++++++++++++++++++++++++++++++++++++++++++++++++++++++++oo++++++++++++++++++++++++++++++++++++",
"++++++++++++++++++++++++++oo++++++++++++++++++++++++++++++++++++++++++++++++++++++++++++++oo++++++++++++++++++++++++++++++++++++",
"oooooooooooooooooooooooooooooooooooooooooooooooooooooooooooooooooooooooooooooooooooooooooooooooooooooooooooooooooooooooooooooooo",
"oooooooooooooooooooooooooooooooooooooooooooooooooooooooooooooooooooooooooooooooooooooooooooooooooooooooooooooooooooooooooooooooo"
};
