/* XPM */
static char *_81703609641[] = {
/* columns rows colors chars-per-pixel */
"128 128 12 1 ",
"  c #070707",
". c #140E0E",
"X c #1A1512",
"o c #1B1916",
"O c #231F19",
"+ c #23201D",
"@ c #2E2A25",
"# c #312220",
"$ c #3C3129",
"% c #3F3628",
"& c #454135",
"* c #555145",
/* pixels */
"                                                                                                                                ",
"                                                                                                                                ",
"oooooooooooooooooooooo  oooooooooooooooooooooooooooooo  oooooooooooooooooooooooooooo  oooooooooooooooooooooooooooooo  oooooooooo",
"oooooooooooooooooooooo  oooooooooooooooooooooooooooooo  oooooooooooooooooooooooooooo  oooooooooooooooooooooooooooooo  oooooooooo",
"@@oooo@@@@oo@@@@@@@@@@  oooooo@@@@oooo@@@@oo@@@@@@@@@@  oooooo@@@@@@@@@@@@@@@@@@@@@@  @@@@@@@@oo@@@@@@@@@@@@@@@@@@@@  @@@@@@@@oo",
"@@oooo@@@@oo@@@@@@@@@@  oooooo@@@@oooo@@@@oo@@@@@@@@@@  oooooo@@@@@@@@@@@@@@@@@@@@@@  @@@@@@@@oo@@@@@@@@@@@@@@@@@@@@  @@@@@@@@oo",
"@@@@@@@@@@@@@@@@@@@@@@  @@@@@@@@@@@@@@@@@@@@@@@@@@@@@@  @@@@@@@@@@@@@@@@@@@@oooo@@@@oo@@@@@@@@@@@@@@@@@@@@@@oooo@@@@oo@@@@@@@@@@",
"@@@@@@@@@@@@@@@@@@@@@@  @@@@@@@@@@@@@@@@@@@@@@@@@@@@@@  @@@@@@@@@@@@@@@@@@@@oooo@@@@oo@@@@@@@@@@@@@@@@@@@@@@oooo@@@@oo@@@@@@@@@@",
"@@@@@@@@@@@@@@@@@@oo$$  $$@@@@@@@@@@@@@@@@@@@@@@@@oo$$  $$@@@@@@@@oooo@@@@@@@@@@oo@@oo$$@@@@@@@@@@oooo@@@@@@@@@@oo@@oo$$@@@@@@@@",
"@@@@@@@@@@@@@@@@@@oo$$  $$@@@@@@@@@@@@@@@@@@@@@@@@oo$$  $$@@@@@@@@oooo@@@@@@@@@@oo@@oo$$@@@@@@@@@@oooo@@@@@@@@@@oo@@oo$$@@@@@@@@",
"@@@@@@@@@@@@@@oooo@@$$oo$$@@@@@@@@@@@@@@@@@@@@oooo@@$$oo$$@@@@@@@@@@@@@@@@@@@@@@@@$$oo$$@@@@@@@@@@@@@@@@@@@@@@@@@@$$oo$$@@@@@@@@",
"@@@@@@@@@@@@@@oooo@@$$oo$$@@@@@@@@@@@@@@@@@@@@oooo@@$$oo$$@@@@@@@@@@@@@@@@@@@@@@@@$$oo$$@@@@@@@@@@@@@@@@@@@@@@@@@@$$oo$$@@@@@@@@",
"$$$$$$$$&&&&&&&&&&&&&&oo&&&&&&&&$$$$$$$$&&&&&&&&&&&&&&oo&&&&&&&&&&&&&&&&&&&&&&&&&&&&oo&&&&&&&&&&&&&&&&&&&&&&&&&&&&&&oo&&&&&&&&&&",
"$$$$$$$$&&&&&&&&&&&&&&oo&&&&&&&&$$$$$$$$&&&&&&&&&&&&&&oo&&&&&&&&&&&&&&&&&&&&&&&&&&&&oo&&&&&&&&&&&&&&&&&&&&&&&&&&&&&&oo&&&&&&&&&&",
"@@@@@@@@@@@@@@@@@@@@@@oo@@@@@@@@@@@@@@@@@@@@@@@@@@@@@@oo@@@@@@@@@@@@@@@@@@@@@@@@@@@@oo@@@@@@@@@@@@@@@@@@@@@@@@@@@@@@oo@@@@@@@@@@",
"@@@@@@@@@@@@@@@@@@@@@@oo@@@@@@@@@@@@@@@@@@@@@@@@@@@@@@oo@@@@@@@@@@@@@@@@@@@@@@@@@@@@oo@@@@@@@@@@@@@@@@@@@@@@@@@@@@@@oo@@@@@@@@@@",
"$$$$$$$$$$$$++$$$$$$$$$$$$$$$$$$$$$$$$$$$$$$++$$$$$$$$$$$$$$$$$$$$$$$$$$$$++++$$$$$$$$$$$$$$$$$$$$$$$$$$$$++++$$$$$$$$$$$$$$$$$$",
"$$$$$$$$$$$$++$$$$$$$$$$$$$$$$$$$$$$$$$$$$$$++$$$$$$$$$$$$$$$$$$$$$$$$$$$$++++$$$$$$$$$$$$$$$$$$$$$$$$$$$$++++$$$$$$$$$$$$$$$$$$",
"************++****&&&&**********************++****&&&&********************++************&&&&**************++************&&&&****",
"************++****&&&&**********************++****&&&&********************++************&&&&**************++************&&&&****",
"@@@@@@@@@@@@oo@@@@@@@@@@@@@@@@@@@@@@@@@@@@@@oo@@@@@@@@@@@@@@@@@@@@@@@@@@@@oo@@@@@@@@@@@@@@@@@@@@@@@@@@@@@@oo@@@@@@@@@@@@@@@@@@@@",
"@@@@@@@@@@@@oo@@@@@@@@@@@@@@@@@@@@@@@@@@@@@@oo@@@@@@@@@@@@@@@@@@@@@@@@@@@@oo@@@@@@@@@@@@@@@@@@@@@@@@@@@@@@oo@@@@@@@@@@@@@@@@@@@@",
"@@@@@@@@@@@@oo@@@@@@++@@@@@@@@@@@@@@@@@@@@@@oo@@@@@@++@@@@@@@@@@@@@@@@@@@@oo@@@@@@@@@@@@@@@@@@@@@@@@@@@@@@oo@@@@@@@@@@@@@@@@@@@@",
"@@@@@@@@@@@@oo@@@@@@++@@@@@@@@@@@@@@@@@@@@@@oo@@@@@@++@@@@@@@@@@@@@@@@@@@@oo@@@@@@@@@@@@@@@@@@@@@@@@@@@@@@oo@@@@@@@@@@@@@@@@@@@@",
"@@@@@@@@++++oo@@@@@@++@@@@@@@@@@@@@@@@@@++++oo@@@@@@++@@@@@@@@@@@@@@@@@@@@oo++++++++++@@@@++@@@@@@@@@@@@@@oo++++++++++@@@@++@@@@",
"@@@@@@@@++++oo@@@@@@++@@@@@@@@@@@@@@@@@@++++oo@@@@@@++@@@@@@@@@@@@@@@@@@@@oo++++++++++@@@@++@@@@@@@@@@@@@@oo++++++++++@@@@++@@@@",
"++++++++++++oo++++++++++++++++++++++++++++++oo++++++++++++++++++++++++++++oo++++++++++++++++++++++++++++++oo++++++++++++++++++++",
"++++++++++++oo++++++++++++++++++++++++++++++oo++++++++++++++++++++++++++++oo++++++++++++++++++++++++++++++oo++++++++++++++++++++",
"oooooooooooooooooooooooooooooooooooooooooooooooooooooooooooooooooooooooooooooooooooooooooooooooooooooooooooooooooooooooooooooooo",
"oooooooooooooooooooooooooooooooooooooooooooooooooooooooooooooooooooooooooooooooooooooooooooooooooooooooooooooooooooooooooooooooo",
"................................................................................................................................",
"................................................................................................................................",
"XXXXXXXXXXXXXX..OOXXXXXXXXXXXX..XXXXXXXXXXXXOO..OOXXXXXXXXXXXX..XXXXXXXXXXXXXX..OOXXXXXXXXXXXX..XXXXXXXXXXXXOO..OOXXXXXXXXXXXX..",
"XXXXXXXXXXXXXX..OOXXXXXXXXXXXX..XXXXXXXXXXXXOO..OOXXXXXXXXXXXX..XXXXXXXXXXXXXX..OOXXXXXXXXXXXX..XXXXXXXXXXXXOO..OOXXXXXXXXXXXX..",
"OOOOOOOOOOOOOO..OOOOOOOOOOOOOO..XXOOOOOOOOOOOO..OOOOOOOOOOOOOO..OOOOOOOOOOOOOO..OOOOOOOOOOOOOO..XXOOOOOOOOOOOO..OOOOOOOOOOOOOO..",
"OOOOOOOOOOOOOO..OOOOOOOOOOOOOO..XXOOOOOOOOOOOO..OOOOOOOOOOOOOO..OOOOOOOOOOOOOO..OOOOOOOOOOOOOO..XXOOOOOOOOOOOO..OOOOOOOOOOOOOO..",
"OO##########OO..##########OOOO..OOOOOO########..OO########OO....OO##########OO..##########OOOO..OOOOOO########..OO########OO....",
"OO##########OO..##########OOOO..OOOOOO########..OO########OO....OO##########OO..##########OOOO..OOOOOO########..OO########OO....",
"................................................................................................................................",
"................................................................................................................................",
"####OOOO##########%%%%%%..%%%%######OOOO##########%%%%%%..%%%%######OOOO##########%%%%%%..%%%%######OOOO##########%%%%%%..%%%%##",
"####OOOO##########%%%%%%..%%%%######OOOO##########%%%%%%..%%%%######OOOO##########%%%%%%..%%%%######OOOO##########%%%%%%..%%%%##",
"######XX################..############XX################..############XX################..############XX################..######",
"######XX################..############XX################..############XX################..############XX################..######",
"######XXOO##############..############XXOO##############..############XXOO##############..############XXOO##############..######",
"######XXOO##############..############XXOO##############..############XXOO##############..############XXOO##############..######",
"....XXXXXXOOOOOOOOOOOOOOOOOOXXXX%%%%%%%%%%OOOOOOOOOOOOOOOOOOXXXX....XXXXXXOOOOOOOOOOOOOOOOOOXXXX%%%%%%%%%%OOOOOOOOOOOOOOOOOOXXXX",
"....XXXXXXOOOOOOOOOOOOOOOOOOXXXX%%%%%%%%%%OOOOOOOOOOOOOOOOOOXXXX....XXXXXXOOOOOOOOOOOOOOOOOOXXXX%%%%%%%%%%OOOOOOOOOOOOOOOOOOXXXX",
"######%%%%%%%%%%..##%%%%%%%%##XX##########%%%%%%..##%%%%%%%%##XX######%%%%%%%%%%..##%%%%%%%%##XX##########%%%%%%..##%%%%%%%%##XX",
"######%%%%%%%%%%..##%%%%%%%%##XX##########%%%%%%..##%%%%%%%%##XX######%%%%%%%%%%..##%%%%%%%%##XX##########%%%%%%..##%%%%%%%%##XX",
"################..############XX################..############XX################..############XX################..############XX",
"################..############XX################..############XX################..############XX################..############XX",
"OO##############OO############..OO##############OO############..OO##############OO############..OO##############OO############..",
"OO##############OO############..OO##############OO############..OO##############OO############..OO##############OO############..",
"OOOOXXXXXXOOOOOOOOOOOOOOOOOO....OOOOXXXXXXOOOOOOOOOOOOOOOOOO....OOOOXXXXXXOOOOOOOOOOOOOOOOOO....OOOOXXXXXXOOOOOOOOOOOOOOOOOO....",
"OOOOXXXXXXOOOOOOOOOOOOOOOOOO....OOOOXXXXXXOOOOOOOOOOOOOOOOOO....OOOOXXXXXXOOOOOOOOOOOOOOOOOO....OOOOXXXXXXOOOOOOOOOOOOOOOOOO....",
"%%%%OO####%%%%%%####OOOO########%%%%OO########OO##                            OO######OO########%%%%OO####%%%%%%####OOOO########",
"%%%%OO####%%%%%%####OOOO########%%%%OO########OO##                            OO######OO########%%%%OO####%%%%%%####OOOO########",
"####OO################OO############OO########                                    ####OO############OO################OO########",
"####OO################OO############OO########                                    ####OO############OO################OO########",
"####..################..############..######                                        ##..############..################..########",
"####..################..############..######                                        ##..############..################..########",
"..........OOOOOOOOXXXXXX..................##                                        ##XX..................OOOOOOOOXXXXXX........",
"..........OOOOOOOOXXXXXX..................##                                        ##XX..................OOOOOOOOXXXXXX........",
"######%%%%%%%%%%..##%%%%%%%%##XX%%%%%%####OO                                        ..##%%%%%%..######%%%%%%%%%%..##%%%%%%%%##XX",
"######%%%%%%%%%%..##%%%%%%%%##XX%%%%%%####OO                                        ..##%%%%%%..######%%%%%%%%%%..##%%%%%%%%##XX",
"################..############XX##########                                            ########..################..############XX",
"################..############XX##########                                            ########..################..############XX",
"OO##############OO############..##########                                            ########OOOO##############OO############..",
"OO##############OO############..##########                                            ########OOOO##############OO############..",
"OOOOXXXXXXOOOOOOOOOOOOOOOOOO......OOOOOOOO                                            ......OOOOOOOOXXXXXXOOOOOOOOOOOOOOOOOO....",
"OOOOXXXXXXOOOOOOOOOOOOOOOOOO......OOOOOOOO                                            ......OOOOOOOOXXXXXXOOOOOOOOOOOOOOOOOO....",
"%%%%OO####%%%%%%####OOOO############OOOO##                                            %%..%%%%##%%%%OO####%%%%%%####OOOO########",
"%%%%OO####%%%%%%####OOOO############OOOO##                                            %%..%%%%##%%%%OO####%%%%%%####OOOO########",
"####OO################OO##############XX##                                            ##..##########OO################OO########",
"####OO################OO##############XX##                                            ##..##########OO################OO########",
"####..################..##############XXOO                                            ##..##########..################..########",
"####..################..##############XXOO                                            ##..##########..################..########",
"..........OOOOOOOOXXXXXX............XXXXXX                                            OOOOOOXXXX..........OOOOOOOOXXXXXX........",
"..........OOOOOOOOXXXXXX............XXXXXX                                            OOOOOOXXXX..........OOOOOOOOXXXXXX........",
"%%%%%%########OO########%%%%%%..######%%%%                                            %%%%%%##XX%%%%%%########OO########%%%%%%..",
"%%%%%%########OO########%%%%%%..######%%%%                                            %%%%%%##XX%%%%%%########OO########%%%%%%..",
"##############OO##############..##########                                            ########XX##############OO##############..",
"##############OO##############..##########                                            ########XX##############OO##############..",
"##############OOOO############OOOO########                                            ########..##############OOOO############OO",
"##############OOOO############OOOO########                                            ########..##############OOOO############OO",
"..OOOOOO%%%%%%%%%%XX........OOOOOOOOXXXXXX                                            OOOOOO......OOOOOOOOOOOOXXXXXX........OOOO",
"..OOOOOO%%%%%%%%%%XX........OOOOOOOOXXXXXX                                            OOOOOO......OOOOOOOOOOOOXXXXXX........OOOO",
"####OOOO##########%%%%%%..%%%%##%%%%OO####                                            OO############OOOO##########%%%%%%..%%%%##",
"####OOOO##########%%%%%%..%%%%##%%%%OO####                                            OO############OOOO##########%%%%%%..%%%%##",
"######XX################..##########OO####                                            OO##############XX################..######",
"######XX################..##########OO####                                            OO##############XX################..######",
"######XXOO##############..##########..####                                            ..##############XXOO##############..######",
"######XXOO##############..##########..####                                            ..##############XXOO##############..######",
"....XXXXXXOOOOOOOOOOOOOOOOOOXXXX..........                                            %%............XXXXXXOOOOOOOOOOOOOOOOOOXXXX",
"....XXXXXXOOOOOOOOOOOOOOOOOOXXXX..........                                            %%............XXXXXXOOOOOOOOOOOOOOOOOOXXXX",
"######%%%%%%%%%%..##%%%%%%%%##XX%%%%%%####                                            ##%%%%%%..######%%%%%%%%%%..##%%%%%%%%##XX",
"######%%%%%%%%%%..##%%%%%%%%##XX%%%%%%####                                            ##%%%%%%..######%%%%%%%%%%..##%%%%%%%%##XX",
"################..############XX##########                                            ########..################..############XX",
"################..############XX##########                                            ########..################..############XX",
"OO##############OO############..##########                                            ########OOOO##############OO############..",
"OO##############OO############..##########                                            ########OOOO##############OO############..",
"OOOOXXXXXXOOOOOOOOOOOOOOOOOO......OOOOOOOO              ......      ......            ......OOOOOOOOXXXXXXOOOOOOOOOOOOOOOOOO....",
"OOOOXXXXXXOOOOOOOOOOOOOOOOOO......OOOOOOOO              ......      ......            ......OOOOOOOOXXXXXXOOOOOOOOOOOOOOOOOO....",
"%%%%OO####%%%%%%####OOOO############OOOO##              ......      ......            %%..%%%%##%%%%OO####%%%%%%####OOOO########",
"%%%%OO####%%%%%%####OOOO############OOOO##              ......      ......            %%..%%%%##%%%%OO####%%%%%%####OOOO########",
"####OO################OO##############XX##            ........        ......          ##..##########OO################OO########",
"####OO################OO##############XX##            ........        ......          ##..##########OO################OO########",
"####..################..##############XXOO          ..          ......      ....      ##..##########..################..########",
"####..################..##############XXOO          ..          ......      ....      ##..##########..################..########",
"++++++++++++++++++++++++++++++++++++++++oo    ........          ........  ......      oo++++++++++++++++++++++++++++++++++++++++",
"++++++++++++++++++++++++++++++++++++++++oo    ........          ........  ......      oo++++++++++++++++++++++++++++++++++++++++",
"$$$$$$@@@@@@@@@@++@@$$$$$$$$$$$$@@$$&&++oo..........  ........................  ......oo++&&$$@@$$$$@@@@@@$$@@++@@@@@@@@@@@@@@@@",
"$$$$$$@@@@@@@@@@++@@$$$$$$$$$$$$@@$$&&++oo..........  ........................  ......oo++&&$$@@$$$$@@@@@@$$@@++@@@@@@@@@@@@@@@@",
"$$$$$$$$$$$$$$$$++$$$$$$$$$$$$$$@@$$&&++oo..........oooo..........oooo........  ......oo++&&$$@@$$$$$$$$$$$$$$++$$$$@@@@@@$$$$$$",
"$$$$$$$$$$$$$$$$++$$$$$$$$$$$$$$@@$$&&++oo..........oooo..........oooo........  ......oo++&&$$@@$$$$$$$$$$$$$$++$$$$@@@@@@$$$$$$",
"&&&&&&&&&&******++**&&&&&&&&&&&&****&&++oo  ..oooooo  oooo++++++++oo++++++++oo  oooo..oo++&&****&&&&**********oo**************&&",
"&&&&&&&&&&******++**&&&&&&&&&&&&****&&++oo  ..oooooo  oooo++++++++oo++++++++oo  oooo..oo++&&****&&&&**********oo**************&&",
"@@@@@@@@@@@@@@@@oo@@@@@@@@@@@@@@@@@@@@++oo..............  ........................  ..oo++@@@@@@@@@@@@@@@@@@@@oo@@@@@@@@@@@@@@@@",
"@@@@@@@@@@@@@@@@oo@@@@@@@@@@@@@@@@@@@@++oo..............  ........................  ..oo++@@@@@@@@@@@@@@@@@@@@oo@@@@@@@@@@@@@@@@",
"@@@@@@@@@@@@++@@oo@@@@@@@@@@@@@@@@@@@@++oo++++++++++++..++++++++++++++++++++++++++++++oo++@@@@@@@@++@@@@@@@@@@oo@@@@@@++@@@@@@@@",
"@@@@@@@@@@@@++@@oo@@@@@@@@@@@@@@@@@@@@++oo++++++++++++..++++++++++++++++++++++++++++++oo++@@@@@@@@++@@@@@@@@@@oo@@@@@@++@@@@@@@@",
"@@@@@@++++++++++oo@@++@@++@@@@@@@@@@@@++oo++++@@@@@@@@@@@@@@@@@@@@@@@@++++@@@@@@@@++++oo++@@@@@@@@++@@++++++++oo++++@@++@@@@@@@@",
"@@@@@@++++++++++oo@@++@@++@@@@@@@@@@@@++oo++++@@@@@@@@@@@@@@@@@@@@@@@@++++@@@@@@@@++++oo++@@@@@@@@++@@++++++++oo++++@@++@@@@@@@@",
"++++++++++++++++oo++++++++++++++++++++++oo@@@@@@$$$$$$@@@@$$$$$$$$$$$$@@@@$$$$$$@@@@++oo++++++++++++++++++++++oo++++++++++++++++",
"++++++++++++++++oo++++++++++++++++++++++oo@@@@@@$$$$$$@@@@$$$$$$$$$$$$@@@@$$$$$$@@@@++oo++++++++++++++++++++++oo++++++++++++++++",
"oooooooooooooooooooooooooooooooooooooooooooooooooooooooooooooooooooooooooooooooooooooooooooooooooooooooooooooooooooooooooooooooo",
"oooooooooooooooooooooooooooooooooooooooooooooooooooooooooooooooooooooooooooooooooooooooooooooooooooooooooooooooooooooooooooooooo"
};
