/* XPM */
static char *_41705062605[] = {
/* columns rows colors chars-per-pixel */
"128 128 9 1 ",
"  c 0",
". c #010101",
"X c #070707",
"o c #121110",
"O c #1B1916",
"+ c #2E2A25",
"@ c #3C3129",
"# c #454135",
"$ c #555145",
/* pixels */
"                                                                                                                                ",
"                                                                                                                                ",
"                                                                                                                                ",
"                                                                                                                                ",
"                                                                                                                                ",
"                                                                                                                                ",
"                                                                                                                                ",
"                                                                                                                                ",
"                                                                                                                                ",
"                                                                                                                                ",
"                                                                                                                                ",
"                                                                                                                                ",
"                                                                                                                                ",
"                                                                                                                                ",
"                                                                                                                                ",
"                                                                                                                                ",
"                                                                                                                                ",
"                                                                                                                                ",
"                                                                                                                                ",
"                                                                                                                                ",
"                                                                                                                                ",
"                                                                                                                                ",
"                                                                                                                                ",
"                                                                                                                                ",
"                                                                                                                                ",
"                                                                                                                                ",
"                                                                                                                                ",
"                                                                                                                                ",
"                                                                                                                                ",
"                                                                                                                                ",
"                                                                                                                                ",
"                                                                                                                                ",
"                                                                                                                                ",
"                                                                                                                                ",
"                                                                                                                                ",
"                                                                                                                                ",
"                                                                                                                                ",
"                                                                                                                                ",
"                                                                                                                                ",
"                                                                                                                                ",
"                                                                                                                                ",
"                                                                                                                                ",
"                                                                                                                                ",
"                                                                                                                                ",
"                                                                                                                                ",
"                                                                                                                                ",
"                                                                                                                                ",
"                                                                                                                                ",
"                                                                                                                                ",
"                                                                                                                                ",
"                                                                                                                                ",
"                                                                                                                                ",
"                                                                                                                                ",
"                                                                                                                                ",
"                                                                                                                                ",
"                                                                                                                                ",
"                                                                                                                                ",
"                                                                                                                                ",
"                                                                                                                                ",
"                                                                                                                                ",
"                                                                                                                                ",
"                                                                                                                                ",
"                                                                                                                                ",
"                                                                                                                                ",
"                                                                                                                                ",
"                                                                                                                                ",
"                                                                                                                                ",
"                                                                                                                                ",
"                                                                                                                                ",
"                                                                                                                                ",
"                                                                                                                                ",
"                                                                                                                                ",
"                                                                                                                                ",
"                                                                                                                                ",
"                                                                                                                                ",
"                                                                                                                                ",
"                                                                                                                                ",
"                                                                                                                                ",
"                                                                                                                                ",
"                                                                                                                                ",
"OOOOOOOOOOOOOOOOOOOOOOOOOOOOOOOOOOOOOOOOOOOOOOOOOOOOOOOOOOOOOOOOOOOOOOOOOOOOOOOOOOOOOOOOOOOOOOOOOOOOOOOOOOOOOOOOOOOO            ",
"OOOOOOOOOOOOOOOOOOOOOOOOOOOOOOOOOOOOOOOOOOOOOOOOOOOOOOOOOOOOOOOOOOOOOOOOOOOOOOOOOOOOOOOOOOOOOOOOOOOOOOOOOOOOOOOOOOOO            ",
"############################OO##############@@@@@@@@@@##########@@@@@@@@@@##########OO########################$$$$OO            ",
"############################OO##############@@@@@@@@@@##########@@@@@@@@@@##########OO########################$$$$OO            ",
"@@++++++++++++++++++++++++@@OO@@++OOOO++++++++++++++++++++++++++++++++++++++++++++++OO++++++++++++++++++++++##@@$$OO            ",
"@@++++++++++++++++++++++++@@OO@@++OOOO++++++++++++++++++++++++++++++++++++++++++++++OO++++++++++++++++++++++##@@$$OO            ",
"++OO++++++++++OOOO++++++++@@XX@@OO++++++++++++++++++++++++OOOO++++++++++++++++OOOO++XX++++++++++++OOOO++++++##@@$$OO            ",
"++OO++++++++++OOOO++++++++@@XX@@OO++++++++++++++++++++++++OOOO++++++++++++++++OOOO++XX++++++++++++OOOO++++++##@@$$OO            ",
"++++OOOO++++++++++++++++++++XX++++++++++++++++++++++++++OOOO++++++++++++++++OOOO++++XXOOOO++++++++++++++++++##@@$$OO            ",
"++++OOOO++++++++++++++++++++XX++++++++++++++++++++++++++OOOO++++++++++++++++OOOO++++XXOOOO++++++++++++++++++##@@$$OO            ",
"++++++++++++++++++++++OOOOOOXX++++++++++OO++++OOOO++++++++++++++++OOOO++++++++++++++XX++++++++++OOOOOO++++++##@@$$OO            ",
"++++++++++++++++++++++OOOOOOXX++++++++++OO++++OOOO++++++++++++++++OOOO++++++++++++++XX++++++++++OOOOOO++++++##@@$$OO            ",
"OOOOOOOOOOOOOOOOOOOOOOOOOOOOXXOOOOOOOOOOOOOOOOOOOOOOOOOOOOOOOOOOOOOOOOOOOOOOOOOOOOOOXXOOOOOOOOOOOOOOOO++++++##@@$$OO            ",
"OOOOOOOOOOOOOOOOOOOOOOOOOOOOXXOOOOOOOOOOOOOOOOOOOOOOOOOOOOOOOOOOOOOOOOOOOOOOOOOOOOOOXXOOOOOOOOOOOOOOOO++++++##@@$$OO            ",
"ooooooooooooooooooooooooooooXXooooooooooooooooooooooooooooooooooooooooooooooooooooooXXooooooooooooOO++++++++##@@$$OO            ",
"ooooooooooooooooooooooooooooXXooooooooooooooooooooooooooooooooooooooooooooooooooooooXXooooooooooooOO++++++++##@@$$OO            ",
"ooooooooooooooooooooooooooooXXooooooooooooooooooooooooooooooooooooooooooooooooooooooXXooooooooooooOO++++++++##@@##OO            ",
"ooooooooooooooooooooooooooooXXooooooooooooooooooooooooooooooooooooooooooooooooooooooXXooooooooooooOO++++++++##@@##OO            ",
"XXXXXXXXXXXXXXXXXXXXXXXXXXXXXXXXXXXXXXXXXXXXXXXXXXXXXXXXXXXXXXXXXXXXXXXXXXXXXXXXXXXXXXXXXXXXXXXXXXOOOO++++++##@@##OO            ",
"XXXXXXXXXXXXXXXXXXXXXXXXXXXXXXXXXXXXXXXXXXXXXXXXXXXXXXXXXXXXXXXXXXXXXXXXXXXXXXXXXXXXXXXXXXXXXXXXXXOOOO++++++##@@##OO            ",
"................................................................................................XXOOOO++++++##@@##OO            ",
"................................................................................................XXOOOO++++++##@@##OO            ",
"................................................................................................XXOOOO++++++##@@##OO            ",
"................................................................................................XXOOOO++++++##@@##OO            ",
"................................................................................................XXOOOO++++++##@@##OO            ",
"................................................................................................XXOOOO++++++##@@##OO            ",
"................................................................................................XXOO++++++++##@@##OO            ",
"................................................................................................XXOO++++++++##@@##OO            ",
"................................................................................................XXOO++++++++##@@##OO            ",
"................................................................................................XXOO++++++++##@@##OO            ",
"................................................................................................XXOO++++++++##@@##OO            ",
"................................................................................................XXOO++++++++##@@##OO            ",
"................................................................................................XXOO++++++++##@@##OO            ",
"................................................................................................XXOO++++++++##@@##OO            ",
"................................................................................................XXOO++++++++##@@##OO            ",
"................................................................................................XXOO++++++++##@@##OO            ",
"................................................................................................XXOO++++++++##@@##OO            ",
"................................................................................................XXOO++++++++##@@##OO            ",
"................................................................................................XXOO++++++++##@@##OO            ",
"................................................................................................XXOO++++++++##@@##OO            ",
"................................................................................................XXOO++++++++##@@$$OO            ",
"................................................................................................XXOO++++++++##@@$$OO            ",
"................................................................................................XXOO++++++++##@@$$OO            ",
"................................................................................................XXOO++++++++##@@$$OO            ",
"................................................................................................XXOOOOOOOOOO++OOOOOO            ",
"................................................................................................XXOOOOOOOOOO++OOOOOO            ",
"................................................................................................XXOO++++++++##@@$$OO            ",
"................................................................................................XXOO++++++++##@@$$OO            "
};
