/* XPM */
static char *_3c03b4f5d2546f8b7fec1849eba88ebrLe7q4A3wJTFn1R1[] = {
/* columns rows colors chars-per-pixel */
"32 64 9 1 ",
"  c #010101",
". c gray13",
"X c #3E2723",
"o c #263238",
"O c #4E342E",
"+ c #37474F",
"@ c gray26",
"# c #D5B68B",
"$ c 0",
/* pixels */
"$$$$$$$$$$$$$$$$$$$$$$$$$$$$$$$$",
"$$$$$$$$$$$$$$$$$$$$$$$$$$$$$$$$",
"$$$$$$$$$$$$      $$$$$$$$$$$$$$",
"$$$$$$$$$$$$      $$$$$$$$$$$$$$",
"$$$$$$$$$$  XXXXXX  $$$$$$$$$$$$",
"$$$$$$$$$$  XXXXXX  $$$$$$$$$$$$",
"$$$$$$$$$$  OOXXXX  $$$$$$$$$$$$",
"$$$$$$$$$$  OOXXXX  $$$$$$$$$$$$",
"$$$$$$      ++oooo      $$$$$$$$",
"$$$$$$      ++oooo      $$$$$$$$",
"$$$$  @@@@  ####    @@@@  $$$$$$",
"$$$$  @@@@  ####    @@@@  $$$$$$",
"$$$$......    ##    ....  $$$$$$",
"$$$$......    ##    ....  $$$$$$",
"$$  @@@@....      ..@@......$$$$",
"$$  @@@@....      ..@@......$$$$",
"$$  ........  ##  ........  $$$$",
"$$  ........  ##  ........  $$$$",
"$$@@....  @@..  ..@@..  ..  $$$$",
"$$@@....  @@..  ..@@..  ..  $$$$",
"$$    ..  @@@@........      $$$$",
"$$    ..  @@@@........      $$$$",
"  @@@@    ..........    @@  $$$$",
"  @@@@    ..........    @@  $$$$",
"  ####      ........    ##  $$$$",
"  ####      ........    ##  $$$$",
"  oooo    @@oooooo@@    oo  $$$$",
"  oooo    @@oooooo@@    oo  $$$$",
"$$  ##oo              ####  $$$$",
"$$  ##oo              ####  $$$$",
"$$  ####    ........      $$$$$$",
"$$  ####    ........      $$$$$$",
"$$$$$$  ..@@....  ....  $$$$$$$$",
"$$$$$$  ..@@....  ....  $$$$$$$$",
"$$$$$$  ......  ..@@..  $$$$$$$$",
"$$$$$$  ......  ..@@..  $$$$$$$$",
"$$$$$$  @@....  ..@@..  $$$$$$$$",
"$$$$$$  @@....  ..@@..  $$$$$$$$",
"$$$$$$....@@..  ......  $$$$$$$$",
"$$$$$$....@@..  ......  $$$$$$$$",
"$$$$$$  @@@@..    @@..  $$$$$$$$",
"$$$$$$  @@@@..    @@..  $$$$$$$$",
"$$$$$$  @@..      ....  $$$$$$$$",
"$$$$$$  @@..      ....  $$$$$$$$",
"$$$$$$  ......    ..  $$$$$$$$$$",
"$$$$$$  ......    ..  $$$$$$$$$$",
"$$$$$$    ....  ....  $$$$$$$$$$",
"$$$$$$    ....  ....  $$$$$$$$$$",
"$$$$$$  ....    ....  $$$$$$$$$$",
"$$$$$$  ....    ....  $$$$$$$$$$",
"$$$$$$  ....    ..    $$$$$$$$$$",
"$$$$$$  ....    ..    $$$$$$$$$$",
"$$$$$$            oo    $$$$$$$$",
"$$$$$$            oo    $$$$$$$$",
"$$$$$$  oo      oooo      $$$$$$",
"$$$$$$  oo      oooo      $$$$$$",
"$$$$    ++oo      oooo      $$$$",
"$$$$    ++oo      oooo      $$$$",
"$$$$    oo                  $$$$",
"$$$$    oo                  $$$$",
"$$$$    ++++                $$$$",
"$$$$    ++++                $$$$",
"$$$$$$                    $$$$$$",
"$$$$$$                    $$$$$$"
};
