/* XPM */
static char *_2d42e0069264fb698790fdcae9aaaddGtwPTJzMVIrxjxoU[] = {
/* columns rows colors chars-per-pixel */
"32 64 9 1 ",
"  c #010101",
". c gray13",
"X c #3E2723",
"o c #263238",
"O c #4E342E",
"+ c #37474F",
"@ c gray26",
"# c #D5B68B",
"$ c 0",
/* pixels */
"$$$$$$$$$$$$$$oo$$$$$$$$$$$$$$$$",
"$$$$$$$$$$$$$$oo$$$$$$$$$$$$$$$$",
"$$$$$$$$$$$$oooo$$$$$$$$$$$$$$$$",
"$$$$$$$$$$$$oooo$$$$$$$$$$$$$$$$",
"$$$$$$$$$$$$$$      $$$$$$$$$$$$",
"$$$$$$$$$$$$$$      $$$$$$$$$$$$",
"$$$$$$$$$$$$  XXXXXX  $$$$$$$$$$",
"$$$$$$$$$$$$  XXXXXX  $$$$$$$$$$",
"$$$$$$$$$$$$  OOXXXX      $$$$$$",
"$$$$$$$$$$$$  OOXXXX      $$$$$$",
"$$$$$$$$      ++oooo  ....  $$$$",
"$$$$$$$$      ++oooo  ....  $$$$",
"$$$$$$  ....  ####    ......$$$$",
"$$$$$$  ....  ####    ......$$$$",
"$$$$........    ##  ....  ..  $$",
"$$$$........    ##  ....  ..  $$",
"$$$$  @@  ....      @@@@  ..  $$",
"$$$$  @@  ....      @@@@  ..  $$",
"$$$$  ..    ..  ##  ....      $$",
"$$$$  ..    ..  ##  ....      $$",
"$$$$      ##  ..  ......  ##  $$",
"$$$$      ##  ..  ......  ##  $$",
"$$$$  ######  ........    ##  $$",
"$$$$  ######  ........    ##  $$",
"$$$$  ####      ......  $$  $$$$",
"$$$$  ####      ......  $$  $$$$",
"$$$$$$      @@@@oooo@@  $$$$$$$$",
"$$$$$$      @@@@oooo@@  $$$$$$$$",
"$$$$$$$$      @@....    $$$$$$$$",
"$$$$$$$$      @@....    $$$$$$$$",
"$$$$$$$$  ................$$$$$$",
"$$$$$$$$  ................$$$$$$",
"$$$$$$$$  @@....  ..@@..  $$$$$$",
"$$$$$$$$  @@....  ..@@..  $$$$$$",
"$$$$$$$$  @@@@..  ..@@..  $$$$$$",
"$$$$$$$$  @@@@..  ..@@..  $$$$$$",
"$$$$$$$$$$  ....  ......  $$$$$$",
"$$$$$$$$$$  ....  ......  $$$$$$",
"$$$$$$$$$$  @@..  @@....  $$$$$$",
"$$$$$$$$$$  @@..  @@....  $$$$$$",
"$$$$$$$$$$        ........$$$$$$",
"$$$$$$$$$$        ........$$$$$$",
"$$$$$$$$$$  oooo  ....  $$$$$$$$",
"$$$$$$$$$$  oooo  ....  $$$$$$$$",
"$$$$$$$$$$$$      ....  $$$$$$$$",
"$$$$$$$$$$$$      ....  $$$$$$$$",
"$$$$$$$$$$$$$$$$    ....$$$$$$$$",
"$$$$$$$$$$$$$$$$    ....$$$$$$$$",
"$$$$$$$$$$$$$$$$  ....  $$$$$$$$",
"$$$$$$$$$$$$$$$$  ....  $$$$$$$$",
"$$$$$$$$$$$$$$$$  ....  $$$$$$$$",
"$$$$$$$$$$$$$$$$  ....  $$$$$$$$",
"$$$$$$$$$$$$$$$$    ..  $$$$$$$$",
"$$$$$$$$$$$$$$$$    ..  $$$$$$$$",
"$$$$$$$$$$$$        oo      $$$$",
"$$$$$$$$$$$$        oo      $$$$",
"$$$$$$$$$$        oooo        $$",
"$$$$$$$$$$        oooo        $$",
"$$$$$$$$$$        ++++        $$",
"$$$$$$$$$$        ++++        $$",
"$$$$$$$$$$                    $$",
"$$$$$$$$$$                    $$",
"$$$$$$$$$$$$                $$$$",
"$$$$$$$$$$$$                $$$$"
};
