/* XPM */
static char *_e5832c9bd1d4fdd8ebb3a8078fa4713Tkonaj4SmH6Awbc9[] = {
/* columns rows colors chars-per-pixel */
"32 64 9 1 ",
"  c #010101",
". c gray13",
"X c #3E2723",
"o c #263238",
"O c #4E342E",
"+ c #37474F",
"@ c gray26",
"# c #D5B68B",
"$ c 0",
/* pixels */
"$$$$$$$$$$$$$$$$$$$$$$$$$$$$$$$$",
"$$$$$$$$$$$$$$$$$$$$$$$$$$$$$$$$",
"$$$$$$$$$$$$$$$$$$$$$$$$$$$$$$$$",
"$$$$$$$$$$$$$$$$$$$$$$$$$$$$$$$$",
"$$$$$$$$$$$$      $$$$$$$$$$$$$$",
"$$$$$$$$$$$$      $$$$$$$$$$$$$$",
"$$$$$$$$$$  OOXXXX  $$$$$$$$$$$$",
"$$$$$$$$$$  OOXXXX  $$$$$$$$$$$$",
"$$$$$$$$$$  ++oooo  $$$$$$$$$$$$",
"$$$$$$$$$$  ++oooo  $$$$$$$$$$$$",
"$$$$$$$$$$  ####XXoo$$$$$$$$$$$$",
"$$$$$$$$$$  ####XXoo$$$$$$$$$$$$",
"$$$$$$$$$$  ##..  oo$$$$$$$$$$$$",
"$$$$$$$$$$  ##..  oo$$$$$$$$$$$$",
"$$$$$$$$$$$$    oo@@  $$$$$$$$$$",
"$$$$$$$$$$$$    oo@@  $$$$$$$$$$",
"$$$$$$$$$$$$  ..oo  ..  $$$$$$$$",
"$$$$$$$$$$$$  ..oo  ..  $$$$$$$$",
"$$$$$$$$$$  ..  ..@@    $$$$$$$$",
"$$$$$$$$$$  ..  ..@@    $$$$$$$$",
"$$$$$$$$$$  @@  @@....  $$$$$$$$",
"$$$$$$$$$$  @@  @@....  $$$$$$$$",
"$$$$$$$$$$  ..  @@@@@@  $$$$$$$$",
"$$$$$$$$$$  ..  @@@@@@  $$$$$$$$",
"$$$$$$$$$$  ..    ####  $$$$$$$$",
"$$$$$$$$$$  ..    ####  $$$$$$$$",
"$$$$$$$$$$$$      ##oo  $$$$$$$$",
"$$$$$$$$$$$$      ##oo  $$$$$$$$",
"$$$$$$$$$$  oo  oo##oo  $$$$$$$$",
"$$$$$$$$$$  oo  oo##oo  $$$$$$$$",
"$$$$$$$$$$..  ..####  $$$$$$$$$$",
"$$$$$$$$$$..  ..####  $$$$$$$$$$",
"$$$$$$$$$$    ........  $$$$$$$$",
"$$$$$$$$$$    ........  $$$$$$$$",
"$$$$$$$$$$..  ........  $$$$$$$$",
"$$$$$$$$$$..  ........  $$$$$$$$",
"$$$$$$$$$$..    @@..  $$$$$$$$$$",
"$$$$$$$$$$..    @@..  $$$$$$$$$$",
"$$$$$$$$$$    ..@@@@  $$$$$$$$$$",
"$$$$$$$$$$    ..@@@@  $$$$$$$$$$",
"$$$$$$$$$$..  ....@@  $$$$$$$$$$",
"$$$$$$$$$$..  ....@@  $$$$$$$$$$",
"$$$$$$$$$$$$    @@..  $$$$$$$$$$",
"$$$$$$$$$$$$    @@..  $$$$$$$$$$",
"$$$$$$$$$$$$..  ....  $$$$$$$$$$",
"$$$$$$$$$$$$..  ....  $$$$$$$$$$",
"$$$$$$$$$$$$..  @@....  $$$$$$$$",
"$$$$$$$$$$$$..  @@....  $$$$$$$$",
"$$$$$$$$$$$$    ..@@..  $$$$$$$$",
"$$$$$$$$$$$$    ..@@..  $$$$$$$$",
"$$$$$$$$$$$$      ....  $$$$$$$$",
"$$$$$$$$$$$$      ....  $$$$$$$$",
"$$$$$$$$$$$$  ++  oo    $$$$$$$$",
"$$$$$$$$$$$$  ++  oo    $$$$$$$$",
"$$$$$$$$$$  ++oo  oooo    $$$$$$",
"$$$$$$$$$$  ++oo  oooo    $$$$$$",
"$$$$$$$$$$        ++oo      $$$$",
"$$$$$$$$$$        ++oo      $$$$",
"$$$$$$$$$$$$    ++oooo      $$$$",
"$$$$$$$$$$$$    ++oooo      $$$$",
"$$$$$$$$$$$$$$            $$$$$$",
"$$$$$$$$$$$$$$            $$$$$$",
"$$$$$$$$$$$$$$$$$$      $$$$$$$$",
"$$$$$$$$$$$$$$$$$$      $$$$$$$$"
};
