/* XPM */
static char *_acf47905c1846bdf540e72ff9d3752cj9J1B5PjaXH71l71[] = {
/* columns rows colors chars-per-pixel */
"32 64 9 1 ",
"  c #010101",
". c gray13",
"X c #3E2723",
"o c #263238",
"O c #5D4037",
"+ c #37474F",
"@ c gray26",
"# c #D5B68B",
"$ c 0",
/* pixels */
"$$$$$$$$$$$$$$$$oo$$oo$$$$$$$$$$",
"$$$$$$$$$$$$$$$$oo$$oo$$$$$$$$$$",
"$$$$$$$$$$$$$$$$oooo$$$$$$$$$$$$",
"$$$$$$$$$$$$$$$$oooo$$$$$$$$$$$$",
"$$$$$$$$$$$$      $$$$$$$$$$$$$$",
"$$$$$$$$$$$$      $$$$$$$$$$$$$$",
"$$$$$$$$$$  XXXXXX  $$$$$$$$$$$$",
"$$$$$$$$$$  XXXXXX  $$$$$$$$$$$$",
"$$$$$$      OOXXXX  $$$$$$$$$$$$",
"$$$$$$      OOXXXX  $$$$$$$$$$$$",
"$$$$  ....  ++oooo      $$$$$$$$",
"$$$$  ....  ++oooo      $$$$$$$$",
"$$$$......  ####    ....  $$$$$$",
"$$$$......  ####    ....  $$$$$$",
"$$  ..  ....  ##    ........$$$$",
"$$  ..  ....  ##    ........$$$$",
"$$  @@  @@..      @@..  ..  $$$$",
"$$  @@  @@..      @@..  ..  $$$$",
"$$      ....  ##  ..    ..  $$$$",
"$$      ....  ##  ..    ..  $$$$",
"$$  ##  ......  ..  ##      $$$$",
"$$  ##  ......  ..  ##      $$$$",
"$$  ##  ..........  ######  $$$$",
"$$  ##  ..........  ######  $$$$",
"$$$$  $$  ......      ####  $$$$",
"$$$$  $$  ......      ####  $$$$",
"$$$$$$$$  @@oooo@@@@      $$$$$$",
"$$$$$$$$  @@oooo@@@@      $$$$$$",
"$$$$$$$$    ......      $$$$$$$$",
"$$$$$$$$    ......      $$$$$$$$",
"$$$$$$....@@......@@..  $$$$$$$$",
"$$$$$$....@@......@@..  $$$$$$$$",
"$$$$$$  @@....  ..@@..  $$$$$$$$",
"$$$$$$  @@....  ..@@..  $$$$$$$$",
"$$$$$$  @@....  @@....  $$$$$$$$",
"$$$$$$  @@....  @@....  $$$$$$$$",
"$$$$$$  ..@@..  ....  $$$$$$$$$$",
"$$$$$$  ..@@..  ....  $$$$$$$$$$",
"$$$$$$  @@@@..  ..@@  $$$$$$$$$$",
"$$$$$$  @@@@..  ..@@  $$$$$$$$$$",
"$$$$$$........      ..$$$$$$$$$$",
"$$$$$$........      ..$$$$$$$$$$",
"$$$$$$$$  ....  oooo  $$$$$$$$$$",
"$$$$$$$$  ....  oooo  $$$$$$$$$$",
"$$$$$$$$  ....      $$$$$$$$$$$$",
"$$$$$$$$  ....      $$$$$$$$$$$$",
"$$$$$$$$....    $$$$$$$$$$$$$$$$",
"$$$$$$$$....    $$$$$$$$$$$$$$$$",
"$$$$$$$$  ....  $$$$$$$$$$$$$$$$",
"$$$$$$$$  ....  $$$$$$$$$$$$$$$$",
"$$$$$$$$  ....  $$$$$$$$$$$$$$$$",
"$$$$$$$$  ....  $$$$$$$$$$$$$$$$",
"$$$$$$$$  ..    $$$$$$$$$$$$$$$$",
"$$$$$$$$  ..    $$$$$$$$$$$$$$$$",
"$$$$$$$$  oo        $$$$$$$$$$$$",
"$$$$$$$$  oo        $$$$$$$$$$$$",
"$$$$$$    oooo          $$$$$$$$",
"$$$$$$    oooo          $$$$$$$$",
"$$$$$$    ++++            $$$$$$",
"$$$$$$    ++++            $$$$$$",
"$$$$$$                    $$$$$$",
"$$$$$$                    $$$$$$",
"$$$$$$$$                $$$$$$$$",
"$$$$$$$$                $$$$$$$$"
};
