/* XPM */
static char *e71bab1c53c540acf94b579d4d32fca9k6xb4Su2Sun8AJWr[] = {
/* columns rows colors chars-per-pixel */
"32 64 9 1 ",
"  c #010101",
". c gray13",
"X c #3E2723",
"o c #263238",
"O c #4E342E",
"+ c #37474F",
"@ c gray26",
"# c #D5B68B",
"$ c 0",
/* pixels */
"$$$$$$$$$$$$$$$$$$$$$$$$$$$$$$$$",
"$$$$$$$$$$$$$$$$$$$$$$$$$$$$$$$$",
"$$$$$$$$$$$$$$$$$$$$$$$$$$$$$$$$",
"$$$$$$$$$$$$$$$$$$$$$$$$$$$$$$$$",
"$$$$$$$$$$$$$$$$$$$$$$$$$$$$$$$$",
"$$$$$$$$$$$$$$$$$$$$$$$$$$$$$$$$",
"$$$$$$$$      $$$$$$$$$$$$$$$$$$",
"$$$$$$$$      $$$$$$$$$$$$$$$$$$",
"$$$$$$  OOXXXX  $$$$$$$$$$$$$$$$",
"$$$$$$  OOXXXX  $$$$$$$$$$$$$$$$",
"$$$$$$  ++oooo  $$oo$$$$$$$$$$$$",
"$$$$$$  ++oooo  $$oo$$$$$$$$$$$$",
"$$$$$$  ####XXoooooo$$$$$$$$$$$$",
"$$$$$$  ####XXoooooo$$$$$$$$$$$$",
"$$$$$$  ##..    $$$$oo$$$$$$$$$$",
"$$$$$$  ##..    $$$$oo$$$$$$$$$$",
"$$$$$$$$    @@@@  $$$$$$$$$$$$$$",
"$$$$$$$$    @@@@  $$$$$$$$$$$$$$",
"$$$$$$$$  ..  ..@@  $$$$$$$$$$$$",
"$$$$$$$$  ..  ..@@  $$$$$$$$$$$$",
"$$  $$  @@..  @@....  $$$$$$$$$$",
"$$  $$  @@..  @@....  $$$$$$$$$$",
"  ##    ....    ......  $$$$$$$$",
"  ##    ....    ......  $$$$$$$$",
"  ####  ......      ..  $$$$$$$$",
"  ####  ......      ..  $$$$$$$$",
"$$  oo          oo##  $$$$$$$$$$",
"$$  oo          oo##  $$$$$$$$$$",
"$$$$      oooo  ##oo  $$$$$$$$$$",
"$$$$      oooo  ##oo  $$$$$$$$$$",
"$$$$$$$$      ####..  $$$$$$$$$$",
"$$$$$$$$      ####..  $$$$$$$$$$",
"$$$$$$$$  ........  $$$$$$$$$$$$",
"$$$$$$$$  ........  $$$$$$$$$$$$",
"$$$$$$$$  @@..@@..  $$$$$$$$$$$$",
"$$$$$$$$  @@..@@..  $$$$$$$$$$$$",
"$$$$$$  @@......  $$$$$$$$$$$$$$",
"$$$$$$  @@......  $$$$$$$$$$$$$$",
"$$$$$$  @@@@..    $$$$$$$$$$$$$$",
"$$$$$$  @@@@..    $$$$$$$$$$$$$$",
"$$$$  ......    ..  $$$$$$$$$$$$",
"$$$$  ......    ..  $$$$$$$$$$$$",
"$$$$  @@..    ....  $$$$$$$$$$$$",
"$$$$  @@..    ....  $$$$$$$$$$$$",
"$$$$  @@..    ......  $$$$$$$$$$",
"$$$$  @@..    ......  $$$$$$$$$$",
"$$$$  ......    ......  $$$$$$$$",
"$$$$  ......    ......  $$$$$$$$",
"$$$$$$  ....  $$    oooo  $$$$$$",
"$$$$$$  ....  $$    oooo  $$$$$$",
"$$$$$$  ..    $$$$$$  oooo  $$$$",
"$$$$$$  ..    $$$$$$  oooo  $$$$",
"$$$$$$  oooo  $$$$  oooo  $$$$$$",
"$$$$$$  oooo  $$$$  oooo  $$$$$$",
"$$$$$$  ++oo  $$$$      $$$$$$$$",
"$$$$$$  ++oo  $$$$      $$$$$$$$",
"$$$$  ++oo                  $$$$",
"$$$$  ++oo                  $$$$",
"$$$$                          $$",
"$$$$                          $$",
"$$$$$$                  $$$$$$$$",
"$$$$$$                  $$$$$$$$",
"$$$$$$$$$$          $$$$$$$$$$$$",
"$$$$$$$$$$          $$$$$$$$$$$$"
};
