/* XPM */
static char *_0d48c5581894466c83a4591d8b1cb66zwaTq4zNd8rQ9dGS[] = {
/* columns rows colors chars-per-pixel */
"32 64 9 1 ",
"  c #010101",
". c gray13",
"X c #3E2723",
"o c #263238",
"O c #4E342E",
"+ c #37474F",
"@ c gray26",
"# c #D5B68B",
"$ c 0",
/* pixels */
"$$$$$$$$$$$$$$$$$$$$$$$$$$$$$$$$",
"$$$$$$$$$$$$$$$$$$$$$$$$$$$$$$$$",
"$$$$$$$$$$$$$$$$$$$$$$$$$$$$$$$$",
"$$$$$$$$$$$$$$$$$$$$$$$$$$$$$$$$",
"$$$$$$$$$$$$$$$$$$$$$$$$$$$$$$$$",
"$$$$$$$$$$$$$$$$$$$$$$$$$$$$$$$$",
"$$$$$$$$$$$$$$$$$$$$$$$$$$$$$$$$",
"$$$$$$$$$$$$$$$$$$$$$$$$$$$$$$$$",
"$$$$$$$$$$      $$$$$$$$$$$$$$$$",
"$$$$$$$$$$      $$$$$$$$$$$$$$$$",
"$$$$$$$$  OOXXXX  $$oo$$$$$$$$$$",
"$$$$$$$$  OOXXXX  $$oo$$$$$$$$$$",
"$$$$$$$$  ++oooo  oo$$oo$$$$$$$$",
"$$$$$$$$  ++oooo  oo$$oo$$$$$$$$",
"$$$$$$$$  ####XXoo$$$$$$$$$$$$$$",
"$$$$$$$$  ####XXoo$$$$$$$$$$$$$$",
"$$$$$$$$  ##..      $$$$$$$$$$$$",
"$$$$$$$$  ##..      $$$$$$$$$$$$",
"$$$$$$$$$$    @@@@  $$$$$$$$$$$$",
"$$$$$$$$$$    @@@@  $$$$$$$$$$$$",
"$$$$$$$$$$..    @@..  $$$$$$$$$$",
"$$$$$$$$$$..    @@..  $$$$$$$$$$",
"$$$$  $$$$  @@..  ....  $$$$$$$$",
"$$$$  $$$$  @@..  ....  $$$$$$$$",
"$$  ##    ......  ..    $$$$$$$$",
"$$  ##    ......  ..    $$$$$$$$",
"$$  ######....  ....##  $$$$$$$$",
"$$  ######....  ....##  $$$$$$$$",
"$$$$  oo##oo          $$$$$$$$$$",
"$$$$  oo##oo          $$$$$$$$$$",
"$$$$$$    @@oooo@@  $$$$$$$$$$$$",
"$$$$$$    @@oooo@@  $$$$$$$$$$$$",
"$$$$$$$$      ..    ..$$$$$$$$$$",
"$$$$$$$$      ..    ..$$$$$$$$$$",
"$$$$$$$$  ......@@..  $$$$$$$$$$",
"$$$$$$$$  ......@@..  $$$$$$$$$$",
"$$$$$$  @@  ........  $$$$$$$$$$",
"$$$$$$  @@  ........  $$$$$$$$$$",
"$$$$  ....    ..@@..  $$$$$$$$$$",
"$$$$  ....    ..@@..  $$$$$$$$$$",
"$$$$  ......  ..@@@@  $$$$$$$$$$",
"$$$$  ......  ..@@@@  $$$$$$$$$$",
"$$$$  @@..    ....@@  $$$$$$$$$$",
"$$$$  @@..    ....@@  $$$$$$$$$$",
"$$$$  @@....  @@....  $$$$$$$$$$",
"$$$$  @@....  @@....  $$$$$$$$$$",
"$$$$  ....  $$  ..@@..  $$$$$$$$",
"$$$$  ....  $$  ..@@..  $$$$$$$$",
"$$$$$$  ..  $$$$  ......    $$$$",
"$$$$$$  ..  $$$$  ......    $$$$",
"$$$$$$  ..  $$$$$$      oooo  $$",
"$$$$$$  ..  $$$$$$      oooo  $$",
"$$$$$$      $$$$$$$$$$    oo  $$",
"$$$$$$      $$$$$$$$$$    oo  $$",
"$$$$  oooo  $$$$$$$$$$$$  ++  $$",
"$$$$  oooo  $$$$$$$$$$$$  ++  $$",
"$$  oooo  $$$$$$$$$$$$$$    $$$$",
"$$  oooo  $$$$$$$$$$$$$$    $$$$",
"$$                            $$",
"$$                            $$",
"$$$$$$                      $$$$",
"$$$$$$                      $$$$",
"$$$$$$$$$$              $$$$$$$$",
"$$$$$$$$$$              $$$$$$$$"
};
