/* XPM */
static char *_d6a0db19a0f43778ac8ec3f52a49f969BBM7FBEp9r8ObrT[] = {
/* columns rows colors chars-per-pixel */
"32 64 9 1 ",
"  c #010101",
". c gray13",
"X c #3E2723",
"o c #263238",
"O c #4E342E",
"+ c #37474F",
"@ c gray26",
"# c #D5B68B",
"$ c 0",
/* pixels */
"$$$$$$$$$$$$$$$$$$$$$$$$$$$$$$$$",
"$$$$$$$$$$$$$$$$$$$$$$$$$$$$$$$$",
"$$$$$$$$$$$$$$$$$$$$$$$$$$$$$$$$",
"$$$$$$$$$$$$$$$$$$$$$$$$$$$$$$$$",
"$$$$$$$$$$$$$$$$$$$$$$$$$$$$$$$$",
"$$$$$$$$$$$$$$$$$$$$$$$$$$$$$$$$",
"$$$$$$$$$$$$$$$$$$      $$$$$$$$",
"$$$$$$$$$$$$$$$$$$      $$$$$$$$",
"$$$$$$$$$$$$$$$$  OOXXXX  $$$$$$",
"$$$$$$$$$$$$$$$$  OOXXXX  $$$$$$",
"$$$$$$$$$$$$oo$$  ++oooo  $$$$$$",
"$$$$$$$$$$$$oo$$  ++oooo  $$$$$$",
"$$$$$$$$$$oo$$ooooXX####  $$$$$$",
"$$$$$$$$$$oo$$ooooXX####  $$$$$$",
"$$$$$$$$$$$$$$$$    ..##  $$$$$$",
"$$$$$$$$$$$$$$$$    ..##  $$$$$$",
"$$$$$$$$$$$$$$  @@@@    $$$$$$$$",
"$$$$$$$$$$$$$$  @@@@    $$$$$$$$",
"$$$$$$$$$$$$  @@..  ..  $$$$$$$$",
"$$$$$$$$$$$$  @@..  ..  $$$$$$$$",
"$$$$$$$$$$  ....@@  ..@@  $$  $$",
"$$$$$$$$$$  ....@@  ..@@  $$  $$",
"$$$$$$$$  ......    ....    ##  ",
"$$$$$$$$  ......    ....    ##  ",
"$$$$$$$$  ..      ......  ####  ",
"$$$$$$$$  ..      ......  ####  ",
"$$$$$$$$$$  ##oo          oo  $$",
"$$$$$$$$$$  ##oo          oo  $$",
"$$$$$$$$$$  oo##  oooo      $$$$",
"$$$$$$$$$$  oo##  oooo      $$$$",
"$$$$$$$$$$  ..####      $$$$$$$$",
"$$$$$$$$$$  ..####      $$$$$$$$",
"$$$$$$$$$$$$  ........  $$$$$$$$",
"$$$$$$$$$$$$  ........  $$$$$$$$",
"$$$$$$$$$$$$  ..@@..@@  $$$$$$$$",
"$$$$$$$$$$$$  ..@@..@@  $$$$$$$$",
"$$$$$$$$$$$$$$  ......@@  $$$$$$",
"$$$$$$$$$$$$$$  ......@@  $$$$$$",
"$$$$$$$$$$$$$$    ..@@@@  $$$$$$",
"$$$$$$$$$$$$$$    ..@@@@  $$$$$$",
"$$$$$$$$$$$$  ..    ......  $$$$",
"$$$$$$$$$$$$  ..    ......  $$$$",
"$$$$$$$$$$$$  ....    ..@@  $$$$",
"$$$$$$$$$$$$  ....    ..@@  $$$$",
"$$$$$$$$$$  ......    ..@@  $$$$",
"$$$$$$$$$$  ......    ..@@  $$$$",
"$$$$$$$$  ......    ......  $$$$",
"$$$$$$$$  ......    ......  $$$$",
"$$$$$$  oooo    $$  ....  $$$$$$",
"$$$$$$  oooo    $$  ....  $$$$$$",
"$$$$  oooo  $$$$$$    ..  $$$$$$",
"$$$$  oooo  $$$$$$    ..  $$$$$$",
"$$$$$$  oooo  $$$$  oooo  $$$$$$",
"$$$$$$  oooo  $$$$  oooo  $$$$$$",
"$$$$$$$$      $$$$  oo++  $$$$$$",
"$$$$$$$$      $$$$  oo++  $$$$$$",
"$$$$                  oo++  $$$$",
"$$$$                  oo++  $$$$",
"$$                          $$$$",
"$$                          $$$$",
"$$$$$$$$                  $$$$$$",
"$$$$$$$$                  $$$$$$",
"$$$$$$$$$$$$          $$$$$$$$$$",
"$$$$$$$$$$$$          $$$$$$$$$$"
};
