/* XPM */
static char *ee1703609640[] = {
/* columns rows colors chars-per-pixel */
"128 128 18 1 ",
"  c #070707",
". c #0C0B0A",
"X c #140E0E",
"o c #151211",
"O c #1B1916",
"+ c #1D191B",
"@ c #23201D",
"# c #241F21",
"$ c #272325",
"% c #2E2A25",
"& c #2A2628",
"* c #3C3129",
"= c #322E30",
"- c #454135",
"; c #4B692F",
": c #555145",
"> c #6ABE30",
", c #99E550",
/* pixels */
"####&&&&&&&&&&&&&&&&&&$$$$$$$$$$####&&$$$$$$$$$$$$$$$$&&&&&&&&######&&&&&&&&&&&&&&&&&&$$$$$$$$$$####&&$$$$$$$$$$$$$$$$&&&&&&&&##",
"####&&&&&&&&&&&&&&&&&&$$$$$$$$$$####&&$$$$$$$$$$$$$$$$&&&&&&&&######&&&&&&&&&&&&&&&&&&$$$$$$$$$$####&&$$$$$$$$$$$$$$$$&&&&&&&&##",
"##$$&&$$&&&&&&&&&&&&$$$$$$$$$$$$##&&&&&&&&&&$$$$$$&&&&&&&&&&&&&&##$$&&$$&&&&&&&&&&&&$$$$$$$$$$$$##&&&&&&&&&&$$$$$$&&&&&&&&&&&&&&",
"##$$&&$$&&&&&&&&&&&&$$$$$$$$$$$$##&&&&&&&&&&$$$$$$&&&&&&&&&&&&&&##$$&&$$&&&&&&&&&&&&$$$$$$$$$$$$##&&&&&&&&&&$$$$$$&&&&&&&&&&&&&&",
"##&&&&$$$$&&&&&&&&&&&&&&&&&&&&$$##&&&&&&&&&&$$$$$$&&&&&&&&&&&&&&##&&&&$$$$&&&&&&&&&&&&&&&&&&&&$$##&&&&&&&&&&$$$$$$&&&&&&&&&&&&&&",
"##&&&&$$$$&&&&&&&&&&&&&&&&&&&&$$##&&&&&&&&&&$$$$$$&&&&&&&&&&&&&&##&&&&$$$$&&&&&&&&&&&&&&&&&&&&$$##&&&&&&&&&&$$$$$$&&&&&&&&&&&&&&",
"##&&&&&&$$$$&&&&&&&&&&&&&&&&&&$$##&&&&&&&&&&&&$$$$$$&&&&&&&&&&&&##&&&&&&$$$$&&&&&&&&&&&&&&&&&&$$##&&&&&&&&&&&&$$$$$$&&&&&&&&&&&&",
"##&&&&&&$$$$&&&&&&&&&&&&&&&&&&$$##&&&&&&&&&&&&$$$$$$&&&&&&&&&&&&##&&&&&&$$$$&&&&&&&&&&&&&&&&&&$$##&&&&&&&&&&&&$$$$$$&&&&&&&&&&&&",
"##&&&&$$$$&&&&&&&&&&&&&&&&&&$$$$##&&&&&&&&&&&&&&&&$$&&&&&&&&&&&&##&&&&$$$$&&&&&&&&&&&&&&&&&&$$$$##&&&&&&&&&&&&&&&&$$&&&&&&&&&&&&",
"##&&&&$$$$&&&&&&&&&&&&&&&&&&$$$$##&&&&&&&&&&&&&&&&$$&&&&&&&&&&&&##&&&&$$$$&&&&&&&&&&&&&&&&&&$$$$##&&&&&&&&&&&&&&&&$$&&&&&&&&&&&&",
"##&&&&&&&&&&&&&&&&&&&&&&&&&&&&&&##&&&&&&&&&&&&&&&&&&&&&&&&&&&&&&##&&&&&&&&&&&&&&&&&&&&&&&&&&&&&&##&&&&&&&&&&&&&&&&&&&&&&&&&&&&&&",
"##&&&&&&&&&&&&&&&&&&&&&&&&&&&&&&##&&&&&&&&&&&&&&&&&&&&&&&&&&&&&&##&&&&&&&&&&&&&&&&&&&&&&&&&&&&&&##&&&&&&&&&&&&&&&&&&&&&&&&&&&&&&",
"++&&&&&&&&&&&&&&&&&&&&&&&&&&&&&&++==&&$$&&&&&&&&&&&&&&&&&&&&&&&&++&&&&&&&&&&&&&&&&&&&&&&&&&&&&&&++==&&$$&&&&&&&&&&&&&&&&&&&&&&&&",
"++&&&&&&&&&&&&&&&&&&&&&&&&&&&&&&++==&&$$&&&&&&&&&&&&&&&&&&&&&&&&++&&&&&&&&&&&&&&&&&&&&&&&&&&&&&&++==&&$$&&&&&&&&&&&&&&&&&&&&&&&&",
"++&&&&&&&&&&&&&&$$&&&&&&&&&&&&&&++==&&$$$$&&&&&&&&&&&&&&&&&&&&&&++&&&&&&&&&&&&&&$$&&&&&&&&&&&&&&++==&&$$$$&&&&&&&&&&&&&&&&&&&&&&",
"++&&&&&&&&&&&&&&$$&&&&&&&&&&&&&&++==&&$$$$&&&&&&&&&&&&&&&&&&&&&&++&&&&&&&&&&&&&&$$&&&&&&&&&&&&&&++==&&$$$$&&&&&&&&&&&&&&&&&&&&&&",
"++&&&&&&&&&&&&$$$$&&&&&&&&&&&&&&++==&&$$$$$$&&&&&&&&&&&&&&&&&&==++&&&&&&&&&&&&$$$$&&&&&&&&&&&&&&++==&&$$$$$$&&&&&&&&&&&&&&&&&&==",
"++&&&&&&&&&&&&$$$$&&&&&&&&&&&&&&++==&&$$$$$$&&&&&&&&&&&&&&&&&&==++&&&&&&&&&&&&$$$$&&&&&&&&&&&&&&++==&&$$$$$$&&&&&&&&&&&&&&&&&&==",
"++==&&&&&&&&$$$$&&&&&&&&&&&&&&&&++==&&&&$$&&&&&&&&&&$$&&&&&&&&==++==&&&&&&&&$$$$&&&&&&&&&&&&&&&&++==&&&&$$&&&&&&&&&&$$&&&&&&&&==",
"++==&&&&&&&&$$$$&&&&&&&&&&&&&&&&++==&&&&$$&&&&&&&&&&$$&&&&&&&&==++==&&&&&&&&$$$$&&&&&&&&&&&&&&&&++==&&&&$$&&&&&&&&&&$$&&&&&&&&==",
"++==&&&&&&$$$$&&&&&&$$$$$$&&&&&&++==&&&&&&&&&&&&&&$$$$$$&&&&&&==++==&&&&&&$$$$&&&&&&$$$$$$&&&&&&++==&&&&&&&&&&&&&&$$$$$$&&&&&&==",
"++==&&&&&&$$$$&&&&&&$$$$$$&&&&&&++==&&&&&&&&&&&&&&$$$$$$&&&&&&==++==&&&&&&$$$$&&&&&&$$$$$$&&&&&&++==&&&&&&&&&&&&&&$$$$$$&&&&&&==",
"++==&&&&&&&&&&&&&&&&&&$$$$$$&&&&++==&&&&&&&&&&&&$$$$$$&&&&&&&&==++==&&&&&&&&&&&&&&&&&&$$$$$$&&&&++==&&&&&&&&&&&&$$$$$$&&&&&&&&==",
"++==&&&&&&&&&&&&&&&&&&$$$$$$&&&&++==&&&&&&&&&&&&$$$$$$&&&&&&&&==++==&&&&&&&&&&&&&&&&&&$$$$$$&&&&++==&&&&&&&&&&&&$$$$$$&&&&&&&&==",
"++==&&&&&&&&&&&&&&&&&&&&$$$$&&==++==&&&&&&&&&&&&&&&&&&&&&&&&&&==++==&&&&&&&&&&&&&&&&&&&&$$$$&&==++==&&&&&&&&&&&&&&&&&&&&&&&&&&==",
"++==&&&&&&&&&&&&&&&&&&&&$$$$&&==++==&&&&&&&&&&&&&&&&&&&&&&&&&&==++==&&&&&&&&&&&&&&&&&&&&$$$$&&==++==&&&&&&&&&&&&&&&&&&&&&&&&&&==",
"++====&&&&&&&&&&&&&&&&&&&&&&&&==++========&&&&&&&&&&&&&&&&&&&&==++====&&&&&&&&&&&&&&&&&&&&&&&&==++========&&&&&&&&&&&&&&&&&&&&==",
"++====&&&&&&&&&&&&&&&&&&&&&&&&==++========&&&&&&&&&&&&&&&&&&&&==++====&&&&&&&&&&&&&&&&&&&&&&&&==++========&&&&&&&&&&&&&&&&&&&&==",
"++####==========================++$$$$$$$$======================++####==========================++$$$$$$$$======================",
"++####==========================++$$$$$$$$======================++####==========================++$$$$$$$$======================",
"++++++++++++++++++++++++##############@@@@@@@@@@@@@@@@@@@@@@@@@@@@@@@@@@@@@@@@@@@@@@@@OOOOOOOOOO##############++++++++++++++++++",
"++++++++++++++++++++++++##############@@@@@@@@@@@@@@@@@@@@@@@@@@@@@@@@@@@@@@@@@@@@@@@@OOOOOOOOOO##############++++++++++++++++++",
"++$$$$$$$$$$&&&&&&&&&&&&&&&&&&##++##&&OO::%%%%%%%%%%@@%%**%%%%%%%%%%%%%%@@****%%%%%%%%%%%%%%::OO++##&&$$$$$$&&&&&&&&&&&&&&&&&&&&",
"++$$$$$$$$$$&&&&&&&&&&&&&&&&&&##++##&&OO::%%%%%%%%%%@@%%**%%%%%%%%%%%%%%@@****%%%%%%%%%%%%%%::OO++##&&$$$$$$&&&&&&&&&&&&&&&&&&&&",
"++$$$$&&&&&&&&&&&&&&&&&&$$$$$$&&++&&$$OO::**********@@*******%%*********@@*******%%*******%%::OO++&&$$$$$$$$&&&&&&&&&&&&&&$$$$&&",
"++$$$$&&&&&&&&&&&&&&&&&&$$$$$$&&++&&$$OO::**********@@*******%%*********@@*******%%*******%%::OO++&&$$$$$$$$&&&&&&&&&&&&&&$$$$&&",
"++$$$$&&&&&&&&&&&&&&&&$$$$$$$$&&##&&&&OO::::::::::::OO::::::::::--------@@------------******::OO##&&&&&&&&&&&&&&&&&&&&&&$$$$$$$$",
"++$$$$&&&&&&&&&&&&&&&&$$$$$$$$&&##&&&&OO::::::::::::OO::::::::::--------@@------------******::OO##&&&&&&&&&&&&&&&&&&&&&&$$$$$$$$",
"++$$&&&&&&&&&&&&&&&&&&$$$$$$&&==##&&&&OO%%%%%%%%%%%%OO%%%%%%%%%%%%%%%%%%OO%%%%%%%%%%%%%%%%**::OO##&&&&&&&&&&&&&&&&&&&&&&&&&&$$$$",
"++$$&&&&&&&&&&&&&&&&&&$$$$$$&&==##&&&&OO%%%%%%%%%%%%OO%%%%%%%%%%%%%%%%%%OO%%%%%%%%%%%%%%%%**::OO##&&&&&&&&&&&&&&&&&&&&&&&&&&$$$$",
"##&&&&&&&&&&&&&&&&&&&&$$&&&&&&==##&&&&OO%%%%%%@@%%%%OO%%%%%%%%%%@@%%%%%%OO%%%%%%%%%%%%%%%%**::OO##&&&&&&&&&&&&&&&&&&&&&&&&&&&&&&",
"##&&&&&&&&&&&&&&&&&&&&$$&&&&&&==##&&&&OO%%%%%%@@%%%%OO%%%%%%%%%%@@%%%%%%OO%%%%%%%%%%%%%%%%**::OO##&&&&&&&&&&&&&&&&&&&&&&&&&&&&&&",
"##&&&&&&&&&&&&&&&&&&&&&&&&&&&&==##&&&&OO@@@@@@@@@@@@OO@@@@@@@@@@@@@@@@@@OO@@@@@@@@@@@@%%****::OO##&&&&$$$$$$&&&&&&&&&&&&&&&&&&&&",
"##&&&&&&&&&&&&&&&&&&&&&&&&&&&&==##&&&&OO@@@@@@@@@@@@OO@@@@@@@@@@@@@@@@@@OO@@@@@@@@@@@@%%****::OO##&&&&$$$$$$&&&&&&&&&&&&&&&&&&&&",
"##&&&&&&&&&&&&&&&&&&&&&&&&&&&&==++&&$$OOOOOOOOOOOOOOOOOOOOOOOOOOOOOOOOOOOOOOOOOOOOOOOO%%****::OO++&&$$$$$$&&&&&&&&&&&&&&&&&&&&&&",
"##&&&&&&&&&&&&&&&&&&&&&&&&&&&&==++&&$$OOOOOOOOOOOOOOOOOOOOOOOOOOOOOOOOOOOOOOOOOOOOOOOO%%****::OO++&&$$$$$$&&&&&&&&&&&&&&&&&&&&&&",
"##&&&&$$&&&&&&&&&&&&&&&&&&&&&&==++&&$$oooooooooo        oooooooooooo      ....        %%****::OO++&&$$$$&&&&&&&&&&&&&&&&&&&&&&&&",
"##&&&&$$&&&&&&&&&&&&&&&&&&&&&&==++&&$$oooooooooo        oooooooooooo      ....        %%****::OO++&&$$$$&&&&&&&&&&&&&&&&&&&&&&&&",
"##==&&&&$$&&&&&&&&&&&&&&&&&&&&==++&&&&&&&&====##  oooooooo......              oooo    %%**%%::OO++&&&&&&&&&&&&&&&&&&&&&&&&$$$$&&",
"##==&&&&$$&&&&&&&&&&&&&&&&&&&&==++&&&&&&&&====##  oooooooo......              oooo    %%**%%::OO++&&&&&&&&&&&&&&&&&&&&&&&&$$$$&&",
"++==&&&&&&&&&&&&&&&&$$$$$$&&&&==++&&&&&&&&&&==##    ......    ............  ..oooo..  %%**%%::OO++&&&&&&&&&&&&&&&&&&&&&&&&$$&&&&",
"++==&&&&&&&&&&&&&&&&$$$$$$&&&&==++&&&&&&&&&&==##    ......    ............  ..oooo..  %%**%%::OO++&&&&&&&&&&&&&&&&&&&&&&&&$$&&&&",
"++==&&&&&&&&&&&&&&&&$$$$$$&&&&==++==&&&&&&&&==##          ................  ..oo......%%%%%%::OO++==&&&&&&&&$$$$&&&&&&&&$$$$&&&&",
"++==&&&&&&&&&&&&&&&&$$$$$$&&&&==++==&&&&&&&&==##          ................  ..oo......%%%%%%::OO++==&&&&&&&&$$$$&&&&&&&&$$$$&&&&",
"++==&&&&&&&&&&&&&&&&&&$$$$$$&&==++==&&&&&&$$&&++  OO,,,,OO              ..            %%%%%%::OO++==&&&&&&$$&&$$&&&&&&&&&&&&&&&&",
"++==&&&&&&&&&&&&&&&&&&$$$$$$&&==++==&&&&&&$$&&++  OO,,,,OO              ..            %%%%%%::OO++==&&&&&&$$&&$$&&&&&&&&&&&&&&&&",
"++==&&&&&&&&&&&&&&&&&&&&&&&&&&==##==&&&&$$$$$$++  OO>>>>,,,,                  ......  %%%%%%::OO##==&&&&$$$$$$&&&&&&&&&&&&&&&&==",
"++==&&&&&&&&&&&&&&&&&&&&&&&&&&==##==&&&&$$$$$$++  OO>>>>,,,,                  ......  %%%%%%::OO##==&&&&$$$$$$&&&&&&&&&&&&&&&&==",
"++==&&&&&&&&&&&&================##==&&&&&&&&&&++  OO>>>>>>>>,,,,              ......  %%****::OO##==&&&&&&&&&&&&&&&&&&&&&&&&&&==",
"++==&&&&&&&&&&&&================##==&&&&&&&&&&++  OO>>>>>>>>,,,,              ......  %%****::OO##==&&&&&&&&&&&&&&&&&&&&&&&&&&==",
"++==============$$$$$$$$$$$$$$$$####,,,,,,,,,,,,,,,,>>>>>>>>>>>>,,,,OO  ..    ........%%****::OO####==========================&&",
"++==============$$$$$$$$$$$$$$$$####,,,,,,,,,,,,,,,,>>>>>>>>>>>>,,,,OO  ..    ........%%****::OO####==========================&&",
"++++++++++++++++++++++++############>>>>>>>>>>>>>>>>>>>>>>>>>>>>>>>>,,....        ....%%****::OO##########++++++++++++++++++++++",
"++++++++++++++++++++++++############>>>>>>>>>>>>>>>>>>>>>>>>>>>>>>>>,,....        ....%%****::OO##########++++++++++++++++++++++",
"####&&&&&&&&&&&&&&&&&&$$$$$$$$$$####>>>>>>>>>>>>>>>>>>>>>>>>>>>>>>>>;;..XXXXXXXX      %%****::OO####&&$$$$$$$$$$$$$$$$&&&&&&&&##",
"####&&&&&&&&&&&&&&&&&&$$$$$$$$$$####>>>>>>>>>>>>>>>>>>>>>>>>>>>>>>>>;;..XXXXXXXX      %%****::OO####&&$$$$$$$$$$$$$$$$&&&&&&&&##",
"##$$&&$$&&&&&&&&&&&&$$$$$$$$$$$$##&&;;;;;;;;;;;;;;;;>>>>>>>>>>>>;;;;OO..XXXXXXXX      %%****::OO##&&&&&&&&&&$$$$$$&&&&&&&&&&&&&&",
"##$$&&$$&&&&&&&&&&&&$$$$$$$$$$$$##&&;;;;;;;;;;;;;;;;>>>>>>>>>>>>;;;;OO..XXXXXXXX      %%****::OO##&&&&&&&&&&$$$$$$&&&&&&&&&&&&&&",
"##&&&&$$$$&&&&&&&&&&&&&&&&&&&&$$##&&&&&&&&&&$$++..@@>>>>>>>>;;;;OOOOOO  OOXXXXXX  XXXX%%%%**::OO##&&&&&&&&&&$$$$$$&&&&&&&&&&&&&&",
"##&&&&$$$$&&&&&&&&&&&&&&&&&&&&$$##&&&&&&&&&&$$++..@@>>>>>>>>;;;;OOOOOO  OOXXXXXX  XXXX%%%%**::OO##&&&&&&&&&&$$$$$$&&&&&&&&&&&&&&",
"##&&&&&&$$$$&&&&&&&&&&&&&&&&&&$$##&&&&&&&&&&&&++..@@>>>>;;;;@@OOOOOOOO  OOXXXXXX  XXXX%%%%**::OO##&&&&&&&&&&&&$$$$$$&&&&&&&&&&&&",
"##&&&&&&$$$$&&&&&&&&&&&&&&&&&&$$##&&&&&&&&&&&&##..@@>>>>;;;;@@OOOOOOOO  OOXXXXXX  XXXX%%%%**::OO##&&&&&&&&&&&&$$$$$$&&&&&&&&&&&&",
"##&&&&$$$$&&&&&&&&&&&&&&&&&&$$$$##&&&&&&&&&&&&##  @@;;;;OO  @@OOOOOOOO  OOXXXXXX  XXXX%%%%%%::OO##&&&&&&&&&&&&&&&&$$&&&&&&&&&&&&",
"##&&&&$$$$&&&&&&&&&&&&&&&&&&$$$$##&&&&&&&&&&&&##  @@;;;;OO  @@OOOOOOOO  OOXXXXXX  XXXX%%%%%%::OO##&&&&&&&&&&&&&&&&$$&&&&&&&&&&&&",
"##&&&&&&&&&&&&&&&&&&&&&&&&&&&&&&##&&&&&&&&&&&&##  @@OOOOOO  OOOOOOOOOO  OOXXXXXX  XXXX%%%%%%::OO##&&&&&&&&&&&&&&&&&&&&&&&&&&&&&&",
"##&&&&&&&&&&&&&&&&&&&&&&&&&&&&&&##&&&&&&&&&&&&##  @@OOOOOO  OOOOOOOOOO  OOXXXXXX  XXXX%%%%%%::OO##&&&&&&&&&&&&&&&&&&&&&&&&&&&&&&",
"++&&&&&&&&&&&&&&&&&&&&&&&&&&&&&&++==&&$$&&&&&&##  @@OOOOOO  OOOOOOOOOO  OOXXXXXX  XXXX%%%%**::OO++==&&$$&&&&&&&&&&&&&&&&&&&&&&&&",
"++&&&&&&&&&&&&&&&&&&&&&&&&&&&&&&++==&&$$&&&&&&##  @@OOOOOO  OOOOOOOOOO  OOXXXXXX  XXXX%%%%**::OO++==&&$$&&&&&&&&&&&&&&&&&&&&&&&&",
"++&&&&&&&&&&&&&&$$&&&&&&&&&&&&&&++==&&$$$$&&&&##  @@OOOOOO  XXOOOOOOOO  OOXXXXXX  XXXX%%%%**::OO++==&&$$$$&&&&&&&&&&&&&&&&&&&&&&",
"++&&&&&&&&&&&&&&$$&&&&&&&&&&&&&&++==&&$$$$&&&&##  @@OOOOOO  XXOOOOOOOO  OOXXXXXX  XXXX%%%%**::OO++==&&$$$$&&&&&&&&&&&&&&&&&&&&&&",
"++&&&&&&&&&&&&$$$$&&&&&&&&&&&&&&++==&&&&&&&&==++  OOOOXXXX  XXXXOOOOXX  OOXXXXXX  XXXX%%%%**::OO++==&&$$$$$$&&&&&&&&&&&&&&&&&&==",
"++&&&&&&&&&&&&$$$$&&&&&&&&&&&&&&++==&&&&&&&&==++  OOOOXXXX  XXXXOOOOXX  OOXXXXXX  XXXX%%%%**::OO++==&&$$$$$$&&&&&&&&&&&&&&&&&&==",
"++==&&&&&&&&$$$$&&&&&&&&&&&&&&&&++==&&OO@@@@@@@@@@@@@@@@@@@@@@@@@@@@@@@@@@@@@@@@@@@@@@%%%%**::OO++==&&&&$$&&&&&&&&&&$$&&&&&&&&==",
"++==&&&&&&&&$$$$&&&&&&&&&&&&&&&&++==&&OO@@@@@@@@@@@@@@@@@@@@@@@@@@@@@@@@@@@@@@@@@@@@@@%%%%**::OO++==&&&&$$&&&&&&&&&&$$&&&&&&&&==",
"++==&&&&&&$$$$&&&&&&$$$$$$&&&&&&++==&&OO%%%%%%%%%%%%@@%%%%%%%%%%%%%%%%%%@@%%%%%%%%%%%%%%%%**::OO++==&&&&&&&&&&&&&&$$$$$$&&&&&&==",
"++==&&&&&&$$$$&&&&&&$$$$$$&&&&&&++==&&OO%%%%%%%%%%%%@@%%%%%%%%%%%%%%%%%%@@%%%%%%%%%%%%%%%%**::OO++==&&&&&&&&&&&&&&$$$$$$&&&&&&==",
"++==&&&&&&&&&&&&&&&&&&$$$$$$&&&&++==&&OO%***********@@%%****%%%%********@@****%%%%%%**%%%%**::OO++==&&&&&&&&&&&&$$$$$$&&&&&&&&==",
"++==&&&&&&&&&&&&&&&&&&$$$$$$&&&&++==&&OO%***********@@%%****%%%%********@@****%%%%%%**%%%%**::OO++==&&&&&&&&&&&&$$$$$$&&&&&&&&==",
"++==&&&&&&&&&&&&&&&&&&&&$$$$&&==++==&&OO::::::::::::OO::::::::::--------@@----::::::--::::::::OO++==&&&&&&&&&&&&&&&&&&&&&&&&&&==",
"++==&&&&&&&&&&&&&&&&&&&&$$$$&&==++==&&OO::::::::::::OO::::::::::--------@@----::::::--::::::::OO++==&&&&&&&&&&&&&&&&&&&&&&&&&&==",
"++====&&&&&&&&&&&&&&&&&&&&&&&&==++====OO%%%%%%%%%%%%OO%%%%%%%%%%%%%%%%%%OO%%%%%%%%%%%%%%%%%%@@OO++========&&&&&&&&&&&&&&&&&&&&==",
"++====&&&&&&&&&&&&&&&&&&&&&&&&==++====OO%%%%%%%%%%%%OO%%%%%%%%%%%%%%%%%%OO%%%%%%%%%%%%%%%%%%@@OO++========&&&&&&&&&&&&&&&&&&&&==",
"++####==========================++$$$$OO%%%%%%@@%%%%OO%%%%%%%%%%@@%%%%%%OO%%%%%%%%%%%%%%%%%%@@OO++$$$$$$$$======================",
"++####==========================++$$$$OO%%%%%%@@%%%%OO%%%%%%%%%%@@%%%%%%OO%%%%%%%%%%%%%%%%%%@@OO++$$$$$$$$======================",
"++++++++++++++++++++++++##############OO@@@@@@@@@@@@OO@@@@@@@@@@@@@@@@@@OO@@@@@@@@@@@@@@@@@@@@OO##############++++++++++++++++++",
"++++++++++++++++++++++++##############OO@@@@@@@@@@@@OO@@@@@@@@@@@@@@@@@@OO@@@@@@@@@@@@@@@@@@@@OO##############++++++++++++++++++",
"++$$$$$$$$$$&&&&&&&&&&&&&&&&&&##++##&&OOOOOOOOOOOOOOOOOOOOOOOOOOOOOOOOOOOOOOOOOOOOOOOOOOOOOOOOOO++##&&$$$$$$&&&&&&&&&&&&&&&&&&&&",
"++$$$$$$$$$$&&&&&&&&&&&&&&&&&&##++##&&OOOOOOOOOOOOOOOOOOOOOOOOOOOOOOOOOOOOOOOOOOOOOOOOOOOOOOOOOO++##&&$$$$$$&&&&&&&&&&&&&&&&&&&&",
"++$$$$&&&&&&&&&&&&&&&&&&$$$$$$&&++&&$$$$$$$$&&&&&&&&&&&&&&$$$$&&++$$$$&&&&&&&&&&&&&&&&&&$$$$$$&&++&&$$$$$$$$&&&&&&&&&&&&&&$$$$&&",
"++$$$$&&&&&&&&&&&&&&&&&&$$$$$$&&++&&$$$$$$$$&&&&&&&&&&&&&&$$$$&&++$$$$&&&&&&&&&&&&&&&&&&$$$$$$&&++&&$$$$$$$$&&&&&&&&&&&&&&$$$$&&",
"++$$$$&&&&&&&&&&&&&&&&$$$$$$$$&&##&&&&&&&&&&&&&&&&&&&&&&$$$$$$$$++$$$$&&&&&&&&&&&&&&&&$$$$$$$$&&##&&&&&&&&&&&&&&&&&&&&&&$$$$$$$$",
"++$$$$&&&&&&&&&&&&&&&&$$$$$$$$&&##&&&&&&&&&&&&&&&&&&&&&&$$$$$$$$++$$$$&&&&&&&&&&&&&&&&$$$$$$$$&&##&&&&&&&&&&&&&&&&&&&&&&$$$$$$$$",
"++$$&&&&&&&&&&&&&&&&&&$$$$$$&&==##&&&&&&&&&&&&&&&&&&&&&&&&&&$$$$++$$&&&&&&&&&&&&&&&&&&$$$$$$&&==##&&&&&&&&&&&&&&&&&&&&&&&&&&$$$$",
"++$$&&&&&&&&&&&&&&&&&&$$$$$$&&==##&&&&&&&&&&&&&&&&&&&&&&&&&&$$$$++$$&&&&&&&&&&&&&&&&&&$$$$$$&&==##&&&&&&&&&&&&&&&&&&&&&&&&&&$$$$",
"##&&&&&&&&&&&&&&&&&&&&$$&&&&&&==##&&&&&&&&&&&&&&&&&&&&&&&&&&&&&&##&&&&&&&&&&&&&&&&&&&&$$&&&&&&==##&&&&&&&&&&&&&&&&&&&&&&&&&&&&&&",
"##&&&&&&&&&&&&&&&&&&&&$$&&&&&&==##&&&&&&&&&&&&&&&&&&&&&&&&&&&&&&##&&&&&&&&&&&&&&&&&&&&$$&&&&&&==##&&&&&&&&&&&&&&&&&&&&&&&&&&&&&&",
"##&&&&&&&&&&&&&&&&&&&&&&&&&&&&==##&&&&$$$$$$&&&&&&&&&&&&&&&&&&&&##&&&&&&&&&&&&&&&&&&&&&&&&&&&&==##&&&&$$$$$$&&&&&&&&&&&&&&&&&&&&",
"##&&&&&&&&&&&&&&&&&&&&&&&&&&&&==##&&&&$$$$$$&&&&&&&&&&&&&&&&&&&&##&&&&&&&&&&&&&&&&&&&&&&&&&&&&==##&&&&$$$$$$&&&&&&&&&&&&&&&&&&&&",
"##&&&&&&&&&&&&&&&&&&&&&&&&&&&&==++&&$$$$$$&&&&&&&&&&&&&&&&&&&&&&##&&&&&&&&&&&&&&&&&&&&&&&&&&&&==++&&$$$$$$&&&&&&&&&&&&&&&&&&&&&&",
"##&&&&&&&&&&&&&&&&&&&&&&&&&&&&==++&&$$$$$$&&&&&&&&&&&&&&&&&&&&&&##&&&&&&&&&&&&&&&&&&&&&&&&&&&&==++&&$$$$$$&&&&&&&&&&&&&&&&&&&&&&",
"##&&&&$$&&&&&&&&&&&&&&&&&&&&&&==++&&$$$$&&&&&&&&&&&&&&&&&&&&&&&&##&&&&$$&&&&&&&&&&&&&&&&&&&&&&==++&&$$$$&&&&&&&&&&&&&&&&&&&&&&&&",
"##&&&&$$&&&&&&&&&&&&&&&&&&&&&&==++&&$$$$&&&&&&&&&&&&&&&&&&&&&&&&##&&&&$$&&&&&&&&&&&&&&&&&&&&&&==++&&$$$$&&&&&&&&&&&&&&&&&&&&&&&&",
"##==&&&&$$&&&&&&&&&&&&&&&&&&&&==++&&&&&&&&&&&&&&&&&&&&&&&&$$$$&&##==&&&&$$&&&&&&&&&&&&&&&&&&&&==++&&&&&&&&&&&&&&&&&&&&&&&&$$$$&&",
"##==&&&&$$&&&&&&&&&&&&&&&&&&&&==++&&&&&&&&&&&&&&&&&&&&&&&&$$$$&&##==&&&&$$&&&&&&&&&&&&&&&&&&&&==++&&&&&&&&&&&&&&&&&&&&&&&&$$$$&&",
"++==&&&&&&&&&&&&&&&&$$$$$$&&&&==++&&&&&&&&&&&&&&&&&&&&&&&&$$&&&&++==&&&&&&&&&&&&&&&&$$$$$$&&&&==++&&&&&&&&&&&&&&&&&&&&&&&&$$&&&&",
"++==&&&&&&&&&&&&&&&&$$$$$$&&&&==++&&&&&&&&&&&&&&&&&&&&&&&&$$&&&&++==&&&&&&&&&&&&&&&&$$$$$$&&&&==++&&&&&&&&&&&&&&&&&&&&&&&&$$&&&&",
"++==&&&&&&&&&&&&&&&&$$$$$$&&&&==++==&&&&&&&&$$$$&&&&&&&&$$$$&&&&++==&&&&&&&&&&&&&&&&$$$$$$&&&&==++==&&&&&&&&$$$$&&&&&&&&$$$$&&&&",
"++==&&&&&&&&&&&&&&&&$$$$$$&&&&==++==&&&&&&&&$$$$&&&&&&&&$$$$&&&&++==&&&&&&&&&&&&&&&&$$$$$$&&&&==++==&&&&&&&&$$$$&&&&&&&&$$$$&&&&",
"++==&&&&&&&&&&&&&&&&&&$$$$$$&&==++==&&&&&&$$&&$$&&&&&&&&&&&&&&&&++==&&&&&&&&&&&&&&&&&&$$$$$$&&==++==&&&&&&$$&&$$&&&&&&&&&&&&&&&&",
"++==&&&&&&&&&&&&&&&&&&$$$$$$&&==++==&&&&&&$$&&$$&&&&&&&&&&&&&&&&++==&&&&&&&&&&&&&&&&&&$$$$$$&&==++==&&&&&&$$&&$$&&&&&&&&&&&&&&&&",
"++==&&&&&&&&&&&&&&&&&&&&&&&&&&==##==&&&&$$$$$$&&&&&&&&&&&&&&&&==++==&&&&&&&&&&&&&&&&&&&&&&&&&&==##==&&&&$$$$$$&&&&&&&&&&&&&&&&==",
"++==&&&&&&&&&&&&&&&&&&&&&&&&&&==##==&&&&$$$$$$&&&&&&&&&&&&&&&&==++==&&&&&&&&&&&&&&&&&&&&&&&&&&==##==&&&&$$$$$$&&&&&&&&&&&&&&&&==",
"++==&&&&&&&&&&&&================##==&&&&&&&&&&&&&&&&&&&&&&&&&&==++==&&&&&&&&&&&&================##==&&&&&&&&&&&&&&&&&&&&&&&&&&==",
"++==&&&&&&&&&&&&================##==&&&&&&&&&&&&&&&&&&&&&&&&&&==++==&&&&&&&&&&&&================##==&&&&&&&&&&&&&&&&&&&&&&&&&&==",
"++==============$$$$$$$$$$$$$$$$####==========================&&++==============$$$$$$$$$$$$$$$$####==========================&&",
"++==============$$$$$$$$$$$$$$$$####==========================&&++==============$$$$$$$$$$$$$$$$####==========================&&",
"++++++++++++++++++++++++##################++++++++++++++++++++++++++++++++++++++++++++++##################++++++++++++++++++++++",
"++++++++++++++++++++++++##################++++++++++++++++++++++++++++++++++++++++++++++##################++++++++++++++++++++++"
};
