/* XPM */
static char *_11703609643[] = {
/* columns rows colors chars-per-pixel */
"128 128 12 1 ",
"  c #070707",
". c #140E0E",
"X c #1A1512",
"o c #1B1916",
"O c #231F19",
"+ c #23201D",
"@ c #2E2A25",
"# c #312220",
"$ c #3C3129",
"% c #3F3628",
"& c #454135",
"* c #555145",
/* pixels */
"oo**$$$$$$@@oo&&$$&&@@@@@@oooo                                                                                                  ",
"oo**$$$$$$@@oo&&$$&&@@@@@@oooo                                                                                                  ",
"oo**$$$$$$@@oo&&$$&&@@@@@@@@oooooooooooo  oooooooooooooooooooooooooooooooooooooooooooo  oooooooooooooooooooooooooooo  oooooooooo",
"oo**$$$$$$@@oo&&$$&&@@@@@@@@oooooooooooo  oooooooooooooooooooooooooooooooooooooooooooo  oooooooooooooooooooooooooooo  oooooooooo",
"oo**$$@@$$@@oo&&$$&&@@@@@@@@@@@@@@oooo@@  @@@@oooo@@@@oo@@@@@@@@@@oooo@@@@oo@@@@@@@@@@  oooooo@@@@@@@@@@@@@@@@@@@@@@  @@@@@@@@oo",
"oo**$$@@$$@@oo&&$$&&@@@@@@@@@@@@@@oooo@@  @@@@oooo@@@@oo@@@@@@@@@@oooo@@@@oo@@@@@@@@@@  oooooo@@@@@@@@@@@@@@@@@@@@@@  @@@@@@@@oo",
"oo**$$@@@@@@oo**$$&&@@@@@@@@@@@@@@@@@@@@  @@@@@@@@@@@@@@@@@@@@@@@@@@@@@@@@@@@@@@@@@@@@  @@@@@@@@@@@@@@@@@@@@oooo@@@@oo@@@@@@@@@@",
"oo**$$@@@@@@oo**$$&&@@@@@@@@@@@@@@@@@@@@  @@@@@@@@@@@@@@@@@@@@@@@@@@@@@@@@@@@@@@@@@@@@  @@@@@@@@@@@@@@@@@@@@oooo@@@@oo@@@@@@@@@@",
"oo**$$$$@@@@oo**$$**@@@@@@@@@@@@@@@@@@@@  @@@@@@@@@@@@@@@@@@@@oo@@@@@@@@@@@@@@@@@@oo$$  $$@@@@@@@@oooo@@@@@@@@@@oo@@oo$$@@@@@@@@",
"oo**$$$$@@@@oo**$$**@@@@@@@@@@@@@@@@@@@@  @@@@@@@@@@@@@@@@@@@@oo@@@@@@@@@@@@@@@@@@oo$$  $$@@@@@@@@oooo@@@@@@@@@@oo@@oo$$@@@@@@@@",
"oo**$$$$@@@@oo**$$**@@@@@@@@@@@@@@@@@@@@oo@@@@@@@@@@@@@@@@oooo@@@@@@@@@@@@@@@@oooo@@$$oo$$@@@@@@@@@@@@@@@@@@@@@@@@$$oo$$@@@@@@@@",
"oo**$$$$@@@@oo**$$**@@@@@@@@@@@@@@@@@@@@oo@@@@@@@@@@@@@@@@oooo@@@@@@@@@@@@@@@@oooo@@$$oo$$@@@@@@@@@@@@@@@@@@@@@@@@$$oo$$@@@@@@@@",
"oo**$$$$$$@@oo**$$****&&&&&&&&&&&&&&&&&&oo&&$$$$$$$$&&&&&&&&&&&&$$$$$$$$&&&&&&&&&&&&&&oo&&&&&&&&&&&&&&&&&&&&&&&&&&&&oo&&&&&&&&&&",
"oo**$$$$$$@@oo**$$****&&&&&&&&&&&&&&&&&&oo&&$$$$$$$$&&&&&&&&&&&&$$$$$$$$&&&&&&&&&&&&&&oo&&&&&&&&&&&&&&&&&&&&&&&&&&&&oo&&&&&&&&&&",
"oo**$$$$$$@@oo**$$@@@@@@@@@@@@@@@@@@@@@@oo@@@@@@@@@@@@@@@@@@@@@@@@@@@@@@@@@@@@@@@@@@@@oo@@@@@@@@@@@@@@@@@@@@@@@@@@@@oo@@@@@@@@@@",
"oo**$$$$$$@@oo**$$@@@@@@@@@@@@@@@@@@@@@@oo@@@@@@@@@@@@@@@@@@@@@@@@@@@@@@@@@@@@@@@@@@@@oo@@@@@@@@@@@@@@@@@@@@@@@@@@@@oo@@@@@@@@@@",
"oo**$$$$$$@@oo**$$$$$$$$$$$$$$$$$$$$$$$$$$$$$$$$$$$$$$$$++$$$$$$$$$$$$$$$$$$++$$$$$$$$$$$$$$$$$$$$$$$$$$$$++++$$$$$$$$$$$$$$$$$$",
"oo**$$$$$$@@oo**$$$$$$$$$$$$$$$$$$$$$$$$$$$$$$$$$$$$$$$$++$$$$$$$$$$$$$$$$$$++$$$$$$$$$$$$$$$$$$$$$$$$$$$$++++$$$$$$$$$$$$$$$$$$",
"oo**$$$$$$$$oo************&&&&&&&&****&&&&&&************++****&&************++****&&&&********************++************&&&&****",
"oo**$$$$$$$$oo************&&&&&&&&****&&&&&&************++****&&************++****&&&&********************++************&&&&****",
"oooooooooooooo@@@@@@@@@@@@@@@@@@@@@@@@@@@@@@@@@@@@@@@@@@oo@@@@@@@@@@@@@@@@@@oo@@@@@@@@@@@@@@@@@@@@@@@@@@@@oo@@@@@@@@@@@@@@@@@@@@",
"oooooooooooooo@@@@@@@@@@@@@@@@@@@@@@@@@@@@@@@@@@@@@@@@@@oo@@@@@@@@@@@@@@@@@@oo@@@@@@@@@@@@@@@@@@@@@@@@@@@@oo@@@@@@@@@@@@@@@@@@@@",
"oo**$$$$$$$$oo@@@@@@@@@@@@@@@@@@@@@@@@@@@@@@@@@@@@@@@@@@oo@@@@@@@@@@@@@@@@@@oo@@@@@@++@@@@@@@@@@@@@@@@@@@@oo@@@@@@@@@@@@@@@@@@@@",
"oo**$$$$$$$$oo@@@@@@@@@@@@@@@@@@@@@@@@@@@@@@@@@@@@@@@@@@oo@@@@@@@@@@@@@@@@@@oo@@@@@@++@@@@@@@@@@@@@@@@@@@@oo@@@@@@@@@@@@@@@@@@@@",
"oo**$$$$$$@@oo@@@@@@@@@@@@@@@@@@@@@@@@@@@@@@@@@@@@@@++++oo@@@@@@@@@@@@@@++++oo@@@@@@++@@@@@@@@@@@@@@@@@@@@oo++++++++++@@@@++@@@@",
"oo**$$$$$$@@oo@@@@@@@@@@@@@@@@@@@@@@@@@@@@@@@@@@@@@@++++oo@@@@@@@@@@@@@@++++oo@@@@@@++@@@@@@@@@@@@@@@@@@@@oo++++++++++@@@@++@@@@",
"oo**$$$$@@@@oo++++++++++++++++++++++++++++++++++++++++++oo++++++++++++++++++oo++++++++++++++++++++++++++++oo++++++++++++++++++++",
"oo**$$$$@@@@oo++++++++++++++++++++++++++++++++++++++++++oo++++++++++++++++++oo++++++++++++++++++++++++++++oo++++++++++++++++++++",
"oo**$$$$@@@@oooooooooooooooooooooooooooooooooooooooooooooooooooooooooooooooooooooooooooooooooooooooooooooooooooooooooooooooooooo",
"oo**$$$$@@@@oooooooooooooooooooooooooooooooooooooooooooooooooooooooooooooooooooooooooooooooooooooooooooooooooooooooooooooooooooo",
"oo**$$$$@@@@oo**$$$$$$$$$$$$++++........OOOO....................................................................................",
"oo**$$$$@@@@oo**$$$$$$$$$$$$++++........OOOO....................................................................................",
"oo**$$$$$$@@oo**$$$$$$$$$$$$@@++....OOOO%%%%XXXXXXXXXXXXXX..OOXXXXXXXXXXXXXXXX..OOXXXXXXXXXXXX..XXXXXXXXXXXXOO..OOXXXXXXXXXXXX..",
"oo**$$$$$$@@oo**$$$$$$$$$$$$@@++....OOOO%%%%XXXXXXXXXXXXXX..OOXXXXXXXXXXXXXXXX..OOXXXXXXXXXXXX..XXXXXXXXXXXXOO..OOXXXXXXXXXXXX..",
"oo**$$$$$$@@oo&&$$$$$$$$$$$$@@++....OOOO####OOOOOOOOOOOOOO..OOOOOOOOOOOOOOOOOO..OOOOOOOOOOOOOO..XXOOOOOOOOOOOO..OOOOOOOOOOOOOO..",
"oo**$$$$$$@@oo&&$$$$$$$$$$$$@@++....OOOO####OOOOOOOOOOOOOO..OOOOOOOOOOOOOOOOOO..OOOOOOOOOOOOOO..XXOOOOOOOOOOOO..OOOOOOOOOOOOOO..",
"oo**$$$$$$@@oo&&$$$$$$$$$$$$@@++....OOOO####OO##########OO..####OO##########OO..##########OOOO..OOOOOO########..OO########OO....",
"oo**$$$$$$@@oo&&$$$$$$$$$$$$@@++....OOOO####OO##########OO..####OO##########OO..##########OOOO..OOOOOO########..OO########OO....",
"oo**$$$$$$@@oo&&$$$$$$$$$$$$@@++..........OO....................................................................................",
"oo**$$$$$$@@oo&&$$$$$$$$$$$$@@++..........OO....................................................................................",
"oo**$$$$@@@@oo&&$$$$$$$$$$@@@@++....OOOO########OOOO##########%%####OOOO##########%%%%%%..%%%%######OOOO##########%%%%%%..%%%%##",
"oo**$$$$@@@@oo&&$$$$$$$$$$@@@@++....OOOO########OOOO##########%%####OOOO##########%%%%%%..%%%%######OOOO##########%%%%%%..%%%%##",
"oo**$$$$$$@@oo&&@@@@@@@@@@@@++++..OOOOOO##########XX##################XX################..############XX################..######",
"oo**$$$$$$@@oo&&@@@@@@@@@@@@++++..OOOOOO##########XX##################XX################..############XX################..######",
"oo**$$$$$$@@oo++++++++++..........OOOO..##########XXOO################XXOO##############..############XXOO##############..######",
"oo**$$$$$$@@oo++++++++++..........OOOO..##########XXOO################XXOO##############..############XXOO##############..######",
"oo**$$$$@@@@oo********&&&&&&++..................XXXXXXOOOOOOOOOO....XXXXXXOOOOOOOOOOOOOOOOOOXXXX%%%%%%%%%%OOOOOOOOOOOOOOOOOOXXXX",
"oo**$$$$@@@@oo********&&&&&&++..................XXXXXXOOOOOOOOOO....XXXXXXOOOOOOOOOOOOOOOOOOXXXX%%%%%%%%%%OOOOOOOOOOOOOOOOOOXXXX",
"oo**$$@@@@@@oo**$$$$$$$$$$$$++++....OO##%%%%######%%%%%%%%%%..########%%%%%%%%%%..##%%%%%%%%##XX##########%%%%%%..##%%%%%%%%##XX",
"oo**$$@@@@@@oo**$$$$$$$$$$$$++++....OO##%%%%######%%%%%%%%%%..########%%%%%%%%%%..##%%%%%%%%##XX##########%%%%%%..##%%%%%%%%##XX",
"oo**$$@@@@@@oo&&$$$$$$$$$$$$++++....OOOO####################..##################..############XX################..############XX",
"oo**$$@@@@@@oo&&$$$$$$$$$$$$++++....OOOO####################..##################..############XX################..############XX",
"oo**$$@@$$@@oo&&$$$$$$$$$$$$++++....OO######OO##############OO##OO##############OO############..OO##############OO############..",
"oo**$$@@$$@@oo&&$$$$$$$$$$$$++++....OO######OO##############OO##OO##############OO############..OO##############OO############..",
"oo**$$$$$$@@oo&&$$$$$$$$$$$$++++............OOOOXXXXXXOOOOOOOOOOOOOOXXXXXXOOOOOOOOOOOOOOOOOO....OOOOXXXXXXOOOOOOOOOOOOOOOOOO....",
"oo**$$$$$$@@oo&&$$$$$$$$$$$$++++............OOOOXXXXXXOOOOOOOOOOOOOOXXXXXXOOOOOOOOOOOOOOOOOO....OOOOXXXXXXOOOOOOOOOOOOOOOOOO....",
"oo**$$$$$$@@oo&&$$$$$$$$$$$$++++..OOOOOO..%%%%%%OO####%%%%%%####%%%%OO####%%%%%%####OOOO########%%%%OO####%%%%%%####OOOO########",
"oo**$$$$$$@@oo&&$$$$$$$$$$$$++++..OOOOOO..%%%%%%OO####%%%%%%####%%%%OO####%%%%%%####OOOO########%%%%OO####%%%%%%####OOOO########",
"oo**$$$$$$@@oo&&$$$$$$$$$$$$@@++..OOOOOO..######OO##################OO################OO############OO################OO########",
"oo**$$$$$$@@oo&&$$$$$$$$$$$$@@++..OOOOOO..######OO##################OO################OO############OO################OO########",
"oo**$$$$$$@@oo&&$$$$$$$$$$$$@@++..OOOOOO..######..##################..################..############..################..########",
"oo**$$$$$$@@oo&&$$$$$$$$$$$$@@++..OOOOOO..######..##################..################..############..################..########",
"oo**$$$$$$@@oo&&$$$$$$$$$$$$@@++..........OO..........OOOOOOOOXX..........OOOOOOOOXXXXXX..................OOOOOOOOXXXXXX........",
"oo**$$$$$$@@oo&&$$$$$$$$$$$$@@++..........OO..........OOOOOOOOXX..........OOOOOOOOXXXXXX..................OOOOOOOOXXXXXX........",
"oo**$$$$$$@@oo&&$$$$$$$$$$$$@@++....OO%%%%%%######%%%%%%%%%%..########%%%%%%%%%%..##%%%%%%%%##XX######%%%%%%%%%%..##%%%%%%%%##XX",
"oo**$$$$$$@@oo&&$$$$$$$$$$$$@@++....OO%%%%%%######%%%%%%%%%%..########%%%%%%%%%%..##%%%%%%%%##XX######%%%%%%%%%%..##%%%%%%%%##XX",
"oo**$$$$$$@@oo&&$$$$@@$$$$$$++++....OO######################..##################..############XX################..############XX",
"oo**$$$$$$@@oo&&$$$$@@$$$$$$++++....OO######################..##################..############XX################..############XX",
"oo**$$@@$$@@oo&&$$$$@@@@$$$$++++....OO######OO##############OO##OO##############OO############..OO##############OO############..",
"oo**$$@@$$@@oo&&$$$$@@@@$$$$++++....OO######OO##############OO##OO##############OO############..OO##############OO############..",
"oo**$$@@@@@@oo&&$$$$@@@@$$$$++++........OOOOOOOOXXXXXXOOOOOOOOOOOOOOXXXXXXOOOOOOOOOOOOOOOOOO....OOOOXXXXXXOOOOOOOOOOOOOOOOOO....",
"oo**$$@@@@@@oo&&$$$$@@@@$$$$++++........OOOOOOOOXXXXXXOOOOOOOOOOOOOOXXXXXXOOOOOOOOOOOOOOOOOO....OOOOXXXXXXOOOOOOOOOOOOOOOOOO....",
"oo**$$$$@@@@oo&&@@@@$$$$$$$$++++....OOOO####%%%%OO####%%%%%%####%%%%OO####%%%%%%####OOOO########%%%%OO####%%%%%%####OOOO########",
"oo**$$$$@@@@oo&&@@@@$$$$$$$$++++....OOOO####%%%%OO####%%%%%%####%%%%OO####%%%%%%####OOOO########%%%%OO####%%%%%%####OOOO########",
"oo**$$$$@@@@oo&&@@@@@@@@@@@@++++..OO##OO########OO##################OO################OO############OO################OO########",
"oo**$$$$@@@@oo&&@@@@@@@@@@@@++++..OO##OO########OO##################OO################OO############OO################OO########",
"oo**$$$$$$@@oo++++++++++..........OO##..########..##################..################..############..################..########",
"oo**$$$$$$@@oo++++++++++..........OO##..########..##################..################..############..################..########",
"oo**$$$$$$@@oo******&&&&&&&&++........................OOOOOOOOXX..........OOOOOOOOXXXXXX..................OOOOOOOOXXXXXX........",
"oo**$$$$$$@@oo******&&&&&&&&++........................OOOOOOOOXX..........OOOOOOOOXXXXXX..................OOOOOOOOXXXXXX........",
"oo**$$$$$$@@oo**$$$$$$$$$$$$++....OOOO##%%%%%%%%%%########OO####%%%%%%########OO########%%%%%%..%%%%%%########OO########%%%%%%..",
"oo**$$$$$$@@oo**$$$$$$$$$$$$++....OOOO##%%%%%%%%%%########OO####%%%%%%########OO########%%%%%%..%%%%%%########OO########%%%%%%..",
"oo**$$$$$$$$oo**$$$$$$$$$$$$++....OOOOOO##################OO##################OO##############..##############OO##############..",
"oo**$$$$$$$$oo**$$$$$$$$$$$$++....OOOOOO##################OO##################OO##############..##############OO##############..",
"oooooooooooooo**$$$$$$$$$$$$++....OOOO####################OOOO################OOOO############OO##############OOOO############OO",
"oooooooooooooo**$$$$$$$$$$$$++....OOOO####################OOOO################OOOO############OO##############OOOO############OO",
"oo**$$$$$$$$oo**$$$$$$$$$$$$++++..............OOOOOO%%%%%%%%%%XX..OOOOOO%%%%%%%%%%XX........OOOO..OOOOOOOOOOOOXXXXXX........OOOO",
"oo**$$$$$$$$oo**$$$$$$$$$$$$++++..............OOOOOO%%%%%%%%%%XX..OOOOOO%%%%%%%%%%XX........OOOO..OOOOOOOOOOOOXXXXXX........OOOO",
"oo**$$$$$$@@oo**$$$$$$$$$$@@++++....OOOO..%%####OOOO##########%%####OOOO##########%%%%%%..%%%%######OOOO##########%%%%%%..%%%%##",
"oo**$$$$$$@@oo**$$$$$$$$$$@@++++....OOOO..%%####OOOO##########%%####OOOO##########%%%%%%..%%%%######OOOO##########%%%%%%..%%%%##",
"oo**$$$$@@@@oo&&$$$$$$$$@@@@@@++....OOOO..########XX##################XX################..############XX################..######",
"oo**$$$$@@@@oo&&$$$$$$$$@@@@@@++....OOOO..########XX##################XX################..############XX################..######",
"oo**$$$$@@@@oo&&$$$$$$$$@@@@@@++....OO##..########XXOO################XXOO##############..############XXOO##############..######",
"oo**$$$$@@@@oo&&$$$$$$$$@@@@@@++....OO##..########XXOO################XXOO##############..############XXOO##############..######",
"oo**$$$$@@@@oo&&$$$$$$$$$$$$@@++..........OO....XXXXXXOOOOOOOOOO....XXXXXXOOOOOOOOOOOOOOOOOOXXXX....XXXXXXOOOOOOOOOOOOOOOOOOXXXX",
"oo**$$$$@@@@oo&&$$$$$$$$$$$$@@++..........OO....XXXXXXOOOOOOOOOO....XXXXXXOOOOOOOOOOOOOOOOOOXXXX....XXXXXXOOOOOOOOOOOOOOOOOOXXXX",
"oo**$$@@@@@@oo&&$$$$$$$$$$$$@@++..OOOO%%%%%%######%%%%%%%%%%..########%%%%%%%%%%..##%%%%%%%%##XX######%%%%%%%%%%..##%%%%%%%%##XX",
"oo**$$@@@@@@oo&&$$$$$$$$$$$$@@++..OOOO%%%%%%######%%%%%%%%%%..########%%%%%%%%%%..##%%%%%%%%##XX######%%%%%%%%%%..##%%%%%%%%##XX",
"oo**$$$$@@@@oo&&$$$$@@$$$$$$++++..OOOO######################..##################..############XX################..############XX",
"oo**$$$$@@@@oo&&$$$$@@$$$$$$++++..OOOO######################..##################..############XX################..############XX",
"oo**$$$$@@@@oo&&$$$$@@$$$$$$++++..OOOO######OO##############OO##OO##############OO############..OO##############OO############..",
"oo**$$$$@@@@oo&&$$$$@@$$$$$$++++..OOOO######OO##############OO##OO##############OO############..OO##############OO############..",
"oo**$$$$@@@@oo&&$$$$$$$$$$$$++++..........OOOOOOXXXXXXOOOOOOOOOOOOOOXXXXXXOOOOOOOOOOOOOOOOOO....OOOOXXXXXXOOOOOOOOOOOOOOOOOO....",
"oo**$$$$@@@@oo&&$$$$$$$$$$$$++++..........OOOOOOXXXXXXOOOOOOOOOOOOOOXXXXXXOOOOOOOOOOOOOOOOOO....OOOOXXXXXXOOOOOOOOOOOOOOOOOO....",
"oo**$$$$@@@@oo&&$$$$$$$$$$$$++++..OOOOOO####%%%%OO####%%%%%%####%%%%OO####%%%%%%####OOOO########%%%%OO####%%%%%%####OOOO########",
"oo**$$$$@@@@oo&&$$$$$$$$$$$$++++..OOOOOO####%%%%OO####%%%%%%####%%%%OO####%%%%%%####OOOO########%%%%OO####%%%%%%####OOOO########",
"oo**$$$$@@@@oo&&$$$$$$$$$$$$++++..OOOOOO########OO##################OO################OO############OO################OO########",
"oo**$$$$@@@@oo&&$$$$$$$$$$$$++++..OOOOOO########OO##################OO################OO############OO################OO########",
"oo&&$$$$@@@@oo&&$$$$$$$$$$$$++++..OOOO..########..##################..################..############..################..########",
"oo&&$$$$@@@@oo&&$$$$$$$$$$$$++++..OOOO..########..##################..################..############..################..########",
"oo**$$$$@@@@++++++++++++++++++++++++++++++++++++++++++++++++++++++++++++++++++++++++++++++++++++++++++++++++++++++++++++++++++++",
"oo**$$$$@@@@++++++++++++++++++++++++++++++++++++++++++++++++++++++++++++++++++++++++++++++++++++++++++++++++++++++++++++++++++++",
"oo**$$$$@@@@$$$$$$@@@@@@@@@@@@@@$$$$$$++$$$$$$$$$$@@@@@@@@@@@@@@$$$$$$@@@@@@@@@@@@@@$$$$$$++$$$$$$$$@@@@@@$$@@@@@@@@@@@@@@@@@@@@",
"oo**$$$$@@@@$$$$$$@@@@@@@@@@@@@@$$$$$$++$$$$$$$$$$@@@@@@@@@@@@@@$$$$$$@@@@@@@@@@@@@@$$$$$$++$$$$$$$$@@@@@@$$@@@@@@@@@@@@@@@@@@@@",
"oo**$$$$@@@@$$$$$$$$$$$$$$$$$$$$$$$$$$++$$$$$$$$$$$$$$$$$$$$$$$$$$$$$$$$$$$$$$$$$$$$$$$$$$++$$$$$$$$$$$$$$$$$$$$$$$$@@@@@@$$$$$$",
"oo**$$$$@@@@$$$$$$$$$$$$$$$$$$$$$$$$$$++$$$$$$$$$$$$$$$$$$$$$$$$$$$$$$$$$$$$$$$$$$$$$$$$$$++$$$$$$$$$$$$$$$$$$$$$$$$@@@@@@$$$$$$",
"oo**********&&&&&&&&&&**********&&&&&&++&&&&&&&&&&&&&&**********&&&&&&&&&&**********&&&&&&++&&&&&&&&**************************&&",
"oo**********&&&&&&&&&&**********&&&&&&++&&&&&&&&&&&&&&**********&&&&&&&&&&**********&&&&&&++&&&&&&&&**************************&&",
"oo++@@@@@@@@@@@@@@@@@@@@@@@@@@@@@@@@@@oo@@@@@@@@@@@@@@@@@@@@@@@@@@@@@@@@@@@@@@@@@@@@@@@@@@oo@@@@@@@@@@@@@@@@@@@@@@@@@@@@@@@@@@@@",
"oo++@@@@@@@@@@@@@@@@@@@@@@@@@@@@@@@@@@oo@@@@@@@@@@@@@@@@@@@@@@@@@@@@@@@@@@@@@@@@@@@@@@@@@@oo@@@@@@@@@@@@@@@@@@@@@@@@@@@@@@@@@@@@",
"oo++@@@@@@@@@@@@@@@@@@@@++@@@@@@@@@@@@oo@@@@@@@@@@@@@@@@++@@@@@@@@@@@@@@@@@@++@@@@@@@@@@@@oo@@@@@@++@@@@@@@@@@@@@@@@@@++@@@@@@@@",
"oo++@@@@@@@@@@@@@@@@@@@@++@@@@@@@@@@@@oo@@@@@@@@@@@@@@@@++@@@@@@@@@@@@@@@@@@++@@@@@@@@@@@@oo@@@@@@++@@@@@@@@@@@@@@@@@@++@@@@@@@@",
"oo++@@@@@@@@@@@@@@++++++++++++@@++@@++oo@@@@@@@@@@++++++++++++@@@@@@@@++++++++++++@@++@@++oo@@@@@@++@@++++++++++++++@@++@@@@@@@@",
"oo++@@@@@@@@@@@@@@++++++++++++@@++@@++oo@@@@@@@@@@++++++++++++@@@@@@@@++++++++++++@@++@@++oo@@@@@@++@@++++++++++++++@@++@@@@@@@@",
"oo++++++++++++++++++++++++++++++++++++oo++++++++++++++++++++++++++++++++++++++++++++++++++oo++++++++++++++++++++++++++++++++++++",
"oo++++++++++++++++++++++++++++++++++++oo++++++++++++++++++++++++++++++++++++++++++++++++++oo++++++++++++++++++++++++++++++++++++",
"oooooooooooooooooooooooooooooooooooooooooooooooooooooooooooooooooooooooooooooooooooooooooooooooooooooooooooooooooooooooooooooooo",
"oooooooooooooooooooooooooooooooooooooooooooooooooooooooooooooooooooooooooooooooooooooooooooooooooooooooooooooooooooooooooooooooo"
};
