/* XPM */
static char *_1705062607[] = {
/* columns rows colors chars-per-pixel */
"128 128 7 1 ",
"  c black",
". c #070707",
"X c #1B1916",
"o c #2E2A25",
"O c #3C3129",
"+ c #454135",
"@ c #555145",
/* pixels */
"                                                                                                ..XXXXoooooo++OO++XXooOOOOOO@@XX",
"                                                                                                ..XXXXoooooo++OO++XXooOOOOOO@@XX",
"                                                                                                ..XXXXoooooo++OO++XXooOOOOOO@@XX",
"                                                                                                ..XXXXoooooo++OO++XXooOOOOOO@@XX",
"                                                                                                ..XXoooooooo++OO@@XXooOOooOO@@XX",
"                                                                                                ..XXoooooooo++OO@@XXooOOooOO@@XX",
"                                                                                                ..XXoooooooo++OO@@XXooOOooOO@@XX",
"                                                                                                ..XXoooooooo++OO@@XXooOOooOO@@XX",
"                                                                                                ..XXoooooooo++OO@@XXooOOooOO@@XX",
"                                                                                                ..XXoooooooo++OO@@XXooOOooOO@@XX",
"                                                                                                ..XXoooooooo++OO@@XXooooooOO@@XX",
"                                                                                                ..XXoooooooo++OO@@XXooooooOO@@XX",
"                                                                                                ..XXoooooooo++OO@@XXooooOOOO@@XX",
"                                                                                                ..XXoooooooo++OO@@XXooooOOOO@@XX",
"                                                                                                ..XXoooooooo++OO@@XXooOOOOOO@@XX",
"                                                                                                ..XXoooooooo++OO@@XXooOOOOOO@@XX",
"                                                                                                ..XXoooooooo++OO@@XXooOOOOOO@@XX",
"                                                                                                ..XXoooooooo++OO@@XXooOOOOOO@@XX",
"                                                                                                ..XXoooooooo++OO@@XXooooOOOO@@XX",
"                                                                                                ..XXoooooooo++OO@@XXooooOOOO@@XX",
"                                                                                                ..XXoooooooo++OO@@XXooOOOOOO@@XX",
"                                                                                                ..XXoooooooo++OO@@XXooOOOOOO@@XX",
"                                                                                                ..XXoooooooo++OO++XXooOOOOOO@@XX",
"                                                                                                ..XXoooooooo++OO++XXooOOOOOO@@XX",
"                                                                                                ..XXoooooooo++OO++XXooOOOOOO@@XX",
"                                                                                                ..XXoooooooo++OO++XXooOOOOOO@@XX",
"                                                                                                ..XXoooooooo++OO++XXooOOOOOO@@XX",
"                                                                                                ..XXoooooooo++OO++XXooOOOOOO@@XX",
"                                                                                                ..XXoooooooo++OO++XXooOOOOOO@@XX",
"                                                                                                ..XXoooooooo++OO++XXooOOOOOO@@XX",
"                                                                                                ..XXoooooooo++OO++XXooOOOOOO@@XX",
"                                                                                                ..XXoooooooo++OO++XXooOOOOOO@@XX",
"                                                                                                ..XXoooooooo++OO++XXooOOOOOO@@XX",
"                                                                                                ..XXoooooooo++OO++XXooOOOOOO@@XX",
"                                                                                                ..XXoooooooo++OO++XXooooOOOO@@XX",
"                                                                                                ..XXoooooooo++OO++XXooooOOOO@@XX",
"                                                                                                ..XXXXoooooo++OO++XXooOOOOOO@@XX",
"                                                                                                ..XXXXoooooo++OO++XXooOOOOOO@@XX",
"                                                                                                ..XXXXoooooo++OO++XXOOOOOOOO@@XX",
"                                                                                                ..XXXXoooooo++OO++XXOOOOOOOO@@XX",
"                                                                                                ..XXoooooooo++OO@@XXXXXXXXXXXXXX",
"                                                                                                ..XXoooooooo++OO@@XXXXXXXXXXXXXX",
"                                                                                                ..XXoooooooo++OO@@XXOOOOOOOO@@XX",
"                                                                                                ..XXoooooooo++OO@@XXOOOOOOOO@@XX",
"                                                                                                ..XXoooooooo++OO@@XXooOOOOOO@@XX",
"                                                                                                ..XXoooooooo++OO@@XXooOOOOOO@@XX",
"                                                                                                ....XXXXXXXXooXXXXXXooOOOOOO@@XX",
"                                                                                                ....XXXXXXXXooXXXXXXooOOOOOO@@XX",
"                                                                                                ..XXXXoooooo++OO@@XXooOOOOOO@@XX",
"                                                                                                ..XXXXoooooo++OO@@XXooOOOOOO@@XX",
"                                                                                                ..XXXXoooooo++OO@@XXooooOOOO@@XX",
"                                                                                                ..XXXXoooooo++OO@@XXooooOOOO@@XX",
"                                                                                                ..XXXXoooooo++OO@@XXooooOOOO@@XX",
"                                                                                                ..XXXXoooooo++OO@@XXooooOOOO@@XX",
"                                                                                                ..XXoooooooo++OO@@XXooooOOOO@@XX",
"                                                                                                ..XXoooooooo++OO@@XXooooOOOO@@XX",
"                                                                                                ..XXoooooooo++OO@@XXooooooOO@@XX",
"                                                                                                ..XXoooooooo++OO@@XXooooooOO@@XX",
"                                                                                                ..XXoooooooo++OO++XXooOOooOO@@XX",
"                                                                                                ..XXoooooooo++OO++XXooOOooOO@@XX",
"                                                                                                ..XXoooooooo++OO++XXooOOOOOO@@XX",
"                                                                                                ..XXoooooooo++OO++XXooOOOOOO@@XX",
"                                                                                                ..XXoooooooo++OO++XXooOOOOOO@@XX",
"                                                                                                ..XXoooooooo++OO++XXooOOOOOO@@XX",
"                                                                                                ..XXXXoooooo++OO++XXooOOOOOO@@XX",
"                                                                                                ..XXXXoooooo++OO++XXooOOOOOO@@XX",
"                                                                                                ..XXXXoooooo++OO++XXooOOOOOO@@XX",
"                                                                                                ..XXXXoooooo++OO++XXooOOOOOO@@XX",
"                                                                                                ..XXoooooooo++OO@@XXooOOooOO@@XX",
"                                                                                                ..XXoooooooo++OO@@XXooOOooOO@@XX",
"                                                                                                ..XXoooooooo++OO@@XXooOOooOO@@XX",
"                                                                                                ..XXoooooooo++OO@@XXooOOooOO@@XX",
"                                                                                                ..XXoooooooo++OO@@XXooOOooOO@@XX",
"                                                                                                ..XXoooooooo++OO@@XXooOOooOO@@XX",
"                                                                                                ..XXoooooooo++OO@@XXooooooOO@@XX",
"                                                                                                ..XXoooooooo++OO@@XXooooooOO@@XX",
"                                                                                                ..XXoooooooo++OO@@XXooooOOOO@@XX",
"                                                                                                ..XXoooooooo++OO@@XXooooOOOO@@XX",
"                                                                                                ..XXoooooooo++OO@@XXooOOOOOO@@XX",
"                                                                                                ..XXoooooooo++OO@@XXooOOOOOO@@XX",
"                                                                                                ..XXoooooooo++OO@@XXooOOOOOO@@XX",
"                                                                                                ..XXoooooooo++OO@@XXooOOOOOO@@XX",
"                                                                                                ..XXoooooooo++OO@@XXooooOOOO@@XX",
"                                                                                                ..XXoooooooo++OO@@XXooooOOOO@@XX",
"                                                                                                ..XXoooooooo++OO@@XXooOOOOOO@@XX",
"                                                                                                ..XXoooooooo++OO@@XXooOOOOOO@@XX",
"                                                                                                ..XXoooooooo++OO++XXooOOOOOO@@XX",
"                                                                                                ..XXoooooooo++OO++XXooOOOOOO@@XX",
"                                                                                                ..XXoooooooo++OO++XXooOOOOOO@@XX",
"                                                                                                ..XXoooooooo++OO++XXooOOOOOO@@XX",
"                                                                                                ..XXoooooooo++OO++XXooOOOOOO@@XX",
"                                                                                                ..XXoooooooo++OO++XXooOOOOOO@@XX",
"                                                                                                ..XXoooooooo++OO++XXooOOOOOO@@XX",
"                                                                                                ..XXoooooooo++OO++XXooOOOOOO@@XX",
"                                                                                                ..XXoooooooo++OO++XXooOOOOOO@@XX",
"                                                                                                ..XXoooooooo++OO++XXooOOOOOO@@XX",
"                                                                                                ..XXoooooooo++OO++XXooOOOOOO@@XX",
"                                                                                                ..XXoooooooo++OO++XXooOOOOOO@@XX",
"                                                                                                ..XXoooooooo++OO++XXooooOOOO@@XX",
"                                                                                                ..XXoooooooo++OO++XXooooOOOO@@XX",
"                                                                                                ..XXXXoooooo++OO++XXooOOOOOO@@XX",
"                                                                                                ..XXXXoooooo++OO++XXooOOOOOO@@XX",
"                                                                                                ..XXXXoooooo++OO++XXOOOOOOOO@@XX",
"                                                                                                ..XXXXoooooo++OO++XXOOOOOOOO@@XX",
"                                                                                                ..XXoooooooo++OO@@XXXXXXXXXXXXXX",
"                                                                                                ..XXoooooooo++OO@@XXXXXXXXXXXXXX",
"                                                                                                ..XXoooooooo++OO@@XXOOOOOOOO@@XX",
"                                                                                                ..XXoooooooo++OO@@XXOOOOOOOO@@XX",
"                                                                                                ..XXoooooooo++OO@@XXooOOOOOO@@XX",
"                                                                                                ..XXoooooooo++OO@@XXooOOOOOO@@XX",
"                                                                                                ....XXXXXXXXooXXXXXXooOOOOOO@@XX",
"                                                                                                ....XXXXXXXXooXXXXXXooOOOOOO@@XX",
"                                                                                                ..XXXXoooooo++OO@@XXooOOOOOO@@XX",
"                                                                                                ..XXXXoooooo++OO@@XXooOOOOOO@@XX",
"                                                                                                ..XXXXoooooo++OO@@XXooooOOOO@@XX",
"                                                                                                ..XXXXoooooo++OO@@XXooooOOOO@@XX",
"                                                                                                ..XXXXoooooo++OO@@XXooooOOOO@@XX",
"                                                                                                ..XXXXoooooo++OO@@XXooooOOOO@@XX",
"                                                                                                ..XXoooooooo++OO@@XXooooOOOO@@XX",
"                                                                                                ..XXoooooooo++OO@@XXooooOOOO@@XX",
"                                                                                                ..XXoooooooo++OO@@XXooooooOO@@XX",
"                                                                                                ..XXoooooooo++OO@@XXooooooOO@@XX",
"                                                                                                ..XXoooooooo++OO++XXooOOooOO@@XX",
"                                                                                                ..XXoooooooo++OO++XXooOOooOO@@XX",
"                                                                                                ..XXoooooooo++OO++XXooOOOOOO@@XX",
"                                                                                                ..XXoooooooo++OO++XXooOOOOOO@@XX",
"                                                                                                ..XXoooooooo++OO++XXooOOOOOO@@XX",
"                                                                                                ..XXoooooooo++OO++XXooOOOOOO@@XX"
};
