/* XPM */
static char *_41705062605[] = {
/* columns rows colors chars-per-pixel */
"128 128 13 1 ",
"  c black",
". c #070707",
"X c #1B1916",
"o c #1D191B",
"O c #23201D",
"+ c #241F21",
"@ c #272325",
"# c #2E2A25",
"$ c #2A2628",
"% c #3C3129",
"& c #322E30",
"* c #454135",
"= c #555145",
/* pixels */
"                                                                                                ..XX########**%%==XX##%%%%%%==XX",
"                                                                                                ..XX########**%%==XX##%%%%%%==XX",
"                                                                                                ..XX########**%%==XX##%%%%%%==XX",
"                                                                                                ..XX########**%%==XX##%%%%%%==XX",
"                                                                                                ..XX########**%%==XX##%%##%%==XX",
"                                                                                                ..XX########**%%==XX##%%##%%==XX",
"                                                                                                ..XX########**%%**XX##%%##%%==XX",
"                                                                                                ..XX########**%%**XX##%%##%%==XX",
"                                                                                                ..XX########**%%**XX##%%##%%==XX",
"                                                                                                ..XX########**%%**XX##%%##%%==XX",
"                                                                                                ..XX########**%%**XX######%%==XX",
"                                                                                                ..XX########**%%**XX######%%==XX",
"                                                                                                ..XX########**%%**XX####%%%%==XX",
"                                                                                                ..XX########**%%**XX####%%%%==XX",
"                                                                                                ..XX########**%%**XX##%%%%%%==XX",
"                                                                                                ..XX########**%%**XX##%%%%%%==XX",
"                                                                                                ..XX########**%%**XX##%%%%%%==XX",
"                                                                                                ..XX########**%%**XX##%%%%%%==XX",
"                                                                                                ..XX########**%%**XX####%%%%==XX",
"                                                                                                ..XX########**%%**XX####%%%%==XX",
"                                                                                                ..XXXX######**%%**XX##%%%%%%==XX",
"                                                                                                ..XXXX######**%%**XX##%%%%%%==XX",
"                                                                                                ..XXXX######**%%**XX##%%%%%%==XX",
"                                                                                                ..XXXX######**%%**XX##%%%%%%==XX",
"                                                                                                ..XX########**%%==XX##%%%%%%==XX",
"                                                                                                ..XX########**%%==XX##%%%%%%==XX",
"                                                                                                ..XX########**%%==XX##%%%%%%==XX",
"                                                                                                ..XX########**%%==XX##%%%%%%==XX",
"                                                                                                ..XX########**%%==XX##%%%%%%==XX",
"                                                                                                ..XX########**%%==XX##%%%%%%==XX",
"                                                                                                ....XXXXXXXX##XXXXXX##%%%%%%==XX",
"                                                                                                ....XXXXXXXX##XXXXXX##%%%%%%==XX",
"                                                                                                ..XXXX######**%%==XX####%%%%==XX",
"                                                                                                ..XXXX######**%%==XX####%%%%==XX",
"                                                                                                ..XXXX######**%%==XX####%%%%==XX",
"                                                                                                ..XXXX######**%%==XX####%%%%==XX",
"                                                                                                ..XXXX######**%%==XX==========XX",
"                                                                                                ..XXXX######**%%==XX==========XX",
"                                                                                                ..XX########**%%==XX########OOXX",
"                                                                                                ..XX########**%%==XX########OOXX",
"                                                                                                ..XX########**%%==XX########OOXX",
"                                                                                                ..XX########**%%==XX########OOXX",
"                                                                                                ..XX########**%%**XX########OOXX",
"                                                                                                ..XX########**%%**XX########OOXX",
"                                                                                                ..XX########**%%**XXOOOOOOOOOOXX",
"                                                                                                ..XX########**%%**XXOOOOOOOOOOXX",
"                                                                                                ..XX########**%%**XXXXXXXXXXXXXX",
"                                                                                                ..XX########**%%**XXXXXXXXXXXXXX",
"                                                                                                ..XXXX######**%%**XX$$$$$$@@@@$$",
"                                                                                                ..XXXX######**%%**XX$$$$$$@@@@$$",
"                                                                                                ..XXXX######**%%**XX$$$$$$@@$$$$",
"                                                                                                ..XXXX######**%%**XX$$$$$$@@$$$$",
"                                                                                                ..XX########**%%==XX$$$$@@@@$$$$",
"                                                                                                ..XX########**%%==XX$$$$@@@@$$$$",
"                                                                                                ..XX########**%%==XX$$$$$$$$$$$$",
"                                                                                                ..XX########**%%==XX$$$$$$$$$$$$",
"                                                                                                ..XX########**%%==XX$$$$$$$$$$&&",
"                                                                                                ..XX########**%%==XX$$$$$$$$$$&&",
"                                                                                                ..XX########**%%==XX$$$$$$$$$$&&",
"                                                                                                ..XX########**%%==XX$$$$$$$$$$&&",
"                                                                                                ..XX########**%%==XX&&&&&&&&&&$$",
"                                                                                                ..XX########**%%==XX&&&&&&&&&&$$",
"                                                                                                ..XX########**%%==XXoooooooooooo",
"                                                                                                ..XX########**%%==XXoooooooooooo",
"                                                                                                ..XX########**%%==XX@@$$$$$$$$++",
"                                                                                                ..XX########**%%==XX@@$$$$$$$$++",
"                                                                                                ..XX########**%%==XX$$$$$$$$$$$$",
"                                                                                                ..XX########**%%==XX$$$$$$$$$$$$",
"                                                                                                ..XX########**%%==XX$$$$$$$$$$$$",
"                                                                                                ..XX########**%%==XX$$$$$$$$$$$$",
"                                                                                                ..XX########**%%**XX$$$$$$$$$$$$",
"                                                                                                ..XX########**%%**XX$$$$$$$$$$$$",
"                                                                                                ..XX########**%%**XX$$$$$$$$$$$$",
"                                                                                                ..XX########**%%**XX$$$$$$$$$$$$",
"                                                                                                ..XX########**%%**XX$$$$$$$$$$$$",
"                                                                                                ..XX########**%%**XX$$$$$$$$$$$$",
"                                                                                                ..XX########**%%**XX$$$$$$$$$$$$",
"                                                                                                ..XX########**%%**XX$$$$$$$$$$$$",
"                                                                                                ..XX########**%%**XX$$$$$$$$$$$$",
"                                                                                                ..XX########**%%**XX$$$$$$$$$$$$",
"                                                                                                ..XX########**%%**XXXXXXXXXXXXXX",
"                                                                                                ..XX########**%%**XXXXXXXXXXXXXX",
"                                                                                                ..XX########**%%**XX==========XX",
"                                                                                                ..XX########**%%**XX==========XX",
"                                                                                                ..XXXX######**%%**XX####%%%%==XX",
"                                                                                                ..XXXX######**%%**XX####%%%%==XX",
"                                                                                                ..XXXX######**%%**XX####%%%%==XX",
"                                                                                                ..XXXX######**%%**XX####%%%%==XX",
"                                                                                                ..XX########**%%==XX######%%==XX",
"                                                                                                ..XX########**%%==XX######%%==XX",
"                                                                                                ..XX########**%%==XX##%%##%%==XX",
"                                                                                                ..XX########**%%==XX##%%##%%==XX",
"                                                                                                ..XX########**%%==XX##%%%%%%==XX",
"                                                                                                ..XX########**%%==XX##%%%%%%==XX",
"                                                                                                ....XXXXXXXX##XXXXXX##%%%%%%==XX",
"                                                                                                ....XXXXXXXX##XXXXXX##%%%%%%==XX",
"                                                                                                ..XX########**%%==XX##%%%%%%==XX",
"                                                                                                ..XX########**%%==XX##%%%%%%==XX",
"                                                                                                ..XX########**%%==XX####%%%%==XX",
"                                                                                                ..XX########**%%==XX####%%%%==XX",
"                                                                                                ..XX########**%%==XX##%%%%%%==XX",
"                                                                                                ..XX########**%%==XX##%%%%%%==XX",
"                                                                                                ..XX########**%%==XX%%%%%%%%==XX",
"                                                                                                ..XX########**%%==XX%%%%%%%%==XX",
"                                                                                                ..XX########**%%==XXXXXXXXXXXXXX",
"                                                                                                ..XX########**%%==XXXXXXXXXXXXXX",
"                                                                                                ..XX########**%%**XX%%%%%%%%==XX",
"                                                                                                ..XX########**%%**XX%%%%%%%%==XX",
"                                                                                                ..XX########**%%**XX##%%%%%%==XX",
"                                                                                                ..XX########**%%**XX##%%%%%%==XX",
"                                                                                                ..XXXX######**%%**XX##%%%%%%==XX",
"                                                                                                ..XXXX######**%%**XX##%%%%%%==XX",
"                                                                                                ..XXXX######**%%==XX##%%%%%%==XX",
"                                                                                                ..XXXX######**%%==XX##%%%%%%==XX",
"                                                                                                ..XXXX######**%%==XX####%%%%==XX",
"                                                                                                ..XXXX######**%%==XX####%%%%==XX",
"                                                                                                ..XXXX######**%%==XX####%%%%==XX",
"                                                                                                ..XXXX######**%%==XX####%%%%==XX",
"                                                                                                ..XX########**%%==XX####%%%%==XX",
"                                                                                                ..XX########**%%==XX####%%%%==XX",
"                                                                                                ..XX########**%%==XX######%%==XX",
"                                                                                                ..XX########**%%==XX######%%==XX",
"                                                                                                ..XX########**%%**XX##%%##%%==XX",
"                                                                                                ..XX########**%%**XX##%%##%%==XX",
"                                                                                                ..XX########**%%**XX##%%%%%%==XX",
"                                                                                                ..XX########**%%**XX##%%%%%%==XX",
"                                                                                                ..XX########**%%**XX##%%%%%%==XX",
"                                                                                                ..XX########**%%**XX##%%%%%%==XX"
};
