/* XPM */
static char *_2e95f9346b84e17b9a858933fe2694bPbUuDnGutVRX9edG[] = {
/* columns rows colors chars-per-pixel */
"128 128 5 1 ",
"  c #070707",
". c #110E0E",
"X c #1C1616",
"o c #231E1C",
"O c #2F2926",
/* pixels */
"XXXX........................................................................................................................XXXX",
"XXXX........................................................................................................................XXXX",
"XXXX........................................................................................................................XXXX",
"XXXX........................................................................................................................XXXX",
"XXXXooooooooooOOOOOOooooooooooooooooooooooooooooooooooooooooooooooOOOOOOooooooooooooooooooooooooooooooooooooooooooooooooooooXXXX",
"XXXXooooooooooOOOOOOooooooooooooooooooooooooooooooooooooooooooooooOOOOOOooooooooooooooooooooooooooooooooooooooooooooooooooooXXXX",
"XXXXooooooooooooooooooOOOOOOOOOOOOOOOOOOOOOOooooooooooooooooooooooooooooooooooooooooooooOOOOOOOOOOooooOOOOOOOOOOOOOOooooooooXXXX",
"XXXXooooooooooooooooooOOOOOOOOOOOOOOOOOOOOOOooooooooooooooooooooooooooooooooooooooooooooOOOOOOOOOOooooOOOOOOOOOOOOOOooooooooXXXX",
"XXXXoooo  ......................            ............              ..............            ............            ooooXXXX",
"XXXXoooo  ......................            ............              ..............            ............            ooooXXXX",
"XXXXooooXXXXXXooooooooooooXX..XXooooooooooXXXX....ooooooooooXXXXXXXXXXXXXXXXXXooooooooooXXXXXXXXXX  XXooooooooooXXXXXXXXooooXXXX",
"XXXXooooXXXXXXooooooooooooXX..XXooooooooooXXXX....ooooooooooXXXXXXXXXXXXXXXXXXooooooooooXXXXXXXXXX  XXooooooooooXXXXXXXXooooXXXX",
"XXXXooooXXXXXXXXXXXXXXXXXXXX..XXXXXXXXXXXXXXXX..ooooXXXXXXXXXXXXXXXXXXXXXXXXXXXXXXXXXXXXXXXXXXXXXX  XXXXXXXXXXooooXXXXXXooooXXXX",
"XXXXooooXXXXXXXXXXXXXXXXXXXX..XXXXXXXXXXXXXXXX..ooooXXXXXXXXXXXXXXXXXXXXXXXXXXXXXXXXXXXXXXXXXXXXXX  XXXXXXXXXXooooXXXXXXooooXXXX",
"XXXXooooXXXXXXXXXXXXXXXXXXXX..XXXXXXXXXXXXXXXX  XXXXXXXXXXXXXXXXXXXXXX....XXXXXXXXXXXXXXXXXXXXXXXX  XXXXXXXXXXXXXXXXXXXXooooXXXX",
"XXXXooooXXXXXXXXXXXXXXXXXXXX..XXXXXXXXXXXXXXXX  XXXXXXXXXXXXXXXXXXXXXX....XXXXXXXXXXXXXXXXXXXXXXXX  XXXXXXXXXXXXXXXXXXXXooooXXXX",
"XXXXooooXXXXXXXXXXXXXXXXXXXX..XXXXXXXXXXXXXXXX..XXXXXXXXXXXXXXXXXXXX........XXXXXXXXXXXXXXXXXXXXXX..XXXXXXXXXXXXXXXXXXXXooooXXXX",
"XXXXooooXXXXXXXXXXXXXXXXXXXX..XXXXXXXXXXXXXXXX..XXXXXXXXXXXXXXXXXXXX........XXXXXXXXXXXXXXXXXXXXXX..XXXXXXXXXXXXXXXXXXXXooooXXXX",
"XXXXooooXXXXXXXXXXXXXXXXXX....XXXX......XXXXXX..XXXXXXXXXX....................XXXX........XXXX......XXXXXXXXXXXXXXXXXXXXooooXXXX",
"XXXXooooXXXXXXXXXXXXXXXXXX....XXXX......XXXXXX..XXXXXXXXXX....................XXXX........XXXX......XXXXXXXXXXXXXXXXXXXXooooXXXX",
"XXXXoooo  ooooXXXXXXXXooooooooooooXX  oooooooooooooo  XXXXXXXXXX  XXoooooooooooooooooooooooo  oooooooo  XXooooooooooooXXooooXXXX",
"XXXXoooo  ooooXXXXXXXXooooooooooooXX  oooooooooooooo  XXXXXXXXXX  XXoooooooooooooooooooooooo  oooooooo  XXooooooooooooXXooooXXXX",
"XXXXoooo  XXXXXXXXXXXXXXXXXXXXXXXXXX  ooXXXXXXXXXXXX  XXXXXXXXXX  XXXXXXXXoooooooooooooooooo  XXXXXXXX  XXXXXXXXXXXXXXXXooooXXXX",
"XXXXoooo  XXXXXXXXXXXXXXXXXXXXXXXXXX  ooXXXXXXXXXXXX  XXXXXXXXXX  XXXXXXXXoooooooooooooooooo  XXXXXXXX  XXXXXXXXXXXXXXXXooooXXXX",
"XXXXoooo  XXXXXXXXXXXXXXXXXXXXXXXXXX  XXXXXXXXXXXXXX  XXXXXXXXXX  ..XXXXXXXXXXXXXXXXXXXXXXoo  XXXXXXXX  XXXXXXXXXXXXXXXXooooXXXX",
"XXXXoooo  XXXXXXXXXXXXXXXXXXXXXXXXXX  XXXXXXXXXXXXXX  XXXXXXXXXX  ..XXXXXXXXXXXXXXXXXXXXXXoo  XXXXXXXX  XXXXXXXXXXXXXXXXooooXXXX",
"XXXXoooo  ..XXXXXXXXXXXXXXXXXXXXXXXX  XXXXXXXXXXXXXX  XXXXXXXX..  ..XXXXXXXXXXXXXXXXXXXXXXXX  XXXXXXXX  XXXXXXXXXXXXXXXXooooXXXX",
"XXXXoooo  ..XXXXXXXXXXXXXXXXXXXXXXXX  XXXXXXXXXXXXXX  XXXXXXXX..  ..XXXXXXXXXXXXXXXXXXXXXXXX  XXXXXXXX  XXXXXXXXXXXXXXXXooooXXXX",
"XXXXoooo  ........XXXXXXXXXXXXXXXX..  XXXXXXXXXXXXXX  XXXXXXXX..  ..XXXXXXXXXXXXXXXXXXXX....  XXXXXX..  ..XXXXXXXXXXXX..ooooXXXX",
"XXXXoooo  ........XXXXXXXXXXXXXXXX..  XXXXXXXXXXXXXX  XXXXXXXX..  ..XXXXXXXXXXXXXXXXXXXX....  XXXXXX..  ..XXXXXXXXXXXX..ooooXXXX",
"XXXXoooo  ..........XXXXXXXXXX......  ......XX......  ..........  ......XXXXXXXXXX..........  ........  ................ooooXXXX",
"XXXXoooo  ..........XXXXXXXXXX......  ......XX......  ..........  ......XXXXXXXXXX..........  ........  ................ooooXXXX",
"XXXXoooo    ........................  ............    ..........      ........................  ......  ..  ............ooooXXXX",
"XXXXoooo    ........................  ............    ..........      ........................  ......  ..  ............ooooXXXX",
"XXXXoooo                                                                                    ..                          ooooXXXX",
"XXXXoooo                                                                                    ..                          ooooXXXX",
"XXXXoooo                                                                                                                ooooXXXX",
"XXXXoooo                                                                                                                ooooXXXX",
"XXXXoooo........XXXXXX  ......XXXXXXXXXXXXXX......  ......XXXXXXXXXXXX......  ....XXXX..............  XXXXXXXXXX........ooooXXXX",
"XXXXoooo........XXXXXX  ......XXXXXXXXXXXXXX......  ......XXXXXXXXXXXX......  ....XXXX..............  XXXXXXXXXX........ooooXXXX",
"XXXXoooo..............  ..........................  ........................  ......................  ..................ooooXXXX",
"XXXXoooo..............  ..........................  ........................  ......................  ..................ooooXXXX",
"XXXXoooo..............  ..........................  ........................  ......................  ..................ooooXXXX",
"XXXXoooo..............  ..........................  ........................  ......................  ..................ooooXXXX",
"XXXXoooo............          ....................  ..................              ................    ................ooooXXXX",
"XXXXoooo............          ....................  ..................              ................    ................ooooXXXX",
"XXXXoooo                                                                                                                ooooXXXX",
"XXXXoooo                                                                                                                ooooXXXX",
"XXXXoooo  ..........................    ........................  ......  ..................  ..........................ooooXXXX",
"XXXXoooo  ..........................    ........................  ......  ..................  ..........................ooooXXXX",
"XXXXoooo  ..........................  ..........................  ......  ..................  ..........................ooooXXXX",
"XXXXoooo  ..........................  ..........................  ......  ..................  ..........................ooooXXXX",
"XXXXoooo  ....                ......  ....              ......    ......  ..    ............  ..........................ooooXXXX",
"XXXXoooo  ....                ......  ....              ......    ......  ..    ............  ..........................ooooXXXX",
"XXXXoooo  ......                      ............                ....            ..    ....  ..                    ....ooooXXXX",
"XXXXoooo  ......                      ............                ....            ..    ....  ..                    ....ooooXXXX",
"XXXXOOoo                                                                                                                ooOOXXXX",
"XXXXOOoo                                                                                                                ooOOXXXX",
"XXXXOOoo                                                                                                                ooOOXXXX",
"XXXXOOoo                                                                                                                ooOOXXXX",
"XXXXOOoo                                                                                                                ooOOXXXX",
"XXXXOOoo                                                                                                                ooOOXXXX",
"XXXXOOoo                                                                                                                ooOOXXXX",
"XXXXOOoo                                                                                                                ooOOXXXX",
"XXXXOOoo                                                                                                                ooOOXXXX",
"XXXXOOoo                                                                                                                ooOOXXXX",
"XXXXOOoo                                                                                                                ooOOXXXX",
"XXXXOOoo                                                                                                                ooOOXXXX",
"XXXXOOoo                                                                                                                ooOOXXXX",
"XXXXOOoo                                                                                                                ooOOXXXX",
"XXXXoooo                                                                                                                ooooXXXX",
"XXXXoooo                                                                                                                ooooXXXX",
"XXXXoooo                                                                                                                ooooXXXX",
"XXXXoooo                                                                                                                ooooXXXX",
"XXXXoooo                                                                                                                ooooXXXX",
"XXXXoooo                                                                                                                ooooXXXX",
"XXXXoooo                                                                                                                ooooXXXX",
"XXXXoooo                                                                                                                ooooXXXX",
"XXXXoooo                                                                                                                ooooXXXX",
"XXXXoooo                                                                                                                ooooXXXX",
"XXXXoooo                                                                                                                ooooXXXX",
"XXXXoooo                                                                                                                ooooXXXX",
"XXXXoooo                                                                                                                ooooXXXX",
"XXXXoooo                                                                                                                ooooXXXX",
"XXXXoooo                                                                                                                ooooXXXX",
"XXXXoooo                                                                                                                ooooXXXX",
"XXXXoooo                                                                                                                ooooXXXX",
"XXXXoooo                                                                                                                ooooXXXX",
"XXXXoooo                                                                                                                ooooXXXX",
"XXXXoooo                                                                                                                ooooXXXX",
"XXXXoooo                                                                                                                ooooXXXX",
"XXXXoooo                                                                                                                ooooXXXX",
"XXXXoooo                                                                                                                ooooXXXX",
"XXXXoooo                                                                                                                ooooXXXX",
"XXXXoooo                                                                                                                ooooXXXX",
"XXXXoooo                                                                                                                ooooXXXX",
"XXXXoooo                                                                                                                ooooXXXX",
"XXXXoooo                                                                                                                ooooXXXX",
"XXXXooOO                                                                                                                OOooXXXX",
"XXXXooOO                                                                                                                OOooXXXX",
"XXXXooOO                                                                                                                OOooXXXX",
"XXXXooOO                                                                                                                OOooXXXX",
"XXXXooOO                                                                                                                OOooXXXX",
"XXXXooOO                                                                                                                OOooXXXX",
"XXXXooOO                                                                                                                OOooXXXX",
"XXXXooOO                                                                                                                OOooXXXX",
"XXXXooOO                                                                                                                OOooXXXX",
"XXXXooOO                                                                                                                OOooXXXX",
"XXXXooOO                                                                                                                OOooXXXX",
"XXXXooOO                                                                                                                OOooXXXX",
"XXXXooOO                                                                                                                OOooXXXX",
"XXXXooOO                                                                                                                OOooXXXX",
"XXXXoooo                                                                                                                ooooXXXX",
"XXXXoooo                                                                                                                ooooXXXX",
"XXXXoooo                                                                                                                ooooXXXX",
"XXXXoooo                                                                                                                ooooXXXX",
"XXXXoooo                                                                                                                ooooXXXX",
"XXXXoooo                                                                                                                ooooXXXX",
"XXXXoooo                                                                                                                ooooXXXX",
"XXXXoooo                                                                                                                ooooXXXX",
"XXXXOOooooooooooooooooOOOOOOOOOOOOOOOOOOOOOOooooooooooooooooooooooooooooooooooooooooooooOOOOOOOOOOooooOOOOOOOOOOOOOOooooooOOXXXX",
"XXXXOOooooooooooooooooOOOOOOOOOOOOOOOOOOOOOOooooooooooooooooooooooooooooooooooooooooooooOOOOOOOOOOooooOOOOOOOOOOOOOOooooooOOXXXX",
"XXXXooooooooooOOOOOOooooooooooooooooooooooooooooooooooooooooooooooOOOOOOooooooooooooooooooooooooooooooooooooooooooooooooooooXXXX",
"XXXXooooooooooOOOOOOooooooooooooooooooooooooooooooooooooooooooooooOOOOOOooooooooooooooooooooooooooooooooooooooooooooooooooooXXXX",
"XXXXXXXXXXXXXXXXXXXXXXXXXXXXXXXXXXXXXXXXXXXXXXXXXXXXXXXXXXXXXXXXXXXXXXXXXXXXXXXXXXXXXXXXXXXXXXXXXXXXXXXXXXXXXXXXXXXXXXXXXXXXXXXX",
"XXXXXXXXXXXXXXXXXXXXXXXXXXXXXXXXXXXXXXXXXXXXXXXXXXXXXXXXXXXXXXXXXXXXXXXXXXXXXXXXXXXXXXXXXXXXXXXXXXXXXXXXXXXXXXXXXXXXXXXXXXXXXXXX",
"XXXXXXXXXXXXXXXXXXXXXXXXXXXXXXXXXXXXXXXXXXXXXXXXXXXXXXXXXXXXXXXXXXXXXXXXXXXXXXXXXXXXXXXXXXXXXXXXXXXXXXXXXXXXXXXXXXXXXXXXXXXXXXXX",
"XXXXXXXXXXXXXXXXXXXXXXXXXXXXXXXXXXXXXXXXXXXXXXXXXXXXXXXXXXXXXXXXXXXXXXXXXXXXXXXXXXXXXXXXXXXXXXXXXXXXXXXXXXXXXXXXXXXXXXXXXXXXXXXX"
};
