/* XPM */
static char *_61705062605[] = {
/* columns rows colors chars-per-pixel */
"128 128 13 1 ",
"  c black",
". c #070707",
"X c #1B1916",
"o c #1D191B",
"O c #23201D",
"+ c #241F21",
"@ c #272325",
"# c #2E2A25",
"$ c #2A2628",
"% c #3C3129",
"& c #322E30",
"* c #454135",
"= c #555145",
/* pixels */
"XX==%%%%%%##XX==%%**########XX..                                                                                                ",
"XX==%%%%%%##XX==%%**########XX..                                                                                                ",
"XX==%%%%%%##XX==%%**########XX..                                                                                                ",
"XX==%%%%%%##XX==%%**########XX..                                                                                                ",
"XX==%%##%%##XX==%%**########XX..                                                                                                ",
"XX==%%##%%##XX==%%**########XX..                                                                                                ",
"XX==%%##%%##XX**%%**########XX..                                                                                                ",
"XX==%%##%%##XX**%%**########XX..                                                                                                ",
"XX==%%##%%##XX**%%**########XX..                                                                                                ",
"XX==%%##%%##XX**%%**########XX..                                                                                                ",
"XX==%%######XX**%%**########XX..                                                                                                ",
"XX==%%######XX**%%**########XX..                                                                                                ",
"XX==%%%%####XX**%%**########XX..                                                                                                ",
"XX==%%%%####XX**%%**########XX..                                                                                                ",
"XX==%%%%%%##XX**%%**########XX..                                                                                                ",
"XX==%%%%%%##XX**%%**########XX..                                                                                                ",
"XX==%%%%%%##XX**%%**########XX..                                                                                                ",
"XX==%%%%%%##XX**%%**########XX..                                                                                                ",
"XX==%%%%####XX**%%**########XX..                                                                                                ",
"XX==%%%%####XX**%%**########XX..                                                                                                ",
"XX==%%%%%%##XX**%%**######XXXX..                                                                                                ",
"XX==%%%%%%##XX**%%**######XXXX..                                                                                                ",
"XX==%%%%%%##XX**%%**######XXXX..                                                                                                ",
"XX==%%%%%%##XX**%%**######XXXX..                                                                                                ",
"XX==%%%%%%##XX==%%**########XX..                                                                                                ",
"XX==%%%%%%##XX==%%**########XX..                                                                                                ",
"XX==%%%%%%##XX==%%**########XX..                                                                                                ",
"XX==%%%%%%##XX==%%**########XX..                                                                                                ",
"XX==%%%%%%##XX==%%**########XX..                                                                                                ",
"XX==%%%%%%##XX==%%**########XX..                                                                                                ",
"XX==%%%%%%##XXXXXX##XXXXXXXX....                                                                                                ",
"XX==%%%%%%##XXXXXX##XXXXXXXX....                                                                                                ",
"XX==%%%%####XX==%%**######XXXX..                                                                                                ",
"XX==%%%%####XX==%%**######XXXX..                                                                                                ",
"XX==%%%%####XX==%%**######XXXX..                                                                                                ",
"XX==%%%%####XX==%%**######XXXX..                                                                                                ",
"XX==========XX==%%**######XXXX..                                                                                                ",
"XX==========XX==%%**######XXXX..                                                                                                ",
"XXOO########XX==%%**########XX..                                                                                                ",
"XXOO########XX==%%**########XX..                                                                                                ",
"XXOO########XX==%%**########XX..                                                                                                ",
"XXOO########XX==%%**########XX..                                                                                                ",
"XXOO########XX**%%**########XX..                                                                                                ",
"XXOO########XX**%%**########XX..                                                                                                ",
"XXOOOOOOOOOOXX**%%**########XX..                                                                                                ",
"XXOOOOOOOOOOXX**%%**########XX..                                                                                                ",
"XXXXXXXXXXXXXX**%%**########XX..                                                                                                ",
"XXXXXXXXXXXXXX**%%**########XX..                                                                                                ",
"$$@@@@$$$$$$XX**%%**######XXXX..                                                                                                ",
"$$@@@@$$$$$$XX**%%**######XXXX..                                                                                                ",
"$$$$@@$$$$$$XX**%%**######XXXX..                                                                                                ",
"$$$$@@$$$$$$XX**%%**######XXXX..                                                                                                ",
"$$$$@@@@$$$$XX==%%**########XX..                                                                                                ",
"$$$$@@@@$$$$XX==%%**########XX..                                                                                                ",
"$$$$$$$$$$$$XX==%%**########XX..                                                                                                ",
"$$$$$$$$$$$$XX==%%**########XX..                                                                                                ",
"&&$$$$$$$$$$XX==%%**########XX..                                                                                                ",
"&&$$$$$$$$$$XX==%%**########XX..                                                                                                ",
"&&$$$$$$$$$$XX==%%**########XX..                                                                                                ",
"&&$$$$$$$$$$XX==%%**########XX..                                                                                                ",
"$$&&&&&&&&&&XX==%%**########XX..                                                                                                ",
"$$&&&&&&&&&&XX==%%**########XX..                                                                                                ",
"ooooooooooooXX==%%**########XX..                                                                                                ",
"ooooooooooooXX==%%**########XX..                                                                                                ",
"++$$$$$$$$@@XX==%%**########XX..                                                                                                ",
"++$$$$$$$$@@XX==%%**########XX..                                                                                                ",
"$$$$$$$$$$$$XX==%%**########XX..                                                                                                ",
"$$$$$$$$$$$$XX==%%**########XX..                                                                                                ",
"$$$$$$$$$$$$XX==%%**########XX..                                                                                                ",
"$$$$$$$$$$$$XX==%%**########XX..                                                                                                ",
"$$$$$$$$$$$$XX**%%**########XX..                                                                                                ",
"$$$$$$$$$$$$XX**%%**########XX..                                                                                                ",
"$$$$$$$$$$$$XX**%%**########XX..                                                                                                ",
"$$$$$$$$$$$$XX**%%**########XX..                                                                                                ",
"$$$$$$$$$$$$XX**%%**########XX..                                                                                                ",
"$$$$$$$$$$$$XX**%%**########XX..                                                                                                ",
"$$$$$$$$$$$$XX**%%**########XX..                                                                                                ",
"$$$$$$$$$$$$XX**%%**########XX..                                                                                                ",
"$$$$$$$$$$$$XX**%%**########XX..                                                                                                ",
"$$$$$$$$$$$$XX**%%**########XX..                                                                                                ",
"XXXXXXXXXXXXXX**%%**########XX..                                                                                                ",
"XXXXXXXXXXXXXX**%%**########XX..                                                                                                ",
"XX==========XX**%%**########XX..                                                                                                ",
"XX==========XX**%%**########XX..                                                                                                ",
"XX==%%%%####XX**%%**######XXXX..                                                                                                ",
"XX==%%%%####XX**%%**######XXXX..                                                                                                ",
"XX==%%%%####XX**%%**######XXXX..                                                                                                ",
"XX==%%%%####XX**%%**######XXXX..                                                                                                ",
"XX==%%######XX==%%**########XX..                                                                                                ",
"XX==%%######XX==%%**########XX..                                                                                                ",
"XX==%%##%%##XX==%%**########XX..                                                                                                ",
"XX==%%##%%##XX==%%**########XX..                                                                                                ",
"XX==%%%%%%##XX==%%**########XX..                                                                                                ",
"XX==%%%%%%##XX==%%**########XX..                                                                                                ",
"XX==%%%%%%##XXXXXX##XXXXXXXX....                                                                                                ",
"XX==%%%%%%##XXXXXX##XXXXXXXX....                                                                                                ",
"XX==%%%%%%##XX==%%**########XX..                                                                                                ",
"XX==%%%%%%##XX==%%**########XX..                                                                                                ",
"XX==%%%%####XX==%%**########XX..                                                                                                ",
"XX==%%%%####XX==%%**########XX..                                                                                                ",
"XX==%%%%%%##XX==%%**########XX..                                                                                                ",
"XX==%%%%%%##XX==%%**########XX..                                                                                                ",
"XX==%%%%%%%%XX==%%**########XX..                                                                                                ",
"XX==%%%%%%%%XX==%%**########XX..                                                                                                ",
"XXXXXXXXXXXXXX==%%**########XX..                                                                                                ",
"XXXXXXXXXXXXXX==%%**########XX..                                                                                                ",
"XX==%%%%%%%%XX**%%**########XX..                                                                                                ",
"XX==%%%%%%%%XX**%%**########XX..                                                                                                ",
"XX==%%%%%%##XX**%%**########XX..                                                                                                ",
"XX==%%%%%%##XX**%%**########XX..                                                                                                ",
"XX==%%%%%%##XX**%%**######XXXX..                                                                                                ",
"XX==%%%%%%##XX**%%**######XXXX..                                                                                                ",
"XX==%%%%%%##XX==%%**######XXXX..                                                                                                ",
"XX==%%%%%%##XX==%%**######XXXX..                                                                                                ",
"XX==%%%%####XX==%%**######XXXX..                                                                                                ",
"XX==%%%%####XX==%%**######XXXX..                                                                                                ",
"XX==%%%%####XX==%%**######XXXX..                                                                                                ",
"XX==%%%%####XX==%%**######XXXX..                                                                                                ",
"XX==%%%%####XX==%%**########XX..                                                                                                ",
"XX==%%%%####XX==%%**########XX..                                                                                                ",
"XX==%%######XX==%%**########XX..                                                                                                ",
"XX==%%######XX==%%**########XX..                                                                                                ",
"XX==%%##%%##XX**%%**########XX..                                                                                                ",
"XX==%%##%%##XX**%%**########XX..                                                                                                ",
"XX==%%%%%%##XX**%%**########XX..                                                                                                ",
"XX==%%%%%%##XX**%%**########XX..                                                                                                ",
"XX==%%%%%%##XX**%%**########XX..                                                                                                ",
"XX==%%%%%%##XX**%%**########XX..                                                                                                "
};
