/* XPM */
static char *_61703609642[] = {
/* columns rows colors chars-per-pixel */
"128 128 13 1 ",
"  c black",
". c #070707",
"X c #1B1916",
"o c #1D191B",
"O c #23201D",
"+ c #241F21",
"@ c #272325",
"# c #2E2A25",
"$ c #2A2628",
"% c #3C3129",
"& c #322E30",
"* c #454135",
"= c #555145",
/* pixels */
"XX==%%%%%%##XX**%%**########XX..                                                                                                ",
"XX==%%%%%%##XX**%%**########XX..                                                                                                ",
"XX==%%%%%%##XX**%%**########XX..                                                                                                ",
"XX==%%%%%%##XX**%%**########XX..                                                                                                ",
"XX==%%##%%##XX**%%**########XX..                                                                                                ",
"XX==%%##%%##XX**%%**########XX..                                                                                                ",
"XX==%%######XX==%%**########XX..                                                                                                ",
"XX==%%######XX==%%**########XX..                                                                                                ",
"XX==%%%%####XX==%%**########XX..                                                                                                ",
"XX==%%%%####XX==%%**########XX..                                                                                                ",
"XX==%%%%####XX==%%**######XXXX..                                                                                                ",
"XX==%%%%####XX==%%**######XXXX..                                                                                                ",
"XX==%%%%%%##XX==%%**######XXXX..                                                                                                ",
"XX==%%%%%%##XX==%%**######XXXX..                                                                                                ",
"XX==%%%%%%##XXXXXX##XXXXXXXX....                                                                                                ",
"XX==%%%%%%##XXXXXX##XXXXXXXX....                                                                                                ",
"XX==%%%%%%##XX==%%**########XX..                                                                                                ",
"XX==%%%%%%##XX==%%**########XX..                                                                                                ",
"XX==%%%%%%%%XX==%%**########XX..                                                                                                ",
"XX==%%%%%%%%XX==%%**########XX..                                                                                                ",
"XXXXXXXXXXXXXX==%%**########XX..                                                                                                ",
"XXXXXXXXXXXXXX==%%**########XX..                                                                                                ",
"XX==%%%%%%%%XX**%%**######XXXX..                                                                                                ",
"XX==%%%%%%%%XX**%%**######XXXX..                                                                                                ",
"XX==%%%%%%##XX**%%**######XXXX..                                                                                                ",
"XX==%%%%%%##XX**%%**######XXXX..                                                                                                ",
"XX==%%%%####XX**%%**########XX..                                                                                                ",
"XX==%%%%####XX**%%**########XX..                                                                                                ",
"XX==%%%%####XX**%%**########XX..                                                                                                ",
"XX==%%%%####XX**%%**########XX..                                                                                                ",
"XX==%%%%####XX**%%**########XX..                                                                                                ",
"XX==%%%%####XX**%%**########XX..                                                                                                ",
"XX==%%%%####XX**%%**########XX..                                                                                                ",
"XX==%%%%####XX**%%**########XX..                                                                                                ",
"XX==%%%%####XX**%%**########XX..                                                                                                ",
"XX==%%%%####XX**%%**########XX..                                                                                                ",
"XX==========XX**%%**########XX..                                                                                                ",
"XX==========XX**%%**########XX..                                                                                                ",
"XXOO########XX==%%**########XX..                                                                                                ",
"XXOO########XX==%%**########XX..                                                                                                ",
"XXOO########XX==%%**########XX..                                                                                                ",
"XXOO########XX==%%**########XX..                                                                                                ",
"XXOO########XX==%%**######XXXX..                                                                                                ",
"XXOO########XX==%%**######XXXX..                                                                                                ",
"XXOOOOOOOOOOXX==%%**######XXXX..                                                                                                ",
"XXOOOOOOOOOOXX==%%**######XXXX..                                                                                                ",
"XXXXXXXXXXXXXXXXXX##XXXXXXXX....                                                                                                ",
"XXXXXXXXXXXXXXXXXX##XXXXXXXX....                                                                                                ",
"++&&$$$$@@$$XX==%%**########XX..                                                                                                ",
"++&&$$$$@@$$XX==%%**########XX..                                                                                                ",
"oo&&$$$$$$$$XX==%%**########XX..                                                                                                ",
"oo&&$$$$$$$$XX==%%**########XX..                                                                                                ",
"oo&&$$$$$$$$XX==%%**########XX..                                                                                                ",
"oo&&$$$$$$$$XX==%%**########XX..                                                                                                ",
"oo&&$$$$$$$$XX**%%**######XXXX..                                                                                                ",
"oo&&$$$$$$$$XX**%%**######XXXX..                                                                                                ",
"oo&&$$$$$$$$XX**%%**######XXXX..                                                                                                ",
"oo&&$$$$$$$$XX**%%**######XXXX..                                                                                                ",
"oo&&$$$$$$$$XX**%%**########XX..                                                                                                ",
"oo&&$$$$$$$$XX**%%**########XX..                                                                                                ",
"oo&&&&&&&&&&XX**%%**########XX..                                                                                                ",
"oo&&&&&&&&&&XX**%%**########XX..                                                                                                ",
"ooooooooooooXX**%%**########XX..                                                                                                ",
"ooooooooooooXX**%%**########XX..                                                                                                ",
"++++$$$$$$$$XX**%%**########XX..                                                                                                ",
"++++$$$$$$$$XX**%%**########XX..                                                                                                ",
"++@@$$@@$$$$XX**%%**########XX..                                                                                                ",
"++@@$$@@$$$$XX**%%**########XX..                                                                                                ",
"++$$$$@@@@$$XX**%%**########XX..                                                                                                ",
"++$$$$@@@@$$XX**%%**########XX..                                                                                                ",
"++$$$$$$@@@@XX==%%**########XX..                                                                                                ",
"++$$$$$$@@@@XX==%%**########XX..                                                                                                ",
"++$$$$@@@@$$XX==%%**########XX..                                                                                                ",
"++$$$$@@@@$$XX==%%**########XX..                                                                                                ",
"++$$$$$$$$$$XX==%%**########XX..                                                                                                ",
"++$$$$$$$$$$XX==%%**########XX..                                                                                                ",
"oo$$$$$$$$$$XX==%%**########XX..                                                                                                ",
"oo$$$$$$$$$$XX==%%**########XX..                                                                                                ",
"oo$$$$$$$$$$XX==%%**########XX..                                                                                                ",
"oo$$$$$$$$$$XX==%%**########XX..                                                                                                ",
"XXXXXXXXXXXXXX==%%**########XX..                                                                                                ",
"XXXXXXXXXXXXXX==%%**########XX..                                                                                                ",
"XX==========XX==%%**########XX..                                                                                                ",
"XX==========XX==%%**########XX..                                                                                                ",
"XX==%%%%####XX==%%**########XX..                                                                                                ",
"XX==%%%%####XX==%%**########XX..                                                                                                ",
"XX==%%%%####XX**%%**######XXXX..                                                                                                ",
"XX==%%%%####XX**%%**######XXXX..                                                                                                ",
"XX==%%######XX**%%**######XXXX..                                                                                                ",
"XX==%%######XX**%%**######XXXX..                                                                                                ",
"XX==%%##%%##XX**%%**########XX..                                                                                                ",
"XX==%%##%%##XX**%%**########XX..                                                                                                ",
"XX==%%%%%%##XX**%%**########XX..                                                                                                ",
"XX==%%%%%%##XX**%%**########XX..                                                                                                ",
"XX==%%%%%%##XX**%%**########XX..                                                                                                ",
"XX==%%%%%%##XX**%%**########XX..                                                                                                ",
"XX==%%%%%%##XX**%%**########XX..                                                                                                ",
"XX==%%%%%%##XX**%%**########XX..                                                                                                ",
"XX==%%%%%%##XX**%%**########XX..                                                                                                ",
"XX==%%%%%%##XX**%%**########XX..                                                                                                ",
"XX==%%%%%%##XX**%%**########XX..                                                                                                ",
"XX==%%%%%%##XX**%%**########XX..                                                                                                ",
"XX==%%%%%%##XX==%%**########XX..                                                                                                ",
"XX==%%%%%%##XX==%%**########XX..                                                                                                ",
"XX==%%%%####XX==%%**########XX..                                                                                                ",
"XX==%%%%####XX==%%**########XX..                                                                                                ",
"XX==%%%%%%##XX==%%**########XX..                                                                                                ",
"XX==%%%%%%##XX==%%**########XX..                                                                                                ",
"XX==%%%%%%##XX==%%**########XX..                                                                                                ",
"XX==%%%%%%##XX==%%**########XX..                                                                                                ",
"XX==%%%%####XX==%%**########XX..                                                                                                ",
"XX==%%%%####XX==%%**########XX..                                                                                                ",
"XX==%%######XX==%%**########XX..                                                                                                ",
"XX==%%######XX==%%**########XX..                                                                                                ",
"XX==%%######XX==%%**########XX..                                                                                                ",
"XX==%%######XX==%%**########XX..                                                                                                ",
"XX==%%##%%##XX==%%**########XX..                                                                                                ",
"XX==%%##%%##XX==%%**########XX..                                                                                                ",
"XX==%%%%%%##XX**%%**######XXXX..                                                                                                ",
"XX==%%%%%%##XX**%%**######XXXX..                                                                                                ",
"XX==%%%%%%##XX**%%**######XXXX..                                                                                                ",
"XX==%%%%%%##XX**%%**######XXXX..                                                                                                ",
"XX==%%%%%%##XX**%%**########XX..                                                                                                ",
"XX==%%%%%%##XX**%%**########XX..                                                                                                ",
"XX==%%%%%%##XX**%%**########XX..                                                                                                ",
"XX==%%%%%%##XX**%%**########XX..                                                                                                ",
"XX==%%%%%%##XX**%%**########XX..                                                                                                ",
"XX==%%%%%%##XX**%%**########XX..                                                                                                "
};
