/* XPM */
static char *_91703609641[] = {
/* columns rows colors chars-per-pixel */
"128 128 13 1 ",
"  c black",
". c #070707",
"X c #121110",
"o c #1B1916",
"O c #1D191B",
"+ c #241F21",
"@ c #272325",
"# c #2E2A25",
"$ c #2A2628",
"% c #3C3129",
"& c #322E30",
"* c #454135",
"= c #555145",
/* pixels */
"oooooooooooooooooooooooooooooooooooooooooooooooooooooooooooooooooooooooooooooooooooooooooooooooooooooooooooooooooooo@@$$$$$$$$++",
"oooooooooooooooooooooooooooooooooooooooooooooooooooooooooooooooooooooooooooooooooooooooooooooooooooooooooooooooooooo@@$$$$$$$$++",
"**********%%%%%%%%%%**************oo****************************%%%%%%%%%%************************************====oo$$$$$$$$$$$$",
"**********%%%%%%%%%%**************oo****************************%%%%%%%%%%************************************====oo$$$$$$$$$$$$",
"##########################oooo##%%oo%%########################%%############################################**%%==oo$$$$$$$$$$$$",
"##########################oooo##%%oo%%########################%%############################################**%%==oo$$$$$$$$$$$$",
"##oooo########################oo%%..%%########oooo##########oo##################oooo##############oooo######**%%==oo$$$$$$$$$$$$",
"##oooo########################oo%%..%%########oooo##########oo##################oooo##############oooo######**%%==oo$$$$$$$$$$$$",
"####oooo##########################..####################oooo################oooo######oooo##################**%%==oo$$$$$$$$$$$$",
"####oooo##########################..####################oooo################oooo######oooo##################**%%==oo$$$$$$$$$$$$",
"##############oooo####oo##########..oooooo########################oooo##########################oooooo######**%%==oo$$$$$$$$$$$$",
"##############oooo####oo##########..oooooo########################oooo##########################oooooo######**%%==oo$$$$$$$$$$$$",
"oooooooooooooooooooooooooooooooooo..oooooooooooooooooooooooooooooooooooooooooooooooooooooooooooooooooo######**%%==oo$$$$$$$$$$$$",
"oooooooooooooooooooooooooooooooooo..oooooooooooooooooooooooooooooooooooooooooooooooooooooooooooooooooo######**%%==oo$$$$$$$$$$$$",
"XXXXXXXXXXXXXXXXXXXXXXXXXXXXXXXXXX..XXXXXXXXXXXXXXXXXXXXXXXXXXXXXXXXXXXXXXXXXXXXXXXXXXXXXXXXXXXXXXoo########**%%==oo$$$$$$$$$$$$",
"XXXXXXXXXXXXXXXXXXXXXXXXXXXXXXXXXX..XXXXXXXXXXXXXXXXXXXXXXXXXXXXXXXXXXXXXXXXXXXXXXXXXXXXXXXXXXXXXXoo########**%%==oo$$$$$$$$$$$$",
"XXXXXXXXXXXXXXXXXXXXXXXXXXXXXXXXXX..XXXXXXXXXXXXXXXXXXXXXXXXXXXXXXXXXXXXXXXXXXXXXXXXXXXXXXXXXXXXXXoo########**%%**oo$$$$$$$$$$&&",
"XXXXXXXXXXXXXXXXXXXXXXXXXXXXXXXXXX..XXXXXXXXXXXXXXXXXXXXXXXXXXXXXXXXXXXXXXXXXXXXXXXXXXXXXXXXXXXXXXoo########**%%**oo$$$$$$$$$$&&",
"..................................................................................................oooo######**%%**oo@@$$$$$$$$&&",
"..................................................................................................oooo######**%%**oo@@$$$$$$$$&&",
"                                                                                                ..oooo######**%%**oo@@@@$$$$$$&&",
"                                                                                                ..oooo######**%%**oo@@@@$$$$$$&&",
"                                                                                                ..oooo######**%%**oo@@$$$$$$$$&&",
"                                                                                                ..oooo######**%%**oo@@$$$$$$$$&&",
"                                                                                                ..oooo######**%%**oo$$$$$$$$$$&&",
"                                                                                                ..oooo######**%%**oo$$$$$$$$$$&&",
"                                                                                                ..oo########**%%**oo$$$$$$$$$$&&",
"                                                                                                ..oo########**%%**oo$$$$$$$$$$&&",
"                                                                                                ..oo########**%%**oo&&&&&&&&&&&&",
"                                                                                                ..oo########**%%**oo&&&&&&&&&&&&",
"                                                                                                ..oo########**%%**ooOOOOOOOOOOOO",
"                                                                                                ..oo########**%%**ooOOOOOOOOOOOO",
"                                                                                                ..oo########**%%**oo$$$$$$$$$$$$",
"                                                                                                ..oo########**%%**oo$$$$$$$$$$$$",
"                                                                                                ..oo########**%%**oo$$$$$$@@@@$$",
"                                                                                                ..oo########**%%**oo$$$$$$@@@@$$",
"                                                                                                ..oo########**%%**oo$$$$@@@@@@@@",
"                                                                                                ..oo########**%%**oo$$$$@@@@@@@@",
"                                                                                                ..oo########**%%**oo$$$$$$$$@@@@",
"                                                                                                ..oo########**%%**oo$$$$$$$$@@@@",
"                                                                                                ..oo########**%%==oo$$$$$$$$$$$$",
"                                                                                                ..oo########**%%==oo$$$$$$$$$$$$",
"                                                                                                ..oo########**%%==oo$$$$$$$$$$$$",
"                                                                                                ..oo########**%%==oo$$$$$$$$$$$$",
"                                                                                                ..oooooooooo##oooooo$$$$$$$$$$$$",
"                                                                                                ..oooooooooo##oooooo$$$$$$$$$$$$",
"                                                                                                ..oo########**%%==oo$$$$$$$$$$$$",
"                                                                                                ..oo########**%%==oo$$$$$$$$$$$$",
"                                                                                                ..oo########**%%==oo$$$$$$@@@@$$",
"                                                                                                ..oo########**%%==oo$$$$$$@@@@$$",
"                                                                                                ..oo########**%%==oo$$$$$$@@$$$$",
"                                                                                                ..oo########**%%==oo$$$$$$@@$$$$",
"                                                                                                ..oo########**%%==oo$$$$@@@@$$$$",
"                                                                                                ..oo########**%%==oo$$$$@@@@$$$$",
"                                                                                                ..oo########**%%==oo$$$$$$$$$$$$",
"                                                                                                ..oo########**%%==oo$$$$$$$$$$$$",
"                                                                                                ..oo########**%%==oo$$$$$$$$$$&&",
"                                                                                                ..oo########**%%==oo$$$$$$$$$$&&",
"                                                                                                ..oo########**%%**oo$$$$$$$$$$&&",
"                                                                                                ..oo########**%%**oo$$$$$$$$$$&&",
"                                                                                                ..oo########**%%**oooooooooooooo",
"                                                                                                ..oo########**%%**oooooooooooooo",
"                                                                                                ..oo########**%%**oo==========oo",
"                                                                                                ..oo########**%%**oo==========oo",
"                                                                                                ..oooo######**%%**oo##%%%%%%==oo",
"                                                                                                ..oooo######**%%**oo##%%%%%%==oo",
"                                                                                                ..oooo######**%%**oo##%%%%%%==oo",
"                                                                                                ..oooo######**%%**oo##%%%%%%==oo",
"                                                                                                ..oo########**%%==oo##%%##%%==oo",
"                                                                                                ..oo########**%%==oo##%%##%%==oo",
"                                                                                                ..oo########**%%==oo##%%##%%==oo",
"                                                                                                ..oo########**%%==oo##%%##%%==oo",
"                                                                                                ..oo########**%%==oo##%%##%%==oo",
"                                                                                                ..oo########**%%==oo##%%##%%==oo",
"                                                                                                ..oo########**%%==oo######%%==oo",
"                                                                                                ..oo########**%%==oo######%%==oo",
"                                                                                                ..oo########**%%==oo####%%%%==oo",
"                                                                                                ..oo########**%%==oo####%%%%==oo",
"                                                                                                ..oo########**%%==oo##%%%%%%==oo",
"                                                                                                ..oo########**%%==oo##%%%%%%==oo",
"                                                                                                ..oo########**%%==oo##%%%%%%==oo",
"                                                                                                ..oo########**%%==oo##%%%%%%==oo",
"                                                                                                ..oo########**%%==oo####%%%%==oo",
"                                                                                                ..oo########**%%==oo####%%%%==oo",
"                                                                                                ..oo########**%%==oo##%%%%%%==oo",
"                                                                                                ..oo########**%%==oo##%%%%%%==oo",
"                                                                                                ..oo########**%%**oo##%%%%%%==oo",
"                                                                                                ..oo########**%%**oo##%%%%%%==oo",
"                                                                                                ..oo########**%%**oo##%%%%%%==oo",
"                                                                                                ..oo########**%%**oo##%%%%%%==oo",
"                                                                                                ..oo########**%%**oo##%%%%%%==oo",
"                                                                                                ..oo########**%%**oo##%%%%%%==oo",
"                                                                                                ..oo########**%%**oo##%%%%%%==oo",
"                                                                                                ..oo########**%%**oo##%%%%%%==oo",
"                                                                                                ..oo########**%%**oo##%%%%%%==oo",
"                                                                                                ..oo########**%%**oo##%%%%%%==oo",
"                                                                                                ..oo########**%%**oo##%%%%%%==oo",
"                                                                                                ..oo########**%%**oo##%%%%%%==oo",
"                                                                                                ..oo########**%%**oo####%%%%==oo",
"                                                                                                ..oo########**%%**oo####%%%%==oo",
"                                                                                                ..oooo######**%%**oo##%%%%%%==oo",
"                                                                                                ..oooo######**%%**oo##%%%%%%==oo",
"                                                                                                ..oooo######**%%**oo%%%%%%%%==oo",
"                                                                                                ..oooo######**%%**oo%%%%%%%%==oo",
"                                                                                                ..oo########**%%==oooooooooooooo",
"                                                                                                ..oo########**%%==oooooooooooooo",
"                                                                                                ..oo########**%%==oo%%%%%%%%==oo",
"                                                                                                ..oo########**%%==oo%%%%%%%%==oo",
"                                                                                                ..oo########**%%==oo##%%%%%%==oo",
"                                                                                                ..oo########**%%==oo##%%%%%%==oo",
"                                                                                                ....oooooooo##oooooo##%%%%%%==oo",
"                                                                                                ....oooooooo##oooooo##%%%%%%==oo",
"                                                                                                ..oooo######**%%==oo##%%%%%%==oo",
"                                                                                                ..oooo######**%%==oo##%%%%%%==oo",
"                                                                                                ..oooo######**%%==oo####%%%%==oo",
"                                                                                                ..oooo######**%%==oo####%%%%==oo",
"                                                                                                ..oooo######**%%==oo####%%%%==oo",
"                                                                                                ..oooo######**%%==oo####%%%%==oo",
"                                                                                                ..oo########**%%==oo####%%%%==oo",
"                                                                                                ..oo########**%%==oo####%%%%==oo",
"                                                                                                ..oo########**%%==oo######%%==oo",
"                                                                                                ..oo########**%%==oo######%%==oo",
"                                                                                                ..oo########**%%**oo##%%##%%==oo",
"                                                                                                ..oo########**%%**oo##%%##%%==oo",
"                                                                                                ..oo########**%%**oo##%%%%%%==oo",
"                                                                                                ..oo########**%%**oo##%%%%%%==oo",
"                                                                                                ..oo########**%%**oo##%%%%%%==oo",
"                                                                                                ..oo########**%%**oo##%%%%%%==oo"
};
