/* XPM */
static char *_71703609642[] = {
/* columns rows colors chars-per-pixel */
"128 128 13 1 ",
"  c black",
". c #070707",
"X c #121110",
"o c #1B1916",
"O c #1D191B",
"+ c #241F21",
"@ c #272325",
"# c #2E2A25",
"$ c #2A2628",
"% c #3C3129",
"& c #322E30",
"* c #454135",
"= c #555145",
/* pixels */
"++++$$$$$$$$oooooooooooooooooooooooooooooooooooooooooooooooooooooooooooooooooooooooooooooooooooooooooooooooooooooooooooooooooooo",
"++++$$$$$$$$oooooooooooooooooooooooooooooooooooooooooooooooooooooooooooooooooooooooooooooooooooooooooooooooooooooooooooooooooooo",
"++@@$$@@$$$$oo====************************************%%%%%%%%%%**********%%%%%%%%%%**************oo****************************",
"++@@$$@@$$$$oo====************************************%%%%%%%%%%**********%%%%%%%%%%**************oo****************************",
"++$$$$@@@@$$oo==%%**######################################################################oooo##%%oo%%########################%%",
"++$$$$@@@@$$oo==%%**######################################################################oooo##%%oo%%########################%%",
"++$$$$$$@@@@oo==%%**######oooo################oooo################oooo########################oo%%..%%########oooo##########oo##",
"++$$$$$$@@@@oo==%%**######oooo################oooo################oooo########################oo%%..%%########oooo##########oo##",
"++$$$$@@@@$$oo==%%**##################oooo######oooo################oooo##########################..####################oooo####",
"++$$$$@@@@$$oo==%%**##################oooo######oooo################oooo##########################..####################oooo####",
"++$$$$$$$$$$oo==%%**######oooooo##########################oooo################oooo####oo##########..oooooo######################",
"++$$$$$$$$$$oo==%%**######oooooo##########################oooo################oooo####oo##########..oooooo######################",
"OO$$$$$$$$$$oo==%%**######oooooooooooooooooooooooooooooooooooooooooooooooooooooooooooooooooooooooo..oooooooooooooooooooooooooooo",
"OO$$$$$$$$$$oo==%%**######oooooooooooooooooooooooooooooooooooooooooooooooooooooooooooooooooooooooo..oooooooooooooooooooooooooooo",
"OO$$$$$$$$$$oo==%%**########ooXXXXXXXXXXXXXXXXXXXXXXXXXXXXXXXXXXXXXXXXXXXXXXXXXXXXXXXXXXXXXXXXXXXX..XXXXXXXXXXXXXXXXXXXXXXXXXXXX",
"OO$$$$$$$$$$oo==%%**########ooXXXXXXXXXXXXXXXXXXXXXXXXXXXXXXXXXXXXXXXXXXXXXXXXXXXXXXXXXXXXXXXXXXXX..XXXXXXXXXXXXXXXXXXXXXXXXXXXX",
"OO$$$$$$$$$$oo**%%**########ooXXXXXXXXXXXXXXXXXXXXXXXXXXXXXXXXXXXXXXXXXXXXXXXXXXXXXXXXXXXXXXXXXXXX..XXXXXXXXXXXXXXXXXXXXXXXXXXXX",
"OO$$$$$$$$$$oo**%%**########ooXXXXXXXXXXXXXXXXXXXXXXXXXXXXXXXXXXXXXXXXXXXXXXXXXXXXXXXXXXXXXXXXXXXX..XXXXXXXXXXXXXXXXXXXXXXXXXXXX",
"OO&&$$$$$$$$oo**%%**######oooo..................................................................................................",
"OO&&$$$$$$$$oo**%%**######oooo..................................................................................................",
"OO&&$$$$$$@@oo**%%**######oooo..                                                                                                ",
"OO&&$$$$$$@@oo**%%**######oooo..                                                                                                ",
"OO&&$$$$$$$$oo**%%**######oooo..                                                                                                ",
"OO&&$$$$$$$$oo**%%**######oooo..                                                                                                ",
"OO&&$$$$$$$$oo**%%**######oooo..                                                                                                ",
"OO&&$$$$$$$$oo**%%**######oooo..                                                                                                ",
"OO&&&&$$$$$$oo**%%**########oo..                                                                                                ",
"OO&&&&$$$$$$oo**%%**########oo..                                                                                                ",
"OO++++&&&&&&oo**%%**########oo..                                                                                                ",
"OO++++&&&&&&oo**%%**########oo..                                                                                                ",
"OOOOOOOOOOOOoo**%%**########oo..                                                                                                ",
"OOOOOOOOOOOOoo**%%**########oo..                                                                                                ",
"OO@@@@@@@@@@oo**%%**########oo..                                                                                                ",
"OO@@@@@@@@@@oo**%%**########oo..                                                                                                ",
"OO@@@@$$$$$$oo**%%**########oo..                                                                                                ",
"OO@@@@$$$$$$oo**%%**########oo..                                                                                                ",
"OO@@@@$$$$$$oo**%%**########oo..                                                                                                ",
"OO@@@@$$$$$$oo**%%**########oo..                                                                                                ",
"OO@@$$$$$$$$oo**%%**########oo..                                                                                                ",
"OO@@$$$$$$$$oo**%%**########oo..                                                                                                ",
"++$$$$$$$$$$oo==%%**########oo..                                                                                                ",
"++$$$$$$$$$$oo==%%**########oo..                                                                                                ",
"++$$$$$$$$$$oo==%%**########oo..                                                                                                ",
"++$$$$$$$$$$oo==%%**########oo..                                                                                                ",
"++$$$$$$$$$$oooooo##oooooooooo..                                                                                                ",
"++$$$$$$$$$$oooooo##oooooooooo..                                                                                                ",
"++$$$$@@$$$$oo==%%**########oo..                                                                                                ",
"++$$$$@@$$$$oo==%%**########oo..                                                                                                ",
"++&&$$$$@@$$oo==%%**########oo..                                                                                                ",
"++&&$$$$@@$$oo==%%**########oo..                                                                                                ",
"OO&&$$$$$$$$oo==%%**########oo..                                                                                                ",
"OO&&$$$$$$$$oo==%%**########oo..                                                                                                ",
"OO&&$$$$$$$$oo==%%**########oo..                                                                                                ",
"OO&&$$$$$$$$oo==%%**########oo..                                                                                                ",
"OO&&$$$$$$$$oo==%%**########oo..                                                                                                ",
"OO&&$$$$$$$$oo==%%**########oo..                                                                                                ",
"OO&&$$$$$$$$oo==%%**########oo..                                                                                                ",
"OO&&$$$$$$$$oo==%%**########oo..                                                                                                ",
"OO&&$$$$$$$$oo**%%**########oo..                                                                                                ",
"OO&&$$$$$$$$oo**%%**########oo..                                                                                                ",
"oooooooooooooo**%%**########oo..                                                                                                ",
"oooooooooooooo**%%**########oo..                                                                                                ",
"oo==========oo**%%**########oo..                                                                                                ",
"oo==========oo**%%**########oo..                                                                                                ",
"oo==%%%%%%##oo**%%**########oo..                                                                                                ",
"oo==%%%%%%##oo**%%**########oo..                                                                                                ",
"oo==%%%%%%##oo**%%**########oo..                                                                                                ",
"oo==%%%%%%##oo**%%**########oo..                                                                                                ",
"oo==%%##%%##oo**%%**########oo..                                                                                                ",
"oo==%%##%%##oo**%%**########oo..                                                                                                ",
"oo==%%######oo==%%**########oo..                                                                                                ",
"oo==%%######oo==%%**########oo..                                                                                                ",
"oo==%%%%####oo==%%**########oo..                                                                                                ",
"oo==%%%%####oo==%%**########oo..                                                                                                ",
"oo==%%%%####oo==%%**######oooo..                                                                                                ",
"oo==%%%%####oo==%%**######oooo..                                                                                                ",
"oo==%%%%%%##oo==%%**######oooo..                                                                                                ",
"oo==%%%%%%##oo==%%**######oooo..                                                                                                ",
"oo==%%%%%%##oooooo##oooooooo....                                                                                                ",
"oo==%%%%%%##oooooo##oooooooo....                                                                                                ",
"oo==%%%%%%##oo==%%**########oo..                                                                                                ",
"oo==%%%%%%##oo==%%**########oo..                                                                                                ",
"oo==%%%%%%%%oo==%%**########oo..                                                                                                ",
"oo==%%%%%%%%oo==%%**########oo..                                                                                                ",
"oooooooooooooo==%%**########oo..                                                                                                ",
"oooooooooooooo==%%**########oo..                                                                                                ",
"oo==%%%%%%%%oo**%%**######oooo..                                                                                                ",
"oo==%%%%%%%%oo**%%**######oooo..                                                                                                ",
"oo==%%%%%%##oo**%%**######oooo..                                                                                                ",
"oo==%%%%%%##oo**%%**######oooo..                                                                                                ",
"oo==%%%%####oo**%%**########oo..                                                                                                ",
"oo==%%%%####oo**%%**########oo..                                                                                                ",
"oo==%%%%####oo**%%**########oo..                                                                                                ",
"oo==%%%%####oo**%%**########oo..                                                                                                ",
"oo==%%%%####oo**%%**########oo..                                                                                                ",
"oo==%%%%####oo**%%**########oo..                                                                                                ",
"oo==%%%%%%##oo**%%**########oo..                                                                                                ",
"oo==%%%%%%##oo**%%**########oo..                                                                                                ",
"oo==%%%%%%##oo**%%**########oo..                                                                                                ",
"oo==%%%%%%##oo**%%**########oo..                                                                                                ",
"oo==%%%%%%##oo**%%**########oo..                                                                                                ",
"oo==%%%%%%##oo**%%**########oo..                                                                                                ",
"oo==%%%%%%##oo==%%**########oo..                                                                                                ",
"oo==%%%%%%##oo==%%**########oo..                                                                                                ",
"oo==%%%%####oo==%%**########oo..                                                                                                ",
"oo==%%%%####oo==%%**########oo..                                                                                                ",
"oo==%%%%%%##oo==%%**########oo..                                                                                                ",
"oo==%%%%%%##oo==%%**########oo..                                                                                                ",
"oo==%%%%%%##oo==%%**########oo..                                                                                                ",
"oo==%%%%%%##oo==%%**########oo..                                                                                                ",
"oo==%%%%####oo==%%**########oo..                                                                                                ",
"oo==%%%%####oo==%%**########oo..                                                                                                ",
"oo==%%######oo==%%**########oo..                                                                                                ",
"oo==%%######oo==%%**########oo..                                                                                                ",
"oo==%%######oo==%%**########oo..                                                                                                ",
"oo==%%######oo==%%**########oo..                                                                                                ",
"oo==%%##%%##oo==%%**########oo..                                                                                                ",
"oo==%%##%%##oo==%%**########oo..                                                                                                ",
"oo==%%%%%%##oo**%%**######oooo..                                                                                                ",
"oo==%%%%%%##oo**%%**######oooo..                                                                                                ",
"oo==%%%%%%##oo**%%**######oooo..                                                                                                ",
"oo==%%%%%%##oo**%%**######oooo..                                                                                                ",
"oo==%%%%%%##oo**%%**########oo..                                                                                                ",
"oo==%%%%%%##oo**%%**########oo..                                                                                                ",
"oo==%%%%%%##oo**%%**########oo..                                                                                                ",
"oo==%%%%%%##oo**%%**########oo..                                                                                                ",
"oo==%%%%%%##oo**%%**########oo..                                                                                                ",
"oo==%%%%%%##oo**%%**########oo..                                                                                                "
};
