/* XPM */
static char *_1703609643[] = {
/* columns rows colors chars-per-pixel */
"128 128 12 1 ",
"  c black",
". c #070707",
"X c #140E0E",
"o c #1B1916",
"O c #231F19",
"+ c #23201D",
"@ c #2E2A25",
"# c #312220",
"$ c #3C3129",
"% c #3F3628",
"& c #454135",
"* c #555145",
/* pixels */
"................................                                                                                                ",
"................................                                                                                                ",
"oooooooooooooooooo@@@@@@@@oooo..                                                                                                ",
"oooooooooooooooooo@@@@@@@@oooo..                                                                                                ",
"oooooooooooo@@@@@@@@@@@@@@oooo..                                                                                                ",
"oooooooooooo@@@@@@@@@@@@@@oooo..                                                                                                ",
"@@@@@@@@@@@@@@@@@@@@@@@@@@@@oo..                                                                                                ",
"@@@@@@@@@@@@@@@@@@@@@@@@@@@@oo..                                                                                                ",
"@@@@@@@@@@@@@@@@@@@@@@@@@@@@oo..                                                                                                ",
"@@@@@@@@@@@@@@@@@@@@@@@@@@@@oo..                                                                                                ",
"@@@@@@@@@@@@@@@@@@@@@@@@@@@@oo..                                                                                                ",
"@@@@@@@@@@@@@@@@@@@@@@@@@@@@oo..                                                                                                ",
"&&&&&&&&&&&&&&&&&&&&@@@@@@@@oo..                                                                                                ",
"&&&&&&&&&&&&&&&&&&&&@@@@@@@@oo..                                                                                                ",
"@@@@@@@@@@@@@@@@@@&&@@@@@@@@oo..                                                                                                ",
"@@@@@@@@@@@@@@@@@@&&@@@@@@@@oo..                                                                                                ",
"$$$$$$$$$$$$$$++++&&@@@@@@@@oo..                                                                                                ",
"$$$$$$$$$$$$$$++++&&@@@@@@@@oo..                                                                                                ",
"************&&&&++&&@@@@@@@@oo..                                                                                                ",
"************&&&&++&&@@@@@@@@oo..                                                                                                ",
"@@@@@@@@@@@@@@&&++&&@@@@@@@@oo..                                                                                                ",
"@@@@@@@@@@@@@@&&++&&@@@@@@@@oo..                                                                                                ",
"@@@@@@@@@@@@@@&&++&&@@@@@@@@oo..                                                                                                ",
"@@@@@@@@@@@@@@&&++&&@@@@@@@@oo..                                                                                                ",
"@@@@++++@@@@@@**++&&@@@@@@@@oo..                                                                                                ",
"@@@@++++@@@@@@**++&&@@@@@@@@oo..                                                                                                ",
"++++++++++++++**$$&&@@@@@@@@oo..                                                                                                ",
"++++++++++++++**$$&&@@@@@@@@oo..                                                                                                ",
"oooooooooooooo&&$$&&@@@@@@@@oo..                                                                                                ",
"oooooooooooooo&&$$&&@@@@@@@@oo..                                                                                                ",
"XXXXXXXXXXXXoo&&$$&&@@@@@@@@oo..                                                                                                ",
"XXXXXXXXXXXXoo&&$$&&@@@@@@@@oo..                                                                                                ",
"%%%%OOOOXXXXoo&&$$&&@@@@@@@@oo..                                                                                                ",
"%%%%OOOOXXXXoo&&$$&&@@@@@@@@oo..                                                                                                ",
"####OOOOXXXXoo&&$$&&@@@@@@@@oo..                                                                                                ",
"####OOOOXXXXoo&&$$&&@@@@@@@@oo..                                                                                                ",
"####OOOOXXXXoo&&$$&&@@@@@@oooo..                                                                                                ",
"####OOOOXXXXoo&&$$&&@@@@@@oooo..                                                                                                ",
"OOXXXXXXXXXXoo&&$$&&@@@@@@oooo..                                                                                                ",
"OOXXXXXXXXXXoo&&$$&&@@@@@@oooo..                                                                                                ",
"####OOOOXXXXoo**$$&&@@@@@@@@oo..                                                                                                ",
"####OOOOXXXXoo**$$&&@@@@@@@@oo..                                                                                                ",
"####OOOOOOXXoo**$$&&@@@@@@@@oo..                                                                                                ",
"####OOOOOOXXoo**$$&&@@@@@@@@oo..                                                                                                ",
"####XXOOOOXXoo**$$&&@@@@@@@@oo..                                                                                                ",
"####XXOOOOXXoo**$$&&@@@@@@@@oo..                                                                                                ",
"XXXXXXXXXXXXoooooo@@oooooooo....                                                                                                ",
"XXXXXXXXXXXXoooooo@@oooooooo....                                                                                                ",
"%%%%##OOXXXXoo**$$&&@@@@@@oooo..                                                                                                ",
"%%%%##OOXXXXoo**$$&&@@@@@@oooo..                                                                                                ",
"####OOOOXXXXoo**$$&&@@@@@@oooo..                                                                                                ",
"####OOOOXXXXoo**$$&&@@@@@@oooo..                                                                                                ",
"######OOXXXXoo**$$&&@@@@@@oooo..                                                                                                ",
"######OOXXXXoo**$$&&@@@@@@oooo..                                                                                                ",
"XXXXXXXXXXXXoo**$$&&@@@@@@@@oo..                                                                                                ",
"XXXXXXXXXXXXoo**$$&&@@@@@@@@oo..                                                                                                ",
"%%XXOOOOOOXXoo**$$&&@@@@@@@@oo..                                                                                                ",
"%%XXOOOOOOXXoo**$$&&@@@@@@@@oo..                                                                                                ",
"##XXOOOOOOXXoo&&$$&&@@@@@@@@oo..                                                                                                ",
"##XXOOOOOOXXoo&&$$&&@@@@@@@@oo..                                                                                                ",
"##XXOOOOOOXXoo&&$$&&@@@@@@@@oo..                                                                                                ",
"##XXOOOOOOXXoo&&$$&&@@@@@@@@oo..                                                                                                ",
"OOXXXXXXXXXXoo&&$$&&@@@@@@@@oo..                                                                                                ",
"OOXXXXXXXXXXoo&&$$&&@@@@@@@@oo..                                                                                                ",
"%%%%%%OOXXXXoo&&$$&&@@@@@@oooo..                                                                                                ",
"%%%%%%OOXXXXoo&&$$&&@@@@@@oooo..                                                                                                ",
"######OOXXXXoo&&$$&&@@@@@@oooo..                                                                                                ",
"######OOXXXXoo&&$$&&@@@@@@oooo..                                                                                                ",
"######OOXXXXoo**$$&&@@@@@@@@oo..                                                                                                ",
"######OOXXXXoo**$$&&@@@@@@@@oo..                                                                                                ",
"OOOOXXXXXXXXoo**$$&&@@@@@@@@oo..                                                                                                ",
"OOOOXXXXXXXXoo**$$&&@@@@@@@@oo..                                                                                                ",
"####OOOOXXXXoo**$$&&@@@@@@@@oo..                                                                                                ",
"####OOOOXXXXoo**$$&&@@@@@@@@oo..                                                                                                ",
"####OO##OOXXoo**$$&&@@@@@@@@oo..                                                                                                ",
"####OO##OOXXoo**$$&&@@@@@@@@oo..                                                                                                ",
"####XX##OOXXoo**$$&&@@@@@@@@oo..                                                                                                ",
"####XX##OOXXoo**$$&&@@@@@@@@oo..                                                                                                ",
"XXXXXXXXXXXXoo**$$&&@@@@@@@@oo..                                                                                                ",
"XXXXXXXXXXXXoo**$$&&@@@@@@@@oo..                                                                                                ",
"%%%%##OOOOXXoo**$$&&@@@@@@@@oo..                                                                                                ",
"%%%%##OOOOXXoo**$$&&@@@@@@@@oo..                                                                                                ",
"####OOOOOOXXoo**$$&&@@@@@@@@oo..                                                                                                ",
"####OOOOOOXXoo**$$&&@@@@@@@@oo..                                                                                                ",
"######OOOOXXoo**$$&&@@@@@@@@oo..                                                                                                ",
"######OOOOXXoo**$$&&@@@@@@@@oo..                                                                                                ",
"XXXXXXXXXXXXoo&&$$&&@@@@@@@@oo..                                                                                                ",
"XXXXXXXXXXXXoo&&$$&&@@@@@@@@oo..                                                                                                ",
"%%XXOOOOXXXXoo&&$$&&@@@@@@@@oo..                                                                                                ",
"%%XXOOOOXXXXoo&&$$&&@@@@@@@@oo..                                                                                                ",
"##XXOOOOXXXXoo&&$$&&@@@@@@@@oo..                                                                                                ",
"##XXOOOOXXXXoo&&$$&&@@@@@@@@oo..                                                                                                ",
"##XX##OOXXXXoo&&$$&&@@@@@@@@oo..                                                                                                ",
"##XX##OOXXXXoo&&$$&&@@@@@@@@oo..                                                                                                ",
"OOXXXXXXXXXXoo&&$$&&@@@@@@@@oo..                                                                                                ",
"OOXXXXXXXXXXoo&&$$&&@@@@@@@@oo..                                                                                                ",
"%%%%%%OOOOXXoo&&$$&&@@@@@@@@oo..                                                                                                ",
"%%%%%%OOOOXXoo&&$$&&@@@@@@@@oo..                                                                                                ",
"######OOOOXXoo&&$$&&@@@@@@@@oo..                                                                                                ",
"######OOOOXXoo&&$$&&@@@@@@@@oo..                                                                                                ",
"######OOOOXXoo&&$$&&@@@@@@oooo..                                                                                                ",
"######OOOOXXoo&&$$&&@@@@@@oooo..                                                                                                ",
"OOXXXXXXXXXXoo&&$$&&@@@@@@oooo..                                                                                                ",
"OOXXXXXXXXXXoo&&$$&&@@@@@@oooo..                                                                                                ",
"####OOOOOOXXoo**$$&&@@@@@@@@oo..                                                                                                ",
"####OOOOOOXXoo**$$&&@@@@@@@@oo..                                                                                                ",
"####OOOOOOXXoo**$$&&@@@@@@@@oo..                                                                                                ",
"####OOOOOOXXoo**$$&&@@@@@@@@oo..                                                                                                ",
"####XXOOOOXXoo**$$&&@@@@@@@@oo..                                                                                                ",
"####XXOOOOXXoo**$$&&@@@@@@@@oo..                                                                                                ",
"++++XXXXXXXXoooooo@@oooooooo....                                                                                                ",
"++++XXXXXXXXoooooo@@oooooooo....                                                                                                ",
"@@$$$$$$$$@@oo**$$&&@@@@@@oooo..                                                                                                ",
"@@$$$$$$$$@@oo**$$&&@@@@@@oooo..                                                                                                ",
"$$$$$$$$$$@@oo**$$&&@@@@@@oooo..                                                                                                ",
"$$$$$$$$$$@@oo**$$&&@@@@@@oooo..                                                                                                ",
"**&&$$$$$$@@oo**$$&&@@@@@@oooo..                                                                                                ",
"**&&$$$$$$@@oo**$$&&@@@@@@oooo..                                                                                                ",
"oo**$$$$@@@@oo**$$&&@@@@@@@@oo..                                                                                                ",
"oo**$$$$@@@@oo**$$&&@@@@@@@@oo..                                                                                                ",
"oo**$$$$@@@@oo**$$&&@@@@@@@@oo..                                                                                                ",
"oo**$$$$@@@@oo**$$&&@@@@@@@@oo..                                                                                                ",
"oo**$$$$@@@@oo&&$$&&@@@@@@@@oo..                                                                                                ",
"oo**$$$$@@@@oo&&$$&&@@@@@@@@oo..                                                                                                ",
"oo**$$$$@@@@oo&&$$&&@@@@@@@@oo..                                                                                                ",
"oo**$$$$@@@@oo&&$$&&@@@@@@@@oo..                                                                                                ",
"oo**$$$$@@@@oo&&$$&&@@@@@@@@oo..                                                                                                ",
"oo**$$$$@@@@oo&&$$&&@@@@@@@@oo..                                                                                                "
};
