/* XPM */
static char *e1703609640[] = {
/* columns rows colors chars-per-pixel */
"128 128 19 1 ",
"  c #070707",
". c #0C0B0A",
"X c #140E0E",
"o c #151211",
"O c #1B1916",
"+ c #1D191B",
"@ c #241F1C",
"# c #23201D",
"$ c #241F21",
"% c #272325",
"& c #2E2A25",
"* c #2A2628",
"= c #342823",
"- c #3C2F2C",
"; c #3C3129",
": c #322E30",
"> c #454135",
", c #454238",
"< c #555145",
/* pixels */
"$$$$******************%%%%%%%%%%$$$$**%%%%%%%%%%%%%%%%********$$$$$$******************%%%%%%%%%%$$$$**%%%%%%%%%%%%%%%%********$$",
"$$$$******************%%%%%%%%%%$$$$**%%%%%%%%%%%%%%%%********$$$$$$******************%%%%%%%%%%$$$$**%%%%%%%%%%%%%%%%********$$",
"$$%%**%%************%%%%%%%%%%%%$$**********%%%%%%**************$$%%**%%************%%%%%%%%%%%%$$**********%%%%%%**************",
"$$%%**%%************%%%%%%%%%%%%$$**********%%%%%%**************$$%%**%%************%%%%%%%%%%%%$$**********%%%%%%**************",
"$$****%%%%********************%%$$**********%%%%%%**************$$****%%%%********************%%$$**********%%%%%%**************",
"$$****%%%%********************%%$$**********%%%%%%**************$$****%%%%********************%%$$**********%%%%%%**************",
"$$******%%%%******************%%$$************%%%%%%************$$******%%%%******************%%$$************%%%%%%************",
"$$******%%%%******************%%$$************%%%%%%************$$******%%%%******************%%$$************%%%%%%************",
"$$****%%%%******************%%%%$$****************%%************$$****%%%%******************%%%%$$****************%%************",
"$$****%%%%******************%%%%$$****************%%************$$****%%%%******************%%%%$$****************%%************",
"$$******************************$$******************************$$******************************$$******************************",
"$$******************************$$******************************$$******************************$$******************************",
"++******************************++::**%%************************++******************************++::**%%************************",
"++******************************++::**%%************************++******************************++::**%%************************",
"++**************%%**************++::**%%%%**********************++**************%%**************++::**%%%%**********************",
"++**************%%**************++::**%%%%**********************++**************%%**************++::**%%%%**********************",
"++************%%%%**************++::**%%%%%%******************::++************%%%%**************++::**%%%%%%******************::",
"++************%%%%**************++::**%%%%%%******************::++************%%%%**************++::**%%%%%%******************::",
"++::********%%%%****************++::****%%**********%%********::++::********%%%%****************++::****%%**********%%********::",
"++::********%%%%****************++::****%%**********%%********::++::********%%%%****************++::****%%**********%%********::",
"++::******%%%%******%%%%%%******++::**************%%%%%%******::++::******%%%%******%%%%%%******++::**************%%%%%%******::",
"++::******%%%%******%%%%%%******++::**************%%%%%%******::++::******%%%%******%%%%%%******++::**************%%%%%%******::",
"++::******************%%%%%%****++::************%%%%%%********::++::******************%%%%%%****++::************%%%%%%********::",
"++::******************%%%%%%****++::************%%%%%%********::++::******************%%%%%%****++::************%%%%%%********::",
"++::********************%%%%**::++::**************************::++::********************%%%%**::++::**************************::",
"++::********************%%%%**::++::**************************::++::********************%%%%**::++::**************************::",
"++::::************************::++::::::::********************::++::::************************::++::::::::********************::",
"++::::************************::++::::::::********************::++::::************************::++::::::::********************::",
"++$$$$::::::::::::::::::::::::::++%%%%%%%%::::::::::::::::::::::++$$$$::::::::::::::::::::::::::++%%%%%%%%::::::::::::::::::::::",
"++$$$$::::::::::::::::::::::::::++%%%%%%%%::::::::::::::::::::::++$$$$::::::::::::::::::::::::::++%%%%%%%%::::::::::::::::::::::",
"++++++++++++++++++++++++$$$$$$$$$$$$$$################################################OOOOOOOOOO$$$$$$$$$$$$$$++++++++++++++++++",
"++++++++++++++++++++++++$$$$$$$$$$$$$$################################################OOOOOOOOOO$$$$$$$$$$$$$$++++++++++++++++++",
"++%%%%%%%%%%******************$$++$$**OO<<&&&&&&&&&&##&&;;&&&&&&&&&&&&&&##;;;;&&&&&&&&&&&&&&<<OO++$$**%%%%%%********************",
"++%%%%%%%%%%******************$$++$$**OO<<&&&&&&&&&&##&&;;&&&&&&&&&&&&&&##;;;;&&&&&&&&&&&&&&<<OO++$$**%%%%%%********************",
"++%%%%******************%%%%%%**++**%%OO<<;;;;;;;;;;##;;;;;;;&&;;;;;;;;;##;;;;;;;&&;;;;;;;&&<<OO++**%%%%%%%%**************%%%%**",
"++%%%%******************%%%%%%**++**%%OO<<;;;;;;;;;;##;;;;;;;&&;;;;;;;;;##;;;;;;;&&;;;;;;;&&<<OO++**%%%%%%%%**************%%%%**",
"++%%%%****************%%%%%%%%**$$****OO<<<<<<<<<<<<OO<<<<<<<<<<>>>>>>>>##>>>>>>>>>>>>;;;;;;<<OO$$**********************%%%%%%%%",
"++%%%%****************%%%%%%%%**$$****OO<<<<<<<<<<<<OO<<<<<<<<<<>>>>>>>>##>>>>>>>>>>>>;;;;;;<<OO$$**********************%%%%%%%%",
"++%%******************%%%%%%**::$$****OO&&&&&&&&&&&&OO&&&&&&&&&&&&&&&&&&OO&&&&&&&&&&&&&&&&;;<<OO$$**************************%%%%",
"++%%******************%%%%%%**::$$****OO&&&&&&&&&&&&OO&&&&&&&&&&&&&&&&&&OO&&&&&&&&&&&&&&&&;;<<OO$$**************************%%%%",
"$$********************%%******::$$****OO&&&&&&##&&&&OO&&&&&&&&&&##&&&&&&OO&&&&&&&&&&&&&&&&;;<<OO$$******************************",
"$$********************%%******::$$****OO&&&&&&##&&&&OO&&&&&&&&&&##&&&&&&OO&&&&&&&&&&&&&&&&;;<<OO$$******************************",
"$$****************************::$$****OO############OO##################OO############&&;;;;<<OO$$****%%%%%%********************",
"$$****************************::$$****OO############OO##################OO############&&;;;;<<OO$$****%%%%%%********************",
"$$****************************::++**%%OOOOOOOOOOOOOOOOOOOOOOOOOOOOOOOOOOOOOOOOOOOOOOOO&&;;;;<<OO++**%%%%%%**********************",
"$$****************************::++**%%OOOOOOOOOOOOOOOOOOOOOOOOOOOOOOOOOOOOOOOOOOOOOOOO&&;;;;<<OO++**%%%%%%**********************",
"$$****%%**********************::++**%%oooooooooo@@@@@@================================&&;;;;<<OO++**%%%%************************",
"$$****%%**********************::++**%%oooooooooo@@@@@@================================&&;;;;<<OO++**%%%%************************",
"$$::****%%********************::++********::::$$@@====--------------------==----------&&;;&&<<OO++************************%%%%**",
"$$::****%%********************::++********::::$$@@====--------------------==----------&&;;&&<<OO++************************%%%%**",
"++::****************%%%%%%****::++**********::$$@@@@....--==  ....====....--==oooo--==&&;;&&<<OO++************************%%****",
"++::****************%%%%%%****::++**********::$$@@@@....--==  ....====....--==oooo--==&&;;&&<<OO++************************%%****",
"++::****************%%%%%%****::++::********::$$--,,====----==----========----==,,----&&&&&&<<OO++::********%%%%********%%%%****",
"++::****************%%%%%%****::++::********::$$--,,====----==----========----==,,----&&&&&&<<OO++::********%%%%********%%%%****",
"++::******************%%%%%%**::++::******%%**++--OOOOOO====      ,,==  ..----    ,,==&&&&&&<<OO++::******%%**%%****************",
"++::******************%%%%%%**::++::******%%**++--OOOOOO====      ,,==  ..----    ,,==&&&&&&<<OO++::******%%**%%****************",
"++::**************************::$$::****%%%%%%++==OO##OO==--      ,,==    --==....==--&&&&&&<<OO$$::****%%%%%%****************::",
"++::**************************::$$::****%%%%%%++==OO##OO==--      ,,==    --==....==--&&&&&&<<OO$$::****%%%%%%****************::",
"++::************::::::::::::::::$$::**********++==OO##OO==--      ====    --==....==--&&;;;;<<OO$$::**************************::",
"++::************::::::::::::::::$$::**********++==OO##OO==--      ====    --==....==--&&;;;;<<OO$$::**************************::",
"++::::::::::::::%%%%%%%%%%%%%%%%$$$$::::::::::++==##==--==------==============..--==--&&;;;;<<OO$$$$::::::::::::::::::::::::::**",
"++::::::::::::::%%%%%%%%%%%%%%%%$$$$::::::::::++==##==--==------==============..--==--&&;;;;<<OO$$$$::::::::::::::::::::::::::**",
"++++++++++++++++++++++++$$$$$$$$$$$$$$$$$$++++++====,,,,----==,,,,,,====,,======,,----&&;;;;<<OO$$$$$$$$$$++++++++++++++++++++++",
"++++++++++++++++++++++++$$$$$$$$$$$$$$$$$$++++++====,,,,----==,,,,,,====,,======,,----&&;;;;<<OO$$$$$$$$$$++++++++++++++++++++++",
"$$$$******************%%%%%%%%%%$$$$**%%%:::::++==####OO====OOOOOO====..XX====XX  ====&&;;;;<<OO$$$$**%%%%%%%%%%%%%%%%********$$",
"$$$$******************%%%%%%%%%%$$$$**%%%:::::++==####OO====OOOOOO====..XX====XX  ====&&;;;;<<OO$$$$**%%%%%%%%%%%%%%%%********$$",
"$$%%**%%************%%%%%%%%%%%%$$**********::++==####OO====OOOOOO====..XX====XX  ====&&;;;;<<OO$$**********%%%%%%**************",
"$$%%**%%************%%%%%%%%%%%%$$**********::++==####OO====OOOOOO====..XX====XX  ====&&;;;;<<OO$$**********%%%%%%**************",
"$$****%%%%********************%%$$**********%%++==##OOOO====##OOOO====  OO====XX  ====&&&&;;<<OO$$**********%%%%%%**************",
"$$****%%%%********************%%$$**********%%++==##OOOO====##OOOO====  OO====XX  ====&&&&;;<<OO$$**********%%%%%%**************",
"$$******%%%%******************%%$$************++========--====,,,,,,==----==,,====--==&&&&;;<<OO$$************%%%%%%************",
"$$******%%%%******************%%$$************$$========--====,,,,,,==----==,,====--==&&&&;;<<OO$$************%%%%%%************",
"$$****%%%%******************%%%%$$************$$====------------==========,,,,==------&&&&&&<<OO$$****************%%************",
"$$****%%%%******************%%%%$$************$$====------------==========,,,,==------&&&&&&<<OO$$****************%%************",
"$$******************************$$************$$==##OOOO==,,OOOOOO======OO====XX  ====&&&&&&<<OO$$******************************",
"$$******************************$$************$$==##OOOO==,,OOOOOO======OO====XX  ====&&&&&&<<OO$$******************************",
"++******************************++::**%%******$$==##OOOO==,,OOOOOO====  OO====XX  ,,==&&&&;;<<OO++::**%%************************",
"++******************************++::**%%******$$==##OOOO==,,OOOOOO====  OO====XX  ,,==&&&&;;<<OO++::**%%************************",
"++**************%%**************++::**%%%%****$$==##OOOO====XXOOOO====  OO====XX  ====&&&&;;<<OO++::**%%%%**********************",
"++**************%%**************++::**%%%%****$$==##OOOO====XXOOOO====  OO====XX  ====&&&&;;<<OO++::**%%%%**********************",
"++************%%%%**************++::********::++======--------======----========------&&&&;;<<OO++::**%%%%%%******************::",
"++************%%%%**************++::********::++======--------======----========------&&&&;;<<OO++::**%%%%%%******************::",
"++::********%%%%****************++::**OO##############################################&&&&;;<<OO++::****%%**********%%********::",
"++::********%%%%****************++::**OO##############################################&&&&;;<<OO++::****%%**********%%********::",
"++::******%%%%******%%%%%%******++::**OO&&&&&&&&&&&&##&&&&&&&&&&&&&&&&&&##&&&&&&&&&&&&&&&&;;<<OO++::**************%%%%%%******::",
"++::******%%%%******%%%%%%******++::**OO&&&&&&&&&&&&##&&&&&&&&&&&&&&&&&&##&&&&&&&&&&&&&&&&;;<<OO++::**************%%%%%%******::",
"++::******************%%%%%%****++::**OO&;;;;;;;;;;;##&&;;;;&&&&;;;;;;;;##;;;;&&&&&&;;&&&&;;<<OO++::************%%%%%%********::",
"++::******************%%%%%%****++::**OO&;;;;;;;;;;;##&&;;;;&&&&;;;;;;;;##;;;;&&&&&&;;&&&&;;<<OO++::************%%%%%%********::",
"++::********************%%%%**::++::**OO<<<<<<<<<<<<OO<<<<<<<<<<>>>>>>>>##>>>><<<<<<>><<<<<<<<OO++::**************************::",
"++::********************%%%%**::++::**OO<<<<<<<<<<<<OO<<<<<<<<<<>>>>>>>>##>>>><<<<<<>><<<<<<<<OO++::**************************::",
"++::::************************::++::::OO&&&&&&&&&&&&OO&&&&&&&&&&&&&&&&&&OO&&&&&&&&&&&&&&&&&&##OO++::::::::********************::",
"++::::************************::++::::OO&&&&&&&&&&&&OO&&&&&&&&&&&&&&&&&&OO&&&&&&&&&&&&&&&&&&##OO++::::::::********************::",
"++$$$$::::::::::::::::::::::::::++%%%%OO&&&&&&##&&&&OO&&&&&&&&&&##&&&&&&OO&&&&&&&&&&&&&&&&&&##OO++%%%%%%%%::::::::::::::::::::::",
"++$$$$::::::::::::::::::::::::::++%%%%OO&&&&&&##&&&&OO&&&&&&&&&&##&&&&&&OO&&&&&&&&&&&&&&&&&&##OO++%%%%%%%%::::::::::::::::::::::",
"++++++++++++++++++++++++$$$$$$$$$$$$$$OO############OO##################OO####################OO$$$$$$$$$$$$$$++++++++++++++++++",
"++++++++++++++++++++++++$$$$$$$$$$$$$$OO############OO##################OO####################OO$$$$$$$$$$$$$$++++++++++++++++++",
"++%%%%%%%%%%******************$$++$$**OOOOOOOOOOOOOOOOOOOOOOOOOOOOOOOOOOOOOOOOOOOOOOOOOOOOOOOOOO++$$**%%%%%%********************",
"++%%%%%%%%%%******************$$++$$**OOOOOOOOOOOOOOOOOOOOOOOOOOOOOOOOOOOOOOOOOOOOOOOOOOOOOOOOOO++$$**%%%%%%********************",
"++%%%%******************%%%%%%**++**%%%%%%%%**************%%%%**++%%%%******************%%%%%%**++**%%%%%%%%**************%%%%**",
"++%%%%******************%%%%%%**++**%%%%%%%%**************%%%%**++%%%%******************%%%%%%**++**%%%%%%%%**************%%%%**",
"++%%%%****************%%%%%%%%**$$**********************%%%%%%%%++%%%%****************%%%%%%%%**$$**********************%%%%%%%%",
"++%%%%****************%%%%%%%%**$$**********************%%%%%%%%++%%%%****************%%%%%%%%**$$**********************%%%%%%%%",
"++%%******************%%%%%%**::$$**************************%%%%++%%******************%%%%%%**::$$**************************%%%%",
"++%%******************%%%%%%**::$$**************************%%%%++%%******************%%%%%%**::$$**************************%%%%",
"$$********************%%******::$$******************************$$********************%%******::$$******************************",
"$$********************%%******::$$******************************$$********************%%******::$$******************************",
"$$****************************::$$****%%%%%%********************$$****************************::$$****%%%%%%********************",
"$$****************************::$$****%%%%%%********************$$****************************::$$****%%%%%%********************",
"$$****************************::++**%%%%%%**********************$$****************************::++**%%%%%%**********************",
"$$****************************::++**%%%%%%**********************$$****************************::++**%%%%%%**********************",
"$$****%%**********************::++**%%%%************************$$****%%**********************::++**%%%%************************",
"$$****%%**********************::++**%%%%************************$$****%%**********************::++**%%%%************************",
"$$::****%%********************::++************************%%%%**$$::****%%********************::++************************%%%%**",
"$$::****%%********************::++************************%%%%**$$::****%%********************::++************************%%%%**",
"++::****************%%%%%%****::++************************%%****++::****************%%%%%%****::++************************%%****",
"++::****************%%%%%%****::++************************%%****++::****************%%%%%%****::++************************%%****",
"++::****************%%%%%%****::++::********%%%%********%%%%****++::****************%%%%%%****::++::********%%%%********%%%%****",
"++::****************%%%%%%****::++::********%%%%********%%%%****++::****************%%%%%%****::++::********%%%%********%%%%****",
"++::******************%%%%%%**::++::******%%**%%****************++::******************%%%%%%**::++::******%%**%%****************",
"++::******************%%%%%%**::++::******%%**%%****************++::******************%%%%%%**::++::******%%**%%****************",
"++::**************************::$$::****%%%%%%****************::++::**************************::$$::****%%%%%%****************::",
"++::**************************::$$::****%%%%%%****************::++::**************************::$$::****%%%%%%****************::",
"++::************::::::::::::::::$$::**************************::++::************::::::::::::::::$$::**************************::",
"++::************::::::::::::::::$$::**************************::++::************::::::::::::::::$$::**************************::",
"++::::::::::::::%%%%%%%%%%%%%%%%$$$$::::::::::::::::::::::::::**++::::::::::::::%%%%%%%%%%%%%%%%$$$$::::::::::::::::::::::::::**",
"++::::::::::::::%%%%%%%%%%%%%%%%$$$$::::::::::::::::::::::::::**++::::::::::::::%%%%%%%%%%%%%%%%$$$$::::::::::::::::::::::::::**",
"++++++++++++++++++++++++$$$$$$$$$$$$$$$$$$++++++++++++++++++++++++++++++++++++++++++++++$$$$$$$$$$$$$$$$$$++++++++++++++++++++++",
"++++++++++++++++++++++++$$$$$$$$$$$$$$$$$$++++++++++++++++++++++++++++++++++++++++++++++$$$$$$$$$$$$$$$$$$++++++++++++++++++++++"
};
